<mxfile host="app.diagrams.net" modified="2024-03-11T19:01:11.484Z" agent="Mozilla/5.0 (Windows NT 10.0; Win64; x64) AppleWebKit/537.36 (KHTML, like Gecko) Chrome/122.0.0.0 Safari/537.36" etag="ItSyiGl9XUzBFt_Ijb_L" version="24.0.4" type="device" pages="2">
  <diagram name="Page-1" id="CiWadnZ3JdhQxavft3SX">
    <mxGraphModel dx="2650" dy="-231" grid="1" gridSize="10" guides="1" tooltips="1" connect="1" arrows="1" fold="1" page="1" pageScale="1" pageWidth="850" pageHeight="1100" math="0" shadow="0">
      <root>
        <mxCell id="0" />
        <mxCell id="1" parent="0" />
        <mxCell id="beyWk9RbX9cDXpkhxu_A-44" style="edgeStyle=orthogonalEdgeStyle;rounded=0;orthogonalLoop=1;jettySize=auto;html=1;strokeWidth=3;" parent="1" source="beyWk9RbX9cDXpkhxu_A-40" target="beyWk9RbX9cDXpkhxu_A-43" edge="1">
          <mxGeometry relative="1" as="geometry" />
        </mxCell>
        <mxCell id="beyWk9RbX9cDXpkhxu_A-40" value="Adobe illustrator.exe" style="shape=image;verticalLabelPosition=bottom;labelBackgroundColor=default;verticalAlign=top;aspect=fixed;imageAspect=0;image=data:image/x-icon,AAABAAEAAAAAAAEAIADfHAAAFgAAAIlQTkcNChoKAAAADUlIRFIAAAEAAAABAAgGAAAAXHKoZgAAHKZJREFUeNrtnVlsHdd5x39zL3eK1ELJ2ved1GLtkp0gTRwg6WKjKIwm6UuD5CFpmq1wiz40fanz0AZ5MJIUTYo06IKiSRxksYvESes4tePEi2jJlizLEmUt1i5KoiSK6+VMH7655BVFSSTnzNyZy/8PGNzLbTj3nPP9z/ed5TsghBBCCCGEEEIIIYQQQgghhBBCCCGEEEIIIYQQQgghhBBCiHTjqQhG2AJUAf4k/jZQYSbGZMs6BxSAfSrCqSMAWyf4IcPG5QH5sM0U3xe/Lr28e1xTqqxjsPPRX9/t8kddQ+FV/NlQAMF4K8EL/+g1CUA2WAXMZOze27NWUA00AM3AjPBqCf9seng1A43h7zUAdUAtUIP9fR5zEoqC4I0SgtwY3yt9DInA+I0/GONrf9Rr6fuiwRfC10GgHxgA+oCe8LoJXAeuAV3hdTl8vRb+7GYAg2NVVg64CnRIAMrPtrFbjueZcS8AVgArQ31YAswF5gBNQH1o3FWytylNIRSKXqAb6ATOAe+Gdt4BHAfOhCIx2jOhXQKQHNvHqgHrudeEP94FbAQWY0JQozYuIjAYGv4p4CDwSngdwbyFYQKyFzJkRgC2Ye5XiYtfD2wGPgw8BLQCs9ReRQJcAd4CngWeAV7HwgtqsZhjrwTADdsxHy0/8q05odF/DNiNxfBClIsu4CXgu8DPgIswMlOR9vAgtQJw/61GDzZg9yjwSUZm7IRIC0PYDON3gCexsYRh0ioEqRSAUYN79cDDwOexHj+vtiZSjA+8DHwN+Ak2uJhaEUiVAGzB4vwStgN/BTyCTckJkRX6gKeBrzBqSCBNQpCa3nT7rcbfDHwWeALYg9x9kT2qgDbg90M7exPoD7D56XMSgBFGufwbMffpz7FpPCGyTDM2S9UGHPLgAikSgbILQNH4PXMAHgW+CTzIbdGAEJnFA9YCHwTOe3AYCNIgAmUTgG2YCoY0AI9h8dICtRdRobQAH2JkhnBwAeX1BsoiAFu4ZfRxFvD3wF9iI/5CVDK1wPuw9SwvEc4SlEsEEheAbbca/3zgG8DHkcsvpg45bNx7GfAitgeBxdiGg4oVgFGDfYuAfwL+SO1BTFHasD0sLwDXg1ARTleqAJQE9/ND439EbUBMcdYCq4FfAd1DJBsKJCYAJb3/LMztV88vxIgILAZ+CfQmOR6QiACUGH8D8A/An6rOhbiFNmzNwHPA4PyERCB2ARg1z/9YeGnAT4jb2QL0BfCil9A6gVgF4P5bLf1RbJ5fU31CjE0O2OFZFqJDATAPOJ9VAVg48nYTtsJPi3yEuDu1WKKb5z244BGvFxCbAJTE/c3Y2v4HVbdCjIsWrLP8KdAfZygQiwBsDG8cZkX5HLaxRxlxhRg/q7HUY78Fy2YbRygQy2BcMQunZ6udvoAG/YSYKHngi5gNxeaqO7/v9pG39cBXsf38QoiJ04zlvPxvoBBHKOC8Zy7J2vsIlspLCDF5Hg5taax0+OkSgJKNPrOxHH5K4yVENOpCW5rtMfZhOKkRgJLe/1HsgA4hRHR2hTblHGcCUJLQcw7wCZS9VwhX5EObmgN24G3qBKDE2n831AMhhDu2hLbl1G13dq9wgKIB+CjK4iuEa6qAjwD1LgcDnQhAycDEZjTtJ0Rc7AltzNlgoBMBKFGkD6FU3kLExUzsXExnU4JOBCCc+ivmPxdCxMdDQJOrdfWRBWDVyNs12BHdQoj4aA1trdT2yicAJWdz78DSfQkh4mNWaGtOYu3IAuADgUUBWvgjRDLs8sHz0yAAAJ6J0QbVixCJsCEHM1yMA7haB7AQy2oqhIifJTjKruVKAJZzy3CAECJGZoQ2V14BKFmTvBKoVr0IkQg1hJMA28spADmGFySsVp0IkSirAqIvCIokAGHOv2osJhFCJMeSHFRHHQh0MQbQiOUsFEIkx7wAGsrqAYQ0YxmAhBDJMTu0vbILwAygSfUhRKI04WAxoCsB0HFfQiRLfVoEYBZ2nJEQIjlqsBOEyi4AM1EGICGSppqUeADTVRdClIXItudqDEAIkTyRbW/SArB75K1mAIQoD00QLU34pAWgn+FUYI2qByHKQmNAtAM4chH/0MNSgQshyiAAuYiJQaLuBchLAESSFDfA+CXvpzANQcQTuKJO3+XQAaAiAaP3CXubWmisg3wO/AAGBqGnH/oL9ns5hkPTqUAtETvxqALgoUVAIkbDD4CZjbBlDexaD6sWwqwmqK6CId+M/+JVePsUvHIY3jwBvQMxnHufXgGIpHdRBSCPrUgSwrnx11bB+7fARz4A65dCdU3JD4t4sHYpvPd++NgH4dXD8J//A/uODm9Xr2RqKLMHkEeZgIRjfKClCT71MDz8INTWht/076AUIY318DtbYdMK+Oen4UcvQMGvaBGoplxjAJ6VfQ4dAy4cEgCzm+Gv/wQe2laiCOP94wBmTYcvPGpjBD98vqKLqyqq/U3afQhG/l77AIQz46+thk8/Ehr/ZIf5A6ivg089AltWj18/MkgeB2n9ov69PADhTAA+sBX+YI+bm7XMgI9/GKbVVex0YZUEIKP4wFDMV5Z6vuJo/0feDzW1uLFYH3ass6tCvYDIHoCLacApNO3qqNZysGk5zJkeb890thPefheCDHR/PrB1DaxbglNrrak1r+KFN8CvPBWIbH8uBGCKTLm6a+hLZsPjn4D5s+MzTg843Ql/8XU4fiH9lZQHdq4Pp/ocG+qGZdDSDBe7Kq63irzuSR5AwgTYdFVzI+RKDlaIgyX3mfv7zoX0l0lDrS3yiePms6fD3Jlwvqvi4tXI9pdz8ADyACZIdd7CgNhHpnLwwAaoz8A8TUOdrfCLQwBqa2BWc/rLIKsCIA9gEo29KgmjDGDDclg6L/2DYFU5W94bhyh6HtRU5mR15BBAAlAGZkyDqiR80cB6vh3rsjENFmT03mVEIUAWuW9mGP8nQRgGNNak2wgGh2xnXxzdie9Db39FNiV5AFkjDyy+j+RkM7CNNCvmp1sAevrg8vUYbuzZjsHL1yqyoZbdA0ACMCFbpLEOViwgOWsMYPo02NWa7lbcOwAdZ+K5+fkrcP5qxQpAJOS+JywAi+bA0rkk2x17sKct3UtifWDvYRgccH/vfUfgWrd6qjgEQCHABAVg40obBEzUEgNYsxhWL0zvbEAO2N8BR07jrlvy4EY3PPuaLY0W7gVATIDavK12S7zUA5jWCLvb0qvWHnClG370PAwNurvpc/vgwDvasCIBKDM+5v5vXE7Z/PDdrTC9Ib1hgAf8Yi/8aj9OtqmdOAv/8QsYqNzuPxWDgGIcBMC2tTBnRpkEwIeVC2Ht4vSGAR7Q3Qf/+GN481iE1pmDS1fhiSfh2Dk1cglACqirggfaylviDfW2JiDNlZ4DTlyAv/t3eOUQE+vjwlUpx96Fx/8NXjigBn4vlM0nAXxs7r+tjO5/kZ3rYeY0uJriUfEccPQMfOnb8Mfvh4f3wNyWEiEIxjD8AK5ch2fb4b/+F05clPEnJQCaBbgHAbB9re1KK6sA+LB8PrQugxcOpntgLIctDPrmT+Dnr8B7N1m+gEVzbC2F59lW6p5+y3uwvwNePGCzCAVfxp+kAIh7UF9t8/DkiBaAe9EFpLbWwoDfHEx/uRV7lmPn7Prus9DUYJupcrmRJb7Xe6BvcEQ4ppDxR+58JQAx42P78tuWRTPe3n4YLECzgzUEO9ZCy3TozMjy2KJBDxSg8zoE12+1AG1IiV62IiYCYPu6cD/6ZA03B4dOwvOvE91ifVgy16Yjs5ghq2jsxUvxpwQg1TRUuxn9b38bfn0QhgrRn6m6Bh7cCFWyHgmAiiA+fCwZx/qlRHLb+/tg/1E4fNJGuiN3e4ENqN03Y8qfrisBUBHER4Al45gZ0f0/0wnHztohmMfOuBGARbNh86qKPjRDSADKa/yNNeHof0SDPXgcrtyAvgK8fszN8+Wr4cENUJ3CFhA4vMTd0SxAjI142bwwz32ElugPwWtHoBDeY38H9PVBXU30B9yyGubPgnc709MT1FTBtAY3g3sB0N0bZhoSEoCkBWDnepjRFEEAPLhyDQ6eGJnuOnYWzlyClYuJ5r8HMK/FROBUZzrKrLoKPvOH8J5Nbs5L8Dxb7/CNH9oUopAAJGb802pt912kxTuerWw7V9JDX71hgrBycfTnzOVtNuCZV6AwlIIyq7fnWbYQN/67BzkP/u0ZWz+gSY8x2oCKIJ7GvHx+dPefwLLZ9JS4sIXwe/6QmwfdtBIWzk7HYKBXutbfd3SV3ldIAJJi5/qIq/Y86Om1mH/Ut3nzhLvpwPtm2DZlDZhJAIQDiu7/ntaIBurByQvwztlbKymHbX458i5OfFovb7MBdQoGJQAiOj6WeGPNYiJ3q68fg66bt9t5z6DNDDjptgPYsMISlWpNgARARMTD3P+mxmgGWhi05b93Msp9HXCzFydhQEuGTg8SEoDUEgBNdSWj/5MlzGX/1smxb5MDjp+Dk+dxM7Qdnh7UkPLTg4QEINX42BHXqxcRzZI8G+i71DV2BXnAtZvweoejBw9PD1o+TwIgARBR7JZdrbaSLZIl+XZIxoB/11/h1bcdHaQR2IKlNJ8eJCQAqSYAmutDI4ro/l+5brnsvXtU3OFTcO4ybsKA4ulBtfICJABiwviY678q6io2zxJinr50d7v2gM4uOHAcZwvn1y6259dsgARATNxu2d0KjVHd/8Cm+HoG7m3Xg4GFCoGjVYFNKT89SEgAUkmAnbizc330e/X02lLf8WiIh4UKnddwFgbsbrVQRmGABECMEx9b+LNyIdH85xycumg7/nLj+3XOdtpYgKswYFXKTw8SEoBUFuLuVjt5Jyr7O8Ze/Xcnegvw6mGcrQpsaIA9KT89SEgAUkMATG904/4XBmHv2xPrfT0sX+D1bpwF77vW2xHmCgMkAOIe+JjLvGI+kQ/9OHfZEn96E/szTlywsMGJAISnB61fqjBAAiDGVYB72qA+qvvvwaETd179dzcB6O6zfQOuqKuzHYJpPjpMSADKToAdtLlznYN7DdnKvgF/cs/RfgR6e919th3rbJOQwgAJgLgDPpb1Z5kD9//KDThwbHJefA44etpmEJzUaHh6UFtGTw8SEoDECm9Pm7nMkfDMgE9PMjuvB3R13549KAo1NRYGKE+IBECMQQDMajJX2cXN2t+G3ggbe4awVYGFQXcfcNtamDNTYYAEQNyGj42UL51HZPf/Zi/sOxrN0HLYAaLONgcFsGgObFqhMEACIG4jj7n/tbURb1TM/XcuWmV42AzCQVebg4CqakvTXa3NARIAMUKAHfe9Y62b+73RYQk+otrZoG+rAoMhdx9062o7QERegARAhPhA2zIbKY9qGYVB2HvEjYEVNwdddpEyPBSA+S1w/yqNA0gAxDBF97/Ggft//srEV//drTLPdMLbjlKGA+Sq4D0boUYtRQIgrCecPd1GyCMzydV/d6M3zCbsrMsOYPNKWDhHYYAEQJj7vxyW3Ed0i/DNWAccW9b+o9Ddg7Mw4L6ZsG2NwgAJgCAPPNAG1VGP5/bsoM833nGbgScHHD8PJ1ylDEenB0kABGA94JwZsHWNC6uCjjNw+qJbAfCA6z0OU4aHH3zDCvN6FAZIAKYsPrBxOSx24f4HtvinZ8COsPYcXsXNQQMDjj54YOMe23V6UMUhp24iheVZtpyq6ugCEAS2jHhBi/vjqwOgOWpy0tHkLAz48QvQP4iQAEwtAmDujND9d2BYHrBlLWxZF+MD+27v17rMdj6+dUquY6WgehwnPrBxBSycjbue1cd28cRxuQ7Wi6cHrVcYIAGYglR5doBmVfUULgSdHiQBmIr4wNyZsGU1U7vlB5YAZeUCzQZIAKZWu2fzSljg0v3PaEHo9CAJwJSjOnT/8xoytTBApwdJAKYKPrYd9v5VqMVjZbBqEaxZpDBAAjA12jubV9q2WAmAlUFjgw0GqvFIACqempy5/zm5/7ewqxVmNEoTJQAVjI/1/Jvl/t9WMCsWwDqdHiQBqGQCLPafN0sCMJq6OtsVqQYkAahYht1/nZE1JjvXQ0uTtFECUIH42Lz/ppWohd+hgJbq9CAJQKUSYCv/5s6UANyJmlodIioBqFBqwyw4nlr3Xdm21pKkSCMlABWDjyXB3LgCtex7FNTi+3R6kASgwgiwAzHmzJAA3Ivi6UFV2hyQzfpTEdxOXZWN/nt53J3YkRYDCXAraoElSZk3C85cVo8iAcg4PnYo5obljgzFg2vdcORd8MvsJwfYoOby+W5vWjw96PRltR8JQMYJsBz4ztx/D55th69+j7KHE0O+zd1/5dNQX+vuvvkqCwN+8ar9DyEByCxF958cTtz/wiC8fAh6Bstf2AHw5gk4fg5aV+Bu5C4wD2DBbDh5UWFAllBdleBjue/bluGs9z932YwuDQXtYacQv/KW4xsHFlps1elBEoAsE2Dz2i3T3QnAweNwsSs9Be0DLx2C3l639x0+PUjrJpJusmUXgIoR/frqEvffhbENwctvwWCK4uIcNiD5zlncqlIAG1faugANA2QHeQBFY8XWtrcuw1nv39kFB46lK3+eB3T1xBMGzNHpQRKArBIA29fCrCZ3AnDoJJxN4dx4gIUBPY7DAMLdk/VTOXW6BCCbNFTbsV/OSsS3XravkM5KP3Iajp3BeRjQtgyWzVMYIAHIED7WaNcvxVnvf/UG7O9IZ/psD7gWUxgws9nWGigMSITI6zolAGEJ7lgHMx26/0dOw6kL6c2fHxCuT+jB+fnkD+j0oMwQVQBcrywviyE01liWW2eGEMDew3b0d1oFoBgGdJxxLADh6UErdHrQlBCAzBNga+PXLcFZ79/dA+1H0q2MHnC9N54woHka7F6v04OmigBk3tPbuQ6mO3T/3zlrV9rVNQBeegtuxhAG7GmDpjqFAQlUYVkFINMhQAA01tpZdy4NoP2I9a5p7wFzQEdMYcDqxXYpDIi9CZd1EDAgw3XsY7Hq2sU4k7G+Pnj1cDZUsRgGvHwI5zkCGhvsDEGFAbE34bILQGY9AA9z/5unOfoUORv5P3o6O4MrAbZcudt1GADs1ulBSVSfBGCyDz6tzr37v++orQHISs+Xw0IA52FA8fSgJQoDYiQVHkAm69cHVi6wU25dSdjgALxyGIYyVA4ecCOOMACor9fpQTEjDyBKw9+1HpoacTb6f/YyvHUyew0+zjBg53rbX6EwoHIFIHMeQIBNUe1uddjgPXjjGFzqyt7AVw7bF3D0NM7DgKXzbH+AwoBY0CDgZEtt1SK7XD29X7BFNYUMdnUecKPPdgi6rs3aWtshqDwhsVB2D8AnWyHvcIPf3QrTHLr/F7vgwDvZnfYKMAG7cRPnH2L7uvGdHqQpwwkzRETnKmqeykwKQHU+HPzLO2p1Hux9G85dye6AVzEMOHwKdmzAqSeweI4lWznfdXdPYLAAfQPhwziql/5BKGSuhY6bQtkEIKwfP7CHyBRDQ/DTl2z0O2o78zzovAY/fN4aWlZ7MQ+42Q/fegrOXILqajci4HmWiPT0pbuLowfc6IF//Rm8dxN4OQf/37PZjWs3K9a7iOwBTLpcttlLE/BzYE/WSi4IP7znoGX4QcTCTBE+YQfs8MMEwUh5J/r/A7tfBYcWvwE+BHS3T/IGUUOAIWAwiyXnlTROV/eqBHIOy2UyZeT6/1f4uMIgEUPwqCHrEDBQ2WUsRGoZIGII4GIasF/1IERZ6Kec04BhiNWnehCibAJQHg8gXIEwBPSoHoQoCz1eucYAfKDKdEACIER5uOlDEMWNn/Tf1jLse9xUPQhRHgHwiBYDTFoAXh55e131IERZuAHQHuEGLlauXlM9CFEWuqLeIJeGhxBCTJgAB52vKwHI3H4AITJOgZR4AJfRYiAhkmYgtL2yC0AX0Fvu0hBiitFDSjyAa4SjkUKIxOhOiwBcBzpVH0IkSicOpuCrHDzITeCC6kOIRDnvOViF60IABoFTqg8hEuVU4CAXR9TdgEWOqj6ESJQOiJ7wJJIAvDby9hhKDCJEUgwUBWBvOQWghONoRaAQSdEV2lxkXAnAGeBd1YsQiXAKOJsKAQjPBusCDqhehEiEg54jjzvn4ga58GAZ1YsQifByAIGLjMeRBaBr5O2rwBXVjRCxciW0NSfr7yMLQMfI2yPAIdWPELHyZmhrvJkGAYDhucjrwLOqHyFi5VnghqsDT1yfZfkMcFV1JEQsXMWO4nN2dqsTAShZjPA68JLqSYhY+G1oY5HyADoXABgOA3qB76IMQUK4phDaltPcG84EoCQ18c+AfaovIZyyDwuxneJMAF5j2Au4BPwLEU8sEUIMMwR8B7hUwJ3771QA4JaBiR+gsQAhXPES8CS42b8fmwC0M+wFXAa+jg4OFSIqfcDXgMsebnt/5wIAt4wFPBVeQojJ8xTwNLib+isl7/qG54AF9rYAnAB+D2hWPQoxYU4DnyPMuNUewz/IxfHUJXHKXuAJNCAoxEQZAp7wod2L8Z/k47jpGYa9ALAly63AOtWpEOPmKeBvPeiPI/aPVQDgllCgH9sk9BDQonoV4p4cAf6MMMlOe4z/KBfnpygJBQ4Af4NOEhbiXlwLbSWRBDv5OG9eGgrk4HA4ivk+YhYeITJKAfhyAN/2wkH/9pj/YT7uT3QOWAgE9oFeA2YDO1TXQtzGt4DHvTDDdnsC/zCfxKc6y7AnMIjtaFoOtKm+hRjm+8BjhMd9tSf0T/NJfbqSQcFe4EVgNbBW9S4ETwOfxfbRJGb8iQoAwDKGFwR0A78GVkkEhIyfzxCm+W7CVs9VpACcBhYxvKTxOvB/4bc2qB2IKcj3sZ7/bNEYX0z4AfJJf+KS8QAwT+CX2FLhLWh2QEwNCtiA32OEbn+OMNVvpQsA2HhAI1BnX/YCz4Wv20e+LURFcg34MvA44YBfDfBymR4mX65SuMItA4ODPvzGs1OG70crBkVlcgT4IvBtSqb6TpfxgfLlLpFzwHyGTxc6hI0LzMdmCRQSiEpgiJHBvudIaJFPJgSgKAILGE4mchHLK3gF20SkrcQiy5zBXP4vAaeKe/pfS8nDpUIAiiIwf+TLfmzB0PPADGAFUK22JDJEH/Aj4HMB/MCzNk2edPT8RbwUPcsw2279sh54GPg8sJsUiZYQY+BjOfy+hm3pHU7jnSbDT7UAgK0THjUd0AI8CnwSmzKsSuuziylJAdiPZe99Eugs/WEajT/VAlBkGzZiUvKgc4APAx8F9gAz1fZEGbmKhavfw8auLhUNyyc9sX5mBaBUCEZRD2wOxeADmNMwS+1RJMAVbMbqWeywjtcJXf06LNjfm5EPkhkBKLIT87VGPXgTsAbbZrwLW1q8BBtArFF7FREYBLqAk8BB4JXwOkq4kKdoSENk70iszAlAKWOEBwTgeWb4C7D9RyuxNQVLgblYPoJmzIOoQbMLMnBblNML3MDOtDiHpePqCK/j2HReF2Nk505rfF/xAlBKcdAwGONDefb9aqAhNP4Z4dUSvk4PX5uAaeHvNQC1JVc1NgORxwYg8+Gtc+Fr6fvS741+lIop85gIxjCy4vf8Ua+l74cw57D4WjTs/vDqAW6G143QmK+Fr5dLvr4e/s7gnQymF8t0WwlUfGPcHraQ8X7QwKzXC8zASw26aPy54uXZ73nc+Zpy5e1QBO4kDHe6/JJrKLyGBcODIR+CiVSAR3ZieQmAA7aGlj3eE1g8bu2uVJjJKsREyzsXqkLaR+aFEEIIIYQQQgghhBBCCCGEEEIIIYQQQgghhBBCCCGEEEIIIUb4f0sTsB1MraSVAAAAAElFTkSuQmCC;fontSize=20;fontStyle=1" parent="1" vertex="1">
          <mxGeometry x="-440" y="1850" width="190" height="190" as="geometry" />
        </mxCell>
        <mxCell id="beyWk9RbX9cDXpkhxu_A-54" style="edgeStyle=orthogonalEdgeStyle;rounded=0;orthogonalLoop=1;jettySize=auto;html=1;strokeWidth=3;" parent="1" source="beyWk9RbX9cDXpkhxu_A-43" target="beyWk9RbX9cDXpkhxu_A-53" edge="1">
          <mxGeometry relative="1" as="geometry" />
        </mxCell>
        <mxCell id="beyWk9RbX9cDXpkhxu_A-58" style="edgeStyle=orthogonalEdgeStyle;rounded=0;orthogonalLoop=1;jettySize=auto;html=1;strokeWidth=3;" parent="1" source="beyWk9RbX9cDXpkhxu_A-43" target="beyWk9RbX9cDXpkhxu_A-57" edge="1">
          <mxGeometry relative="1" as="geometry" />
        </mxCell>
        <mxCell id="beyWk9RbX9cDXpkhxu_A-43" value="&lt;b&gt;&lt;font style=&quot;font-size: 20px;&quot;&gt;P18&amp;nbsp; .bat&lt;/font&gt;&lt;/b&gt;" style="shape=image;html=1;verticalAlign=top;verticalLabelPosition=bottom;labelBackgroundColor=#ffffff;imageAspect=0;aspect=fixed;image=https://cdn3.iconfinder.com/data/icons/dompicon-glyph-file-format-2/256/file-bat-format-type-128.png" parent="1" vertex="1">
          <mxGeometry x="-150.86" y="1850" width="190" height="190" as="geometry" />
        </mxCell>
        <mxCell id="beyWk9RbX9cDXpkhxu_A-56" style="edgeStyle=orthogonalEdgeStyle;rounded=0;orthogonalLoop=1;jettySize=auto;html=1;strokeWidth=3;strokeColor=#FF2B5D;" parent="1" source="beyWk9RbX9cDXpkhxu_A-53" target="beyWk9RbX9cDXpkhxu_A-43" edge="1">
          <mxGeometry relative="1" as="geometry" />
        </mxCell>
        <mxCell id="beyWk9RbX9cDXpkhxu_A-53" value="VBScript" style="shape=image;verticalLabelPosition=bottom;labelBackgroundColor=default;verticalAlign=top;aspect=fixed;imageAspect=0;image=data:image/png,iVBORw0KGgoAAAANSUhEUgAAAfQAAAJRCAYAAACz70VKAAAABmJLR0QAAABbAFtlE/JSAAAACXBIWXMAACN/AAAjfwF86BcxAAAAB3RJTUUH4gQSDjQvgq3KWQAAIABJREFUeNrsXXmcXFWx/io7SwQhAQKyBRCUJYQQAiQECLsRREBRFgkgsiiK8vThggKKD3gi+MAo+xKCENCAkoQlBBISSAgQRBYBE0BEBKOohCVh5tb7o/t216lT53bPTCfTM1OfP8xMT/fte8+593xV36mFADAcDofD0VPwLwD7AHjCh6J7gZzQHQ6Ho8fh7wD2BvCMD4UTusPhcDi6Nt4AsBeAP/pQOKE7HA6Ho2vjLwD2BLDEh6Lro5cPgcPhcPRYfATAAwA286FwQnc4HA5H18YmAO4DsKEPhRO6w+FwOLo2tgQwC8AGPhRO6A6Hw+Ho2tgawD0A1vWhcEJ3OBwOR9fGDgBmAviwD4UTusPhcDi6NnYEMB3AQB8KJ3SHw+FwdG3sCmAGgDV9KJzQHQ6Hw9G1MRrAVAADfCic0B0Oh8PRtbEvgDsB9PehcEJ3OBwOR9fG/gBuAdDXh8IJ3eFwOBxdG4cC+BWAPj4UTugOh8Ph6No4HMA1zhtO6A6Hw+Ho+vgCgKudO5zQHQ6Hw9H1cTyAn/kwNB8auR/yCIA5PqQOh8OxyjEewHar8Pu+AuB9AN/0oe+ehD6Lmb/rQ+pwOByrFkR0wyomdAD4LwDvAfi+z0BzwCV3h8PhcLQXZwNwR84J3eFwOBzdAD8C8N8+DE7oDofD4ej6+B8AX/ZhcEJ3OBwOR9cGAbgMwMk+FE7oDofD4ej6pD4RwDE+FE7oDofD4ej6nHI9gM/7UDihOxwOh6NrozeASQA+40PhhO5wOByOrk/qNwH4pA+FE7rD4XA4ujb6AbgdwEE+FE7oDofD4eja6F8m9b18KJzQHQ6Hw9G1sTqAuwDs4UPhhO5wOByOro01APwOwM4+FE7oDofD4ejaWAvAfQB28qFwQnc4HA5H18baAO4G8HEfCid0h8PhcHRtDAYwC8A2PhRO6A6Hw+Ho2lgfJfl9cx8KJ3SHw+FwdG18BMCDADb1oXBCdzgcDkfXxiZlT31DHwondIfD4XB0bWyF0p76Bj4UTugOh8Ph6NrYGsA9ANb1oXBCdzgcDkfXxg4oye8f9qFwQnc4HA5H18ZwANMADPShcEJ3OBwOR9fGbgBmoFQu1uGE7nA4HI4ujNEA7gAwwIfCCd3hcDgcXRv7lkm9vw+FE7rD4XA4ujYOAPArAH18KJzQHQ6Hw9G18WkndSd0h8PhcHQPHAHgaucsJ3SHw+FwdH0cB+AqAORD4YTucDgcjq6NEwD8zIfBCd3hcDgcXR+nA/ipD4MTusPhcDjSeB3ApV3gPL8O4FyfLid0h8PhcNhoZeYzAHwRwIomP9fvA/iOT5kTusPhcDgSYOarAYwD8GaTn+r5AL7lM+aE7nA4HI40qc9Fqa76001+qhcAOM1nzAnd4XA4HGlSX8zM2wG4s4lPkwBcDuBkJ3SHw+FwOIqJ/VNo7iA0AjARwDFO6A6Hw+FwFJP6DwAcBeD9Juaz6wF8zgnd4XA4HI5iUr8ZpWC5N5r0FHsDuBHAIU7oDofD4XAUk/rDAHYG8HiTnmJfALcBGO+E7nA4HA5HMam/yswjAExt0lPsVyb1cU7oDofD4XDUJvZPoxQsx014eqsB+B2APZ3QHQ6Hw+GoTeo/APB5AO814emtDuC3AHZxQnc4HA6Hozap34KSvP23Jjy9DwG4F6V9fyd0h8PhcDhqkPojZdJ8rAlPby0AMwBs54TucDgcDkdtUv8LM+8M4OYmPL1BAO4H8HEndIfD4XA46iP2owCcheYLllsPwCwAWzuhOxwOh8NRH6lfAOBIAO822amtD+A+AJs7oTscDofDUR+pTwEwGsCfm+zUNgbwAIBNndAdDofD4aiP1Beh1IZ1YZOd2qZlT32IE7rD4XA4HPWR+mvMPBLATU12aluVPfX1ndAdDofD4aif2I9BKVgua6LT2hrAPQDWcUJ3OBwOh6N+Ur8AwGcBvNNEpzUMwEwAH3ZCdzgcDoejflK/HaVguVea6LSGA5gGYKATusPhcDgc9ZP6kygFyy1ootPaDcB0AGs4oTscDofDUT+p/5WZRwG4sYlOawxKbWEHOKE7HA6Hw9E2Yv8CgDPQPMFy+5VJvb8TusPhcDgcbSP1SwEcDOA/TXJKBwL4FYA+TugOh8PhcLSN1KehJHm/3CSn9Okyqfd2Qnc4HA6Ho22k/tTixYt/CGB2k5zSEQCu6Qp86YTucDgcjqbC0KFDr2HmPQFc3ySndByAKwGQE7rD4XA4HG331iegFCzX2gSncyKAS53QHQ6Hw+FoH6lfCuCTAP7dBKfzVQAXO6E7HA6Hw9E+Up+BUrDcS01wOt8A8AMndIfD4XA42kfqf/j73/8+CaXuaJ2NcwB82wnd4XA4HI52YNCgQd9n5r0B/LwJTufHAL7phO5wOBwOR/u99S8DOBlASyefyoUATnNCdzgcDoej/aR+BUrBcv/qxNMgAJcD+JITusPhcDgc7Sf1uwHsAuD5Tib1XwA42gnd4XA4HI72k/oLb7/99nwAszqZS28A8DkndIfD4XA42ok111zzOGYeB+CyTjyN3ii1gT3ECd3hcDgcjo5566ejFCz3QSedQl8AtwEY74TucDgcDkfHSP2KMqG+1Umn0K9M6ns7oTscDofD0TFSvxelYLnnOukUVgNwF4CxTugOh8PhcHSM1F98//333wQws5NOYXUAvysbFk7oDofD4XC0F/3799+TmfdFqQBMZ+BDAO4FMMIJ3eFwOByOjnvr/43OC5ZbC8DdALZzQnc4HA6Ho+OkfgWAKzrp6wcBuA/A1k7oDofD4XB0HCs68bs3AHA/gC2c0B0Oh8Ph6NrYCKX2r5s5oTscDofD0bWxMUry+4ZO6A6Hw+FwdG1sWfbUhzihOxwOh8PRtfFRAPegFDDnhO5wOBwORxfG9igVvlnHCd3hcDgcjq6NYQCmo1SExgnd4XA4HI4ujFEAZgBY0wnd4XA4HI6ujd3LpL6GE7rD4XA4HF0bYwBMBTDACd3hcDgcjq6N/cqk3t8J3eFwOByOro0DAdwMoI8TusPhcDgcXRuHlUm9d70f6ONj5mgriOj8sgXpcHRXZAC+ysyP9LDrXo+IHu/G13d0FzvfzwD4D4CTALATuqPRZH41gO/6SDh6AO4mop2Y+YkedM39AIzwqW8qnFj+tyapu+TuaAuZTwPwRR8JRw/BWmVS38aHwtEEpH5JrTc5oTtqYvny5bOJaB6A8T4ajh6G9QDcR0Sb+VA4OhlfA3CxE7qjI175RgMGDFgHwGgfDUcPxcZlUt/Ah8LRyfgGgO87oTvaQ+bbApiPUgMBh6MnYysA9y5fvny2D4Wjk3EugG87oTvaQua7Aphd9k4cDgeww4ABA/r5MDiaAD8G8F9O6I56yPwQALPQwD69Dkc3wW5ENNOHwdEEuAjAqU7ojiIynwDgNwBW99FwOEzsS0R3+DA4Onu5BvBzlNLZnNAdEZmfAeA6eH0Ch6MWDiWiG30YHE1A6r8AcJQTukOS+cUALi3fIA6Hoza+QESX+zA4Ohm9AdwI4EgndAeIaAqAM30kHI424ytEdI4Pg6MZSN0J3cn8HgCf9ZFwONqNc4jomz4Mjk5GPyf0nkvkGxDREwAO8NFwODqMi4joJB8GR2fCCb1nkvlQAA8B2MlHw+FozGMF4JdEdKQPhcMJ3bGqyHwHAHNRqnzlcDgah94AJhGR9zxwOKE7VjqZjyt75hv6aDgcKwX9ANxORHv6UDic0B0ri8wPAzAdpZaQDodj5WE1AL8jop19KByrEl5ApGeQ+ekAbm+nAfc+ShK9w9EdsTVWTr+CDwGYTkTbMPMfV8F1PAvAS9J2TWwBYHMndEc9ZH4WgMva+fEVWG+9Y/DYY7evlJNjiDI2+S+cn7l4HdW/sap7Q/KjDBCVfy+/yFz+G4nX9Pflf5NfWf4bye/lfFDLr1mnKn4h47IaO2gFf2c1ZvI6yX4/k5oCDgc6GOfUHOkpU+NrjUfwu/pj0dhFfyPxnXVgn33GYPHiGSvx8VsPwEwi2pyZX1qZzzkzX+irXZddo88H8N1GHMsl9+59o1wJ4IIOkPlRVTIvExhbCyxXSZLL/0ERJHP1X0l4cvVnDskDZSLO/8ZQBCK+K/9s5XdBJkzha8Thcci6NnE8hroeDscg+lwWvp4liDe6HoOMgvNShgWs8VAGiWRRkuStxikYEo6/OxhnUvNN4jj5+LIyFtTpWKdv/ZFr2C7BzxmQcXxPRu9n4Gc/G4vFi38NYOBKfgw/glIvdY9bcax0OKF3XzK/HcCXOkbmC28PFnxSTlllkReLNpEice3NCWKKiJBC0pX/WuRVt0drkUQBiabIUv/MivjleySfkb5OrnqTwflwdfygyRGwDat8LJWBwOJ90ZwoowlaKSkaXy42dqShwlx8PMuoYDUfliHI2iAR41AxzvKfKTQ0GMA99+6KSy65BsD6q+hx3BLAPcuWLbvBVybHyoRL7t0Mra2tL/fp0+dVAEd0iMwXLry9QtS5ZM1K/g7IiEJPOXiPMAgsL5PVol8hIimxi5+piHgp/qyU2kl6/pJAxbmQVAyEDE0UK95MsfJskRslPFFJtlKiLvToYYw/bDU+9XfOqlsH2uMmpZhIg4xJnacht5OyZCpjxOE5VL7f2PYIZHdW94DYzpDfTxxfr1aAnlw0Cqec8kus+rTN7QcOHPguM/si5XAP3VGXV75hnz59/g1gjw6TeYo0As9MeXTaC5UemiY9TnhaFS7QXqAgZymvszQC8sU+YQhoT5qUB8hKJZAeYeRR6utMGRgJsmdDHdCvcQ0jQQ5ahYgNAwnKoJLXHs2zNGy0qmJ52xR61qTUGVaqAml1IaE8GIJITNZqXDLj9MTneq1Y0YojjjgfzMM76REdRUSzfKVyOKE7apH5xwDMBzCsQ2T+qCJzi6BJEYLpYWtyVORL2ptU5KS9UUmm8ju1nK3JVn9e8VyMzP6DoXwnN9IZ9vdGx7QME0tmlySpPGQuOKb2atkwnFjNUU3DwjIo9NgXIDCEUM+bi7+fDdYnYyyZkW2//R1obd23kx/VcUT0W1+xHE7ojhSZ7wJgDoBNOuaZP3p7tJBHCzUlPCU2PDtOeKhWkBTXcHITHi8bbJv0ftlWCWARmlIQpGpgGQtSIYCILZDyNVtBgxzLF6zOQXrV0htnTl8vUiRYyyhJqQGw3Wd5DLJiDKy5J8Pj1kqNylIgZeixUF5krIA8rjT2dtjhcqxYcXiTPLKHENFNvnI5nNAdmsz3A3A/gMEd88wfvd3cf0zJ7QlZMxnUhIQ3D2EoWIzDykOVEj4bQWh6L7iyuHOxgWARg/aOg+sxvHYY0eKMdNBdyjNGwXfr8U55tHrOzD381Ngh3CMPDJbcQKHYGw7GgKreMUFJ8KgaAGwYkMG9QrZiE5+4fT+AgV12+SGWLftKkz26xxDRRF/BHE7ojpzMj0Wp+lt7U2+qZB7I3UZOdhEZkEHipofIsTcfrMuW7K73h8nYO7cCqFJqgCH3ssorKyTghHeb3OM19pK1IcMJhQCIg78iOVxp6IyCnHpDGeGExx3MKYVetxX3EI2P+HvG9kAWBdJXkNX4O4pjIPbZ92QsXfq9Jn2ETyOiH/lK5nBCdzI/A8ANAPq2m8yHDDkKCxbcXs0lLm9sk85VVkQbLcxcJVsdqUyJhThKbSoKBJOvZSh0ZzmRh2x5zrVypU2SlV6nIldiw9MtjyelcvXzmAQS3jQb3y/JmhOOqiVbpwL5kIgLsIY3kYWQTsYPCZs44VzrtDWO7yvrOvTfSak2+TbH4YcfhZde+jmKK/F0Nr5HRP/tK5rDCb3nkvlFAC7twPyVyPzhh2+PF2QrKC2x4JuRxmzIxFwHWVgkakVhC9lXe6oVNUEVWIkWfZVqFhCPzP8muyCKTOGTn40KugDpKHiDjLmIWOsIJEt6vAlpnpSCoaP+AbX3T8bn5PxRSOakjAu9909Qlf/IUDiohgJizQ8DXz5tPBYtugpdIzX3AiI6xVc2hxN6zyPzyQC+1YFDLMeGGx4ZkjkMSTxRFq7Qo+PQG2WdPpbyDLWsDiWfUiyxa9lde4UBmXJcyYwTKVOF41EwCCmvNf/ezDJcYBdT0UpC5T8qKLCi4wTklohWICgcc1JKiyybKwvg6C0ZXWhIG4PWPr+8zkx73lmNcVcGklmVkIELLtgPd999E4A1uspjDWAiEX3eVziHE3rPIfMZAI7uwCFWYMiQozF33tTQe1ZkIKOQU952Kg+bVfGPlEtKVvQ8p1PZ0rIAkpXUUm6slaetj69T7VLXav6MeG9bfrckQS0Xs9rC0ONACNPXosswpGrmgvlCIrbOqC/ABepCoUSQUCKIQrWARSEaeR+FMkqivnv5PXfcsQeuuuoaAB/ugmvxjUR0sK90Dif0boxly5bdQESPADiog2R+FObNuz0sziJIvOKVqeYYmrCSOdeGd1hPypRFNpYHzgkP1iR/6/hQRWbIrsteIZgy6bDlZbJB0lpeN9LRABVBnuLClELC6fFGga3DCS85lZtv2VKBYZMyoIysBh29TinDKBU8CbtYTXBKBDwyfwy++c0r0f70zc5GXwBTiGhvX/UcTujd0yvffODAgbsC2K1DZL7BBkdj3rzb0+t/wlXLjA9EUeNyYbeqlLGR8w1V4lXkJ+sapmScH+nqZzoHWXulFCsMZHj2hDjfGWlbIZlrDcQye4AsTaqFhE0xwUVR6MrQMA0qtRVBao87l+LJKNtrkjfbqW+UuH+QGGf9nqyWIVj+4c03RuG44y4E88e6+CO/GoA7iWikr34OJ/TuRebDADyMUs/m9mI5hgz5HB6ed1vSwwTH0d+Bp6rbYrJRglV787rFKNmeniQMK0KerYIibKRHccyXf/zjSBw34VgccsjpuP66vSJCY4vgisg1EV1uedV6PInt4C3A+F6jaIo0jGR+d+VaSKkPUIqL3iev4cmzYRxEhpphfNRllCQ6vaUC/1jfE1DGIoCxY7+P1tbR3eTR/xCAGUS0ra+CjrbAm7M0L5nvhVL1t7U66Jkfg7nzfhOSCxThisYbmkykVG02IVFNWJDyuFSKUZLcqEZpVqMgTW4QZBnwgx+Mx8yZO+PNN/cAMBdAfwDAM88AP/zhEgwY8AiGDl2EL37xUXzqkDnVa5Md42SVMhLlVlUUtzWGki0pZTgg4Znqfu2Jyy5SBdKSQKh+WIXqQtkkfV5BpoDy4OXfZPczIE5fs9LZ5L46U1wRTxeyIQDbbX89WlomdLMlYBBKbVe3YObFviI66uIN1N+HshbOZ+bv+pA2hMwPBfCrsvzWETI/GvOEZ95uJDqAyTKvugIYKE0MwY/KmydKkJnsjiZI5JJLD8T06R/DK6+MRmvr/mXvpl4swRprPIBtt52Pr3/9SYwcuTD9SLT19RrDCautrCa3GnMQDa+VmsdhLABR2NEt6lqGREc6DluSSoNFfpASxXPy+8JK7atnCKP7pYydd74Y//73md14OVgCYA9mfs1Xxm673p8PoCHc6YTefJN7AoArO6iepMk8ksbzhTjxxqBqmWqHKXONSRBvRCSIO6BZt6AkkogYyu+bPHlf3HrrjnjhhV3R0rI3gHUbNPStAJ7EwIEPYsSIhTjvvBex4YaPxwaMHENltLDRjlWPu651b42lNSYpzx2SrBG2jOU2POmERB59B2w/0zBJqAiBMUe2wagNnLF7nonXX7+4BywLz/z973//9aBBg77vK6QTehFccm+uiT0LwLUdPEyJzOfOvS1KA9MyceAhckjIFpmaEdZ6bVbR5JyoL55a1OXxGcC994zG1Vd/DM8+uyuWL98PwMyVNPy9AYzA22+PwIMPAmPHvgeimRg8+CHssccz+NH5t6NvH2HocKLnulYnOPZca6aFcXpcUTAvRe1FGbUNDavSH6s8dN1XXt832ijRhp7uSU9S1YEqNGNZBeXfD/nUSXj99St6yNKw7eDBgz9oaWl5uXfv3pv5SulwD735yfyXADpaLapK5oQ4BatDU86ou4Km9tKo1iEE+b34p13wk58MxaOPjsTbb+8FYCc0R+nOZejdewHWX/8hjBv3GH7wg7uKHyugdlk3SvxqEKdWVnTFO/0mWRTG3CcnpayIv1mqgCbhoIa/Qd5S1ZF7921VDiycfPIReOCBycjjI3oOHmbm3X21dA/dCb25J/Q3AA7r4GGWY8iQz2POQ78JOEUTZiCLI9xX1Xu6ljwMY3EmiokCFgEhXtT/8pfd8JOfbIkFC0Zg6dIxAIaXveVmx2vo23cWNt30EZxwwlP4zGfmBgF12sMNxsSSlY1e56T3rYv2q7UnDfGZxBYGqSJAmuCtHPyVijqMxnPP/QQmT74V7W9I1NVxFzN/0ldNJ3Qn9OaczPsA7Ndhz3zw4KPx8MO3VdtWynXSCEIyvWntaem7xKjlLb0wYlsV0Mc755yDMXv2znjttdFgHgNgQDeYyiUYMGAWttlmAb72tacxZvQj0ZjqVD5QuK/OhgG2Kvgy6mFP6QNoDz3I31fbD1DZAtG1UeL7dO3+8u+TJu2NH/3oVwA26OHLxq+Z+XA4nNCd0JtmEocAmAFgxw6T+QYbHI2HHrot9IoLfl6Zd4G153nlVXvhttuG45VXRoN5XwBrd/PpzQD8EQMHzsf22y/AWWc9hW22eaT9xFuQZQCK57kGJxdue1j3TSCZwwimVOqNFWWfG35W/AVRLN1rQp87dw+ceOI1AD7qqwcA4HpmnuDD4ITuhN75E7gFgHsAbNk4z7wNRBHkACck9tTCTkbqme7fPW36npg06aN4+ulRWL78IAAb9fApbwHwe6y11oMYNeoxnH32i1hv/cdMtQTGHMjXpTcftAtFKLEHUfJWvjzbueLW8hBtGRRI8UUrSs0YioRhsXjxGIwf/39g3slXjwA/Y+av+TA4oTuhd97kjQQwDcB6jSPzRDBUsDjWyCHSKVmWVBytweVjz31oL1xzzTZYtGgk3n13HIDNfaYL8S6IHsb66z+E/fZbhLO/91s7ZSwlqxTkcRcV/2m4EpMK3JNSu/wIGTEEUBI9ghS21ZZ/8Ox7Ow1/DS0t+/ltY+I7zPxjHwYndCf0VT9xBwK4HcCaHSbz9db7PObN+3Vcr5tqpA6xHfFeeCeoPz733J6YOPGjePzxPJBtWzRHJHpXxd/Rt++D2HTT+TjiiKdw/PH31XRta8aPFaWcySBJnQdvpOERxV40J3R+sr4HqsocbPlHS+8AsMMOt2HFis/4LVKILzPzz30YnNCd0FfdpB0D4DqUOip1jMw32OBozHnotnZNXT3ZZ3Jxz++QCy/4FGbNGoFXXtkdzGMB9PNZXWl4Haut9jC22GI+TjrpcRxwwKy4GA0bgYow0t/EYx70RreCJ4uWBysMvmgloWJlQddktwLjdh55OZYt+4rfDnU91V9k5mt8KJzQndBX/oR9DcAl6HgznDKZz7mt2DNTC7de8HMPLBUsRwT87/8ehvvu2xGvvjoara27o2NlaB0dwxIMHPggdthhIb761WcxbNhsk2zb+zTX+7k2lCIwDQWKfhHvUds7Y/Y4D0uXemW0+tEK4HPMfJsPhRO6E/rKm6xzAfygAYcqNVqZM3tK5F3p/W5dVz3IR5aLrJBJb51yAH71q+3xpz/tihUr9gHwYZ+9Jl24iZ7EBhs8hBEjnsWZZ76IIUMeSNY6N0lTEKqu654iYl3WNjIGDek8qh9vrTrK8ycA4z95MhYv/iV8G6ftawRwCDPf7UPhhO6E3viJuhrAFxtG5rNnT6m7SUitmV2w4EDccMOWePLJnfGPf+wDYGOfsS6JFvTt+xQ23fRh7L777/Gdb1+VbHIjA9Vk8KOu7V/5u64Rz+n7LHhP6ibUnzWi5SdMOBYLFlwHL0vdXrwL4ABmfsiHwgndCb1xkzQNwPiGkfmDs6eYHlRdeccMPP/Cwbj22i2xcOHH8Le/jUBr6wifpW6Jd7DWWo9i660X4sADn8bnP39j2JI04Rk3elmoVTfGul/POusQ3HnnrwCs4dPYIfwbwN7M/IQPhRO6E3oHsHTp0vMGDx68P4BdG0LmG210NGbNui3YY7Q6oEH9LU8p+9dbh+KmmzbDc89tgpYWIMsyAMAHH2Qo/wgAaG1ltLZWX8iy0ntq+oct4efagywD3n+/tcOj9cEHGVrbcZgBA+zYhl69GnNT9OrVC/36tV8+7t2b0KdPfDJ9+xJ69SK9OqBv317lv/fC4MH/xpFHLsGOO06uTcBs1IdHouKfUbudEpXwdOU33aGPCLjssgMwceKvAKzjS3xD8DcAY5n5BR+KnkPoLms1dmI2RalgzDaNI/P7bwvzc/OVUHTaqkiXRouttT98B77ylTr6hbSpKXUb36PSpCpfp9uNGjnYLA0XVF/TNccrH1fv1z3CzSjromtPFGtZaSXOU/UCdNoYjD1tjo06OWayLHAktct7CnG1NlKFatgg6OjUDUtARufnc3P33Xtj4sQbncwbig0A3EdEGzPzqz4cPQNO6I0j820BzEVj9qJLMvv9999mt8HkcJGX7TPztbPi0TOivGG2unBx+DckyCFZD1x5bcQmD1UXfA4JN8WlUIt/OOjltp+JveLkuCHuMFZErkFhHoRBYEX1egKv16iwZ9ZB18FqHBpAFa+XYs83/z55D0QGktEvnYy97ihfXV0YId32NRrOLG5Sk99vi5fsgW984+fwGI6VgU0BzCKiDZj5bz4c3R+9fAgaQua7ApjTUDJ/8MEpJikF7aoF4TIXO3iauyr9vLn6eXksqy91Jf9ZfKaiEqie3KwW/ICguA4PV/Vf10SRAeBMeaDqZ3lN5vHloKr3si6eIseJQ6VA9wZnhP3SCfHrMPqjkzp+Ua94PcapeyT6gzH+rI+VlX7JjLGX1yHHpKZBhPh73/rXnjj00P8B8w6+iqw0bAXg3uXLl8/2oXAYuOmqAAAgAElEQVRCd9Qm80MAPABg3caR+QNTAtKIyMbwisjyfNkmOmuRThKqQdTWZzlhOKQW+KSlAdgMgjYUT2HELWMlWWqFAzHBaa+VUSVnUoaRJFeSY0YJw4SSNkb6d66hLNSYpyTpJwiZERtF8jpYXIflebNSj7RByAzsuecZaG0d46vISscOAwYM8EJQTuiOGmQ+AcBv0JiiKyUyf+CBKdUvQGK/lsNVOfCaijzkBAFz4ju0JxYcl03HzyZ9S14XC7useCa9RS5iIovMyCBX/XZF4NE51TpnAJk6sUwbUvl7swRhchzzwPYlBU1VtGfO+jzl9oqhPMiiQpJ08wBKVvNLbBtNMFQJfT9Gqok6h5Ejr0dLy6d9FVll2I2IZvowOKE7bDI/C6VSro2IQ1iBDTY4Fg88MCVYUDOLpAtkeFZeGgq8tXxPNicCi/wqAVAU1982A6A4NjgsgmRdTx7FUrNFNpEhkcFsIGO5vYUKsWUoKOODlHee8m6pbJHpsWbpqas5YLGFQXqbQ3wBIc4fN/ey1WY3W3J7wlDiGkYkLAOtYGzz/8aM+V+8++4EX0VWOfYlojt8GJzQHSGZXwzgAjSmklVO5reGqx8ZZMlGRLHhGcLYQ9bSe0TIRqS8KdGzbRAUkUDhfjnnLm7CI0+8ZJFX6nr1uVhxANF2BoeBfjqyT+dZs45DQLw3LYPfrOszVRM2vHXYxGwOr1ZV1HnC8qJ1vICQz5nS9wRTfO56jA868Ey89dY3fRXpNBxKRDf6MDihO0pkfguAMxt0uBKZz5p1ayiZSrLMPWRSvcfZDvqqSZ6WLK+C6jhTcrtBGpwiV7bVAC1J671V81SNMSF9DbpNZ53ePQxBIUqtQoF8zwnZvsDj1/vtWjWw5lJL6lRgZEUGGyOISGdKGBdWNHzCkiIOx92S2SlxncceexxeffUiX0U6HV8gost9GJzQezqZ3wvgcw063AcVMk96n6juw1qR7CaZcGIv1vDIyHILIfKXyfCExUlSwtNLGibG4l/oFWqyJRXZD9uA4MT1WkRqiCCmscKWF4tEpLlONeOwZjpY7WMniFKrL4GBQgmpvRzQR7Cj6C1jI4jK55p2YBSTkYqrkDjjjCOwaNGVAHr7StIU+AoRnePD4ITeU8n8YQD7N9AzPxr333+rTcw6J1hEFQeLv+ExBhIwxL4sQkJkkZ4WydVQqWgck3rN4LgEyaVkhKIgvYBEswLlQQfwKeLTrCTHId+TJkWw+nqJbWWC9fgDZr42c2wsWVkLqUj4IuuPpcKSiAXQr2VqPCLCT0TXk677DiNGoPzfxRcfjJkzrwXQ31eSpsI5RPR1HwYn9J6IrRvqmd9//5SAeCNPiONKZsQGmaoKbFEQFMICM+lw6nghN39GXMzF3ONFbCDAuDaLzLScnO9hy71snTNveZFa6tdlSEkrG2xL9EiQXpEyYUnOXCDTm2Sq/i0KwmMjEC5VXCb6MjJInEODElD76UhkT6gYgdum7I/rrrsKwId8CWlK/JSITvJhcEJ3tAdrrDG55JlTgsiMyOG68rcLCn1kXPNrbNLiuJANRKpTFPmsCs8QxxlPkljltZFUBkipEMqbZuM8gx8T+8BFufO1It9TBWqK9s+NlPdkEFpQ3Y3tPXaTSJWSoFP4yBg3bTREBhYpQ0FVpWMuuG/Fv088MQ7nnTcRpTKkjiYVHwH8kog+40PhhO5oK9Zeuw4iYCMoje0UNmYjD914ZDlRhCSyBygkYu3ppSrTSSKilOdeVBrU8pS1B1qzSkpibBOBcubfrTgDVfeclXrARs5+Lt8Th/vTgSrDSq42jIWiGump6ywyAtnIS09aPIhjHGDMI1vnxMCECf8LYEt/6JsevQFMJqLxPhRdG17LvTNgecCp1tGyHrhVdQyKgFl5vLqqGdXhkiarjBkpW9bnM0WAsu+2lQuvm4zkf9OV4ayAtqg1qEWMqhtYUAudwhTAqNEN2a6+WQsftmpgcqUVoCbOhwxZvFLqVkb2U4EUIbdjWBlabBh9ynAorAYo7z9xgFyF2HH4/WDeZ5U/W8OGXbvhd75zAsBgUPkWK/0UtHQHh3ZrNADpOI+gv1D5gPLn0jBw3B7ePHL1M6VHpHrE0r8cPrqqTUGtPkFvTJt2BSZPPrmOkesH4DYiGsPMc32Rdg/d0RaRK0XmZHiZXA8Bcw0vjJX0ahC49nC5Hm9YH0PVP49IRxRNCUhHjweHAWtsBKvpa7W6oVneY6SCGEoEahg+nPDozc+x7VUH5yEK7JCxnx/FFZAw8kTjFa3YBIoJqdgLSqg5ZMQYUNpQ0UrRyF1uQmvrPp3xaA359rdPqIolDC6PN0uVISsVbcoqU1iq6ledfo6qBTMzmLh6HGawSO9k5sp35p+vnkP538px8/czmKl8jlz+vuq/VP6srslU+Y78vNS9kp8BM2O9T3ziZJT6o9eD1QFMJ6KdfZF2QnfU7aEbUeP5r1lKKkWimAoQ6dxkdMgKPGTVpYxUyhiRUf8cKuBKNmVRrxWWJ0Xc4COZGpcwbqJUKXWMzFJCrNgEFFRJY9s4CoIWuVojINpbloFpFM+7jh9ISuCGeiFT27gOo49r1ftNHMeqBYAimR/AmDGX4f33j+kcQ5meqpbclTYRBwRfodaA8CVRlv6WwaiDIO6DKqEKohVkXSHz/PsyVL6/ajZkle/kvCudMBDkeXLlfcrwAMC5QZJffybmd7PN2tKY5UMAZhDRx32hdkJ31MfosXcbyOGIA6gIMVFGVdI49syYbdIDxQSJAq+Ti1LYuMa1poLJCorjWMFwUSMagyxNRQIxwabkfha9xrX3bgYdciLFTdVULwrA079ntdSSgmi/pOSfKgvMiZgCjj12GOMhI9/33fcc/Oc/p3faYzVq1ELpUVe8cUF4Ff+1MpUhYWpPGszgLCdTVEiWxSSxeAYycV9z+d7ISbhkR2tPXNuMgqTBYqhDBaBqeOTev1Akgs8wcNBB/2njSA5GqZf65r5WO6E76uHzyOuFXe+cUy01uVgS1m+pp6yqJaVHHi0QpcmltgekBwvL0yf7RIltuVfWPrealxRu7nPcpx1IExpzG+cz4bVywjNOdkXjhMeeKNqio9OJC7YRVPEajrR2uxEM1HxE+fgEfPYzp+LNN3/QmY/V+l/76okIZO+qVwtBihXvVnrnglDlM8c6MFOSJnNEsHHZfq5UN86E1x0YEMKTR+Ddc3U7QHj6HHj+mWj9wKHEX/530O67H9MG2T3HRmVS39AXbCd0R9sZvoCRU+9PdUIzDAeCXeHL8j4D4pP7rYluaSiSZtmuF09cLKWb9cZrVJ9JpWJpNUQXpzHL3Cbmwapvn9qekIVqAjJF2HglKs5DsXcvvWRio9mLJcETkj3VUwaPabzB7taXj/HJXzoGzz9/GRrT26D9cjtzheI4Q9VLLl9TJshSyusckCfE74FZELynKnALTxtc9dAhveXqd1KwJSTOr3zOLPbgq+et1RRhKDDAmTb6s+p2QD4+bZPdc2wJ4J5ly5bd4Gu0E7rDHPFeMYGw8pqCQCm2X2eqelKSJKioAIpBvjISWtb2lpXKdE92pmJFAEgUVCmqOS+Y4pFHDsDpp38Z1113WNLDBRJ78Sr6OvhuCvOqU/XqI4MmQebmhYhqfqzzx42IfB0LkHTDC+oMmHPBQJal/5asv68lfrKj4/NzOPecQzF//pXo7IyZkSMXhspD6KmyGOdAlq/so4cEXZHepWdeGYasNL1ZXpk5KwXIZQjIHdILJynnc0jIXNoS0FtM4TkKQwNhUFwgzwfee36srD2ye47tBw4cuLUv3F0DnrbWCb5EmC5VQ0pPVVGzpOWiOuVFCz9Ki1Kwn6y/30rP0io3cXB55r+VUVCVyM4++1jMmTMc//rXngDuBkCYPRu45JKl6NNnATbffBE++ck/YMKEW82D6vQ+qO+qVeQl1l6RTIdLFQTiVLpT1XOq7N9X85T0SSXGjcMa+/pNwTVRSMTBeeg67+pN2qgLytfKSHwCJk/eH1On3oRSdHSnYr2vfu1ELnumecoXUzk1jVglj3Bwq8IQsqrIwGJMqrcRGyYmC0GqNH6l25LFLUTic6ziJzmU/iFT4+RjVkrJAzIQE0CZuv2qqaxcjoFYd9ddj/nHL37xbwBrtWN4dyWiWcw8zpdvJ3RHTXcWRpqQQd5BAiyniSnF+8Tholx58KkaBCaDzcioKU+qwh2JHG/W/dIJyQIn5//4BDz00Nb4619HANgTwKTEQA1CS8t4vPjieFxyCXDJJX9Dv35zseWW83HSSb/HuHH3RbJ6cqhzQs0MIoNNrpIMycovlONV4LXngXZyETfnTs85wgRkQoH8L+6PqGIcGdJ62jZMGpX5z3Pm7IOLLroWwHqdbyLTHxi8PWWl6wyIMbiEnGQtg7pyhygiJVAeNa+MIYbKCMk/VZk2NnaCOApHQMbiUaQgoJVD+g+vBWHgHLEyLis/ZqUDbrbZHLz88sHtHOVxRPRbZj7E124ndEeK1HMioCJSMaKXScnHsiBJZaGmsBkIiqKVFeEkg7JS+fFF+7IArrjicMyYsSNefnl3MI8GcG07B20DrFhxBJ599gh8/esAsARrrPEAdtzxMZxxxh/x0Y8+EMjrZCgG0qCBbpZiFeahxGfE7xEpqoA/UlsVmkxS1fxMKZyLjUQ2FAPmtOEY1b4vaKsKgFYsz/j0038KYNOmeIxGjnwUzNuzuE491TlBU/53Ep4zCQOWKfDESf+spqVE9uXyL2WVi7j6SSKqBuWV70W2JKt8vz4r3yvl4kwEXUNI6QOERL0njhWeAw74N664oiMjfQgR3cTMx/ja3bTyL7hBxzqfmb/bbQeK6B8A1u3wgTbe+AZMu+u4WM6UpEP2PmkgfXInTHEtxUEYFXdN+wQmT/44nn9+V7S27gtg7VVwEq0AnsQ668zGqFF/xP9ccGXaAJJkrUmMwqA1OeZtGc4g+C1hyEXGhqEAmNsZBjOTYXQQxbUFIAy+QK1RRkWQ0ifOa6fhD4F5j2Z5NgfdeGP59Mv0y8WTpEcu/0woPpXIuLT/HXrhRFwYxhCKX7lcXlVYpISf34MU+OC1ni9UzouEMUDKiI+vE3jr+OPbK7tLTGTm05w+G8Yt5wNoCHe6h94pjnlCik514oqctgzJgGLLNYH2NtWjTtb+rS7tabwmV65H5h+ESZM2w2OPjcDy5QcCmN4JI9sbwAj8858jMGMGMGNGC4h+jw03nIvRoxfhO9+5Pun56onIENe0l0MfRaonSslKoqUCok8Zc6Ry5XW7UlmJT7/ONQzEooqBqfryI3eeCuZPN9Fq+AcA2yMTBVvE/Uww2tUi3JfOyTSuZ2TUXsj3rys7GmUiZQoJOf+dw++LFbLSXniwS165rShQCQisPs7x8pGFz7zatgc22WQO/vzngzs46qcRUbd24LoqnNA7h9FtTy6SOinxMYrJxNonJ7H3TlZ0uq6zbkWvyehwsdA//cx+mDhxSzz++Ai8//44ADOa8v5mHoHXXhuBKVOAKVPeAdEj2HjjefjEJ/6Ak0+5PdpvJmvoOQ5mgyJt+SGSWQIUE3YkhytvWW+V6PK3upe6FbBXj3FIXGwYagtx9Ojr0NJyfFPN8MiRjzLz9sEcBFHr4TOldxZY21jg8vATJEUHT4Uc06zswZej16kSElfdwNdTD1A1YE9nWFDVZmdw2L02eGYRbJEFxM2x6FP5loMO6qjsnuO7RPTfzHyhr+dN5O3DJfd6ZZHGSe6/+91xwfCTlS9ctDfLydLaK/UWOOecL+DBB3csR6LvhM7MO24M/o4+fWZjm20W4JhjnsEBB0wvuAFicmzT01MHeZIlklLBobhgLg3DgdRNU3MrQBx/3D4X4q23/rvZJnDdG24IDBuuCO+kggPlPFpjlyizG3j0AV2bIx7ZQoAyBMX2RoWMScSkMuq7C3JjJQzwC2x8rp6x/MS/TjyxEbJ7fmqnMvMvnUo7xC0uuXePmRT556lVvqjjWRFJAAlvP7n8xH/62c8OxbRpw/Dmm3sAGAvgxm42A4PR0nIEnn76CJx1FnDWWa9jtdUexnbbPYYvfekp7LzztCrRWUNrKSk6jUx+nuM9bRL3QRSYR0Y2giZesc+v9/1JKzoJEuNE5778LZ/61Dfw1ls/bcKV8A+hdy7IljkSI7iSrmbsgQuDLX4y8sHMyjsxJHaorOh2ZVNVxK1qwZhgikRFOi7PLzMJ8wQBzZOokVA5nrrOihLAeQS9EO033ng2Xn21EdHqBGAiER3FzDf7gt4MkqSj86B7YldkN4rN8yBtSqRBRcSh97ch0pk4/Jwm9Cuv/CymTdsOr76aR6Lf0cNmZAjee+9wLFx4OBYuZABPYc01Z2OXXZ7ARRdeh169Va6+XLEpJmGZdaDjEJhtLw4qNTEojgM7y4Ct32v1oNfHE9chDY7jjz8Rr756VVPO1siRC5mxPVGZ+sSWUZBZCTklMj5CjHWm49pDjz73bktHz8IUTRXZyAzEtSZIyOL5PjxHJYRI7rlXgurCvgDaM2eh7rCSCMJbpLwB8YlP/KdBsjtQKk52AxF9kpnv8kXdCb2n6SuI9mTzVYWt/BOjuUgkD3JCoEss6jlRTJ8xHjff/HE899wotLaOAzDFJyhg6x2wbNkOmDUL2HlkHkE/B3vu+STO/v4NQbS87qym88BrSfOcKCiUbMrChtFniwV2oKQVvKfUom9/+0j8/vc3oEkrSn74lFNLfc+z6l5zie6qIW95ERbptQepXVIQkSQYGEji3ZHqAhF1LlLhUEppq8a4ZxUSz739QN2ppNOJaHjIXQ9xDlmpImQQ7pEBoExMX8m314kxDOBDO+98zH+uuOI/KHVWawT6otRLfW9mfsCXDif0nuuZWws0WeGpxuJe0+tSePLJg3DttZth4cIReP/9/QFM88moG9UI+qlTgalT3wPRPGy00RMYO/YF/Nd/XV0lzKJqfjIyPW2HRYaCNAbNz+hcefG3IIAycY/oJixXXDEe99wzGcCAJjWM/8Dg7bVyQYFIlZNoFhgsFe9YhaNkYsoqIpbg3WpcourIZw4rVUyL0IAQwXlKwcmNDgKDMxL2oF0zIYpx57BGQvU6y+qFvA023vjBBsnuOVYDcCcR7cLMj/py4YTuJA+5shgkH5E2xa9Lb3/JkvG4/vqNMHfuNuVAthk+0A1cwJj3xV/+si9uvhm4+eZl6NNnAbbYYj4OOeQZfO5zN0cGGlHslRHZWy/B9KvN2KIKfJaXrw3AovatDGD69ANwxRXXY9XUDmgfRo58FIzttQVU2VXm6u8VkSLjKkGWCwZWaFGSM1U/L+cvKickt0/K8yjJm1AtPRvnxnPYNZnDx5/yUsysy8VwdVOBE4F/0X0QflcGNFp2z5H3Ut+OmZ/2JaJzZEWPcq/LIWhQlPsmm9yAO+48Lhp9a5/cWuFZ/Z3UXu1PfvJFzJ69PV57bQyA4fAGPJ2FN7D66vOw7bYLcdxxz2G33e6wH732PIJGIRxdGjh6e6KqoH7z88/vj6OOugxAUzfkWOuaa8zTr0SKi/z86PKVz2zXxeMqqet6+roJUNE8Bulx5VrvpPbZ6ypYVDVOdCHE6kvymuL9dEAU3wGw7OSTGym7S/wVwB7MvNiXgbq4xaPcu4cZpTp/BZodJ4p7qCif6647Er/73XZ4+eXdytW7rvYBbgqsj3ffPQwLFx6GhQsBYAnWXXcORo1a1Ofss/+npV+/1U2vPFFuNXyjlSxlNVWRBC4NQLbqopbed/TR5zY7mYPoaTBvl0GnaKnmdboSOstYuKoBxOo5Cz1xDuLeKj3PIffcOVDMwohzRN45c3hepT1wvU9PQSEZKs9dxWBJVWIO/X9l7Mgshkq0+8ErYYY2BPAAEW3KzK/4UrDq4ITeGeA66nLr4Lf8xzvumIC77toKzzwzEsuXjwZwqw9ol8BQ/OMfQzF9+oSW6dMz9Or1BDbddD7GjXsGp576c7sWAdfw6NVniBJxcwWFZ+Qhdt/tJnSFOt0jRz7KwHa5i5rXP2euXZwhqPfOHAw7i/iGSlczaexwGAMfFJrJi8uITAEONuJJRLiXCVvXZVdzz9r3ZlGpLr9eVRmQ1D0RCfZyXTnooH/hyitX1ixtAmD60qVLzxs0aND3/fF3Qu/urA7zqQskdAKeefp4/OY3W+DRR3fA66+PBvP1PnZdHr2QZTvhpZd2wjXXANdc04L+/f+Arbaaj733fhbHHXdZ+n4p6MWuU9AoYUzK7R1ZRbi1daOuMHgfOumkEyqect4cJW+LCllmlUL5XZIZsenhEof+bb7Pnqe8sYpKjzNKqFK/PVTXMnBGZYmcw1zxSoU5GelezjdnqMA66aFzVF4gT6krlaSlQBEIxSDGGsOHH/sOsLJkdwDYdvDgwR+0tLS83Lt37838sXdC775cHvQuNpyvJ39/Ou688yNYunQMli9vxYYb/g0bbvhrtLYyPvggi45Z9PqKFdlKvZ7lyzNkWfOMb+/ehH79YjqjNhW2IwwY0LtD5zFgQBi/0K9fb/QSL/Xp0wu9e5P4+wA8++wInHfelRg79hXstdf5Zhc0VpXf9J4uGYYhyj/LqidBbVBq6/h0DoieYca2IE5I66HxUk3frtZ5r0R8I+xMCxR0/WXRerfiwQtyhhDJMxZtEyiIXc0NEd2MhQNdv/QdGcvvoOq/IkiP7QsvdwqODT7WpYc32uhBvPbaymyJumOfPn0eZGYndCf0bszoVo9p+fwNG3YZhg0rsASouN2qHRlV8DsSXb3kYloUpCdWwqAJTECRdhlb3QENiPO5K2TFK6F5nCVlF4xT0fVHDVskYWpvWu1r6zEMvkPV4yddX1/MUVAnXverV+1hg/uQm//RGTlyAcDbVmq7BHXLWWV7UjkNLJTHWWxjcSrwlKu91Ymrc8vCgOCgVgRV1AKZgpbPMzMH1C2JPA9gk3nwZHjluXzP0iAzPO8o5pGtOvTlyR8//q2VKLvn2IuI7mXm/X3td0LvAa66lkRTke4U5r8GHpp8L8VNQ3TVMtaLv46UZkWqFNei1oF9tXp2p9JqrD1emQAcdZlIEC+T3SxFGyxBeVQSnq/R1QyqOLYe53quMRh7iq9bB6lZxyFdJIijYbfHPgtdUGvYV1WH3QZgzRNPPKFS8pTDWza0TcrFV1gUaxE0GTQs5TAMjoLXuboroec/qyaoEXFQyjWcDq6SMuJ+5RwYFwgrwVFcUjYPjAtuA5m+Zkw5EhmPqw0bdtx7wNsABq7kqRtFREOY+XVf91cePKVplY94r3ARzq14a3HNX9fviYLquMovlVKRqHb84lqBd/pfDo8N9TPrjTv9njjCNlkLXZ9fYCRIb1UpGazkZt1MRFZoq5wvG+VSWV2Peh8ZLTRJ/o1tA4Wh5kxKt8Y8mMPGgYQaDWSmPWur2hwlChmJawmK4TQxiJ4uDQVXJOpq7fNywBhzkB/OADhjUQ89K/8pK/u6VfLm8pxl8p7gqoHA6t/Sx9j8fs6nTNx7WfnYLCR/ZOVjBqK7ODNxX+Tvy2X+jKs/y3OVHdjCy+D4OMzA+uvPWgWz9z0ncyf07u+gQ0meycUXtjsWkT907k7sOZs1vg2W0aTNhpfIwoiQni6LYigVMlULZdRrPfF9LL1rXXucY5uDDY8WqNHHhmFW9zFsE2Tl17KUV2yNN4z+4xzL66hhSGlDjqvScnQ/ke67reZCe/rNvoc+cuSjlVrsjDLxZhUCZnFPVjuoasKtknL1fRyQXWjnVe9Ztv6FJPmqZM6codKjnbm0LR6dj2izmpO6MCyqxono9Z6heqzI5ufwXBjRM8dS3chty4MPXrqSZ+5xZr7MF3wn9G7M5FxDq028x/TirIYc6jXZzilIYmWb5E2iIEUuSr/jsIkEEkXswvMuaDZiEmSBxx95yGlujI0ZSnzeMnws8iY1TqhGXKnUopCIjXll4z9SxUeC3u1s3yMMw3uvZVg2L9Y4/vgTKt4ll+X0rBSnVuKsTHjP1Z8rpMoheWqPulplrkqiDO31hsTI8t4n5X1LT1ltSVXFfLnLJIwOcS4MqQowmMS1oEr6oSrE4n/qt/yayz/333HYiShFu68MZAC+7Gu+E3p3BdnkCYMIyZaLoWTiCh9Z/bCVxK2rUpEKgGNOyPBIGyHMtY0QGLI5kJCLubYtRMqTD45tBdkZRgQJI0R2GotiEjg+fym3k1INrP/MYZSvZyi0WjLE2wSZMuKY00TOnBAAugibEz3NAQFzZZ+ciUXkd05yeQpX9XWGlpuV9RQQfXWcmbjEtZEXL0lVer/leuzC65ZSNwvizbgUFc/MQRV2rZdXGr1waCQEUr8k77J6UfLEuSLt513lAuMmAzB48P0raeYuZ+b5vuw7ofcAuV15yGoPLFkGynRKuR4XNk3yGSfUgXqOaVQrqxAMhZK8VcCaLYVAy/QQe73ib4Q47gCGLG9dNys5ngv2w/XnJf9mxtikhs06H07I9UFvdDa2UgLJQwTc6e0PjueGOB1Y17RyuzRV8/1xlAmxKl9H3jHHCggLIpaebdXuyULDgTn8HBAaF8hl9Xx/W9pZYn+G89x55U2n9uIRGgosDYkMYe16qSxwufBM2SAJbLnIl2Bg/Pg3V8Ks/a2lpeUQX+yd0HsCmxe0xiwgfWtfnItkVL2HbRAaazWABPlazjPbHqEO3pOR85GBwjXOu2DMuA6HPkXOJttySNCRUYDY8AqizY0AQWLDQEM4rkFhbtiGC1v3gqHU5MQd9enW71cR/VyHKtIEWO24404AIPaaq954xqFUzczKRs5pKxN/JyW7q/3swHjj0Iorf4bEd2kyRbTPjmBPPONccM8CyZzVMxYZDqwlc1Q21Svef1Y9J64Y65k6r/C4/YYPP3klyO5f84IyTug9z0NnHbSkSYVUbrMR8MVK8o0IXMn4UJ4tVJTR4bUAACAASURBVE9s09PV5FRABmyRiqUkJJSDpFCQCCIzx017ZmRI1EZfeVI58CSMEkoEqXEiHsDcGJdGjbE9YHr1tcbL8vyt93IsMTQ7nxM9DZSj1bnc/7x8CSzyxaVBxDoYLFPPBjLhNHMYWAYl7UNFuVdIPT9SHMzJastFBqtxcL9Q8N0VYi7vFlTJGXEgnTiPwKCB2DM3kjdYrxV5ZP/aa9/XwFm7l5m9LLUTek8gcxWhLEkjWMBJyc8I93hlABrYTs+OPNyEzG3pccktgYRLbUnTrALnSCXfmgSuDAorMjsKepP74Ma5spG0TMZ3gYszBmoSHxenCbI6OeYC0rXGlO1jRnEYnPgbEvPZxIw+cuSjco+4NGx2qHdAnFCR4kwBqQYpZHIPWjwDOpAuOA/Oq87plLaUnZeJ96KaUiej7GF9l4hyl1sJGQuBLAjbjzz7TG8PiJaqlUfhkEPeaNCMvQfgNF/ondB7KLkjUYylVt3uxH4rG15bpSWV8s4jmTyqaCI8YzZUAFLpdmR40NoogXIXVPqbFVVvbSXUlNNr/M411BNOzVVBtTqdrqdrDFBi7nVAo5buSRt1FDfS1kYM1UP+TU7mAPofe+wJMclSJEVXa7hnQjaXUnieg55XZQ+jxUtDJgheBdRV/i+rerVhKpu8BTiQ4cPodRGEJ+X2ch6Zfg/AYf67ziNX3jpzdQzCWu/hMeT8MzP6DB9+WoNk9/OZ+U++uDuh9yy5nQ3vuTCtSq/DHJItK9KxPhP8TcnXOtKdCWbZ0khWNjzUwpz6BEnr/eIs4cmmzkEX10imz1mpXVoyp1i1qErASEaXk5LxlRQbFPyREWmkjqfvBytdkWsELGam/JHOj2/GiHeiZ6rXm6FaViYzUrKkCCNINM/dRjmqPHeWK8NQJsYsC4LTmPIUMQrz2FGtyV4d+ax0TiInXueI6xetqHcO8uirhXEqhgr0bSeVBQqMC5kux1lu4GTV+E+OI+Wx1lr3dnDGXmDmH/ki74TeM0AUV3SVQVKkZFmrWhylipgUeZJsGwPB57KE0cEJY0OHfddRH5xhB3pJIhZNLeJzpJiIpXFCiRQ2rRCQIFItwUuShRWRn5LJ2Y54R60MgqLiM4jyi81gSjaCJcmaB6WINDOZl+T2BeH+s6qellU95kohl0wI1BymcgXJDEFgmfDlowDJLCA/1pnlMkJeKwbMgUpQVQjCuYjS6USUevVcYUfei+j68C4QhWrIiNTPjyOLF44f/9cOuiqn+iLvhN5DZXYr2KzWXq1Rra1QYoad4lxLliblwUbNVjj2PLWsnHfw0lIvsZE7ozYeySC+/HVSFdZSpVNTgYNy3DKLa428cavKnmmwGeoJp1QGK36BCrZh2Ah+NHLodRxCVDI3UYe+CdH36KNPCAmIgoh0CgLaZFBbJuxTKS1nlWNlqO4vB/vvBFVZDlXvW4gFYWW2OAsj2BuXZF8+QFARDiEx5+fKWqpnFcFupLuFkfocGjbBOElDoPSeXjuP+GoHZPcbmfl+X+Cd0Huo7G54ZbUcJU7sM6e83kjO1YSQKECiI7rlfnnQVYJiUopIBbF3mDIkiqql5a9nKDgOpx1jIJbUSRsmHI8z65x62EFoAeGr3HxWhg4btQciMk+cvLUPX88YBAPIhiTfrHK78MyRVffIy/neYfU3BKl7EcHJKPgsbHKi2DqKlIeQtKOSrRXPu7olUJX2M1WwpiyPy+I2qkBNFtiOWdWTDvblEVSRk2VsMxWsF+bDhwZmRXbP5f0117ynHbP1z2984xs/9oXdCb2HkjmHIab5wkGJ/eeISI38dG0YkGqhGcnEVNwYpLAEKydI2pDoORG4ZZVVJcOJJQ7HyJSs1bUW1n5nmOVdYTnQXO0vDsNYsbYQTKOJE55+jQIzZkpgIjMhyg6wjA51P3BTR7cvkONczT9HUDs9rMWeVdO+yteemU1N8r9ZqWphJTa5bx40flG/h/vjpX8z6Mj3rOoRZ4hbOKi0UyYO9rulcZMFRo4Yg0wZMDowL8prR2mbIt+rP/jgV9sxW2ddfPHFz/vi7oTeMxmdZLqa8uQs4k9JyLVyt80FPuXCco2GIoj3c01vkkMSJsSNXIJUM6NbFHG6ap70sFmn+xn9yCuV6ah2MZ+UAWbtNetc86QBRHHlOzKMJEI6XVDL8nILQhpmUOOa2nOX6gS4KR30PkcddQJXtsh1ffWqVFwVbKqNUbjsyVcapmQI95s5i2qgM8eKDFuGUpYXcoFKlVPkbeSiQykKXA70Q1S6FUGQHGTzF2a1D45gTORc596+DgJltScfeOo77fSNNsrujzLzlb6uO6H3YE5P5SGz7b2yJbcb3cmQqHKWKg1ref6y2hgZXdNInZNsbxoFraF2rrUluwf1zS1kQj3MFNHmNawz23PVRBp51tqQYHv7gHSTFb3loFIFA8ON44px1nZKECip1BzLqDCNjoSKUDNeo3Pl9pxsKEjHqpIhsQiI4/i5Yd2sxErXykr3S7VBnwh5E+lvgQcPBKVYQyLlgDB1QRhWKY15dLoOdJOd2rKoNCwKOrXFP4e13gXlM6ftudVWu7vOmWoBcLIv6E7oTuiaPMhowEKyAUh5dSeLtMkmxiiWTUXOw+qZbhWyMZSDiJu5WEEw08dSFegQe55seOj5RWrSA0RAnj4hFQ9Aqe0GFRxIJCrpkbEdEnS5UedN9UnolhLCBSl4tbrOFc4RNW8q+siRC2RzlNAIKkvqWTVWPBPjKMutAqrFKSkvOK9znskKbZkSxlTddCBqcxpEoSuiDY6hguUqxmmg3ButVBGWqJV16yu2r9n4qI74HKtewfjxL9c5Uz9l5kW+oDuh92wyJ0NmTZYaV4RvVjHjtOxeaz+20FMr6BRmni+no82jyHlF3vKiLr/8S1i48HC7WhzHC1HkIbNdfMdqcMIF0nOyoUs9hWwS1ojZQc8aQ02+bKsuuiQZk2EQGRX/rDFtFgf9s5/9bCi4ZMFedqmNKKJAtzDqvCQ3Z6y956rnXIlWl2mMucccEGeJkIPqcpWir3nXMknMRn65aChUIeZM1aCvZx6sZ5ukQyAMWv2I1XdQYNSobwF4u8aZ/JmZv+ULevOgjw/Bql+rgucnq+dhMx7gqMyrUQBGNlqRud1yTzmq505GiVbEpWnJkHArXrE4uahLGNk68O2/Pgq/+c3H8PLLu4F5LIArMXkyALyO1Vd/BMOHP44vfOFZbL/91MJ9ftZjKb9TFUsPxsMoCRsQKUSLWoQR6zImIhhHjru4keqVXnk7x8GL8vja6NHvDYoCGfeHFfTYtE8IPUNE2zKnSuBWx5flXJZ/JiSSGoRHzJUuxly6ZbNS7TgKlB5WtzqVU+XCcWT9myjcFHR+o1z6l88R1SG5kJk4EUyupdKZx7eedQq/K/+1X7/pWLHiyIKZOh3Anb6kO6H3cA9dLODBQkzhuh3IwRR254raXpJ6sFmRqyInK8cZihAoJdkinY/NibzpwFAAMG3aBNx550fx3HPD0No6FsDNidEagnffPQzz5h2GefMAYAkGDnwQo0Ytou9972fcr2+vYMEjjuX4MGQ+XAxZGiEUGkLEhnejiFbOHxU47Ob7EjnyRR6/WbaVarfXledNiI02aiKC32qrBxm8bXXYKF1vgTPRNjb3tqk65MH9rCv06eq5HNUqCmdAyOflcWPLVrSsc7llFnnQVhMGCgk5MDw5JF4kilUR1fQrYsNdHGfdde/C66+nCP0OZnYyd0Lv4ejVK16gdTGSoj1x+XCnntPCiOxaiz7ZUjMlvOBEa+7QtSFg7kPH4M47t8Ljjw/H8uV7ALi+nSM4FG+/PRQzZ4JnzmwBMB+DBs3FAQc8i9O+fH3aM9feLClPmpQRZeyjm4SiPH7LGNLjlKGglK4y9uJVOr535EIvr4uM8r+EOG2xboloFeGFFzbjM//ryo7qCNyg9/Rg7Jd4fRmArwE41IfICd0BjmOoUEQYamHOOPREqYCcg5QtVnXIDV2SNKkrAqxEXZNITUNIiCDglVc+jWuv/QgefnhHvPvufgBuWkn37+5YunR3TJ4MTJ78HojmYZNNFmH//ZdgwoRfRMu2jgEgViVkEQYLEqr9sAPS12MrVBEyvK7Au4IR1KdImeoonCOVAnNvX20XENJFjJqL2cb7GtHUOJeZX/FhcEJ3aI9Z9zmXi7S1L2t6mFDvV1XNAgNBdVujhBEg3xPt3VMcgPPXv34a11+/AebO3Qr/+teeAKZ2wqiuBuZ98cor++Kqq4CrrlqGPn0WYJttFuCQQ57H+E/cEHrClDBm5P43qWj5RO18OSe641lF/tTlb2ErIm3KC0/J9KSC/Qj2xjr5s+hoC55m5v/1YXBCdwQEQIjSsnRAmZbJSS7UyiOzZHiuseYDRjOVxHvIIJzrrz8V99zzcfz5z7sD+DWaL2tiTbS07IOnn94HTz8N/PjHb6Bfv7nYdtuFmDDhBYwY8Zt4b7xGf3dCut47ClL8kuOayI0nw5CreO6GMgOlKrBUEazAOsSxHA5HMTKUcs7n+VA4oTushd70yrjAEbOYQZM/IdyoZSOwDoZ3RnFVNUksU+84Gr/+9TblSPQ9APyii436+lix4nAsWnQ4Fi0CgCVYY40Hsdtui3DqqX/G+uvfaRtexhxEGQUwxlZ55xpk7IcHn4OhilCc6kikyrkiJHMrup2UUeGbyY7auJqZncyd0B22sWsFUZGRRqX3YxFKuawjaJVLTbCj6WF4mvL4jzxyKCZN+iieeWYXtLbuB2ByN5uEoXjnnaGYOROYObNE8OusMwd77PEUzjzzp0FEsZnapgwxhsXwaszZmENl5JGhnFjefqo8r3yNi4zDAgXH4QixdPHixQsAfMmHwgndES2gsryqIHIYgWtBb3CjCImV68xFnn9iBV+06FjccsvmeOyxHbF8+VgAd/SwmRmKf/5zKO68E7jzzhUA5mP99efi4IOfw3HHTQrl+LbGUBcQq97ayBIetFYLrCh2QEXHcxjQWBEBSBmF/lg6CvGNoUOH3ujD4ITuqLXYa7mcC9qKys+oSqMm6ZuLfBmvv/55TJq0IWbP3hb//vc4AJN8XiroB2As3nhjLK6+Grj66ndB9DCGDp2Pww//Iw4++KZkTJkZc2AYcHJuSQTlWcckCuc2l9m1lx8YjEU1C2p4+A5HFXOY2cncCd1R23PTiNwzlVKd8MQDMtd7tsJTm3Tjabjnno/hlVd2R6mYi4dD1YfVwbwvFi/eFxddBFx00VL067cA22zzFA499EXst++1ppISZCTAyHcn1YHOmjfjdeYaoktRJzWuZYE4HDlWADgFwLM+FE7oDpPPjSpuOkUqSFMjFQQFEenMUb+NYL2eNOk0PPjgFnjxxR3LJVUn+gQ0BIOwYsV4PPXUeDz1FHDeeaUStTvvvAgTJryILbe8JVJfzDzwooA0jsk2MOosg69IMdApdEbxGYcjxIXM7GTuhO6oSeqAEcdWkDuuicBytu6+5wT89rdb4dlnd0FLy2gn8FWGUonaOXMOw5w5ALAE6647B2PH/qH3aV/+YWv/fquH2yS64I+4GfR7WBl3lffo8qAclwImxFH2Mhfeur8cjhIWM/PZPgxO6I4UdH1lsysaEDYPSRA/A3j22aNw001D8fjjw/Hee/sAuNYHuSkwFP/4x1BMnYrWqVNbQfQ4NtvsEYwduwQnnvDTCulGnfcSleB0/rtUeDjRAta8rwqMQYcjxNcA3OXD4ITuKHbPY3lUV38LjADhof3tb1/EHXcMwpw52+Ivf9kb6aYmjuZBbzCPwEsvjcBLLwE33NCCvn2fwpZbLsCBBz6PQw+9NPKUdWZCZnjrgTcvby8dXGdWxqmjgYejB+NWZnYyd0J31Omqx4u2DKiSDUJuvfU8zJq1FV54YRRaW6/2sesGz90HH+yE557bCc89B1xyyTtYe+2F2HHHJ/HJT76MkSMvrRKuSlnT0fK6PLCU4pmMoDyVxpbqEufoyfgPgDMBHOlD4YTuqMNBN7106aH99fUfYsaMdbBkyRBk2XYYODDDiBFPAHgCLS0ZWlriJfi991qj11paMnzwQeOX6xUrMrS2Nv64ra2MFSuyyu99+xL69GlMSdl+/Xqhd+/GuKQDBvRG79512G0E9O/fOzqPXr0oOh7zprj77s0xb94NGDfuDeyw/bcCArfSzpIFbqza7fIGNCLl3Vt3lPBdZv6LD4MTuqNuRleSqO6+NWTI2Tj+hDhQTke3W0VCpNEg91qJ2hAAZfVHbezlJ19LxQzAiD8gXdZWqhyUiPBGnJ+vW9aSKscaZCYYaYHECSLl9o9psn2rLnCTqP4njxG8n0QfcaT37x09EY8z82U+DF0TvXwIOonPWbTt5Kjyh/ibJArxvlRTEHlcuYCjrQu2PIbmiUS3l2QlNY69Qf0d8o/SiCFBWGwRVMF5MMOsY8+p5G1W40thudyiz6XKtCbPLXEtnPK4oZryaDKX9wrU97C4L4xo+WgeHD0UGYAv+zC4h+7oCLmnCCIlx+v8Y9NDU15l1NgDoTda8f6FNx8oB5KsVO/VIOVKtyDVncE47YXrNq5RKTzLczWMHNPY0MfOEHauSyVw6/PmAmmaw0Yqla+TVdt05zWtCpBKKzM68JE1F9a1GioNs63wuHfuAC5n5vk+DE7ojnYxOSnCFrIx6f7jiY8GBKIkYSmj6jKhWhUmhGSjvVHd5avQG9WFVMj2AuupN88c7xMT2WoBq++MUv4UqRLsGunaqAjyvRMR5sGYamOHY+LVAZByjlJqBFIqR+oWS9UxEJOfQbVwrRvLAHzgz3G3wVJm/qoPgxO6o11eOdT+r/KSmGJiy8ko2fucEwu/atJhcSynbQ3b8zMvSHyeq56fbjRidh5T1kX+XtJtXGXutqpXTqlsgTJpR5XaWBlKVnyCQYy6Van5WkHuNyHRtyWLid8qRJMyDKMYOK3kQKgvtVSimnjh/ffff7t///57+gPdLfBhH4KuD99DX/WgUC7NydLaWzXacXGdvaut/WxW9b3NeuAcy9/6nMya44L8ovx6tr3EVBtP1t+TnwPZjimJcWFKXBunjZfU9XFqbzkzXs7E9xiyt/wOTp0Pha9JeZ1S10XqIuTxKU6BDMafYZaXrQ87DRgwoJ8/zg6HE7oDBV5c6k8yUMvaNw7WZ1LlZTkkNhZtWnNCjIicjU5wCMmbjfexJi2yDQnLmEgOCZdJMyFBc8TO6XFO2ErheZBxuAKiZl1qFaFBkCsIJIymikog50SfnCRmUp9hZSzAvijWBiEnrJo2YzcimufPscPhhN5DR7yXEYXNBskoT5FSizgrz5hjr1wSLmnPWXi+bETGB+SVpQnSItjI4+a00aLr0+sxkQF6rMhSequsydCQpLU0Hoyd2NrQEeTQ8yKOR2yrK1IxsObYvHYxF5k8ViYEgYLo+Mh44fheCfbpO1RZZjQRzfQH2+FwQnfnPCAFhJI1cZ1OlOGJ1f29gB1slcUEpqvb5aRKavM290R1VzCQbaxE0dbKq0UNstIDlLxGtt8vVQX9s3xPBiRd/Swxp5GSokmcQ0UjCCiEyDZQ40+KqInj9Dqt0MjaBGBliHSoqMy+RHSvP9QOhxN6DyVzI4AtCr5CHWpokbzM0fZqSGzWfwhlchlIF+XGA0F+PCtyyr3ToCUsYhk/tV/N1n5zkaSeMIAyTneo4xpDyglChlIgiGNDxzLEon1wmbaWmCdL6WAVCBjlnxf0Q2ejjkHH89D3J6K7/eF2OJzQexZ0FLJ8TUukVgtVVkTDSuLVkjzpgCmKDYbK/jzD3GulxIVwUaCeJbWrn63856IiLTqdK0WerBUOmUomzos4LsIiiVW2JkXBvCRT5zksaEMGuUbEW0/gY5bmYS4w8CIjrw5Vp34cSERT/QF3OJzQe5CHrqp2WalPck+W1H54ytPkRBR60V61qRokzjn6XCq6LLHfXIlCl+lzrKLgVVR2EKTGCUUD6UA7M1iP4vSxIE2OYw+5nhgyLoohEGpBimgLPWVOfI+hShDHqowVUBkcvmF13D9NRLf7Q+5wOKH3IFJXnnhRwFhWa6E3qqhxKiedw2phOUFY0i2zHawmU9GYFOGmvExNWpS4FOM4wb+JAi3Scy1SNuQYZNrIQjXwzDKWUul02nhgEUMQBaDVMA6iUq2qPLBO14O+f7SKQMY9oRWQhpd+PYKIpvhD7nA4ofcMkOHJMicImkKiC9LFVPUyQpyvzSogjNS+eJTjnNiHB9J/T0W4p+RjTnj7XKNOezIFTUaVc6gARIYKQhk88GopNrJINrexvGFGsi697bKj5l67dX3m1gNqxARYNfXbUdeg7fgsEV3vD7rD4YTeMzz0gGA4loCtfunMaZJjLq6Epr3RQAEwCICRKEFqfD8n6qlbn2WrwQzFRKMD9YIUMB2oJ/bHCUaalmFAEeIIcMugiuaBi3k7MKRg71PX4n4zgLBWnj0XuP1Q/dERlhVeObXcJxDRtf6wOxxO6N2YzLk2GSBBQrWIV+c811N8JKokxmF9d1nGVRcpqUi6hrTLRU1VFHGzzDOnOEgwGo9EU5I27E6klYd6DRzDTbby1XXGQJARkFIqkCjvi4SELiLfK4qOvtdUxDypHPuPfvR3MJLzOogTiMjbcTocTujd3T0vIBVOFBqRi3eqTGglxxhKkufY49NFaXJPOJCgZRU0hFI/W3vcSDQE4RoZUhlqdk6rqRhoUlSnRhYha5VDzxHHmQdRxTxKG1+pbQRZv54SEf/EthGoFZ4gr99SN4qMjzL+7/9+ih13PB1AS4Nv+NOJ6FJ/7h0OJ/RuyuesmrQozzMiZzJqorMd7JYfR6dlBZXkUo6oFVjFqvJqXjWuIHitZgS9VcyGaqjJomIeEvvWQf57quSpEXVvngcrOyVBqlRgYFj582a1uIL+8WZtf66h0ihjkIwAOev7L7ro5xg58qtofCe1M4joYn/4HQ4n9O6DV17ZPFmPvbAgCScIMmday9tVx8lQIL2nJAOEUduQXj+0u1lQNIcSJUiV/BxE0EuDJickiguyWGViU4ZEMtCuRpvSVBAaOFZRuOi4CWIP/qNYDg8a+VAcU0AFm/K6Cl/UeEdV9Dv//InYbbfTVwKpn0lE5/oi4HA4oXc2/tmQoyxfPhrHHvN/JnnkC26WIFakypOSvV/ObJSSNYq6WMVhojrnUJ6sImLmsNGIJe9HqoLl0SYKzVSuLzNIPBFrwADefPMLmDfvpPh4uoAOpYu8aFWFVDW8fGyjinhkpJCRqi+Q8Lwr1eCoRhyEZUSk/lancgQA5577S+y116kAljf4OfoBEX3XlxOHo/HoUFcGhfOZuds+qEQ0AsAcAGs05IBjxpyBc865NEytMhqikCBsWYe7IveqvO3UjOruaw0Nak703ZYdwhIfsX9nsY9PYn+fRDU2Y88+v8ZbbjkV06ZtjTfe2APATuU3vY2+fR/Ftts+jsMOewm77vaLqpFDYRMX3Q/demzkeXCDHqcoPb+grakMarPGPnWMINZCd3ET91j++k9/ejzuvnsigNUa/Eh9m5n/x5dgR48nYaLzATSEO53Q2zbwhwO4rUHKxvv41rdOw377XbtyZqUNPa4DY6HocDL9SRFq4GHLVChZ2taQj+X1Vq5b/N00RChsZDP1jjNw770b409/GgZgTwB967jqN9C//1wMG/YETjjhJQwdenPtYeSwHGwDp8Aea1G0Rx9UN/IBDCOE4r1/NfThHGrDsHywa645FlOmTAQwsMGP1LeY+SJf0h1O6E7onTX4ZwP4YYMO92fcdtt3sNbaNwUzQfUwAStiJOV5IQyEio6PtIcrXydFKKTlaeuWEupCTe+1Hbfg/Pmn4o47Nsfvfz8Cra2jAQxowFwswVprzcaYMU/1O+WUrVf073dK5NlCyOpBIBzFbMpGfjcpA4iV4iKj3pMqC1SkfiqPvMEyzKRJx+CmmyYC+FCDpZ2vMPPPfVl3OKE7oXfWBEwCcGxDDtanz8OYPmP3gDDZcqMoJBQkiIITn7Mcsbpmn1BDf26nq2p4+Km3vfD8sZgyZXM8+ugwLF++D4C1V/IUZwD+iMGDF2LvvZ/FiSdeWOmRLlP6OjQ8jRhPQ24vtAVTBp71QaPW++9++3n8/OeXA1i3waR+KjP/0pd2hxO6E3pnTcJslOTdjmOdda7GLbd8MSRtY4Ft+N53ggG0zJzaozXfZ6gFwf43x+RTkdHLF/f3pV/A5MmDMHv2dnjnnf0BfKSTp7sFRL/Hxhs/jH32eQ6f+9zE9EBwaFxRneNuHsLanyf1K4d1AmRsBZBWUohsw05upTDHxH/3PZ/HJZdcBmBQgw2oCcx8oy/vDid0J/RVjiVLlpy4xRZbfAfAFg054PDhZ+HCCy+oLugFDUws7yqSxRNEUMtjtohXBk9FAWkc7qlL6ZjrkNgJwLJ3TsQttwzCzJkfwz//ORbA0Caf/nfQu/d8bLnlfBx++BKMHXtNmiR18JoObFQevx6rSA2g2gae+brxYnuf/vnzj8Q551wKYEgDx7QVwBeYebIv8Q4ndCf0zpiIjwN4BMBaDTjcBzjllC/jsMOujIKiNDFbkrsMJpN7qpIEyCg8gzS3B0VujG33igHQnlto6tTTce+92+D/2fvuMLuqqv13JZMGiaH33nsRaaKIBfykN+m9RulNahCCIKh0BAUVVBQNCoqodFBApPih2H6CIPAhCFKTkGSSmbN+f8zcO3uv/a59b+bembS9nmeembn3nH3O2eec/a76rhde2AJ9mehzq7yJ4cN/gw03/Bt23vk1bLbptX3Kja1CkLQkbkBeR3I/JaPMRQqht3+w7x/+sDfOPvsyAMu2GdQPUNVbyjJfpAB6AfTZcTP+B8CdADraMNzr+N73zsCSS94Yg7H6d67RHfS+b7pEyvRtF+ZOJv5iW7J2//2H4fbbRyi2+QAAIABJREFUV8Fzz20BYGsAw+fhx+I1jB79GLbY4hkcdNBLWGKJG7NoG3k4pHECIx1GjQIWWvf2czh5GN4zYpTI2v7PPfdZHH/8VwCs3Ma5mwlgT1X9eVnqixRAL4A+O27IiQDaw1U9dOiT+NWvNnVx1uRDxds4tdnJNuKPletVLrZsK+QwDxuqKPD448fi5z9fEc8880F0dX0Y7a9jnpvkr1h44YfxsY/9VQ499EodMXxI5OEI55UBMyvvs7XzUD/pUcTcK8f5058V4l//OhCf//yENoN6J4DdVPVXZbkvUgC9APrsuCnXAfhcWwb7wAd+hIm37pNYTtRYs7Xhklp3Sf2xpOQpSWK9zapHnkTl5ZePwsSJy+LRR9fHtGnbAFikvKpUugH8EUsv/Qi23/5Z7Lnn1/mrKHHC20CJUxDBUy8sV0Hv8/Dmm/vioIPGA1injWc2oxfUf1kemSIF0Augz44bcx+AT7VlsLXW+iKuuPL8dNVFGhfX2XCxU6YchZ/8ZBHcc89aePvtTwBYobya/ZIuDB36J6y88u/xmc/8E9tvfzllwgu9JCDMbnXAZa+4AeAo2RFp4xYh1j+I1R/mYEyafCD23vsLANZv49xMA7CDqj5QHpMiBdALoM+Om/NXAOu2xZLbb7/jcNBB1/bL6vJoQFVS1jYxgJHEWQXDZs54eeYvf3kt7r13+d5Etk3KqzgwqhKGDXsC66//B+y++4vYZJOvc6DV2NNiaWupxW/xeRaz3ht9P2XKQdh771OgumEb52MqgO1V9aHyaBQpgF4AfbBvzqoAHkd76nTfxnXXnYaVVvp2tCDXrTEhYB0mpYWWWK6QvGZpSbzOP/jAGfj1r1fGX/+6KapqI5RmPrND3sCYMY9i882fwb77/htLL3397DkN1u9ektDP0Bkzp3Xvsccz6O7evI0HnwRgO1X9fXkcihRAL4A+2DdoawD3oR2Z3EOG/B2/+uXaceybNBFJDC5TqtbMXX7qqc/j9ttXwjPPbIKuro8AGFHu5hwnL2Cppf6ArbZ6Hvvu+woWGHVN3MAGhi8gdKUDlFkuBO1sCWP6eEVj185jxgxgjz0eQ3f3lm287vcAbKuqT5RHoEgB9ALog32TDgPwnbYMtsACv8BPf7pTS8aVkAy4N944HrfdthQeemhtvPfeJ9Ceevoig/ugvYCVVvodttvuBeyyy7lp7NsS0RCavmYSH/uTCb/LLg+iq+vjbbzadwF8SlWfKje+SAH0AuiDfaMuA3ByWwZbbbVLcNXVp8csbnYhzrG8AXj3vbPxi18sjEceWQsvv7wl2svJXWT2SzcWXPAZbLDB0/j0p1/Cppue3783vQFLYbIJow/uPdiuu96Hrq5PtfEa3wTwcVX9c7ndRQqgF0Af7Jv1CwA7tWGoCnvscQIOP+LquOZYTKtNsucjj1yAu+9eAVOmLIHp07spJWt3t6Kzs2puvVfFtGnVHDHBU6d2z/I+Q4YAI0cObcvxR40aApHWWe6GDxd0dORzFEaOTI81fLhg6NAhdLtRo2Zgiy1ew6abHYZhHcQVb3j31STbUdJ921HOaSYUNhHaffe7MGPG/7Txrr8OYBtV/XtZYYoUQC+APtg37E8A2pH5Oxlf+crJWG+9G/o/hFMOBaTMcUk8FvApxYC0AxjpCmYJU4TFdEP+c/AmLh6HOUDY0WbDTfeY+KLEc6fxjUuzC5ITYYl9TLMWj2+fzRkrSWPza3n6aTzeyB57/AydnbsWUC9SZOAAvWQtD47sAODfbRhnDE4//bSexVR5+VHtu2R1DcqZaqCpwXZRmVoNAAwaKuJ9NdhWe4+tiMvf1J6n5aLX3m3N+WgwbnSJmbp7RTon2kKLUnWASjUFX9X8vdCAZ1/UWMTB9dvzrX8ezmmApGIuPpxbRfyZGt1LzJwp8nNW27Yy1185j1w41k9+sitGjWonR/uSAO7trSopUqRIAfRBMtZUXwGwK3pqalsdbA3svvv9fZZXABa0lC1wj0b/G6sv/F231oxlx9z6iozyoDEoMXTUnGWnyG+s6fHVAziNAYsCsaYWtNq5DObPWql1hSbcTlIlyLaLdZGzwbWyc2JDJEqV9oBwZZQ0qoggRXwJlTHEeRtqFJGw09zEifti9Oh2dlNbDsCDIrJKWWWKFCmAPpig/iSAQ9AOB3Bn5ydx1FFXceDWFA9U84dVYvmGQKfMymMWqbXuejcW4t6PwEbT8ikLvmoIU5j7PfI8SOxGrsd7wxixteIlvl6qDJALUW1SKQnvQ0XmK+dyIMdjHgmmZInTOrU2B0IUr8gbI/G9V3O/oz4Bajr9GaXgllv2x9ixN7Tx1VqhF9RXKqtMkQLoRQYT1CcCuKAtg73yynG4/PKTEwBWD6wZ6CjfLgEQMdaZOlYd4tatKilICgkVCFJlJDkXibcRJZY2OR9lFq6mCo86ShGdL6KAsP3UHIslj9XDFRasA6XEKjURGCMOeUQuFhCvArHatZGaqQ1CGZXrVDAvQM/vm79/JBZd9BttfLVWRI/7fdmyyhQpgF5kMEH9XAA/bMNQgvvuuxCPPz6ub2E3HbfCuGtozaqmFlaIm4lVzLq4SAwOCeZpCroWVBOL0g3E9oBGzvAFA4+GmXN9FixzoQsBwIh6NbDsKY+6ubawRWpyjoSytVEsmyoyAchaV7xWTXgQHOeAEgsegaISOTnUCbME13bjjeOw+OLXtvHVWh3AAyKydFllihRALzKYoL4fgHbQWI7ChAlnYXrnuL6EN3VioCSuzVZv9Sw0Ta3ARhZ/LpnM9SZYBUGJe96EAej5SJCUZ69P4+9sqCEEJXYhifWsKXgzMKYx7QDM1YubN2stG8vfHlvgm+LKLH2kXhIBmReT2BfpTubaQk/Ft7/9eSyzzFfb+GqtCeCeF1544fCyyhQpgF5kMGU3AC+3YZwVsM8+B7qZ7ciAZuTqtbuo879t6ampcqBkMU8+Q5zdrs75hUY1vRghGfqhK19ibwRNLqsaTptvIjPAbjCWNJuLIKkyFbnmBbEiZxIfw6Q5MYqRVeIkd/JOqEEbTBZLAbDH+MY3TsMKK0xo43u1/qqrrnr8lClTvluWmCIF0IsMlpX+GoBdAExpebCZM7fCYYffEK+XhvAjScDqdcELWfyVuMbrfwqSUigYyzMHWCzRDA6w1f6uyGdUMTHAUanj1rZjSTq25/mPqgoQx93FJoNpqvioKVcLz1mEeqeNiZ2WqonNd2D3xruW2lw1UAATgHay7m0+QS5TvzZ311xzLlZbrZ2gvuGYMWM26Ozs/E1ZaYoUQC8yWKD+NIC9AXS3PNgbbxyJCy44q88akxScw+SzXJ21i7HaxMa1zarmrFULBjabPqmdh4n1s2Q8ja3OxLqFCSGAWKvEIva8EtblrkE5l/U2sLmKAM6rJw88Ceyc639UfK5p3oQYt4I4Vrx3PhllCgS4w7a8thzw0kvPxbrrnon20QBtPHLkyOFllSlSAL3IYIL6LwGc1ZbBHn/8fNx//7GuK5R9TmO0msaHQ2BQEoe3melhJratwWYuYcuiBsSlZSC11CIpwDZDQEPr5oVYqx6BjweooXcAfeMoUaI865/dB89DkNwvcaoEgnuXhCHgk+NEDH22Bp08M0zni+5HmA1fpdtfdNGXsfHGZyKJgfRbthSRR8sqU6QAepHBBPVLALSjz/UwXHHFOXj33XHc5QmSoGTBS/qsSzHZ2GqyuhMrVohFGsR5JfQUGIY6DQBDAZcJLzJGGaBqHrhZsqBVToRYtpHSYdzaovks+JAy1bLCqWftC6/tTkCceU9stYPHJJiZP0UG9JupnWfbifmbhGy+eN7F2HzzkwF0ten12kpEHi6rTJEC6EUGE9SPAvBgG4ZaCoceenTMoW6zqCV1oSYJcprBRjc93YAOkMZUg2OFbGWJpe8cL2FnIxa/OuenDpjUPyJehJAxLym5C8YRpMqBtW7V6WJGr5ER/TThjc4mNzr3WxrMtTic+OqAd61MMlLwlCTeEZc/AJx55hXYZpvT2gjqHxWRe8sqU6QAepFBk8mTJ78M4LmWB+rq2hgHH/Sj1MJEc38zOtBmwBZkwQ8z3FUJ2GtcChWyuiXnQkqphIFlkPUdAnSkAEj8v+bmAalFa/fJlXgry6hn7ntCScuwj1neCfEPY7yTtC4+4eaXPvAVElNnpXr1UjRNa+zVK2X0FK/ez0488XJ86lMnA5jZptdrWxG5u6wyRQqgFxkUGT169MEAdgbwbsuDvfPOPhg/foJrpVpSmOR/Uk4mAW2qsli7tXrF1D5LJkkPhMlN4WaeMzY3qjAw3UP9bRIrlYByzl1PG9hIGoKoA1/YgMZy8oegKHHOgBiUp0lrjuUffiXOHNbj3M3mqNXOoUK2ll6d3AAG+scecxX22OMEANPb9Ip9WkR+VlaaIgXQiwyK9LaD3AvtcDf+6U9n47bbjqekMJF1DJPsxBqAgNCPwrHglbDQqQ+w2kQCHyuD0wyAiWMNJoArqeWZlLFpbCGzubKEK5Y5LQJn9jfxWDAgjDjgNQ1ZK1NoKs91EHzFFBbhjHEWrFmHtyhB0nb2k9iTwEIntV8HHngt9trrJADT2vSK7SoiPy0rTZEC6EUGC9TvATCuDUMNxU03nYfXXz/GM0B9YhkHdNnirsi74Vn7zmjBF87KZsvAIivScNyy7HtBbN169KxWRNM66rpXQXnel0vTqo0tUft35bRNsxnuLDudhhMkBWAbz4/m2lLgeqxwSBWf+iYmkz70UlDuAK/UrQL23fc6HHnkCQAmt+kV20NEbi0rTZEC6EUGC9S/BeCaNgy1CMaNG+eCcWj9qcZ879Yl25TLm1hq4jRhsciUxMsl7eQFR8EQAnJR+KDi+4VlapFBm8n2dphPORUuI62xLG3B9lHsOuDhjyxbpBZ90qGOKT2Gj1+Zp8OQ5iixwivn3iGn1LF77pQBRkP0KmLbb389xo07BcCkNr1inxWRwiZXpAB6kUED9WMB3NnyQFW1Pvbf/46+Bi7GrVvHDDH9z1l2suYT7RScHIZylYN3gVNvTPjUoxXy40axamYRWkvUxrDVuI6J2xwk/4Bef1jCp8R9TujiVJx+62gyF0Az2omxjL2WrDlaYG2m8sHODak2ACHwqekl2213PU455XgAb7fpFTtYRL5TVpoiBdCLDBao7wjgby0PNGXKzjjjjK/EVqIBXo+S1a0H9wCedHXLgbEdRxtYxJFlKsZKDUEguB6x2fQSgwptemISBV77z+fp3EZkLWyOKjJn1tNgLe8qmMcqny/AHxyDj5LenygrXQz1rxJCGY2b17AwSuh2sFnzCX2tkrwL8A5+tf+32uomnHnmFwC81aZX7DARuaasNEXmBRG0j2rxQlU9u0zpANwkkZUBPA5giVZtdey554k44ICrooW3DgASJ8lp0F1LbPtUAiB1K1/9pw3ECGZPIX0ygxawze/U/yd92rRxuPXWD+C++9bC5MnbAlgeQBdE/oTVVnsCO+74L2y99Vci4BFnTi3Iq5A5CecQprbdXIgYoA5zBOpzahjlRLj1z+ZXyDEHT401j6flpxfg//39UJx99kUA2tUu9UpVPaGsNkVmw/p+IYC2YGcB9Lnnpn8EwP0ARrQ41GRcfvmZWGmlayIwsUAgJNs7AhGQnesn64N6f546T4+w8edEQxCjcJBe6EHMuKO76+WuX//6Gvzyl8vg9dc/CmCTJs7ufQwb9nusu+4fsPPOL2Ljja+Njhcyx4Xzlygmkl6UeFSxAw2wgTJHJ9uWvpka9LoyGPym94SAuBhCpPohzXgK4F//OhKnnnoegGXbdOGXqerJZbUpUgC9APpg3PhDANzUhoH+gYkT10THMAcI+4G0FHQNcCbbENCtL+oWWDRv3VsgSJ5ym1DW+/k9956B++5bBc89txmADdB6GOoNjBz5EDbd9C/Yb7//YMkl+0fpa6395DMLusYzIJK/J5H3BUhCBmLHCisSQm8CUwTBv8s+WwJacph4IsxYr776ORx33Fm93pN2yAWqOr6sNkUKoBdAH4ybfzGAM1oeaNSo+/HDH36S4q8EK3FiBROAjnqdG5BREjP1ADtZ9B1Fgy74TT7NTz99NH784xXx7LObAfhoGzwejeQ1LLTQ4/joR/+GffZ5DSNHXZ3W7ytRPhjIm5R+CeZTjbseMAAIY/XnvCqzHAuZhRugDa5PUgdQ2IhHSVjinXeOxBFHnAFg1Tbds/GqekFZbYoUQC8yGA/Aj9HTdrU1WWGFK3HllSdEVpgYwA6B3C6qUUZ8YDk1ZZG16VF0w/q9X7z++lH44Q+XwmOPbYCurm0BjJ3Nt+8FLLXUI9h22+c6dtrx8K6OjpX8nIAG08S8FDoIsW5bKuhtEClvzn1Tq1Q4z1x03ED5q+3z/pRjcPDBJwJYvU1XeZaqXlRWmyIF0IsMxkPwJIBNW16aP/3p03D00V9r2tRt9MRYiypB3NCqRGOiFye8zAFGgf+8fjRuu20ZPProepg2bRsAi87Bt7EbwB+xzDKPYqedXsB2213ReC5sHTloeNrdT5lS4OUXIK5dFztWqAh6MXJzQHHGpJ6ZWVypurs/h332OQaq67Xp/pze2wmxSJEC6EUG9CFYFj2Z78u1ONQ0TJjwBay33tUpEJjMdTEmoUrqck9MN9K/O8qmFpNhbxZ+MSVQduGfOWMcJk4ci3vvXROTJ38SwIpz8W2dBpH/xRprPIMddngJH/7wxXEemglfQPj8hpZuZAUbYE3wluUZ2AxzBElw4e32OtjNqnulkZbXUKs7AXvtdTiqaoM2+SKOU9VS1lakAHqRAX8QNgHwWwALtjjUS7jttsuguDIBDJYABWIZeu52BkiNHjnJbD9zJnDXXcfgzjtXx5tvfhTAB9EcoevcKFMwYsQT2GSTP2KXXV7Fqqt+LU5Q83Uo8rAQd3wTr79NxLNTHZU42l7uxisTxsep1yBU9mzuhcTPIc3v6P1n6NDjsOeeB6K7e7M2gfrnVfW6suIUKYBeZKAfhs8CmNgyqA0b9hB+9KNtmk54b9uTY5KkWGLUI4+ciV/9agX84x+bAtgYwND59Ha/hlGjHsJmm/0ZBx74Xyy00A3UzS0ZYLZVAxaAmbdFiXvcKy9j/8N4CRJPTLBtpBRYSlpNPQZevXxXF3DggU+gq6sdoF4BOExVbyorTpEC6EUG+oEYD6D1rNwll7wB1157pIsMkaFm6o7d8jX1y5qiGuVg+z//5Rjceuvy+NvfPgTVjwAYWe4ylRewyCK/xVZb/Qv77vsmhg3/eqQYueVmQmrAieub1YDDgH1UX9/sytKkp8b1GGQ+sFb7fvs/hJkzt2nDXHcDOFhVby6PXZEC6EUG+qH4PoADWx5oyy3PwqmnXJQsjtZiEtPgIwQNYeVrINnvvRu89ebRuPnmJfH44xtixoxPAlio3NF+AvxSSz2C7bb7J3bYYQKGDPXJabKY2u6Kg9xGTq09ddGHyor1AISnbkhqDjjwAXR2fqJNoH6Aqt5SHrUiBdCLDPSD8RsAH2txmJk48cRT8JGPXMVJPZp5ahpYYDNmHIOf/GR0byLbp9E+pq8iIfiI/BFrrPEEdtrpJWy++cU0bh2CaHL/CBgrScwLqwySTHriKbD4DuXkPyxHIGHX80iEECdSHnzwnZg2bcc2zOtMAJ9V1Z+VR6xIAfQiA2eevfDC4auuuupZaJ1g4z+4+eYvYeSIa2JXOiObQWoh2c87hp6E228fg7vuWhVvvLE1gJXL3Rp0mYoRI36PjTd+Grvu+h+ssupX+0A8yFC3BDOiTo27AdUEY2fZDz/wcthhd2DKlJ3bMNIMAHuq6h3lsSpSAL3IQD4c6wL4HVolUOnoeBw/+tHmKXscTGKVpAlPUODBh07BnXeujJde2hLzdib63CqTMWbMH/DhD/8F22//BpZZekJDMqD+MAQ3dMM7G7DadkZolDQQQpw1H1EDAzjssB9jypS92zB/MwDspqq/LI9SkQLoRQbyAfkMgF8A6GhpoLFjf4RvfXsfv0lIIP/856n4+c+XxlNPbYSuro8CGF7uxFwl/8ESSzyBrbd+Frvu+haGD/+yD7I50AWvcRfCW5CURAY7erXuyhoFkUY4cGiEBcDR427BO+/s24Y5mwZgR1W9vzw+RQqgFxnIh+QkAJe3PND665+Lc8+dkHz+xhsX4u67F8Vvf7sW3n13cwCjyqzPQzJs2L+wzjpP4pOffBmbbXYqhgxJM+OFxc/VAHBoiYfgjFnrC5R15eesfscD8PnP34y33jqgDTM1FcAOqvpgeWiKFEAvMpAPyjcBHN3iMF048sjjsN1216Gj4xY88cQQPP30spg0qaeUrLOzQlX1bd3drZgxo4pG6Oys0N3tP2dVpZg+vWrdXprW+hhTp3YPCh/6ggvOnlr6jg7B8OHS6MHByJFDgn0qrLbay9h22zexwgontmVJmRVCONZ5LtITNLXgswQ1vf8fe+yN+O9/D23DrE4GsJ2qPlZWnSIF0IsM5MNyP4BPtjjMm/jGN8ZjkUWv4+7N4FGyjUJmtXVms+KxhPULOcA7kgkhVbF13sb4jLOrrTVryqnU6XtOW5FKHBN25202JJ6xTHTGLxCen5qEO2qyB3PtudBzlx6BvJASPgFOOfl6/PvfR7VhFt4D8ClVfbKsOkVmF6APKdM5b4uqfhLAX1scZjF87nPj+sBPkSKZ4QBXjS2o2i8FacbB/ja/Vfv2C9d3DV29Goxf20fiz2DOQdEX242sOEaVGl2AAS8D9LblrJoT0GA8dazOcApUyVRVDroqmU5nvPB8FM42mg5dP0ftvX42N+ocS0iTGXN/Vft+JMfdDuLed65ByRiXXnoUVlzxsja8amMB3CsiHyqrTpHZJQXQ5w/ZGcCbLWoGG+Lgg38erehKQC4CAY0X6DoBDVu8g9VZEX9eW/vFNHEJm4KEvPMIgEACwKkBRHheYs6DgWJt3wTUnOuLjgNjadrhleMUBULlf1swjxjdSB95CZPZzH2UcD9Jr080vm6Q+xZ95yhzHtgqffb4mPZ7CuZK9DFzry6++GSssUY7WqUuBOAuEdmgLDlFCqAXGSgr/XkAe6GHFKP/Mm3aLjjjzC/XLV8g+G1AyrPGxbRPhQEptjhH44XgSgDJWo+hZc+ksn9oHiSSv5VYmEo8FcbSFHNudWsUfcBZc9NH/PaaxpeVAWZ4j+x8SawsWXBkVr3nQKEWtr2PTQC3VaaUAHGYGKfk/tr/w2csYpcLvSu9450/4SysvXY7WqUu1mupr1NWniIF0IsMFKg/gNYT5IAXXjgdEyce12fROdZYegZmbfeQwt+VuuEj69k0BonASYz1C7MtEHX1qisr6rhtlcd2w0zsEHzECQuEShGMV0KVf55Ml2fBOmEN9ZQWzwOg6WbiHEOlT9tQi6CSAj+C+xB5ZCRWDMR6CMIxWec1pGEKZUpfcI3jzz0dG288Hq0nISwJ4MEC6kUKoBcZSFD/DoDLWn5mfvrTi/Dii5/jYGvNKsRgy1zZ1pJXY+Fb0E0k4JAXpABUB4RgfwlBxC78JFkttJ6VgCMFUu2x/JMYuHpuAm7JMhc/COgLeJwbgWIRzntYdmbzDew8RjkL4f0h91WU3N9g3oQpFzlPAUhoBtwzw3IlEsWPeRd67+9pX7gAW2wxntyU/oD6PSKyWll5ihRALzJQoH4ygFYpK8fg9NNP7Ojqejm1+JC6e1XTRdw237BJbpF1SGLYaqxoltiV6BbGPV5lrF1mlVbEfa/g4K6WyQyxxRklflkrXOJ4dwTAxsqFmLCCTRI0KK+epU7AEUZx0IzSRt30DiGRp5hZN3sItHXPB7GsKbhrX6Jjbd4EJMShqcJ0wglfwjbbfLENoL5cr6W+Sll5ihRALzJQoL4zgGdaHGbNrkMO+YfvStd88jo0zVz3rHvX/EJPprfrJQAfw+OdDxWQyPVOrH8NLH/VmG4UGnf9imqjxZSdmXkTEkOGARzPG6DM4lfHaneSzNQE5G0yo01kVJCkOm9e7d/WxS/pWEkrXus1EK4wRvfS5lqAK2Th/kcddQG22+50AF0tvifL94L6SmXlKVIAvchAyc4AXm9phJkzt8WJJ13mrpCKxvF0ik8klqvSGBDUURgsAEUJVLnMdvhxbyhPBEyGqlJvg+tKCLE4cNd7c0f1FZYwCAKCiPn4E2uYeU7CA4U0rQEYq61cINn5Yi3/6EDc1c6UvqQkMkNRrJk599zxhxzyVey669loNZkUWBE9iXKlq2CRAuhFBsRKfxHAjuihruy/vPbaSbj22hOplS7E4mQlW6o+MEHSMqMsq6embt9mLPdmNnOHJFZrfTuWzS9ptr6XKMfCDSBu+9CqVSEna7PPnTIzUnXIr1tTMM2bvfmv3RPI3CuWNBgBtDreEKsoSPqc1fbd67OXYL/9TgMwvcVXbvVeS32ZsvoUKYBeZCBA/UkAh6C1rF7Bb3/7ZTz11BER1aa1bOu14x45jfK64YaxViVlW8RqptZak8DOwgFCytVCBQahUmOuRdi1ZOLY4nxOCWSIFU8vV33yH+Suv0nrlt2fBPxZ3b6kVQvRNsK9AuE8MfKbunIo4LF3xApkmKuwww5X4LDDzkZPM5ZWZA0AD4jIUmX1KVIAvchAgPpEAF9qcZhR+NrXxqcJYw5jWbrCEwD2yF4I+5uY0qYkfs9c7ARkVOJxqIuesZvxS3EtbJcr3gGZnKJCcxOIspBk6Ns4v5D5yMTZo6Q/4SQ90b4Sl7uFMXMRAuAgyh/y1QKa00TUD0NE/1Spp0cBfOITl+K4474AYEqL78paAO5+8803J5TVp0gB9CIDAerjAdzS4jAr4oADHomtMCFx3drCLUgJY8LPgiYakQ4QZsZnEu/EELAwUhE4BCjKrLucudoEfavnZVAndm+9CWosTXs+ITiLxtUCdbAWrlgWvfykAAAgAElEQVQk9K3hMZh7X9Jzg/LcBquVKMkqV4/uF3kCHwvAAKe4VScbX+iD44cPttjiapx66ngAk1p8VzZcfPHFd+rs7PxNWX2KFEAvMhCgvi+A37c0SHf3RzBu3LWxZaWO9elwa4tBcPWsw6oBXSix6Lz67cStC64lKAEnhH2+SY26GHC3/PNCwN9a01FCG0sYtHFxSa1Sly7W4KLragCJUTvKi1un72pWoARBSoiLmMIQek7EsOOJKVdjz5I6Sk7iOVFgo40ux/jxZwN4u8VXbuORI0eOKCtPkQLoRQZKdgPwfy2N8N57n8clX/mCZ6Bxcxp+2Rsrt0oy0F0KNU6JKsiAFQiDmfEI1EHT1oUjVWTo+cP/XmFK8RooKWDjVxmHgrGUs54FjzbXkNJYjn4Wy05KyEgJXOQtyHk6PLphloehnBXOnVxX5e37veYaV+PCC7+EVvsjAFuIyO/KslOkAHqRgbDSX0NPOVtrccI//nECHn74kMhSV2LVMuBUSg9HwDn8mriScyVpLOkq10gFhM3Oq9VOJ5V/l6udz/GdW2a4BMwkpqxNyFSMBV/7JYaaTxgjnfLyP5Yxr7kLaTAH6ilZRNlrFBHRhAgebqmbOhUSiWcFwIorXoZLL70AwGstvnYfFpFHyupTpAB6kYEA9acB7A2gu4VhRuK66y6OLW6YNpe25pmVQbGYpoMMXvkVMu5f939CemNrq8OhRUgNtJPsR9vJWuWDJOcl/cTVr88Gi1OLg3pe21k0D8KaoV71EFezDyGipL36lJBnIeF2J7z6FoyZ5uClJ7itfhVYYokrcfXVXwXwaouv3UdE5L6y+hQpgF5kIED9lwDObnGYpbD/Ab9P13L1ccVuR+Ol4P3BbZw5ieMH3c4UaYMRtf25jQUspp1oonzYxiNh3bMgzbJ22qsqs0AzdKo5C1VzpmszgM048Z17yEoSRdN75XlFGE+7kla9At5BL2lfm/PMwM+VYMmQlB++9/+xYy/r+Pa3uwC80uL78ikRubusPkUKoBcZCFC/GMD1LQ6yBY444gd0IVWWlWwSoVjf9BrQJolOSjqoWXcwASUNO4RpSmijOWUk0yK0Hgf3EgBz1qpyMNZcjVwm0VDB679Z3DlKvDPeABUzN2F2vBi6XDXhEOVeC0oIk5EqM3deVnwj5SU5NauYwK+fF6Br2PAV8L3vLweR51t87T4tIr8uq0+RAuhFBgLUjwLwYEuDTJu2PyZMOKtv8Sexc89CZi1NWXkUa9/q1k+DWMoVGaviXgLXa2Bdweb4wo4vsQLD+oqDWbmk3I/VzEeeAuWWcAJYDazYpAzMIcRRt1DeB1eXhIYQFLmeBOWhFKtMWgpeIRn1bF5g+tuH+Qff/e6qEHmuxdfuMyJyW1l9ihRAL9J2+e9///swgH+2NMizz07AHXcc3pgMRB1LVdHQzGqUrQ0GkmbRt+1egTQ5DEbxqAGyiMMZD+M5sF3iQCx5Sc/DnaNGnymfc9U+a7cKEt6q3D5kDiBpvF4IJ3xIgZu0zLU9WtE39+78aKzMeG1tcz3ihU2T8v/ZVFca/waA7353dQwZ8tcWX7vdReQnZfUpUgC9SFtlscUWOxfATgDebWGYDkyc+BW89daRSU20qhMXr2Vbg9cGK6HvZNtZd2nYijNsVJIoAUitQhB+dbr4ZzwHyFiuNLaeUVhoRjdiyzyXgW8HCWu2aVmgpq1gbTIf5abJ1fKDhy80F6bQJpW+TL191D7XK23LNf0J74sJTdx447oYMuTPLb56e4rI98oKVKQAepG2iqr+HcBeaK2V5KI44YRjUywT07faoxh1PlMJEtYIeKhHoapOBy4Sj7ad0yj9eqZXLOtVbnu/1123QlznyFib5hrUyfi3bmZ7D2jPc2EPAwdOSlfrkNk0A8BNMfQBrrmddLVzWsTWboGYhEY1Xhqv4x5TuATAjTeuj2HDnmzx1TtIRG4sK1CRAuhF2g3q9wD4XIvDbIjDDv9ZsiAm1l7VRDMRpGQsnqsYrMe4k3gWupCFWGoM+IUoAmrjvojpa0EUC+taZtSkajK+PWvdA0Fa++11QvOy6zNsavzhia9BkHpWXMVF05asaqhoRdM4OTw8V9JjHc2RHjWu5Yv/veFbm2LYsMdbfGcOFZFvlRWoSAH0Iu0G9RsAfL2lQWbM2BWnn35+lgpWJQWMqKmI6a4FBMxlgizhSwgeYhuTqEOgEpherMFHktAnXBFJUAb5srPKsWhZvXijEjWWM6DEemdKAutXrtabAJ4wFyk0ymvJrVUPzSgq2kAJyeyjnmKW2d/l5HfOI7LUFbjhhs0xcmSrnO1HiMhVZQUqUgC9SLtB/RgAd7Y0yKuvjsfNPzgqIZexNeQRaIljvYH0FpeUbM6laM+Aa9aqRZrhrZ4bv1nrWZ2M/UwHM1grVUmHOBKf9qzzCNw1baCSI7GxyYI5T4hNkMuCa4ZJjoYVkLZkrU+ZQwJk5y6c1zCXI6L+JVwHlrUPAnzjGx/DqFEPtPjqHS8il5cVqEgB9CLtBvUdAfylpefu7ru/hmefO5jXqCNTcw2fAtbjgffwtCJxZcZcx/pnJ5zlwQLutW9lCYHQlJ408iAYb0Ltb9aFtoG+4IcZmthWNeN1CFwKXjMcBug0IY7cZJqkiBRQRYyyA57kFoG4ZBQOOLkAjF0PXEGrfXHddZ/AmDGt1pifJCJfKytQkQLoRdotOwF4o4X9P4ALLjjLBZiGndGQrqYiJJFO0/1CL4DUmqwYAAWCrl/C69eVWaXKE/g8kMsR11DiE81nw1NQhKOYgNT0m7K6pOSOAKznRRES+4/m3xK3wHhZhICj04xH4PdKz3K+N8Ej73oLNDN/hNnwqqs+gw984M4W37tTReTcsvwUYSJN+AablQtV9ewypfPRwyOyNYD7AAzv9yBDh/4C3/nOTn3u8RqPOQgFq+WBrzUREURlbrZemT7pia9/Vv0UMYCJscxqygX7HW4TmZzCLcUo+z+Yn9AbUJsPIO12ZufWjlE7l+4KmDzpdMyYMQwzZszA5MnD0dU1BNOmzcC0aQti5swuTJsmmDlzFKZMmYEZM0Zg5swOTJvWha6uMVAdgsmTu1FVYwAAnZ3DMH36CADdWHLJ97HGGpOwwQbvY/nlR2L06BNb9BP1zU1YMkeM9AhgJVQ8zGc2U92Sx4TPZnQqZD6Tmvrg35NOugPvvrtzi6/fGb1sjkXm/nX0QrROtV0AvUhbHsZDANzU0iCLLPJVXH75afzRbNMjmlvsG22fAInEteliGn+Ic8DOzgrvv38huro6MX36CEybBsyc2YXp0xfA++/PQFUNxdSpI9DZ2YWuruGYPHkIursVnZ0jMXVqz2Dvvz8aXV0VqqoDkyePBADMmDESM2YMq3s+gKG93rexvZ+NALBA798LtqSA5eUNLL74C1hxxf9gzTXfxZprTsfyK4xL5j2xjsWwCBrFBEbxUKYEmb/FEPckupMYjoHco+Z8ITAshs0uqQqccupP8fbbe7Q43yer6mVlFSqAXgC9SDsfyEsAnN4S3K611tE448zr44Q4IaBqFk/VaGEd0tn582rSpCfR2Tkc06cLOju7MHPmcEyZAlRVha6u4XjvvZ7dp07twNSpQ9HdPQLvvz8U3d2KqhqJyZOH9ALlCEybNgyqI9HZORxdXQpgFICRvSfA/l6gF0DnVenE0KGvYqmlnsdqq72KNdaYgjXX7MZiix2XlNuFnoPQ4g2tYwbMFCgdxwp7LADafbffCuCsbpsoJeREFMAZZ/wAb7yxf4tq6vGqenVZhQqgF0Av0s6H8nYAu7UwxFQAfzdWpgBYqPez4b3WZZGBly4AL2LBBZ/HCiv8G+us8y7WX386VlzxrL7yQOaFyKwqLa00BjEp2Aaek2bcMbayou4pMBuoscQlU3YnYnrQm7lJQicAxp/zPfz73we1COrjVPWb5bEtgF4AvUg7H8wnAWxaZmKukXfQ0fEvLLHE81hrrdex7rrTsPrqMzFmzFn9B9ZZNHkTt7cdPwxxhA8bAfCGY4FnybvLoXEHCKtHt7Fym9fQxJxceOG38PzzRxRQL4BeAL3InPRgLgvgcQDLldmYY6QTwPMYPfofWH31t7DOOlOwzjqTsfQy4+vAGBmlEq8OQNySNvyinqAopoyPWMqW2tZ23gMz9oVs18CX7q1os7LSNVRUlIeDXMeAxgmcQsrqLrnkajz77HEt3OcKwMGq+v3yyBdAL4BepF0P5yYAfoviHh9M6QLwMkaNegnLL/86Vl/9P1h33Xex9trnpeAUZocjjvfCAK3YzHGbpY8YoNQmuSGtNgBRDFpdgnIJjLSCwANnLzgfZtIHCXcROCvPFYiqDcRpEtT72eVXXII//7mVXJRuAAeq6g/LK1EAvQB6kXY9oHsB+DFmwSFbpCl5DUOHPotll/0/rL76W9hgg8lYe+1z0DGsDzzoGz0Lr3k7V4Qc2FqXtGhadueVBTIvgAXKMBte1HTYg+8+F6fkMTpnW1op/tyzBL/cHF911aX4059OaWHGZwLYW1VLT/UC6AXQi7TtIT0XwIQyE7MsfS7yFVZ4A+utNwUbbjgVSy89PorPtgtQmzN1fSSu70Lq7MNM7zBmLSSzPfQasGx5DyDF8QKIabLTCuVAvz0EiEMRbg6B8QJ861sX4LHHzmlBIZ4JYE9V/Xl5neYvQO8o01lkIERVJ4jIzQAOKLORSI+LvKPjX1hyyVex3npvYOONJ2ONNc4DMALQdQBZJ4nVatUYnS1LW0Q4wxK+hLvPras47LEeHi+0rK31bF3w9TiyBq5pGF59c1nU/Mi1lCVzFbZFnRU0jpLyPPIaU2YJh0QonIO6N0Xi/WoDH3HEeCywwAW4//6z0T82z2EAbhWRHVX1zvK6zT9SAL3IQIL6ASLyGIAt59MpeAfAC1hsseex1lqvYc01p2CttTqx6KIToFgF0FWihT4EOJrF7QBqCDSWAjWMDbt84zBuaKfWP3IrZ2hWXR549Rur0DI0GGY3c1zJFKLTpDTrYQhof2Guz81Wt3MT/BbbTY7w+4v6dL/hte2733gMGTIB9957Tj9BfXgvqH9SVe8vq1EB9CJFWpbnn3/+W6uuuuoSAFadRy+xx0U+Zsw/sOKKb2C11d7DxhtPxXLLnQfBwgA2gcomqeWp/v9iWpUy0Kp3/5IUsMPkKzcpjXUc8yxYa0ULyVonIBq51IPkL1gKVUkVEDXx7mi7cH4YnS2b19q2ZgOB0zKWNMtx+6M7HeNyneIS0ng7VxWw997nYsyYc3Hbbef2c60eBeAXIvJxVX2wrEbzvpQYepGBf8hE1gXwO/RRkc5tMhPA/9Vd5Kut9h986EOTsM46FySc6vbNaucbNivx8DBLHZailpSa1YCSZrQTy5aVu7FYdQKw3hjB/tF5Y2Di3tlJBvL19oxn34QgxChJwm6YCXnYC63NyT33jsfEieeix5XeH3kfwPaq+puyGs2R62OJoReZe0RV/yoiOwL4OXoY4OZUeQXAsxg79l9Ye+23sMkmk2W99c7W4cNHAlil9ydd/6N2pybezPqXR9am06TFWqbh/2G9eGLRahrjTeq+Jba0YWLszEq116DwLX5BpmuZ434XdWLpnuegCcWGeQyiJDQL0GJasMK4/cNOdHCsd2tpm2fAJupJyD5H5lsF2HbbC7DAAufippvOQf94+BcEcIeIbK6qj5cVad6VAuhFBgvU7xSRkwHM7mYS7wH4J4YPfxErrvgGNtzwLWy44SQsvfRXIFgOwHIhIqqG5U8gC7L4ZVbR+iy8zCm09ELXtI3lRpSrwkGUlVLZ+G0ObZWBYdAOVJoEU80BbIZkBUwRcUz9yKI3XpLo0sU/IbWUrA7Dm6uUwNdglCgt4SlUMPkIuQMrsNWHJ2D48LNx/fXnoMeVPqsyFsA9IrKpqj5ZVqQC6EWKtArql4nI9QCOGtQDL7fcJdhvv3ew5poXQ3UseshvNknarFrLN2zVGi2wYoCAJKuxFpo2fsosNy+hTNVv9FH73oK77ZuuvUhC3cCIjyNi/YIxM1zkXQDxNgAuSxyzypM5s3Fyo0iF8XN7nzQHviTxL/EIsMlpkHRHtRpx9smw60Wtdo1isumHLsTIkWfhqqvOQV/3vFkF9btEZENV/VNZkeY9GVKmoMggg/pRAAY36/aoo17BGmtcHHF9q6ZMXTAWafQRAV1Vx7QNgKJyrFk7dn1c9Y1AmihnvAaJ1edkltevUfvmIwTu+mcab1sDm3p2d7BdHYPFhBzUhBCYQqN8/r1r8UA2ulb1t9FQCVIyN0gVInuedv6ieUP8f12BUTL39t4zK78X9Ndb7yKcccaXAEzu59uwKID7RGS9shoVQC9SpGWZPHlyT6x6UDUJDzAZQBIErDKoHIKDl+2sxorWXPmSBT2Ntw/3VyUKiePq9UqkojEJO5qqPzdUOal9V5k5VOMx8EBZ/TkAU6S87POgLM0qKNaTIRbYNShDM8+Jqu8AQGa+tcE+rq5i8g5WWfkifPnLXwbwdj/fhsUBPNCbrFqkAHqRIv2X0aNHHwzgMwDeHLSD2qxsIQt8Yo0FyCYWlCUGL6EmsLFKLcFLuC9MtzBpAJoGyJRYma7CUsE120PQZB4I9ebJWKkILXjEmdwWJBnYqgHX6F4E+QbhdmIVHwWfFBMvtyDN5toZIgvs1sOR9UgQxSXZLjjIootchEsvvQrAW/18I5ZAT0x9tbIiFUAvUqQ1g1n1eQB7AJgxaBa6BQghYJgAiBLA0RQrmPVMAZgAtJLxIpcuMhngyNQ2B5aoGuUj2tRSqVq2N0uMIvG5iKbZ/NTdLfF5eAAqnqlq3NvRdxWpqyeeFXU8IK5XJWNSi5J8Nk0t+IgpzsytiqNkhCEQQypUG37M6PNw2WVXAfhvP9+KZQE8KCKrlBWpAHqRIq2C+m8AfG4QDiQU6Dy3ZiPCEA+Q4FjHOVBnbt0QBKxFn8TSQ9AXA0a2RE1SBUCspWzASpDGmqnXAJkPMr7mRCFR3xrOTrsQ74H1OlhPgpnnhJHOiYWrmR+rfCWKF8letwqj+yiGIQyiKCy44Ply9dUfgMir/Xw7lgfwkIisXFakAuhFirQK6t8GcPkgHc0BWJhEL0kBDOGiLqn1HP2vMYtbZNWK7x6WBlZi/X8htdl20WfxZgMcVe8PyyeolOo3MdDA+9IoG8LDBvU6bKTbhfMoAXCKpgll9aQ8Ys1HLnUvT0Hjn6y2QoC7kevdpd71FA8lnhtN8xl6lRgdPnwErr56GYi80s8XYwUA94rIsmVFKoBepEiroH4SgDsGBcypRaoklqqZGKrHY+7UEaux4rzxKgdBadIesyAdgPewTDRNBhPjQ1YSWxA1zVfUSQIToiyoIZGROAs8uj6JAZca+5oqP2EunlZ5t3nueeGaVerBiax0ODFwYvUnioYYkqJgH5F4m1DZUQAdHcB11y2HIUNe6OcLshp63O/LlBWpAHqRIq2C+s4AnhlIPI8XW7bONiBcUWIJ10DDs+aS7HaQxV4NEYo5X8s2FpWHBQArIYhL2gXNWq4U6IV0JzOfKfwmK9mYvsYegSQRzt6YCn7NvZJxTB5AYMhSZcta2cwlj2AuWYmb9bRYRj6B481BqpDl5kI1Y9UHn1177SoYMuSf/XxL1ugF9aXLilQAvUiRVmVnAK8PgLYgqSu4AfJbEI92kZhQJRfXjqxg5t7XNOveKh80i9zQwlIw9cIKOevaYSpzPRbECvXABx7wagpQUU4ACZWIUA6amHcemXBIqDB5zXCsokc8DrntVfMUuAr/mfQqFkAy5+09vfba1dDR8bd+vi1rArj7zTffnFCWowLoRYq0YqW/CGBHAFPb+5QPCQDCtLhUdfjWjXtU1FmEnQz5eiazZymHygC4u7xR4bJHnAJybiAKCvU8WLAhiXLJ31aJQZxrUHeZs6Q9Y3XT87H/m2x5dYCyoeKmxsPiATnA3eUwSgNS5YRZ/9ExJA41RNwC9nhWSZHYKxOGSa65Zh0MG/aXfr4xGyy++OI7T5ky5btlVSqAXqRIK6D+JIBD0O7+WjbhTCSNdVL3OCGW0d4PsmeoPFs6WvArEgIwVK2KDNgQt3Okj0ga7w7d+oKYmCZhrWPWqKblauHxEqXCKiDgwNfAYZIHVuV5CnCsc5C2r6wSAcybQeY9qjyTOC/DUuhG7Hpmbm3v+qTc0FNegv+r4Lyuumo9DB/+VD/fmI3GjBmzfmdnZ+nQVgC9SJGWQH0igAvbO6i1zFgdVMbaE/W90pqxfsMdLJ95CNpRBj3Igk9AwHY+S9zSJjNalVu2zZCkeNcdbVvN+v1g15F0OlNCRGNOXAKvSBTKMOcoZn4t/bqaOnu1dLdMsSBJBLb6wU0cBKeMtQqWPWc2mUq2vfLKD2HUqCf6+dZ8cOTIkcPLilQAvUiRVkH9HAC3tGkwSWqOaahYDIOcENA2WdW1ZDR1WmtGlr+YxVcaoKk2sGaZ77fKxGYZG5sX/yYAIoTFLKpTF5JoxubBKkBho5VwnkzIw4Yu7H0RcGUoRG71aHI9etsGHgQw8CXA6pauhS4kiUvyYMMWYtzxNgQhqScAClx66WYYNerhfr49W4rIo2VFKoBepEiroL4vgDb1b9a4MQtzI1srvJma5Mhyq8DpyTzw0CYW+owZrQ5VrZhFPoxhhy5h2Gs1DHAQ7hVIADzcL6z/Jqxv4pn3mQx0C5je/XDpW5EBWuJlEaLYZLn/nWOIUd68Zi42Di4wTXZg3PFCnl07r+a5uvTSj2LMmP66z7cSkfvKilQAvUiRVmVXAP/XLkxvCjO10b7KQQGGPMZjVossWGTATYkbGIRcxNKxqmNdksx2cSxRnRXGvExynqVqbVSypuTY7rkJn0d1Qg2RkmH6p3ueAAr8logG6Vi2V71mHir6bJlNq0aKi5OlH35/ySUfw9ixD/Tz7fmUiNxTlqMC6EWKtGKlv4aecrb32wLoLGkqyTRncWukrGRiwEJtqVptLOKGZwt6WHKluext8PIzOMY84Fi5Tu/1jEOCWqKspj7xGtg2rHBixwZwIRyYE3c247UX8IYvNqPfiXMnoZYmkgsqAqSV9aqQv5kSB9LCVk2SozqNc9Tp0HfRRZ/AYov9qp9v0HYicldZlQqgFynSCqg/DWBvAN0tI7rAWRwtfWimwxj1GDOrOqMg0DarVVBG5ZVINbC83d+G2lSDBD2b+c1qt5lngtZPC9JQhPpkNEwLcalOMxZqjoHP/ZzdUwPuoiQb3igCCbFMaLGHOwoi3nhhORrCL03g3+8s/Szhij///O2x2GJ39vMl+h8Rub2sSgXQixRpBdTvRH8z34cMSZPZcliopKUltWgZmDgrqwSEKKEBGsW0gzr5sG1ruHCLGDBGzBMfJVKF/wd4oiYBK9w3aulqk/ic62vKivUs/aw7BTS8AUm9Fh5ffKjIJZ3agnkQotQwNzoMqQ9D3lzduSjhjrfzR5S+qkqvrUFKQTY/4/zzd8TSS/+sn6/jbiLy47IqFUAvUqRfIiKfBnBES9Z5ziq0oMnAlFn7tt+32/xFiAJBXL25GG14HhJ6FDR1I1vASxQUzc+Peq6IHBJrptzOxO2tW9m6v73+4my8WrmaOMx2oUKQlKjluqKZ4ya4ro43g9yT2rlUDcaFcuVIJAVzJddmlTQlHfVqJ3TO2bti+eX7C8x7i8jEsjIVQC9SZFbB/CoAdwHof+OIBCiRtzRpLw7jTlYvy9px40ag1Y+a7UQP0eY4vxO3uQPwQkCKZbAnABwcT6Sx+R3yzzOFwqurd+dE+2LVqg7TnGPdRve6av5GhMApTttaasEjVgAl7EVvvCkKn/+duZi8xELvuQSA00/fG6ut9r1+vlV7ichNZYUqgF6kSDNAvoGI/BnA8WR1bFGUJGmHi2XlW7qez7gRW6vlg7eLrQe8FlAT5UN9r0HdnSyBez5AC8k1DTHJeTa+S2vzSfwc4DXoVcZhklMIAKKU9QKimJatCbd9YNEnDVSIJyBh4Q2UH5t/YXM0BGkbWaZohb+FUd7aec4lxLF7gqCTHwH2E088CGuueWM/X6RDROTbZbUqgF6kSA7MTwTwFID1W8fuwN/t8YhzRImtJ9g4q6ZWJ4iVZBUG9creLFELnEQ6Yp17bVIB4j7XhjTxfUoNs/65gcjHcprY0BI6h0WNhSLYWKzTm1hgJqx0tAafKQLpR6ki5ylk3mQ10yo3M6dwngmRmGlPnCz62mfHHnsoNtroun6+YYeLyNVl1SqAXqSIBfJVe5mprgDQZtpJQUJ2Ypu0JA1cSDczJcAuJlEronnNuD+ppeVYpN5GFpwaZYFrxm2bgANxsSe86CZurODb1ZMAJc4gr3sDDAALfOUjAVdnDrVZDUT9XuseaLKyufr/knosIqVLSMMaUo0gwj0otNudpPvnOBZsFv/hR3wOH/zg9f18uY4TkUvLClYAvUiRGpjvBeAPALZq/+iaiXkLBzIgn7mdZROblYQyRgbDGNoMeCT92QVx7FZjgInq50ESrIS4zG3CWTiuONZ5o9I/VrrndFpL4sHIxNYdDwwFevU73Ikdy3hbRFMiIaY0iQFaBNayEh4Dpoyo0zIVudBL7llznuFaDsGhhxzVwkt2SgH1AuhF5nPp7u5+UURuATARwELtf8qHOG5RYr2yBT6Jp5pFGMyCZyVfxKKMPAMSlKbBL5tLyGsMaIpjKSfgq41j1jlXfuO6KTK/mZakrGELTFvQ2nWL4Xx325cSxUIJH4G9f2FHOoQKFbh1rDlvizblEMlvmykXZEl+1HtDlAV7za33ODxFRM4rq1oB9CLzp1W+XUdHxzAA+w78wZS7im38OgIZMW0wHTep2FpmdZjG1PcQaBM132xBtgDpLcoV8lSzNDuaxeodTvmkGYuX3BUeU+CWD9rzE9aJTrhb3VKwai7enlNCCGc+nEps7pwAACAASURBVMQ1dTwFbs4EONmPvY6Elc+UoyVeE8MTHyqBqpkeBW3rWHyeiJxTVrcC6EXmLzC/BsDdAJYd0APVuq1F4ElwJMpMJuCZS2RSNBd7bTR2No7bIBbvWoqsDSyzbJWAplVIPGDvndukWkt5mR0tvdN84zl14txuuVvGMwFNPOFU+YqcLayrHEgCZJgIKCnw2rFCrwTzrNTnlCmfZl+aZKcN9cMBkC+JyC5llSuAXmTeB/INROQZAMei7eVoGYtLM2DLWl/mwBkevlugNOAomrKQ2cUaTue3sBRLQGquWVmTdf8zAIMfjvAAwX5fi8FSvnyQxD3wXvL0fmlKnqLwuefFmY/Q68Li/kLa5lplhpaqJU3V+XOQXGeTlnJFzrWy96TylUdLhJN4MLTB+9FvWaasdoMrHWUKigwymNfK0YYP6oHD2HSYrES8nMmHYsuBQoCUuENXtLaHxCOsgUmjWL5X/67NW1t1whR7kRLXYdt5CjO1BWkGN2vvmbCzatpeVQTZmLJo4j2O7pVNWot6pufmw9FGBHmrP5w7bWKOwwoHGAs6UTwQ3APb+S2w7EUM7S/iv2HnHUSZlOBZDo8noI1sihQLvUiRDJCvJCK/wYCUozV1Atx6iRqVWO71kBAESNyazLKmOJ2p+6akLjmGGi/7O4M2Xg90i2asLMqrHYdhe1OTUU9JXYST68ABY3XCDRV8N7s26i9vhqxArH0lPeLhKyGRImMJZAQJv3v4fIm5H0m8myVXmpI3kdT7YYlurAvea/ZTML1Y6EWKNADzvQA8DWDh2XICquJ27Qrd1wkg1ayiqs+KChfqKgQ8cRBDMt2yQqstpACVFCSSSSXHtFzpQs7D9kDPgpVyq6/hwq9Nfm5Y3SQzXtiGVRyLX6Xvfwmvl2gLyjwASprnqH/bVIyV79SJi/iA6s2PW4lAPDaWFyFSFIS4LyTvxSpSAL1IESvd3d0vdnR0PIqecrTZLMQnW//IAKsYC7xueSFwf1qLkzT/SICTLOywljKMW1VMGVyQxSyNOOntYg0fSKwCEM5DRS7MZpFbt7BYJQVIXPhirisJQxhwEWudCikfJPcuBHZtpGwQbw3dtAkyICAtk6OPpRrlwzyr4b3gD5k5Z+ttsqEA+F4dLSb63CzF5V5koKzybTs6OjoA7D9HnFCUq5TJUhbNsGoJ6QWu/Djh39aC02Yts5Dw3Ouc5ozFMrq98wypQdU0CgmJZYSVqxGFQYxiBDFzTq5BNFWKkMusZ5UBTiIinGRBNn9VLeGMJIp5vehz7H5hyEJzFQksYx1xbkZCBuSN7XlCkLrWBRi0vNQiBdCLzJVgfgl6ytGWmyNO6N13345BI5OMluNK0WYDs8gkLzcoQxOkLGTJQqxxE49okRfSyhW8SUly7WY/0RhYtIFJmvCuW/APj1vl5ytXJ96otasli4EFQTGNZ0iPcwt4CdCaG5tUJCjZHmkLWOotsa50UjXQbD29VqQJDmHma3+Ge5HZIMXlXqSdQL4xgB8AOH2OOrHLLrsAwAvlDs2XD+XLuOLybRL3P808D0MFSLujZRwrPSV7TbSOtV8LsdqFVFBI2FSGVCaEfQqSfIzQbU+a0NSIkxLXfpEC6EXmVzA/EcDvAYyYA09vuXKH5lNRXQXX33AxjjzyjMiiFWLlivFUUKtYUo52tWV8kuYjwJSnWVCO3yb4Geoh4MO0cYXfRhUsAdSx+IvMtVJc7kVaBfIVReQh9JSjjSgzUmSOk7/+9XjMmNFZx0qWmEiNcY1zCmKTFklSWgL44K75erMbE4pQ0l7XYwFu2LbWQWet0HwVQpEC6EXmJzDfC8AfAWxTZqPIHCwLYPz4h5KkOtGUQU1NG9iQjjUEedW05WkI2qy2PQJrxOkElvGNNn1xOAncjHtB0jXO5g9EyoGULPcC6EXmUzC/GT3laAuX2Sgyx0tn56fx2GNnUCs3a502MIWb7Y4LZPgIkDa4EdNJjtW6R0OxBD/WQMZrNKO8g1+RAuhF5mkg/5SIvALggDIbReYqmTjxmBT4GACy3vSSWutKgJKCL0yymy33Iyx6qo2581k1QUiKpEyjcBQNwO8jX6QAepF5EswvAXAPSpJZkblTlsell14b0fmqELe7A6Ss9E8ca5lZxLYJjlvO2MDqr7zzIkpEXVFRR8GwHfiKFEAvMq8D+Xoi8kf0lKOVZ6bI3Cv//vdRmD797Ia116G1WhHkrDxgRmztuxnlmWw2Jb3lQ1COsvEdDvowJ8AjUap/ZkriihRALzLPgvmJAP4AYKMyG0XmAenA+PG7Uo52KM8wFwPGOW51tcQwklrrYRIaDHAnJXMSdPgDiYlbxcJr6tPAgo+8C0UKoBeZ14B8RRF5EKUcrci8Jt3dm+L228+nFK42aU0NSIOBP+JGP4mSkLHUtVGiHXOXO+fCwFoNEyCtU2+2F2+RAuhF5kYwr3VH+3iZjSLzpDzyyPEB0jUZz24i1kwz3Bs1cmmC1MU9rmnTasE6bCYkYd4AafZSrPMC6EXmHens7PyNiPwIPeVoi5QZKTIPy8KYMOHHWe5+iqG5mjQC+mKs+BpTW1LvbglmTN26tbI16JceNWmROLae8PqT/gFRmKA8GAXQi8wLVvknR44cuQqAfcpsFJkv5L339sZLL50TlYGJksSxEHwldcNbhrfIzW571jvWeraELOcWdxqtVOSYSvajJDhFCqAXmZvB/BIA9wJYvsxGkflKrr764L4XQU29OMDb0QYSNY1r1LKVITcTzSC++ZtRxwJxLF/FeABqG0jfthJ6F4oUQC8yNwJ5KUcrMn+L6ur45vWXpnF0gHK+J01Qwh8hFrZ1xYuhidV0zPrvsEZeiDcg6K5mKWITulqjeFhFoFEb1iIF0IvM0WB+NIAnUMrRiszv8uyzx2LEiAsS+lVIPhmNGd1CjGkNKFUj8Jag37rpya6kob06veOzJWpOIl+icJjzK1IAvchcAeRLi8ivAXwTwAJlRooUwQicdtqWEVgKCAGLQXBhwJrjfLcNXLxyMxsEB9xMeZtUxyhhxfEI1Glim1EOihRALzKngfm+AP4G4DNlNooUCWT69E/hd7/7omt9G6M3/tswyGmuvCzsi66GMMYc1GuZKiAudUm9B2IT3+oLQR+4h38XMJ/rpaNMwbwv3d3dL3Z0dDwK4JYGm/4HwMNlxjKWXPFqrARgtXnyym6/fRy23DJwg4fgLnHyWJhQVrOUo1Jw4rKXwCdfT0yrgW+vmz1y2YdkNaxWnBDjNKx5R9ocxvMEFCmAXmSOs8q3AvB9APs33Hjs2OPxm99MTN5vsYuGeflr8T5xLBrbfWrmTI2skmHDJF1TQuvBLEaJq5MELtX5TOx3ht6rvo07CWRBDMYTZpCx8zHfJ2upRz2KfG20jeOKd8/IuO4iH2zz6e1ORVfX1+bR12VpXHXVd3DC8YfFGePGihZy35lFDY/HnexQKdz3TjN880KeTwbgoZIirJwO/P0tUgC9yBwD5ucD+C2AoU1sfBceemhiX2KQxICg4lgFgnq8T83CwFyDANAxVBKQZiBWKQc4T1GIXI8VX0xZ+ZBaN6g9hjrgGOxvyTtC92alHHTRILtYSclUqDwBPJM5zKS2lyukKYc9Mc3EgBdc8H289968+9K88sohmN55CUaMON1VcHQWrNn6syPkGUWsHIQYGyllkgI8u/8wCqtkFAN7TWI8DkXmSikx9HkTyNcVkacBfLEpMAemYpNNzoIqUFVBwk7VA0ZV799aoW+b8HPt2x5V7/eV2S5IBKo0bUhRadzBqjLfhVm5te9q49fPE/F5anB8kM+1CuKLVTBuePwq/V7N9SXXFABgZeZHa+fC5iGc3yqdo2S+wnlgx6z6zhvsXLuD+aucOa3i+zx69NR5fk08//xtYyWQ/FZT+gXC664B3ar15ni90e2YsJ3THEY3MedolblGdO2qfg/2IsVCLzLbwPxoAE9iVmK9I0d+Cd/85v/2LNq9FrfrskamWQV8t3u2VaWNLZqVJ+Setu7y+q5OVjAt9VE/jBBmAIsGrTONy7VmyWqTlnU9Blr5qyrzVNR398qPNPBmSBpjrd/PwOuR9PU2cx/Ffc3cjhnz/jz/EnV1fRAPPHA5Pv6Jk1xQl+C5DK3vJIYe8Kknz4ZHFuM9FxkLWpH3vCehMzGKQDHNC6AXmZOAfGkA30ZPOdqsyF9w+8/+2dctqopBLFoQqrSaxgJXAmJGEYjADbw8SOwCp9y9XvtdId2X1gR7ioNRHoA+EAwHDkGRLcLiKS6BApQkPdmYPVFA7DHD5Kma0iEgCVOmvrki9dAIQiZWOWMK1kILTZ0vXqi77joCH8/0JqpCAFeTK8GUyuC+UbB13guRvu/UPIf2GYoUOvGfRwvmRQqgF5mjwHxPAH8BsOgs7lphpZVOxaKL3IWqMjhpLIto3W+2O1TVt6OSRU4kVR7UAWRl4O4oFmoXtxA4iSUkBHg961gD5cZm51XkhFSMcmOT8DzlQjL1wdpnkds4vGZ8q5SzWx2lxkkoXGihafPJazUGl112B04+aecYaO09RcrZbsHdKnGR4mgewsQ74rDXaC6rEVxpzSmNBdgLoBeZI8D8egA/6dfOQ4d+Bz/+8V2xu5W5hwNsTixrZmmQxYOBque2t+5smwREXZJikvBs4W4FVOKDHMsPy/WgVjhufuHeiugaKn68yP1ZOUNnaEKzjGGNWmRmaE7D61lhhWnzzcv1+us74513r8LCCx0fAXYU/hCTaU6UIteDFeyizIpuRFBTcUXAvfdGeU0+b5AtX2SOl5IUN/cC+YdF5HkAR/VziLew++5XpUlgMIllGidy0SQwk4BVI9dIEriqdL9KSYJZZfbrXbsqtp/2gWRlr0V5YleS4GaS4OpJabV1kyWksflA3/5J4h5LItQ4ESo5T3tcc971a6spF+Z+VEHCXEWS+Ow9qch81IG99//llps+X71oX/3qrvEcgDO1hclwzVi84bOV9aQ44Z0Q9NWQx0QJbuJ0jgs+j0huiqVeAL3IYIP5+eghgFm134MsssiZOPnkZ/qy03sXf6gD3IiBWyuecZ2AZNVnbaoDojUFIMrcrqM44gz1QMFg2e717yqzuLHs/IooJYgVm6riiov3mZ2H+rxW4JnmjoKQnGdwbt1qAIYcu+q14Gpgbsek4M8UIqNcbbzxHwHMmG9etu7uFXDnL29MMDrKPA/+ZhnmrE2paBwTD6s4wjwHlVSxqu0rYUmcVQzCEA942Ka+G/MqFZkbpbjc5y4gXwfAzegpR2tloN/izl9c35fMEyz+4QJQWzAqS8hCMng9F3IFOH5y3/1b9R67Mm5Ltw4cPINXq3RflhhXvw7A9MPkVlVS967mWoPvxPbKDo8ZWlB27pTUigdzn03MMzF7mytQmWQu2naThRvqkzwJwGLzzYv38MP7Y9ttgeHD0trwaO7N+xFztabPrH2WBJk2rOSx9BIwcx6ChMUOcZ5MkWKhFxkUMK+Vo32wxaFmYKutzo5rtivizg5c3ahMjTdi61PRZzUmbnTi5q4q7rIOLXrm/lXrLTBu44pZ0eT6tDt2xcNzodtab+YpcNzp4XxVZH5hLPOKWMzQtPY/3N+eD6q0jjwKlzhhjVBXqEgdfB0MqpqSNGk+e/2G44orHnPLG2GUNlshQBuwwFcYc6WQiX7MSg7BlefEg0DYDUu3tWKhFxlQIF8K/StH4zJy5KW4+MsP10GaLiQaZ7WHGeuRFWutCFOqFjaJUMelF2YEJ+xwICxsxmqpl/do0pradTUirLV3MvC9DHKBKU2q+LWElrRkriX0Dtjkvsq4UEOXawWShKi8VK9mOVasPJDMeWMvynvz3Yv49ttb4tVXv4VlljkieleEzGf0f+0PcQz34JkS+7nleg+OVx+nd2zJgDpjoGtEK1ukWOhF2g7me6CnHG2HNg35Ek444RYa804sTBvPhcNgVqVWcmVZyECSvKqUiS1hSqv6AEczSWwu+1zl5wLULWgSy4YzB9G5OGxulbGIEcwLSOwcIJ6Miic61cbtDi1ss393xZnkLGMdcox9Xly/d5z5EdAB4Otf3y0B68T6Vm5x28oOUaRudk2rOyLFLwwnhdn12kQJqdE/VVMluTRcKxZ6kQED8+sB/LStg6600hnYYftnOAGJFzv2sl9NGZot0QpNUWo92Mxb8Jpz2uCi4oumEHdnEncW8CJ3Ele31pZXE0ypNpvhSA9JYZh1DL8WH+CNV7R2L8U/P/EoREmHsMT81PkX0KtqUdx6623Y87O7x0llyD87jAwp2+TMchzYsZz2qmI8RYmJrikvfLiNFDQvFnqRdgP5liLyT/S/HI3L0KG34qabbmmqBMvyq1vLuTJWN2zJF+JM6oplbSPNQqcxbJahDWKFVxkOdKSZ8FGZnaalZpVyHvskBl2lJXUhH3fikTDXB+YtqfK89/Q76wkhnOyo0lwGN2Pf5gME8zJ06OT59gX93//dFQsu8MO+/JIGVq02Y0FrbG1H4R7bzBxxD3UNMt7ttpGyQcZT8xtSKGCLhV6kjWB+EYBH0FxDlVmRSdhvv0uh+tm4ssVhfHNZqJSX41BrX+Is86QdqnqmRWrdJgx1GluTat2X4UIp+Thh3TMhjutU0zlJGmBkusJRbwfyVhYjrfFi5LDVB45VJw73vFeFkEvkGj58EqZNm99ezm5stNHT2GWXtzHl/f2iqoq6M0SMZ0WC5y+siDBMbyJwW/4yL4rXL6H+W9Jn1L4HtN+Clkz3AuhF2gDka6OnHO2sATnA2LEX4NBDf4+qij2xFcNUTVngouSrJKuLuxeV8IZrJuGt7j4Oku9cnnf00a/mukgpaWgSHYuVhCHNIKaLq8beUbesznO7EmVAvdalTlyWxVBtMhZrCtIwYdDrC98rI0e+P58AeoXll38au+32IpZcag8IPhTdZwnuG6UVtrzqhJI4BOFGJWeJEmkpaGuHM++Q++6ZsEytjLJIAfQi/QbzowE8BWDBATrAH3DbbV+NmM9oO0XN1LqC0Kl6FoTdzwGosG25mNapNe9BRbwEVa7BCrOC1bGqew+uEmfZu1zoxHVqz931djAPQLAoi2MRiwMA8LrPIWb8CjP/Q9rYijTzSBQo5ZSlIsCIEfNyx7UKSy75B+y22/NYfvl9AGzS86M0FB7ND4tNJ8+IBt4q8pyIuc/Js42+fTUXEw85IoR4rIQo74UprgB6kX7JKaecsuZll132NbSrHM1bnLbY4jxo9YuojCxaRLy2pY57uZlyFyVAB6ekLcRdCVwHlaMpaMa1zIDRtopUUuZVBeCeNMGAT/ihxLXJypfqK3sAwmG5XUXmqLZLbg6s5V8ft+KKWwQ+IXAL8cQ4c6sKLLjgvNZxrcJiiz2FXXd9DiuvvD+gm0Kxadqxr6aAWc5+QdI0Rey7FWyTuNxz7xhRaj3vmcVkYd42zSjjBcwLoBfpj1W+O4BHMdBsWyNGfBPnn/+LPiISEHcsq+k2i0VS9pJhwPIM+cjyqEw2dmh9ZxjaLCCz81QDbvXjIYgThscMY+iVGbtK3eBet7LwGiuJ27gmWF05Vp6QvufWmsopUbYBTTBJFXgIo++mpudjLc3ax2PGzAuA3o0xYx7Fzjv/DWuvMw6imwGyWRQLj5592/zHICirgrDPSrI/yxmRfMc8OAoa8/wo0Ljhilf5UaQAepFmwHwvALcNwqFew8knfxeqn4te3krSRTyhEzVuROYaZFZDLlknAQt19nMUDLWWPFILPyF2Yf3ZwWPrdQvdWi8sWczkEUQWrENWY6fcjsm8BxGZDByPh71Xlio30IZCytdm1nB7b2pjfuADc2sAvQfEd931b1hrrXFQ3RrA1pG3I5kP9iyx54KBtBDPkqQKXPhciXIvmRBFQkC69AUKCcg7USdGqrnfJf6sSAH0IrMkiw7KUZZbbjy2/tjv46SoXFtO4qbVzIpvgVU8wCIEFhBwGk2kcT4EFLTNUFRWmlrrtv84i2e71is4I1vkOQh55y0XvhBFg1jeFbGwwjCA5zpHJkehIohTkfuSeGWMZW6tvoUXnps6rnVj9OhHsNtuf8eaa47rAXBsnXiHgJQRsAqTxWxcmyQQ1ljbmNcmZIOL+ACCIYXwBiTudMb9IE6OiHmmxHjlcjkwRQqgF5lj3AD34oYbvpVabk5Gc+WAhRg3dAKexJK0Gbdwep57/dRDa1mNFyF0J0ckMuKTymjGJWoVgYYhBEk1C5VMXF9Tj0AE9GRu65ZaxXuyRyVOXj92db7StPVmci8d5SuMzS+6aOcc/gZUGD78cfzP//wvNt3sGIh+DCofi+fC9IcPwzBJzkQA1EkCmYA3W7H7e/Xopoe6aCYp1VHuGtG31vVDdfI7mCZXpAB6kTlBOrH77l9BVW3b55ojGbphjNi+3WFSmyi3psUAcGQlGNdekhBXkcUqtHbJwsjKz6K4dahMVDH3tbXobXc2a3knxyWra+LSttYQ/HK1Cly5qu9rLH7Lu54oJ2EWs+bZ3yKlCX63vPquvfe2CrZZfPE5sX1qH4hvtukxALaEYstEQYl6hIcWri0hs8qqB/ZelzRkniuYEBF53urtUYW/ex5oM09CqKywkjdRsn+RAuhFZr+MHn0JDjv03r6XtzKkKF4plFlUGHGMOkDHgEsDhUEsIYzF+WChqlJjkyoVoYXFiFU0Q2+qObKZJnixxWShW6XICz94xwyZwtRxi2ZL4ypzXC+z37Z9DQauPO9CeE97f6+19h1zniXeC+I9QO4rYd4z7/5v5ozFrKPnwrxnQr63ORdCFA4Qz4/AKMbBsxiGsWyehA07ifMuFywvgF5kjpJn8aNbzk2yxSOr0UnmynKcN+nWY8xiomkbzgiohIC8KQlLrAoLQFW86Cbud1ab7sQqG/FjK1MQDDlHRQZQBi6BslNZ699RAtwyOuK1qGfca1oCRXkCGsRUw3BAz1XODuroCkOH/h7bbvsUttrq+DqIe14S2uXMuLhDK10MIIcgGJWXSUpQRLkMwDkD1Muab4CsNv7OlBQK0NrYa9BImS1SAL3IIMrGG5+NCremGa6Ik3ySxDTrQo58vJmFwVJZksVfM1nrbKGJXP2WSlONtW8tduNep+EFhz2nAqjfORyLkbiwjHe7aAorX2uQgKfwW81W4MRiliQk4upm3o4KUWIeVT4sSNbj85MBjB00EAcew0YbPYQddzwTI0Z8GIoPp2WY4AQrMMqTZWZjuQqh5BSoxPORA8hmKIIzsWzVNAFV+KWmWfLEu2XfHy1megH0InOGDB36fZx33q1uIlmSlGW+B+uYBselqNwVS5PQbC00A0+TAa7gpCleGEDQW09ufN1ZljuzAiaNLZqowWvK0vEY+BwwR4ZvO0x2o98JP6+wwiE5r0A7oHkG3r3BpAEG9B4QHzXqNnz5y5MxedL1gGwVKUlwrG5oysfihjvAFbiGoIs0F0OFVAuYd8YqTqGC5YFumLhnS9Ai7wLz4oCwAhLa2EaegSIF0IsMmryNE0+8HqoHpuDAyrOQtktVpuZneNopgLGEN02tbXrciseeo/gynJI64X2pbcKXem5TViOs3HKiZW8h65fT0pRdA7vOpEe1OAjEmMgqfq+lwfUIaYADyXDhAwDeBbD8AD7TB2LChB8A2AqTJsUeBTehEMjynbOeBVS/c+LWEOc2aAqcdUC2JZgk9i1h7kSoYIs5vjrlaQ2UQxayQgMSnCIF0IvMJll88fPxkY883NdK0bHgEvIYsigpWfDCumbJgbKXzWt7otvOa2YRcgHQxjtZBnvYWcyr8TYuzAiYc5nKYVawpvt55C8shyB0c9sEtCj7PNfQA4GyVKWfV+J4CDId9CTjPo7/nDSgz3QPmyLxDqWaRcJpbt8BEf85Ywps0p0s1+QAvJmPNgJQOKWUJKk0Ue4ILbEwhTx8n5T8L+mzWKQAepHZKk/gm9+4kvJ3J5q5R6qiPCu7Ila4NkiUy/JPB9ZLVXFXptZqsHOZ6Ox7x12vjCHOxr0zLFlRE5Wwr7TFFwKMKmlHuMTCq1L3bd2DIk6sPbTmjeVWKxcMKxwYqQmcZjCVE2pI+cgnDahVp7pT6u5XnjUupKJBM7XftM6cPcezfNLcQs6x8qmx1h09PCGvCUHY0gzbZiz2/ER5p7+C6XO9DClTMFdLFz7zmfOgvXXYVe/CVmkPIGjvgl7/3ft3pT2AWlV9/2vwU4X72W3Qty/MfhrGZe2YiP8HyPHM+UXfV33Hrci5RdcQ7qvpePXvETRmsefrnJcGLnoNzqs2ZjhPydyac6/M/anIvQrPp/YZgm1r14cgWz6898k8k3Otzy/SZ6aq4mPXfo8YMWmAn+3huP1nlyQudauwaq7rHgHHiuluFTg3AuE9gKZEQcn31tOhfUoHC1lbJSu8LqusJH3LDWtc6J1i1MBeyAcmgbJIsdCLDLIMG3YlDj/sV9SNXjkmgc1892gic+VSXha2raO2McuQsYpaqpJ3BzvGUJStTV3LrDxN4Gami7EKE5ev+nFw5hZPqg28Bi/q1/TXT8nxTFTcGx2DCvFgMItSSXa+vc6RI6di+gAzwD799I7YZZe4tFKc7O3IwxNa4oGVHJIdhWxxCOfV3uOwxS0QEbEkzw3iznWRJ0XygJkPb6AxXavyZ4NUoCaUsskcFCmAXmSw5f/wgx+cQsER6tfDShBH1yZACsYaouBq3fokgSwJFTIKzcqvCbfHShq3aIP9kMbxXZeytbYCSz6nBFnAUOsCV3LcGkipU77GzimXuGgW95C/mzWfUQ8YkW+pu8AC7+Pddwf6GV8XVXU+hgz5YhwHV8clbe5Z2Kq07q0mz4BQc5nTCSfMipn6bvUA1PAliAfOiMlooGk+gFUkovBQmIBnFBk1Co4Ahf61uNyLzC5ZcsnTuLvWulOVuHVr/yN2qyYu9NCdTdy/Nbc0LVSahAAAIABJREFUrKsYfSCSuGwr47YmLu3EhR66hmsu8t6/a9shuL7IzWzCAWzsKlzgNXahuy51E94AmafQBQ5zn8JrqZDOUa1EjR23DhZVXwgkPF8gdplrMFal5nj2mkn4IRqr92f06PcH5Tm/8srlonvD3MZeOaOSUjxmCSs4Ex9lTKyIkutVA5DwUhRX10CZM8mIoRLGaGAZxbIov4BEKWFd/VDq0IuFXmQ2ya9x5ZU/ihYsydG0CnGngpR6Mau74r7BSlI3H6NyTTLibUa2+ol0kWcBvPkKc01XzbDLEZd1SJ3ayAWpyFvHFGAQN8moSOmQBHz0dmzWY50t2i6LnDrPSc1zQyxYzyAdPXpwOq69996edlqT+ngRauCC78iZ+CSwwMXMi50ENUlsKqmLvr454UxnDVnsfCfRJ68xC3HDU89KJvEu6sVQpFjoRQZTpmKnnb7Y2JKu8haWZqxOrXyr3ktAqwIrufbTbRPTAJqAVlc8Kn4egGOxBx4AmxBYs17ZNdq5CpPDqsDyr6rY0nPniyXDIfV4IEgmrExCYPi7MseBkgQ14nmgyXQVudaKb2efo9q8V8TjsdBCg9VCdSyefvrCvjakXm21mnwHNZa6tag1jSsjVDCtZZ2x8CnKEmuZ9kIwFSYVjIJGXBIKv/2wzcdQw1VgrzPiUCiLa7HQiwy2nId993mi7nJOlG3ibousZjGZwbX6dCDmvyYxv+izsNwqYIIDYaoT65pkCxEzqAiDXUOrOdy/yhO1aI6go0kCjqjjm/nCTYoz+7ISPmvN0w5qXmKbkzgHE1pgXdu8piy21GvhhQevheodd2yFjTYyrmr41LeupZnjGBDiZSFeIrBnBcG7FezPYuOWTa7uXRPCdmcZ5ux1Cj8/S48clvBFzgpxSIeKFAu9yGDIO7juuh+6Fib7QRUv0pVX0lWZci1jDVaVYxUiLoFjZVB23/r5g1uVrjUMUjrGrrciMfnKWO9VZhxWxuZ4CRDG/0FKvGx+QHB+YS6AejkDJKegyt1zkHvFztl6NQJvBsj2lckDWHTRwWuhqvoxLLbYxdwoVqQhFTVWu7qcMHXAc8LPabgjjOVLnzIbgrkYhVptqZulGQavKFDSPdB6tSzNrSKfK2DDNY0azxUpgF5kwGRhnHLK0tEiHNaDV9a17oC2qpMEZ5LPwiQqz8UMAsR1F3mVuvA9UK0sIGuqUNja96oB+Fn3MavptklvnkvfXoP9SUIbcGrZ4bv+1blXSmrO3fPNJAWGdfxRXbu5z91kH6tMLb74zEF87gVXXLFADLjquJtZBYAtJSMMhIxsBRp3CwwZ4cSUoSlpepQjLMpZ+rPS3lUdD3/iGdDUK6Usea5IcbkXGTyZOvWQvriycaEmLvLKXxBopnDoAvTGNYtlQoPu1cuaRbOWgGWbRngN0YR0UksS8FiWMav/NYu+V08sTgMWt2Ze4mvyXOLZvugkyTBx4Ssoz3vock6uPxMOAPh9jihQzf1cbLGuQX3un39+99jtLbEL2WZ8W5a2pKFKpjueOs+i19IWpPxTGpm7tjTNvlem9j362ilXjNjkTGc52iaZ9VcogfQC6EUGUw7Af/+7JhZd7B8UrFl5TWINkOYiYROIChzt7WKJXLIQ4YquzHeVV8sbAiTiUjgRTlf7/9s7/xjLz6qMP+/MbnfbpmVldwsVRJFExVRFrYiA2FQoCBSKFYFCDCH+iD//QEUUBRVpu22X/khti8bEgAVZ0UihRqq2CBiJWgihqDUCYk0KbIrtsq27s3vP8Y+Ze+d9z/uc751l7s7c2T6fZLO7M3N/zPfe+z7vOe85z3GySLLfw6MPZxyE4WEqXFyAkx7/LAoq4TkNjjxFPyjGnVz3+jWuNgCGfvrXuC0u/g7ZYp6Noo2bqGP2Rxv8vn8iHnzwbdi16030WsYuiDgLoCRvT1r8XZsLFZ4GL4VsYEk1fbsrXd2c1o8T/SOa90Wcm86edCy8y6x7638bejMd5dyVchcbzWPwhjec31mzjlPHWSp7Wk95Vu1uWWrYqv7dgdR9rOque6KR2LROqsStrexmvd7OKtxZJT5JndcWsPGxRqzWwPNe9HG62siZNrOOravePblNl+4f6EhgPgSsKr4+2si+Z5ZUzYfnu9G84x3ftpqt8Tz9zKLoaN0aN6ZNv3hpMx3wfsxpPfyngM8YZ8Jaog1r8jydPLfu93Wefcksa2PUzsRceq4IXWwwo9Frm3NhlOEUIhumEqMCy3by8f5JBOdJKnHIptLI1zyML42jUru+axJ5d4uk8zRljKqc5FctM+oI6V7Wbz+ZAZ9MWXPwCLMMVPJHpz+WfbGVF7OsIZ3evWZx/Gr1db7QPwLgjA173x89enHT00178uM4UqxGxQ7uvBej78x+mI4pJVPV4ix0J25u9b+7ZACbl16SlH/hXSwlZLjYzPvoOleUbleELjaD5+KOO57VVFnTSu060hu1URaCu5qzoSHjPyNe1R0jOVqAF4aqWCgMi9EzixyBtjq8K0JD3yPfVOojGdiSFL1NCsCqyu76sWL1sg1kC2LkCx+uQDfvh7YcP75aDGfG3froYxJnuHowT/26jEbL/x6NX/9R9XUn9+kA8NAGv+9Pw0c+ur+NnkGi7XFKmRyHYErLI60OJxuHJgUOLvQeZ6N78Javj7KQbKbD7zC+v4I2FV+Sza+TPvjOLtkHsgpCgi5ONgUHDlzUL+xD5jKhRYkajlTroDmvvLYs5TzwWEgMa1jFfZyOxiq+J+lxEJH31b5uS6aWsXYxS9q+jLWNGd/UWNgMdJuCpOUMzm1Xx7cvhUx7C0ct9E+1mTNbEedRdZtgZBM3g+yIwKtrfrJnojM+/OGLhlPExIsf2dCVKOak6jvOKWBDetwHPNmr+yiVcPvAbPXB7BZANzRDaXeyN+j/bcMbHqGUuziJmL12NdIurR2lsyldSW9LXWVrTha4JJ1fG3yw9CXCQjfUY5s9lmeWlt6nj5viMyRmLTFlHfuAC1nwQwFZ5so1ibQsSc8mC2xhJj/em9XE89sCPjGuMROqc/vh2KVO0zbV9SWxBKZWwA9twjv/O7Bjx1U4evQNq6IdhpHEIk4nFfGZb3mZtklgihiLEpPjEpDPT1eQNpCWr3Pz0QK3jtCb+enh37GyvqmmB1TlrghdbA7fiBtuuHQ5nWpt8RWbdQ1w0xIYj9LqoSvxtqii6pgZiJamCANJLCkEMySDQYgFKjNKsYEjA6ujTmL4AiM2snVvtvWp7fpPfPwm+kfoAbc2Sh6R1Hcs0JsIbH2EgOrIhFxXWjxYH8OQ+eoYmsGOvihycfGhTXnn33jjXt6G58N5dFoclgmv56LeGbiU1iefOhAOdYd4cH4b6mxA7t9ed4HQNlb0Q25iWv7M0+/Q0qoIXWwG99xz6WpPtPUf+jhow0ObTKykLaX9ma4NK0vjEd/sGP3XUURmAcuMOFgRWTcKNCn6q6M25s6VpW3jom7smiYFUqX0PcwsakwXaiQLcoggnWVKsoI5EE+CGB1a2+Y3jupsQOhOP/1hHD688e/7L37xZWTWbCj0jBWLBXRwTjfzvLQFbN0sdpDitfi6xyxZKOisn2shn4U6yqcz7D1/TboWyDIllR4i/Df95lEtrBJ0sTn8KJaWLsT27XfS1tS0tSepkjZPRI6lLQdSimh1YvIPlsrsjgXI97vUcRJxjb84MmBhEV1FvBN/bGo8A/Rz5qtugJjOZl7i6VQs55udrALfSXq8FmJzMiVu2rS4ZIPWPKYlVgbjoqwCnHnm4U0RdGAXPv/5q/FNT/7V7j1R0Keku/dwwXCvNsj1m2LGk2160+sMsicJXRSD/vKJI17cyNbT6LJpiOO/r7j8r+B+8YxeIwdwn5bojUUp963NTrzlLd/Vpk4t8WLPetCt91ZnVdO0ijsriLM+BQ1WZIZkdrvzava6mK8rlqt+fmGliGxUpbRHpIBsZKvV3fVz7uaL12n1WE0O4vduyZQ7z/3SPfGA744Q0D5POJ83b1N61uN7Y7LfqK1gSdHe+N+jEXDWWf+3ae/8Awe+p5//jTYb06XGfXjz2Wwi6znliQA32S+SrRmqxmc1D939Jo9Xp9BrIe+yVwhjksN0tfr5X3H5B+D+whm9OscB/JS7f1BLtCJ0cSI8+OBrYBbmayOkzquduoU+WQuOaU2RUVggY8TuSZRTqp5mVmCXjVqPkTFLgQ+uxTbwvaFUOUg0D4Qh6XkcgqF+desC4EGzkMlr53lGAwOLPuJ878RdrokqsezfXqakbeNrs5mCfuzYhXj8ub+P++//+TZSLn0GhBaTIXGJC1F5KXl6ujhJqTNzgoFMVByS0kxDZOJf8iyLDzgvZsNaCoArrvjADCPzhwH8uLvfrsVZEbo4cb4Xd9/9si66BUhrWoiy6GQwtFFhbFcz47PP6xY1Nhyla/Hytkhs3FIVI2gz3jrG5nkjG9aS9H/D+nYx1kc/OBOdzJqn7YPjyDcZBBMHxUTnORuYyjYRZpJ9GQuxxUK76j2CKrsTp4J5aYe+1BHsrl2bed5a8Id/2M759hDmxu/VKec4N32wnQ28R9zDBqzZOGabPwyLrRn53kAfPTN28oENQzO/xoErrrhthmL+FQAXScwl6GI93HrrhX0PcegZpqNEmZDENGttpmK5TShCFXeT+k/+dKNFvbcxtcTKthvdOp4SxnrOWYqZjHA1HxbbZoMQNj1Y1cVeeNGbu8SRtobE8tP7xwHIkUldiV5dj0lrYy3S9W1C9XN9vUFsX+vruJEz0Rmf+tSLVgs6681GVdDGy9J7Qc4G54w3fjQXPhAJu5N0vLcbguLt31kR23hMKxNnFN4qNymCJc95bJ17xZW3wf0lM3o1vgDgWe7+D1qQlXIX60s/XtYISFloF6D6TLEkKbwSJrTFKncyB2I15Qgy1Ss4aa1pMElMCRYeJlmSRvQkRd/1/fpATzF41XshEU9XgZ/YtsZ2ovqxF0olxOx4gjTyNwV18T5jOr3wlK+DD4aJ097i61LfZs+epU1+538Tjh/fj23bfpkXqtV55VroSu9bAJIynxRRkl7xenBKfSdNGj5U23sJzmxjQfawARn4bLA55t7lLpIjmepxr5ypmP8rgBe4+39rMVaELtbPbrzrXT+7uuDGyLYS6FFIafsoFIhVf6LlqcX0cYj6R8FxrU5rjyy4wiX96KhMbrpUOAbsUpHbsDbOcMbT5plFah25xWwBMMXClaT7EZ5T3a/PovsmskYyWMWIjW7ILsD7LMwoON7Vffr1kQVYIZ9t/AhVxi23PKl9HYiYx1HAdb94lyqvLVvRdxekc8TDSNssQmebJB9IJAzhSXogu/34a7MV848fPHjwfRJzRehiltx990tx2WWVEJThVYG6myGfLx6jguK87SYWyxna6VQ0gsXA7G5wF7wY6mfnn3WEXUdcFlvIQvp1UjQ4ClGr8z5kVOfYk31ynVHw1b7uwn43D5mJ6EWetNfFdqfifL58SYboGDM88TYip4N7CnDObtv09/2hQxc37w/aY55EsvFn2Oz0KM6ZSKaDcOqRqay3tHKzK+iHzIzfD8zPofEgSEbj1pmhAuDKfbMU89t8+b6eoQVYEbqYLRehlFestllZUkAW29nC0BZHPiKURoFGWtWYi1sc7MKGqIT7tRjBWl+EN4l8yDl7qc/ax1HpqPeOb65DdZZssegMYYx6nXGoo60YyRuP3rsCPqxhXGoyFtZIu+B4M8FaAictakmBHbLbVQY0e/bYHLzvd+LTn76+yWRMjWiTb3S2sB5GlLLJa95nB+rcd4mRc+GReAkbw8mbraC3skVvy5D6TlT3OVsx/2Of3X0JCbroXst9+76TDxNJBrJ0AgNuHcvmrHuwSsVQytl6C1ckdq5mYSFig17IzG+AbzpA5qhPUsgxWrVewIF21jwdrILErnZa8Z/x3nY3cjRgvECNXT/zfLCNTZnxHq17PRn+Ywbs2TMf7/zbb3/WqsCFSWPuSR94fYxReG3IWFBjG2ej6aEArzk2CZFzKUiL8zJDGmcmSpUV8FpnqeybqZjvc/fXaslVyl2cTL70pcvaFCFJHzY795CiLaTyN9rAxhXNw0JWf6+gbR3qnNVK+1iTNH20nI1p/jC723x5axodwCa2uGFMpU2bgY3QK58Np4lp0+Qad4t79b2ux9150SArYmNOZpmzbH2fdDgNgusc+iOGWGD3d3deNRfve/fzsfuxN+KBB36heb9Nsxru3vPhmmYFm2kBHku5j9MkZW2GNt1M8lhAh96CuDDbW6xuImYn5g7gV9x9vxZbReji5PNk3HvvTzcRJUvTmrfDPTxE451rnIXoDyEirvueqzafJp3NnNWsLTyb3G7Um2s0UZWFTYfzPnfqOGf9uNRmsI0NOOWxqBh9xiAOqYkZEAwUs1lyzAF2DDLqn1dzfX3AdY60Fk5a/2KvOvjxyvJrc2wu3vk333xmL4IkFR5KE/ggFSJjQxa6dPfkfacbNWKKxXxONr8l1G3UBjdsB1e18u3bd/uMxPwolg1jJOYSdLFhvPvdz2nP6YjNq4ezbIvDVepeZCKm4z7z+PU6BR1TutTwAuGMuVr02JkwfSxLRHB8Jg2+aUE4SrC1zCdfeeK1ENabnWYjY/z8e3B2/NDX2DVAu0myFaFmtwU5gkkn1w1sUKLRzmbMRGd87nMv6QW9kOJIYtKStQHWmauYaekq1+uNXmLFWoiIl4FonZnBODHCMRbNA9h31W1wf9EMru5hAC9x9z/TAitBFxvJkSOX4tuf+rqmsMviuXHiqBbbo5wUh3XRYYhQ6lGlJQh8ff4L64vmsnN2KtYsYrUgxtYLHMC96DHFkY5tLIyMgKXn5Jb7tHs1BIU5vbkNFMcxpzsE1zoS+cP6MbLNZifx52dZi82Zic7YjQceuLYXvnD8UYtmYRF0GETUOcg5T4U78jay+rw77eBAu6GIm970+IwYEcGBq66aVZr9iwCe4+4f0uIqQRcbz+m48sonTAR33Jc+iZorYa/T3TYKZ6t1OtpIurDwvuesWKsRgVikFwvobEBYLU+FTx4f3P0tm8WeWqrWNqyWRM1xI8GK5qZkR+o+/dgtQCvijQ+0qa19kRS0sejcsIbKevDK/PkRdOCd7/z2/ox7YGLammafD3n/x9Q4eYxuYmD8mdJe58m0uLpvPkbq4bho3PI5Pju/6upZifnnV8T8E1pWJehis/j4x1/cCFxckSYLf+httrWcsfvaW6qMCEIzLc37qWZNlOn9c+rE10hrWKgCj4LlNsU7vY5sQcQ1pNqdtI2BWezWJjjoPeKbzRB4e1qanrc2+zDy3sgnRu2stZBG7cl0OzdgcfHQ3Lzvjx59Ho4dW2oj1nA01Ghx4dPYmutfO8DVf0prNlOn24uTFrSQro8/Uws5O+pijjPdMYHPUszvfv3rX/8Cd/8PLahbB1W5n5p8P0477WextHRzHaisLlaFRCdD0UudhvRQmJ1UeUcDFVppnEQttVtcAR9/ObabrQ1p4nNy4yYtdaqUDeeYmHw4qMemER/ceiHvIjgyO509n0IW9MymlVmQNvax6O1fWQrayYz54sHsx3iK2AGcccZhfPWr8xOg3HXXO/C85/3icsdZQWc600xQC+8jDNjkAtwQyIkpzZAt62BSwPuPVbxdiXPSsVrNfvXMxPxOd78QwL1aShWhi2H+FRtRGXzttef1ad8YrY6CPSwZaDJOYSM7ywUf9oJYWY3hdDRNz6M3W7EweIWl37M0eKzgj99rJtEZj6wn189CgZm17XYsVT0tlW2WTHoDN4Yx4yY8nlyTpoYBvc0rzQRMScWfffbDc/Xp+uQnX5huSoFY0NcXwWVn8JPsB/JRpEg2ayCp8mz+7fhzQd0EsSrmJWz8rr76gzMS8z9dEXMhQRfTcPe/B/DKky7qX/7yKwAc7saestRvlkpH4ldOp6Y5F0tqVBIFiY08TSrNm9R8TCWHynZLNgzTiuvSQjDjhWvsbHmwOj16qHsv4J6lurNNULVZsyntik6mqg3exvM2yF27jszZR+wpAPYPRsM0hA7HHGCFaIVE1GGYTVPIFu16VzIphWSr6vt39McEdZFeHER0zTW3wf3FM7h2N7r7K7VKS9DFiYn6n2+AqO/Bf/7n73aDSSxEo+wsO47ljEVqYGNH6xGqngw7SVzRjLRMpSNTvS+As2i5aqT4zAbO9433fo/vG+S2lswhjz3lE8tZ52f1qbUupggsaYMDKUg0b+1am+tQbQBAht/E2zA74F27/m/uPmC33PL1vTtcIqJ1ZF5Cdr4+rmgMXcJnAEjOuYeK5dC72LnnRxuoM2jV15bFfL2RuQP4HXf/Ba3OEnQxr6J+4MAPdZXVsL56PUaIMPL9ZANg9eQw9MVc2XSxxlDDuOBPszH1JDI2VlXvyfeTdP3QnPRJGiD2o1s/lc7J9WftdoNib7lpDkh1/8i56Y8lhYOePGdYnxGx0Gmw+SNUew4dumQw5U0jdSQmMx5a2qbIYuxLj4VxNpQlIAIen1+pallmI+YjAD/j7m/RqixBF+sX9VedNFFfWno+nva0X+zTsomDGqtCt8QRjVZIk5S0Wd7L7saHuiA+pvH2tbQ1jlSeG3F6i5kIVl3fnJ9ba5oz8vasP0uFx5qANXcJsHNxG0i9Wy/yyO4feU98dMsbhQ1TXZuwe/exOfxonY57Pn1NHzn3QTtNvWMtqfpeq9uWsyrCn7StoS90i+l1Zn7DLJmv2T+LM/NHAFzi7n+g1ViCLmYj6u87iZH6Nlx++Te05+fGXczq6NASYTHmeEZsSc15+1VjNep5GteMtJp5cmbPIs3ochad0qw1wBkSR6sicjq0hB1RJGfuXdtYKEj0USj6IzazXVtdzCKETdDYj6B+DVk/vqE9lmkKBUORXr152bv3+Fx+sP76r39wVVALuvPpgiCcJQxq8X4CsYP0fyO8TiFlj8Qkic02iOn+RvSrL+7fP4sz8/8F8Hx3/4BWYQm62Crp90984pLePS0IlEU71VqYMJC6RX5GPUlHj4L/OhEON54Szs7ALfGPj2n5eh1kv6fZcCq/2RwgmXzm5DGN2N9GsxwjXvkIzy8bs+rcBtdAsiEIGxqbcqwxxVCmid4B7Nnjc/qh+n489rHX977qyZhY6gDn/OdBiuYQIugk6EeWjQf6ThCW018W8/VG5vcDuMDdP6rVV4IutpaofwvOOPMNbREQuLlLFDgLESUsjDANEbB5+282StWT6NDIzPN6aMuQeQ2zXG1S1muoEo/Xo3s+zIbVeMaCRerj1j8MpMERZ7EH8xufci3AWu2SgjbYlKOSYPCT3cfevTa3H6qbbtqZ5tjrTEMt4FMtVoMCdwaKWTtatXEoHn4ueCAA1ZTD6sf2v30WYv5vAJ7h7p/SqitBFydf1Gd/pn7ddd+VFngNDQyJwppNNIPndqVZtbYnA06YfzptM7P+PNdjgV5SEc7O9EHa4Uas6M4SO9VkoEp9/GDk+bv1Gye20Uk3LMjd3DCtkj9r0UuOIBAG25gDu3fP7wfqvvte1ni4M0e4ejywk4jcSbodlfgWEAc59EV4pR4YU4JrXOk3Al6Jvjvw9v3vn4GY/9NnP/vZa9z9C1ptT03kFDd/ov6+UsqPAXgPgO0zudMHHrgEI2s9oeu/uxnLdSoymfU9xjIf7GrMI501Hh3r6gWuTo3yu2+dzmJQFFqVysBzWX1CK39Z78U9vgY0Fq2iKiRmJPXfzW2MB4DdbdljIhkeAvJ4QVzie2DofkDeG/WP3PGh183xx+kcHDx4JfbufWPzRo+ug/mHsb1GnROcDxfOsbPwkr1HyOi18Sbh2mvfD/eXrvNafNCXz92frlVWEbrYYFGfcaR+Ju7779/rU7wh6qqrmdN+8KF0bmhdMzbzO6ls93pQTOaBHgvNRv3XkIwmbYrsjM96j8V6sD4rQWsJrP9/lurPxpAaGaQyNHoVpLe/6qbjRYZI2vfYQJ1w1GLR2W/l+4cOPW6uP0y33nre8K4pEeO1bFzjMVbcKcWxwSX0rDdn92yITJmVmL/TZ2M8IyToYi5E/S/+4kLeg+xkfGqcde6tWGZtZsbEzMJscpBNQF3QxVLaWdEagrCRiWaeDUcJhWuxjQ1TxJiZ5IwX/kGnulpcR/1IU1gyiz1J98fzd582391aI6DOerZy/AMSt7+waUhyF3PBaPQCfPM330h91jsRD5kWZ77/YaDK+DycfLv3XA8ZMYRNVvzG298+CzG/wd1/QiuqBF2cSqJ+/Pgz8fSn/3pfkJbYs0bDlGzU5rRzWUu8whGnmVnf8gYjvutsvjj4hDB2W7D55pa0z7F2u8Ry1erCNNKWZiSir21YJ8X6ie2q25R+9Wy0alIvwMbQ1i16qe0sMZsBDs/xx2gbbr75aNNiFgvfujkDZeC4Iwh3fftCBv106fshc5oq4l9/ZO4AftXdf0krqQRdnIqi/ta3PokXPmX93fWAFOI9bqSwrXNGQ15VDnK7ugVtYnKSjG/tsgVI/j3gtU5NcozMdkfSs17NQjVSEGg+0BZnw1X0SDz2LXOdszD2lr0myDcvTcRuyVEA+vfBPM1EZ9xzz8VdxfrUeejeq3dVOxk+pKvfm5razwbAVCn89Yv5EoBXu/vVWkEl6GI+Rf3VANZn4vGZz7ys7We2/KzWk+iQGazQ3mrmzR7b4pJokzq/JYYunbELhk1ifMBbvstQIIi8kfnuxKilXvmzav3MkCcOmmGtckgi7ziBjbX3NZmBsHlg891rx7lGrJq09ENz/hH6FpRyeZ9pJ+NxY/vY5HesChFL2ASWuBEoZMgL2vuYZPhrQ5oCXHftB9Yp5l8F8GJ3f7dWTgm6mF9RP4D196k/Hjt3vrkb40gjaAz0bJNxqEZaxUaxfQ38dt2AluwcnBX1YYrhi02ZqFZfgyQ1PThJzbkaIDu9AAAKw0lEQVQXfJfNAEmRO9+UsIl18Px3iZsKI1F5LCZ066PPWnjqOeGloDdnqfqlSzk09x+gW255YnM8U8hwFoS56N3+xXtRjtXrDtJN4P1oVvd+P7EcmV+8jt/yAQAXufsdWjEl6GJrROqXrUvUb7zx+6gJiiVn57WlalZ9Hv3Dm6guGsoYKSRDEKYp/vHOzsGdm+HYUKo7mYxmxh3p4ujYNKWP5Hkmv0etDJ4NjvHkSCScxw/1m0+izdoKldmX1u1TJQg40BmSn3XW4bn/8Dz88KUYjZDPLw8e93Vk3kX2ROgtO2wHaGVcTPdfd9160+z/BeCZ7v6PWikl6GLriPqfrUvUH3nkR/Dyl7+pFwvwgq+66hoDw1XYBDNLisjgpL3L+sr17jGzGezszD4xo8mibNjwyFZqgwtuCtNsCBA81rP0ufVFeNRdz9rUsCEUYFUmKqUKJUtB029fC/Y4GkdZ+Tm0vef1HmDyMFVU+3Vf98gW+OiciXvueVvfa78Gn9ZYIe/R/KW077vJ3ZRQ+e69+5yXWYj5PQCe7e73aoWUoItHl6hvw2/91mPa4RsYSFWDV1tbIqAWZjZ74kUei7OMiLyR2ef0nL8ew2rkvth0uXi+DTRn/nDS1259WxsG/NZBHj9uLNhmiAV5k/+XvtOqRLEYMM9pgmsP57kIRjMk5V7CRgAAdu06siU+OHfeeUE7ES1G5CCZi+q6w7lRkIcXpE6zN5XvlbPc+OeuX7eYf9jdz3P3/9HKKCToj0ZR/+hHX4q6dou1gdlQQRk5VzbSGhYjdiDvzaYe73UfOtD0wdfnxmARbh1RWT5Zjo1ZNevnflvMWoBPpgNAq/frLEetsV3EWLgW16M1S0zfBoGd/Lu0UWacElaIM9lYzEsQf5TgclY99jnnHN0iH5tnYffuKxsBLkSwnbWfef7a0J8lqX239uevv369Yv6X7n6BVkMhQT+1RP1Eq9+/Feed98a0+tszT3UMt40ZqSD3OLLT+vP3rLAMLJqujVJAjFYGpqlZElV3k9tIgZ4lg2bojHEixON0duxvHqdsvRBhiFE4Wq9wOmObTBIr1X1Pit1idFn5mjeuZYVsHqqvFwf27FnaMh+a668/A0R3Vz0PMCDa1l+zqNpdvYJ3pyHLkfm6xfwmd79Eq6CQoJ96ov6qExb1N7/521KjkRHpzx60gcVAexmbBZ0McmnO8pGYuMQsQG2I4kkPOvrzaZDMgqFP88O5Pe2Qd7qHOduluk2JIlyCcFRn2tEatL5tqSu1a/ey0k7qam5TiTpCJIrSR+pdJXZ1iL6wsGqXdu65tmU+MAcPvoKLdXWNnIxcRZwdEAexsE1AqTIi1UbthnWL+T53/zmtfkKCfuqK+on1qX/lK5em08IQRN48T1E7qxgnU8aiJ/t4nOg0saYV7Ex00ZrRjNiZN3rrWTAnuWqFr7Otk78LF+LGErSEwrQYgYeNQC0mXt1HCf1RtTiMI+0S7n8s2nSgSF21Xv1ZWPCJkI/T9QuLjsUFb57r4qJPxHxhYfmOn/CErfRxeRy+/OXfbp3jvJ+OFjduWTtaNz+d7BbqL19/w23rEPMRgJ9291/Tqick6Ke2qL/3BCP1s3D4q2/pz7ITkW+cySzpQUeIkOufR++MNgqV62CWqz5wvj6+DbNVtTbCmsy+trDYVmJYR7BNShyr0a8n4Rhr55qIf4iC657lEs5uJ6M0Y4RYqudbPUbXWrWSvh+Lbame+8KKGJdFnzyHxYVVgV5cXLnN+Oew+jNl0Ze/X7Fjh2HnGSM8/vGLW+rD8p73fDcV4OgC11W1o900ObN4Bf9ZALjhhr9cxwjUowBe5e5/oNVOSNAfPZH62kX9wIEfbgvSxlGzJbaoQOuvTuxame+6JaYszVk2+oxAXBM721hwz2wP59V1mpkVNo0FD2jFnfUqNyYr3laKNz8a7qeuTu/StKEvfCzKpfrdyoroTqrOy7IALy46FhZ9cp8LC6tR9cLi6t8LCz65VgXAztOPY3H8tZWv79hhOP30UfP77N17BHv3HME5e49gz94jq1/bewRnn72Ex5y9hMc9btsW+6C8CE95yn7aFVCI13qTbfFQv+BtQV2p3hP1670s5l/rmfeDWDaMOaBVTgyheeinoKiXUl6O5Xnq26b88HPw0KFn46yzPoZmPLe3UUs9ztEdvBgIPHLtZpBX7VD1wscWwTKswW1UWkXJMdKuxXpyf3W0XKWhY0DdPP8SCpxKGynXj1NIVN6IvAM7di5h6chpk8coBdixY7nA7OiR0ybPffw1bFu+j2NL27BQ/S7uwM4dx3BsaVszteu005Y3dseObZsI0vaVr7kD27cbjh3bhu3bl79mK2+A7dtHeOpTv9RsVhzA+ed/EQBw97+c21yzd73rlVtu3bvmmodxySXh+CSbLc82eI6u/a39bC3/fXwE3HTTesT8fgAvdPdPanUTa1gJpw4JXitvc/c36ZLOyQtbyisB/MkaNm13A/icrphYB2cBeMEWe873A/jYBjzOkwGc/zXe9l4Az3f3/9Jb7JReq98GYCbaqQj91I3U/3SNkfr3rvwR4tHEuQBePsfP75/vuuuu37jgggsk5kKCLk4w/S6EmBf+1t2fC+BvdCnEiaCiuEeBqONr6VMXQmwGf7Ii5kJI0IVEXYgtyg3u/hpdBiFBF2sR9a/FJlYIcZI/ngDe6O6/pEshJOhiraJ+QKIuxFxxHMBPuvuVuhRCgi4k6kJsTR4G8FJ3/yNdCiFBFxJ1IbYmX8Gy+9vtuhRCgi4k6kJsTb4A4Jnu/g+6FEKCLiTqQmxNPgPg2e7+77oUQoIuJOpCbE0+fvDgwT939/t0KcTJQO5hAu5+oJTy4wDerfeEECeF9/vyHPRn6FIIRehCkboQW5M/XhFzISToQqIuxBZln7u/VpdBSNCFRF2IrckIwM+5+6/pUggJupCoC7E1WQJwmbvfpEshJOhiXkT91RJ1IU6IwwAudvf36lKIjUYVzWJI1N9bSnk1gLfqaggxlYcB/IS7f1KXQkjQxTyK+q26CkKsGYm52DSUchdCCCEk6EIIIYSQoAshhBBCgi6EEEIICboQQgghQRdCCCGEBF0IIYQQEnQhhBBCSNCFEEIICboQQgghJOhCCCGEkKALIYQQQoIuhBBCSNCFEEIIIUEXQgghhARdCCGEEBJ0IYQQQoIuhBBCCAm6EEIIISToQgghhJCgCyGEEBJ0IYQQQkjQhRBCCCFBF0IIIYQEXQghhJCgCyGEEEKCLoQQQggJuhBCCCEk6EIIIYQEXQghhBASdCGEEEJI0IUQQgghQRdCCCEk6EIIIYSQoAshhBBCgi6EEEIICboQQgghQRdCCCGEBF0IIYQQEnQhhBBCSNCFEEIICboQQgghJOhCCCGEkKALIYQQQoIuhBBCCAm6EEIIIUEXQgghhARdCCGEEBJ0IYQQQkjQhRBCCAm6EEIIISToQgghhJCgCyGEEEKCLoQQQpx6FAA+o/v6RwAf0SUVQggh1sxzAPzAvAm6EEIIITYJpdyFEEIICboQQgghJOhCCCGEkKALIYQQQoIuhBBCSNCFEEIIIUEXQgghhARdCCGEEBJ0IYQQQoIuhBBCCAm6EEIIISToQgghhJCgCyGEEBJ0IYQQQkjQhRBCCCFBF0IIIYQEXQghhDiF+X/7LImZ9ZPPfwAAAABJRU5ErkJggg==;fontStyle=1;fontSize=20;" parent="1" vertex="1">
          <mxGeometry x="123.08999999999999" y="2100.38" width="151.78" height="180" as="geometry" />
        </mxCell>
        <mxCell id="beyWk9RbX9cDXpkhxu_A-60" style="edgeStyle=orthogonalEdgeStyle;rounded=0;orthogonalLoop=1;jettySize=auto;html=1;strokeWidth=3;" parent="1" source="beyWk9RbX9cDXpkhxu_A-57" target="beyWk9RbX9cDXpkhxu_A-59" edge="1">
          <mxGeometry relative="1" as="geometry" />
        </mxCell>
        <mxCell id="beyWk9RbX9cDXpkhxu_A-57" value="&lt;b&gt;&lt;font style=&quot;font-size: 20px;&quot;&gt;Discord API&lt;/font&gt;&lt;/b&gt;" style="image;sketch=0;aspect=fixed;html=1;points=[];align=center;fontSize=12;image=img/lib/mscae/API_Management.svg;" parent="1" vertex="1">
          <mxGeometry x="30.004345446892216" y="1580.0035241502683" width="175.84388241897014" height="147.70590711379262" as="geometry" />
        </mxCell>
        <mxCell id="beyWk9RbX9cDXpkhxu_A-62" style="edgeStyle=orthogonalEdgeStyle;rounded=0;orthogonalLoop=1;jettySize=auto;html=1;strokeWidth=3;" parent="1" source="beyWk9RbX9cDXpkhxu_A-59" target="beyWk9RbX9cDXpkhxu_A-61" edge="1">
          <mxGeometry relative="1" as="geometry" />
        </mxCell>
        <mxCell id="beyWk9RbX9cDXpkhxu_A-59" value="Discord Server" style="shape=image;verticalLabelPosition=bottom;labelBackgroundColor=default;verticalAlign=top;aspect=fixed;imageAspect=0;image=data:image/png,iVBORw0KGgoAAAANSUhEUgAACHAAAAhwCAYAAABPzFtpAAAAAXNSR0IArs4c6QAAAARnQU1BAACxjwv8YQUAAAAJcEhZcwAADsMAAA7DAcdvqGQAAP+lSURBVHhe7N15lJ3lfeD5391r0YY2tC+AEJIAiUWAWMQOQgKEJBaBwcY2TjpLJ51MEtuJ4yRO4jjOZLPT6UmnTy+npyedM2dm3GemkzhOvOGFGLDZN4PZzQ4Ca697q6beW68MmE1LVT13+XzOuefe51aJ/6j33vf9vr+nsPUjrw0FAAAAAAAAAADJFPNnAAAAAAAAAAASEXAAAAAAAAAAACQm4AAAAAAAAAAASEzAAQAAAAAAAACQmIADAAAAAAAAACAxAQcAAAAAAAAAQGICDgAAAAAAAACAxAQcAAAAAAAAAACJCTgAAAAAAAAAABITcAAAAAAAAAAAJCbgAAAAAAAAAABITMABAAAAAAAAAJCYgAMAAAAAAAAAIDEBBwAAAAAAAABAYgIOAAAAAAAAAIDEBBwAAAAAAAAAAIkJOAAAAAAAAAAAEhNwAAAAAAAAAAAkJuAAAAAAAAAAAEhMwAEAAAAAAAAAkJiAAwAAAAAAAAAgMQEHAAAAAAAAAEBiAg4AAAAAAAAAgMQEHAAAAAAAAAAAiQk4AAAAAAAAAAASE3AAAAAAAAAAACQm4AAAAAAAAAAASEzAAQAAAAAAAACQmIADAAAAAAAAACAxAQcAAAAAAAAAQGICDgAAAAAAAACAxAQcAAAAAAAAAACJCTgAAAAAAAAAABITcAAAAAAAAAAAJCbgAAAAAAAAAABITMABAAAAAAAAAJCYgAMAAAAAAAAAIDEBBwAAAAAAAABAYgIOAAAAAAAAAIDEBBwAAAAAAAAAAIkJOAAAAAAAAAAAEhNwAAAAAAAAAAAkJuAAAAAAAAAAAEhMwAEAAAAAAAAAkJiAAwAAAAAAAAAgMQEHAAAAAAAAAEBiAg4AAAAAAAAAgMQEHAAAAAAAAAAAiQk4AAAAAAAAAAASE3AAAAAAAAAAACQm4AAAAAAAAAAASEzAAQAAAAAAAACQmIADAAAAAAAAACAxAQcAAAAAAAAAQGICDgAAAAAAAACAxAQcAAAAAAAAAACJCTgAAAAAAAAAABITcAAAAAAAAAAAJCbgAAAAAAAAAABITMABAAAAAAAAAJCYgAMAAAAAAAAAIDEBBwAAAAAAAABAYgIOAAAAAAAAAIDEBBwAAAAAAAAAAIkJOAAAAAAAAAAAEhNwAAAAAAAAAAAkJuAAAAAAAAAAAEhMwAEAAAAAAAAAkJiAAwAAAAAAAAAgMQEHAAAAAAAAAEBiAg4AAAAAAAAAgMQEHAAAAAAAAAAAiQk4AAAAAAAAAAASE3AAAAAAAAAAACQm4AAAAAAAAAAASEzAAQAAAAAAAACQmIADAAAAAAAAACAxAQcAAAAAAAAAQGICDgAAAAAAAACAxAQcAAAAAAAAAACJCTgAAAAAAAAAABITcAAAAAAAAAAAJCbgAAAAAAAAAABITMABAAAAAAAAAJCYgAMAAAAAAAAAIDEBBwAAAAAAAABAYgIOAAAAAAAAAIDEBBwAAAAAAAAAAIkJOAAAAAAAAAAAEhNwAAAAAAAAAAAkJuAAAAAAAAAAAEhMwAEAAAAAAAAAkJiAAwAAAAAAAAAgMQEHAAAAAAAAAEBiAg4AAAAAAAAAgMQEHAAAAAAAAAAAiQk4AAAAAAAAAAASE3AAAAAAAAAAACQm4AAAAAAAAAAASEzAAQAAAAAAAACQmIADAAAAAAAAACAxAQcAAAAAAAAAQGICDgAAAAAAAACAxAQcAAAAAAAAAACJCTgAAAAAAAAAABITcAAAAAAAAAAAJCbgAAAAAAAAAABITMABAAAAAAAAAJCYgAMAAAAAAAAAIDEBBwAAAAAAAABAYgIOAAAAAAAAAIDEBBwAAAAAAAAAAIkJOAAAAAAAAAAAEhNwAAAAAAAAAAAkJuAAAAAAAAAAAEhMwAEAAAAAAAAAkJiAAwAAAAAAAAAgMQEHAAAAAAAAAEBiAg4AAAAAAAAAgMQEHAAAAAAAAAAAiQk4AAAAAAAAAAASE3AAAAAAAAAAACQm4AAAAAAAAAAASEzAAQAAAAAAAACQmIADAAAAAAAAACAxAQcAAAAAAAAAQGICDgAAAAAAAACAxAQcAAAAAAAAAACJCTgAAAAAAAAAABITcAAAAAAAAAAAJCbgAAAAAAAAAABITMABAAAAAAAAAJCYgAMAAAAAAAAAIDEBBwAAAAAAAABAYgIOAAAAAAAAAIDEBBwAAAAAAAAAAIkJOAAAAAAAAAAAEhNwAAAAAAAAAAAkJuAAAAAAAAAAAEhMwAEAAAAAAAAAkJiAAwAAAAAAAAAgMQEHAAAAAAAAAEBiAg4AAAAAAAAAgMQEHAAAAAAAAAAAiQk4AAAAAAAAAAASE3AAAAAAAAAAACQm4AAAAAAAAAAASEzAAQAAAAAAAACQmIADAAAAAAAAACAxAQcAAAAAAAAAQGICDgAAAAAAAACAxAQcAAAAAAAAAACJCTgAAAAAAAAAABITcAAAAAAAAAAAJCbgAAAAAAAAAABITMABAAAAAAAAAJCYgAMAAAAAAAAAIDEBBwAAAAAAAABAYgIOAAAAAAAAAIDEBBwAAAAAAAAAAIkJOAAAAAAAAAAAEhNwAAAAAAAAAAAkJuAAAAAAAAAAAEhMwAEAAAAAAAAAkJiAAwAAAAAAAAAgMQEHAAAAAAAAAEBiAg4AAAAAAAAAgMQEHAAAAAAAAAAAiQk4AAAAAAAAAAASE3AAAAAAAAAAACQm4AAAAAAAAAAASEzAAQAAAAAAAACQmIADAAAAAAAAACAxAQcAAAAAAAAAQGICDgAAAAAAAACAxAQcAAAAAAAAAACJCTgAAAAAAAAAABITcAAAAAAAAAAAJCbgAAAAAAAAAABITMABAAAAAAAAAJCYgAMAAAAAAAAAIDEBBwAAAAAAAABAYgIOAAAAAAAAAIDEBBwAAAAAAAAAAIkJOAAAAAAAAAAAEhNwAAAAAAAAAAAkJuAAAAAAAAAAAEhMwAEAAAAAAAAAkJiAAwAAAAAAAAAgMQEHAAAAAAAAAEBiAg4AAAAAAAAAgMQEHAAAAAAAAAAAiQk4AAAAAAAAAAASE3AAAAAAAAAAACQm4AAAAAAAAAAASEzAAQAAAAAAAACQmIADAAAAAAAAACAxAQcAAAAAAAAAQGICDgAAAAAAAACAxAQcAAAAAAAAAACJCTgAAAAAAAAAABITcAAAAAAAAAAAJCbgAAAAAAAAAABITMABAAAAAAAAAJCYgAMAAAAAAAAAIDEBBwAAAAAAAABAYgIOAAAAAAAAAIDEBBwAAAAAAAAAAIkJOAAAAAAAAAAAEhNwAAAAAAAAAAAkJuAAAAAAAAAAAEhMwAEAAAAAAAAAkJiAAwAAAAAAAAAgMQEHAAAAAAAAAEBiAg4AAAAAAAAAgMQEHAAAAAAAAAAAiQk4AAAAAAAAAAASE3AAAAAAAAAAACQm4AAAAAAAAAAASEzAAQAAAAAAAACQmIADAAAAAAAAACAxAQcAAAAAAAAAQGICDgAAAAAAAACAxAQcAAAAAAAAAACJCTgAAAAAAAAAABITcAAAAAAAAAAAJCbgAAAAAAAAAABITMABAAAAAAAAAJCYgAMAAAAAAAAAIDEBBwAAAAAAAABAYgIOAAAAAAAAAIDEBBwAAAAAAAAAAIkJOAAAAAAAAAAAEhNwAAAAAAAAAAAkJuAAAAAAAAAAAEhMwAEAAAAAAAAAkJiAAwAAAAAAAAAgMQEHAAAAAAAAAEBiAg4AAAAAAAAAgMQEHAAAAAAAAAAAiQk4AAAAAAAAAAASE3AAAAAAAAAAACQm4AAAAAAAAAAASEzAAQAAAAAAAACQmIADAAAAAAAAACAxAQcAAAAAAAAAQGICDgAAAAAAAACAxAQcAAAAAAAAAACJCTgAAAAAAAAAABITcAAAAAAAAAAAJCbgAAAAAAAAAABITMABAAAAAAAAAJCYgAMAAAAAAAAAIDEBBwAAAAAAAABAYgIOAAAAAAAAAIDEBBwAAAAAAAAAAIkJOAAAAAAAAAAAEhNwAAAAAAAAAAAkJuAAAAAAAAAAAEhMwAEAAAAAAAAAkJiAAwAAAAAAAAAgMQEHAAAAAAAAAEBiAg4AAAAAAAAAgMQEHAAAAAAAAAAAiQk4AAAAAAAAAAASE3AAAAAAAAAAACQm4AAAAAAAAAAASEzAAQAAAAAAAACQmIADAAAAAAAAACAxAQcAAAAAAAAAQGICDgAAAAAAAACAxAQcAAAAAAAAAACJCTgAAAAAAAAAABITcAAAAAAAAAAAJCbgAAAAAAAAAABITMABAAAAAAAAAJCYgAMAAAAAAAAAIDEBBwAAAAAAAABAYgIOAAAAAAAAAIDEBBwAAAAAAAAAAIkJOAAAAAAAAAAAEhNwAAAAAAAAAAAkJuAAAAAAAAAAAEhMwAEAAAAAAAAAkJiAAwAAAAAAAAAgMQEHAAAAAAAAAEBiAg4AAAAAAAAAgMQEHAAAAAAAAAAAiQk4AAAAAAAAAAASE3AAAAAAAAAAACQm4AAAAAAAAAAASEzAAQAAAAAAAACQmIADAAAAAAAAACAxAQcAAAAAAAAAQGICDgAAAAAAAACAxAQcAAAAAAAAAACJCTgAAAAAAAAAABITcAAAAAAAAAAAJCbgAAAAAAAAAABITMABAAAAAAAAAJCYgAMAAAAAAAAAIDEBBwAAAAAAAABAYgIOAAAAAAAAAIDEBBwAAAAAAAAAAIkJOAAAAAAAAAAAEhNwAAAAAAAAAAAkJuAAAAAAAAAAAEhMwAEAAAAAAAAAkJiAAwAAAAAAAAAgMQEHAAAAAAAAAEBiAg4AAAAAAAAAgMQEHAAAAAAAAAAAiQk4AAAAAAAAAAASE3AAAAAAAAAAACQm4AAAAAAAAAAASEzAAQAAAAAAAACQmIADAAAAAAAAACAxAQcAAAAAAAAAQGICDgAAAAAAAACAxAQcAAAAAAAAAACJCTgAAAAAAAAAABITcAAAAAAAAAAAJCbgAAAAAAAAAABITMABAAAAAAAAAJCYgAMAAAAAAAAAIDEBBwAAAAAAAABAYgIOAAAAAAAAAIDEBBwAAAAAAAAAAIkJOAAAAAAAAAAAEhNwAAAAAAAAAAAkJuAAAAAAAAAAAEhMwAEAAAAAAAAAkJiAAwAAAAAAAAAgMQEHAAAAAAAAAEBiAg4AAAAAAAAAgMQEHAAAAAAAAAAAiQk4AAAAAAAAAAASE3AAAAAAAAAAACQm4AAAAAAAAAAASEzAAQAAAAAAAACQmIADAAAAAAAAACAxAQcAAAAAAAAAQGICDgAAAAAAAACAxAQcAAAAAAAAAACJCTgAAAAAAAAAABITcAAAAAAAAAAAJCbgAAAAAAAAAABITMABAAAAAAAAAJCYgAMAAAAAAAAAIDEBBwAAAAAAAABAYgIOAAAAAAAAAIDEBBwAAAAAAAAAAIkJOAAAAAAAAAAAEhNwAAAAAAAAAAAkJuAAAAAAAAAAAEhMwAEAAAAAAAAAkJiAAwAAAAAAAAAgMQEHAAAAAAAAAEBiAg4AAAAAAAAAgMQEHAAAAAAAAAAAiQk4AAAAAAAAAAASE3AAAAAAAAAAACQm4AAAAAAAAAAASEzAAQAAAAAAAACQmIADAAAAAAAAACAxAQcAAAAAAAAAQGICDgAAAAAAAACAxAQcAAAAAAAAAACJCTgAAAAAAAAAABITcAAAAAAAAAAAJCbgAAAAAAAAAABITMABAAAAAAAAAJCYgAMAAAAAAAAAIDEBBwAAAAAAAABAYgIOAAAAAAAAAIDEBBwAAAAAAAAAAIkJOAAAAAAAAAAAEhNwAAAAAAAAAAAkJuAAAAAAAAAAAEhMwAEAAAAAAAAAkJiAAwAAAAAAAAAgMQEHAAAAAAAAAEBiAg4AAAAAAAAAgMQEHAAAAAAAAAAAiQk4AAAAAAAAAAASE3AAAAAAAAAAACQm4AAAAAAAAAAASEzAAQAAAAAAAACQmIADAAAAAAAAACAxAQcAAAAAAAAAQGICDgAAAAAAAACAxAQcAAAAAAAAAACJCTgAAAAAAAAAABITcAAAAAAAAAAAJCbgAAAAAAAAAABITMABAAAAAAAAAJCYgAMAAAAAAAAAIDEBBwAAAAAAAABAYgIOAAAAAAAAAIDEBBwAAAAAAAAAAIkJOAAAAAAAAAAAEhNwAAAAAAAAAAAkJuAAAAAAAAAAAEhMwAEAAAAAAAAAkJiAAwAAAAAAAAAgMQEHAAAAAAAAAEBiAg4AAAAAAAAAgMQEHAAAAAAAAAAAiQk4AAAAAAAAAAASE3AAAAAAAAAAACQm4AAAAAAAAAAASEzAAQAAAAAAAACQmIADAAAAAAAAACAxAQcAAAAAAAAAQGICDgAAAAAAAACAxAQcAAAAAAAAAACJCTgAAAAAAAAAABITcAAAAAAAAAAAJCbgAAAAAAAAAABITMABAAAAAAAAAJCYgAMAAAAAAAAAIDEBBwAAAAAAAABAYgIOAAAAAAAAAIDEBBwAAAAAAAAAAIkJOAAAAAAAAAAAEhNwAAAAAAAAAAAkJuAAAAAAAAAAAEhMwAEAAAAAAAAAkJiAAwAAAAAAAAAgMQEHAAAAAAAAAEBiAg4AAAAAAAAAgMQEHAAAAAAAAAAAiQk4AAAAAAAAAAASE3AAAAAAAAAAACQm4AAAAAAAAAAASEzAAQAAAAAAAACQmIADAAAAAAAAACAxAQcAAAAAAAAAQGICDgAAAAAAAACAxAQcAAAAAAAAAACJCTgAAAAAAAAAABITcAAAAAAAAAAAJCbgAAAAAAAAAABITMABAAAAAAAAAJCYgAMAAAAAAAAAIDEBBwAAAAAAAABAYgIOAAAAAAAAAIDEBBwAAAAAAAAAAIkJOAAAAAAAAAAAEhNwAAAAAAAAAAAkJuAAAAAAAAAAAEhMwAEAAAAAAAAAkJiAAwAAAAAAAAAgMQEHAAAAAAAAAEBiAg4AAAAAAAAAgMQEHAAAAAAAAAAAiQk4AAAAAAAAAAASE3AAAAAAAAAAACQm4AAAAAAAAAAASEzAAQAAAAAAAACQmIADAAAAAAAAACAxAQcAAAAAAAAAQGICDgAAAAAAAACAxAQcAAAAAAAAAACJCTgAAAAAAAAAABITcAAAAAAAAAAAJCbgAAAAAAAAAABITMABAAAAAAAAAJCYgAMAAAAAAAAAIDEBBwAAAAAAAABAYgIOAAAAAAAAAIDEBBwAAAAAAAAAAIkJOAAAAAAAAAAAEhNwAAAAAAAAAAAkJuAAAAAAAAAAAEhMwAEAAHAQCoWImdOLcfKqcmzeUI2jjyzlPwGA7nLJ+dW4+NxqLDu6FP19wwdIAAAADkph60deG8pfAwAA8Db6eguxYF4x5s8txsJ5pR+/7qm9fpHq8ScH4+O/tyOGfMMCoIscsbAUv/8bfflqxMuvDMUTTzfiyacHh5+HH0814ulnBqPRyH8BAACAtyXgAAAAyJWKEbMPLzYDjQXzSs1II3s9fer+DS/8d/9pd3z92wP5CgA63yd/pa85eeO9NAYjfvjMYDz5dCOeeGok7MgCjxdfHv4BAAAATQIOAACgK02ZlE3VeD3SyCZrzJ1djHI5/4WDkN1x/Euf2B57NRwAdIETV5bjV3+uN18dnJ27hppBx8i0jpG4I3u9a7dTlgAAQPcRcAAAAB2tUIg4fEYxFi8sxqL5peHnUiycV4xJE8dmj/7//n/vif/xD3vzFQB0pmxq1Wd/uz/mzNq/KVUH6sWXBuPRJwbjsScazedHh5+3veo0JgAA0NkEHAAAQMcoFqN5IWkk1MiijdLw62L09oxNrPF2sjuGf/HXd8SPtvuqBUDnuuDsSnz4fT35any8+tpQPPp4Ix57ciToeOyJwXj+RVuwAAAAnUPAAQAAtKVSKWLe7JFI44hsqsb8YvNRq45frPFOvviVvfGf/2ZPvgKAztJTK8Sf/X5/TJ6U/pi7Y+dQM+TIgo59EzueeW4whpzxBAAA2pCAAwAAaHmVSsSCuflUjQWlWLSg2FyXy/kvtJhGI+JXfmtHPPu8u4IB6DxXbazF5g3VfNV6du8ZiieeGvzxtI4fDD8//cPBaDgsAwAALU7AAQAAtJRsT/0F80px5OJiHLlo+Hn4MXd2sbk9Sjv5znfr8af/2658BQCd4bAphfjT3+tviYlXB6Jej3ji6Ub84LHBeOSxRjz8aCOefsakDgAAoLUIOAAAgKRmzijGUYuGH4uzaKPUnLCRTdzoBL/92Z3x4MONfAUA7e+n3t8T557ZGQfqbFLHI1nQ8WhjJOr4QSNe3uZUKQAAkI6AAwAAGDcT+gvNiRpHHZFFGyPBxsQJ7XUH74F46JFGM+Jwdy8AnWD+3GL84Sf7o9C5h+7Y9upQczpHFnSMhB2DsXOXAzkAADA+BBwAAMCYqJQjFi0o5ZM1RrZDmTWzzfZBGQV/8u92xa3fq+crAGhfv/rzvXHi8cMH+C6SRZjPPDf4hqhjMB5/qtHckgUAAGC0CTgAAIBDlt2JO/vwkW1Q9gUbC+eXotR9vcZbZPvrf/R3dkRjMH8DANrQ0qNK8du/1pevulsWbzz+ZCMezrZdeXSwufXKs8870AMAAIdOwAEAABywSiWaEzWWHlmKo7PHUaXm9ii8vb/6L7vjq98cyFcA0H5+56N9zWM+b++1Hw01t07LHg8+3IhHH2/EgCkdAADAARJwAAAA72nypELzzttmrDH8OGJhKUqu4ey3l14eil/+ze2xV8MBQBs6aWU5fuXnevMV+yOb0vHoE4144PuN+P4PRqKOLPIAAAB4NwIOAADgTbLtUObOLjaDjX3RxuEz7IVyqP73/3NP/M8v7c1XANAess8Fn/2t/pg3x2eBQ5Vts/LGKR3ZNmtDzswCAABvIOAAAIAuV6sV4qhFxWaosXRJKZYcUYq+XtuhjLbtO4biF39jR+zc6SsYAO1j7ZpK/MwHe/IVo2nnrqEfT+fIoo6HHx2MPXt8TgAAgG4m4AAAgC4zZVIhjjn69ekai+aXouim2nHxhb/bG3/7hT35CgBaW7kc8ae/1x/Tp/qgMB4GByMef6oRDz08svVK9tjm1C0AAHQVAQcAAHS4w6YUYtmSUixfWo5lR5diziwXYVLZs3co/s1v7Ihtr/oaBkDrW39BNW64upavSOGHzw7G/Q814r7hxwPfr8fLr/gMAQAAnUzAAQAAHWbqYYVmrLH86CzaKMXhMwQbreRLXxuI//jfducrAGhNvT2F+Nwf9MeEftuqtZLnXhiM+x4cmc6RhR0vvDSY/wQAAOgEAg4AAGhzM6YVm6FG9sgmbGRrWldjMOJXPrkjnn3eBRcAWtdVG2uxeUM1X9GqXnxpMJ/OMRJ0+HwBAADtTcABAABtZtbMYjPUyIKNY5aU7Evfhr51az0+/9e78hUAtJZJEwvxuU/3R61m+ka7eXnbUNz/UL0ZdGSTOrItWAAAgPYh4AAAgBY3Z9bIhI1lS0pxzNHlmDrFxZR2NzT8Leyjn9oRTz7togoAref919TikvNN3+gEr76WBR0jEzrufaAeTz3jswcAALQyAQcAALSYKZMLcdyychy7rDT8EGx0qtvuqMcf/6UpHAC0luxzx5/9/oSoVPI36CjbXh2Ke+6vxz0PNOLu4eeXX3FqGAAAWomAAwAAEuvrLTS3RDluWSlWLCvHvNm2ROkWn/j0znjksUa+AoD0brq+J85fq97oFs88Nxj33N+Iex6oN7dc2b7DqWIAAEhJwAEAAOOsXI44+siR6RrHHlOKIxeVoqjZ6Ep33VuPP/hzUzgAaA0zZxTjTz7VH6VS/gZdJdvi7bEnsskcjeaUjgcfbsTegfyHAADAuBBwAADAGCsUIhbOL/54W5RjlpSj6sZWcp/6o51x//dN4QAgvZ/5YE+sXeNDCiMG6hEPPdKIe++vN6OOHzzeiMHB/IcAAMCYEHAAAMAYOHxGsRlrZNHGimNKMaG/kP8E3uz+hxrxqf91Z74CgDTmzi7GZ3+r31Qw3tGu3UNx7wPZdisjUcdTz6g5AABgtAk4AABgFPT1FZrboaw6thzHLSvF9GmufrD/sm1Usu1UACCVX/hIb6xZXc5X8N62vToUd91XjzvvqQ8/N2L7DqeZAQDgUAk4AADgIGTboiyaX4pVx5Xi+OXlOPrIkjtWOWgPP9qIT35mZ3PveQAYb4sWFOPTv9Hf/HwDByP7DPPIY424857hx7315mvbrQAAwIETcAAAwH6aOKEQK48tx/HLS7FyRTkmTXSVg9Hzx3+5K267wxQOAMbf//KzvXHyKtM3GD3ZNI577h+JObLHK9ucggYAgP0h4AAAgHeQTdRYckQpjl9RjlXHlmLxgpI7Uxkzjz81GB//3R2mcAAwrrLPOp/6WF++grHxxPDnnGbMcU89HnykEXXNKgAAvC0BBwAAvMHUKYU82CjHcctK0den2GD8fP6vd8W3bnVFA4Dx8/Ff7G1+9oHxsnvPUNz3QCPuuKced97XiOdfsNcKAADsI+AAAKCrlcsRS48qNYONbFuU+XOL+U9g/D39zGD86m+bwgHA+DB9g1bw7PODzckcd9zbiPsfbMSevT4IAQDQvQQcAAB0nSmTCnHC8eU4cfiRTdmo1UzZoHWYwgHAeDF9g1YzMPwR6N4H6vHdu0YeL73s1DUAAN1FwAEAQMcrFCIWzi/GSStHoo3FC0rN96AVmcIBwHgwfYN28MRTgz+OOR5+tOHzEQAAHU/AAQBAR6pWIlYcU25GG9m0jalTFBu0D1M4ABhrpm/Qbl770VDccU89br+zHnff14hdu53WBgCg8wg4AADoGFmksW9rlGOXlZsRB7QjUzgAGEumb9Du6vWI+x/KJnM0mtM5nn9xMP8JAAC0NwEHAABtK9sGZdGCUpyURRsrS82tUaBTmMIBwFgxfYNO89Qzg/HdO+vxvbvr8dAjjRjUcwAA0KYEHAAAtJVatRDHLS81p2yccFw5pky2NQqdyRQOAMaC6Rt0uu07huKOu+tx+131uOu+Ruzc6cMUAADtQ8ABAEDLmzSxECevKsfq4ceKY8pRsTUKXcIUDgBGm+kbdJPGYMQDDzXi1u/V49Y7BuLlV5wKBwCgtQk4AABoSTOnF2P1CeXm4+gjS83tUqDbmMIBwGgyfYNu98hjjbj1u1nMUY8fPmufFQAAWo+AAwCAljF/bjFOaUYblVg4v5i/C93NFA4ARovpG/C6LOBoTuYYfvzg8YZgFgCAliDgAAAgmWyqRnYn6L5JG4fPEG3AT3ry6cH46KdM4QDg0Ji+Ae8s21ol22Iliznuf6gRg4ZzAACQiIADAIBxVSpFrDim3Jy0cdLKckyZbG8UeC9//Je74rY7TOEA4OD9ys/1Nj97Ae9ux86huP3Okckcd91bj70D+Q8AAGAcCDgAABhzPbVCHL9iZNLGiceXo69XtAEHItuv/ROf3pmvAODALFpQjD/4RH++AvbXnr1Dcec9jbj1jnp896567NzpVDoAAGNLwAEAwJiY0F9o3uWZRRvHLy9HpZL/ADgon/nzXXHnvaZwAHDgfvGneuO0k03fgEPRGIy474F6fOd7w4/v1uO1HzmtDgDA6BNwAAAwarJoIws2TjupHCuWlaNUzH8AHLIHvt+I3/kjUzgAODDzZhfjs7/dHwUD0GDUDA1F3PdgI265fUDMAQDAqBJwAABwSEQbMH5+9493Ni8WAMD++pkP9sTaNUahwVgRcwAAMJoEHAAAHLC+3kKcepJoA8bb3ffV49N/titfAcC7mzWzGH/8qf4o+qwG40LMAQDAoRJwAACwX7Jo46SV5eb+6ccvL0fZNuqQxCc/szO+/wNTOAB4bzdd3xPnrzV9A1IQcwAAcDAEHAAAvCPRBrSe795Zjz/6t6ZwAPDupk8txp/9fn+USvkbQDJiDgAA9peAAwCANxFtQOv7+O/tiMeeGMxXAPBWH9hai3XnVfMV0Cr2xRzfvm0g/uX2emzf4fQ8AACvE3AAABA9tUKsPkG0Ae3iltvq8ef/3hQOAN7epImF+IvPTIiK3VOgpTUGI+69vx633F6Pf/luPXbudKoeAKDbCTgAALpUFmmsXFGOM06pxMmryk7wQxvJ7tz85d/cEc8+bwoHAG+1dVMtNl5i+ga0k3o94o576vHNfxmI795Vj70D+Q8AAOgqAg4AgC5SKEQcs6TUjDayaRv9fcNvAG3pyzcPxF//1935CgBG9PYU4i/+sL+5LR7QnnbtHopbv5fFHPW454F6DGp2AQC6hoADAKALLJxfbEYb2WPqYU7mQyfI7tL81x/fHtte9ZUOgNdddnE1rttSy1dAu3v1taH49m0DzZjj4Ucb+bsAAHQqAQcAQIeaOaMYZ6wuxxmnVmLu7GL+LtBJ/t8v7o3/4//ak68A6HbZFnmf/4MJMWWyYBc60XMvDMY3vzOyzcoPnzWWAwCgEwk4AAA6yKSJhVhzciXOOLUcS44o5e8CnSobr/3zH9sRO3f6WgdAxHlnVeIjN/TkK6CTPfpEozmV49u3DsTL23wWBADoFAIOAIA211MrxOoTynHmqeU4dlk5ioZtQFf57//Pnvgff783XwHQrQqFiD/53f6YNdOHQegmQ0MR9z/UiG9+ZyD+5fZ67BD2AgC0NQEHAEAbysZjr1xRjjNOqcTJq8pRqeQ/ALpOti/6L3x8e+wdyN8AoCudelI5/s1P9+YroBvV6xF33FNvxhy331mPAZ8PAQDajoADAKCNHLGwFGvXlOOMUysxod/e5sCI//jfdseXvuYMPUA3+/Rv9MXi4c+KAJmdu4biltvq8fVvD8RDjzSakzoAAGh9Ag4AgBY3ZXIhzjqtEmvXVGLeHCOxgbd6/oXB+OXf3BGNwfwNALrKcctK8eu/1JevAN7s+RcH4+Zv1+Mb/zIQzz7vAyMAQCsTcAAAtKBsS5TVq8qx9vRKHL+83NzTHODdfP6vd8W3bq3nKwC6SRZvZBEHwHvJpnFkUzm+fVs9du50aQAAoNUIOAAAWkQWaRx9ZLZFSiXWrC5Hb49qA9h/jz85GB/73R35CoBukW2bkm2fAnAg6vWI2+8c2WLlznvqJrkBALQIAQcAQGIzphXjrNPKcdaaSsyaaYsU4OD9/p/sjHseaOQrALrBz9/UE2ecUslXAAfu1deGmturfPWbA/HUD5UcAAApCTgAABLoqRXi1JPKzWkby44u2SIFGBV33FOPP/zcrnwFQKebPrUYf/7p/ihqgIFR8shjjfjatwbiW9+pxw5brAAAjDsBBwDAOMkijeVLS3H26ZU45YRy1GqqDWD0/drv7Ignn3bnJEA3uP6qWmy4sJqvAEZPtsXKbXfWmzHHXffWY9DHSwCAcSHgAAAYYzNnFOOcMyqx9rRKTJsq2gDGVjb6+q/+y+58BUCn6ustxF/8YX/09vh8CYytba8Nxde/NbLFyjPPKTkAAMaSgAMAYAxUKxGnnFRphhsrlpbydwHGXqMR8fMf2x7bXvVVD6CTXXZxNa7bUstXAOPjwYcb8ZVvDMQtt9djzx6fNwEARpuAAwBgFB2xsBTnnlmJ008pN++KBEjhC3+3N/72C3vyFQCdplSK+NynJ8TUw3zeBNLYtXsobrmt3ow5vv+DRv4uAACHSsABAHCIJvQX4qzTKs1wY/7cYv4uQDo7dg7Fz390R+x2VyRARzpz+LPnz32oJ18BpPXUM4Px1W8MxM23DMRrP/L5EwDgUAg4AAAOQqEQza1Rzl9bjZNXlaNczn8A0CL+89/siS9+ZW++gkOTHeeq1UJUh58rleHn6sh7teH39h0D902eKpeG36+NvB75vZHX/W+YTFUoRvT+xLXnN/639ikO/5Oentf/3aEaHIy3DZt2745oDL7+frYV0Z43DLGpN4ZiT/6/0+7dQ83/ztDwr+/cNfJv6sO/v3fvyOt9/63sOfu97Heyn+zc+fp/Hw7VZ36zPxbOFw4DraUxfNy7/Y56/PPXB+Lu++vNYyUAAAdGwAEAcAAOm1KIs08fmbYxc7qT5kDrev7FwfilT+xoXkCmO2QBRU9PFkYMP9def529n4UUWXiRRRSVykhY0Xx/+L1sPfJ65Hf6eiOKxZF/n23TkIUVjJ4s6GiGJLuHmuFHFoZkr/cOZNFIFn4MxUB9+L3h17t2RwwMjMQju4b/XRaJZO9lP8v+O83Xw7+/79/THY5bVopf/6W+fAXQml58eTC+cvNAfPWbA/HyNpcgAAD2l4ADAOA9FIsRq44tN6ONE48vN9cA7eDP/2pX3HJ7PV/RqrKpTv19hejLHr0jkypGXo88N9fD77/xvWz9xlAje6a7ZXc579o91Jz0sXvPyOss+tixcyQa2ffItlja+TbvZb+XBSS0vo/9Ym+sXPET42oAWlR2fPre3fX455sH4s7h52xKBwAA70zAAQDwDqZPK8Y5Z1Ti3OHH1MNcGAPaz/d/0IhPfmZnvmI8ZHHFpAmFmJg/JvS/+dHfFyPPP16PPEMrqNcjtmcxx46h2D78yJ5/9IbXzefhn2/fEfHa9sF47UfDP98+FAOmf4ybebOL8Ue/05+vANrLtleH4ivfGJnKkU2LAwDgrQQcAABvUCpGnHB8Oc5fW2ne2ZjdFQ3Qzj7xBzvjkUcb+YoDNWniSJAxedLIY+KEYkxqPr/+mDz8OxPy19lxBLrNnr1DzZgje2SRRxZ1vPrayHO2zl43H8M/f/XVbEsYp6IO1k3X9zQ/pwK0s2wqx9331+NLXx2I791lKgcAwBsJOAAAhk2bWohzz6jGuWdVYuoU1QbQOb71nYH4/H/Yna/IZBMvpkwqxNTDRmKMwyaPxBfZcxZsTJ5UjMn5e4IMGH1ZwJHdhZ0FH/vijuz1K6+OTPV4Zdvwz4ffe2XboOkeb5D97fq3n50QVf0G0EH2TeX455v3xksvu1QBACDgAAC6VjZdY+Wx5bhwbaU5dcO0DaATZXc0/sLHtsfL2zr/q192cfOwKYWYOqXYfJ4yeeR1NjkjW2eBxuTJxaiU838AtLxsy5Ys8Mj+hm17dbAZd2TrLO7IXmfvv9wlocfGddXYurmWrwA6SzaV43t31+Ofbx6ZypGtAQC6kYADAOg62V3X551VaU7bmD7VrdVA5/vC3+2Nv/3CnnzVfrLALoswsr/Z+wKNqYcVmtOTDpucvz6sGBV3pUPXyrZraQYdrwzGS6+MPL/y6tDI65cHm6HHzl3tewosmwb0uc9MMCkO6AovDv/d/srNA/GVbw40/7YDAHQTAQcA0BWyi3/Ll5bionOqcdKqspH4QFfZvmMofu7XtsfeFr1DvbdnJMbIAo3p00aef7zOIo3Div5uA4ds1+6RoOOllwfjxZeGmhcIX3x5eP3SyHM2yaPRyH+5xaxZXY5f+EhvvgLoDoODEbfdUY9//OreuO/BhqkcAEBXEHAAAB2tr68QZ6+pxAVnV2LOLFf/gO711/91d3z55jQFR7a1yYxpxZgxfeR55vSR1/tCjb5ed5QD6WUXBptTO/LA4/mXBuOFF7PHULyQRR7Dj4F6/svj7FMf64slR5TyFUD3+eGzg/FPXxuIr317IHbudEkDAOhcAg4AoCMtWlBsTts4/ZRy1KouDAI8+fRgfPRTO8bkzsVarRCHzyjkYcbwY9q+YCOLNQrNCRsAnSDbiqUZdWRxx0sjr5/PHi9k0z0Gm3eLj7YjF5fi9z7el68AutuevUPxre+MTOV47Ikx+KMLAJCYgAMA6BiVSsSakytx4TmVOGqxOxQBftKn/3Rn3H3/we0PMGliIWbNLMbhM4oxc0YWbIy8zh6TJwk0ALLtV7Kw47kXhh/PDzWfs7ij+fzCUPOi48H41zf1xOmnDH/QBeBNvv+DRnMqx7dvHUg2IQkAYLQJOACAtpfd5Z1FG+eeWWmO6Qfg7X3v7np89vO78tVbTZlUiNmHF2NW9pj5+iMLNnpq/r4CHIptr45EHc8+nwUeg/HD54ZfZ48s7tjz9qfnpk4pxOc+MyFKdgIEeEfbdww1twr80tcGmttdAQC0MwEHANCWCoWIY5eV4+JzK3Hi8eXmGoB3l22f8puf2RnF4b+ZzVAjDzRGog2RBkAq2dYsWcyRBR4/fHYk8sgea9dU4rKLq/lvAfBuss+6t99Zjy9+eW/c+2BjTLYOBAAYawIOAKCt9PYUYu3plbjonErMmeVWRAAAAODNnnpmMP7xK3vj5m/XY/c7TDkCAGhFAg4AoC3MnT2yTcrZp1fcIQ4AAAC8p127h+Jr3xqIf/zKQDzznO1VAIDWJ+AAAFpWti3KSSvLcdG51ThuWSl/FwAAAODA3HVvPf7+ywNx5z1126sAAC1LwAEAtJy+3kKcc0YlLj63EjNn2CYFAAAAGB3PPj8Y//Dlgfj6twaaEzoAAFqJgAMAaBlzZhXjonNtkwIAAACMrSze+Oo3BuKLXxmI516wvQoA0BoEHABAUtk2KcctL8cl51di5Ypycw0AAAAwHrLtVL57Vz3+4Z/3xj0PNPJ3AQDSEHAAAEnUaoVYu6Yc686rNidvAAAAAKT05NPZ9ip74xu3DMTegfxNAIBxJOAAAMbV1MMKzWjj/LMq0ddn3AYAAADQWn60fSj+6esD8Y9f3hvbXEIBAMaRgAMAGBdHLirF+gurcepJ5SgZuAEAAAC0uEYj4pvfGYi/+9LeePypwfxdAICxI+AAAMZMsRhx8qpyrL+gGkuPKuXvAgAAALSXex9sNEOO791djyFXVQCAMSLgAABGXW9PIc45sxKXnF+JGdOM2wAAAAA6wzPPDcbf/9Pe+Pot9dizx+UVAGB0CTgAgFEzfWox1p1fifPOqjQjDgAAAIBOtH3HUPzT1wbii1/eG9tcZgEARomAAwA4ZIsXlGLDRZVYc3KluW0KAAAAQDeo1yNuvmUg/u6f9sZTPxzM3wUAODgCDgDgoBQKEauOLceGC6ux4phS/i4AAABAd7rj7nr8f1/aG/c+0MjfAQA4MAIOAOCAVMoRZ55WifUXVmPebOM2AAAAAN7o0Sca8T//cSBuuW0gGoZyAAAHQMABAOyXUini8ourcfF51Zg8qZC/CwAAAMDbeenlofhPf7M7br+znr8DAPDu3DYLAOyXTetrcfUVNfEGAAAAwH6YNrUQP/uhnpg6xbkUAGD/CDgAgPe0cH4xrthQzVcAAAAA7I++3kL8qxt7oqDhAAD2g4ADAHhX2dYpP/PB3ij51AAAAABwwI5bXo7zzqrkKwCAd+ZSDADwrjZtqMXCeT4yAAAAABysG66qxczpzq8AAO/OpwUA4B0dsbAUm9bbOgUAAADgUNRqhfjpD9hKBQB4dwIOAOBtVcrZ1ik9UfRpAQAAAOCQLV9ainXnu1EGAHhnLskAAG9r86W1mDfHRwUAAACA0bJ1Uy3mzHK+BQB4ez4lAABvkW2dcvk6d4QAAAAAjKZqxcRTAOCd+YgAALyJrVMAAAAAxs5Ri0tx2UVunAEA3sqlGQDgTWydAgAAADC2rry8FvPnOv8CALyZTwcAwI/ZOgUAAABg7JXLET/7wd4olfI3AACGCTgAgCZbpwAAAACMn0ULirFpfS1fAQAIOACA3FUbbZ0CAAAAMJ6u2FCNhfOdjwEARvhUAADEkiNKcelFtk4BAAAAGE+lYjYR1VYqAMAIAQcAdLls65R/dWNPFAr5GwAAAACMm4XzbKUCAIwQcABAl9t8aS3mzPKRAAAAACAVW6kAABmfBgCgi2UnBi5fZ+sUAAAAgJRspQIAZAQcANCl9p0YKPo0AAAAAJCcrVQAAJdsAKBLZZM3shMDAAAAALSG5lYqztcAQNfyKQAAutC82cXYfKk7OgAAAABaSTYx9ac/0NN8BgC6j48AANBlsi1TfvrGniiX8zcAAAAAaBmLF5aak1MBgO4j4ACALrPuvGoctbiUrwAAAABoNdnk1PlzXcIBgG7j6A8AXWTWzGJcs8nWKQAAAACtLJuc+jM32koFALqNQz8AdIlCIeIjN/REtZK/AQAAAEDLspUKAHQfAQcAdInz11Zi+VJbpwAAAAC0i2wrlXlzXMoBgG7hqA8AXWD61GJct8XWKQAAAADtJNtK5ac/0BNFV3MAoCs45ANAF7jphlr09hTyFQAAAADt4qjFpbj4PFupAEA3EHAAQIc7+/RKrFxRzlcAAAAAtJutm2oxc4ZLOgDQ6RztAaCDTZlUiOuvsnUKAAAAQDurViJ+6v09UTBgFQA6moADADrYB67tiQn9vtkDAAAAtLsVS0tx7pmVfAUAdCIBBwB0qJNWluO0k2ydAgAAANApskmrU6e4WQcAOpWAAwA6UG9PIT70vp58BQAAAEAnyM75fNg5HwDoWAIOAOhA1252NwYAAABAJzpxZTlOP8VWKgDQiQQcANBhlh5VigvO9iUeAAAAoFPduLUWkya6eQcAOo2AAwA6SKUc8ZEbeqLg+zsAAABAx5o4oRAfuKaWrwCATiHgAIAOsnF9LebOdngHAAAA6HTZNirZdioAQOdwhQcAOsS8OcXYuK6arwAAAADodDe9ryf6eo1iBYBOIeAAgA6QbZnyU+/vibKbLgAAAAC6xmFTCnHdFlupAECnEHAAQAe46JxqLDmilK8AAAAA6Bbnr63E0qOcFwKATiDgAIA2N21qIa7ZZOsUAAAAgG6VTWatmMwKAG1PwAEAbe5D1/VEb4+9TgEAAAC61ZxZxdi43lYqANDuBBwA0MbWrC7Hice7vQIAAACg211xSTXmzXHZBwDamSM5ALSpCf2FuHFrT74CAAAAoJuVSiNbqRQMagWAtiXgAIA2dd2WWkya6Bs5AAAAACOWHFGKC8+p5CsAoN0IOACgDR2zpBTnnunLOAAAAABvtnVTLaYe5qYfAGhHAg4AaDPlcsRN19s6BQAAAIC36u0pxIeuc+4IANqRgAMA2sxlF1dj7myHcAAAAADe3kkry3HaSeV8BQC0C1d/AKCNzJpZjE0bavkKAAAAAN7ejdf2RF+frVQAoJ0IOACgjXz4+p6ouHkCAAAAgPcweVIhrr/SjUAA0E4EHADQJs48rRLHHlPKVwAAAADw7s49sxLLjnY+CQDahYADANrAhP5C3HCVOyYAAAAAODA3megKAG1DwAEAbeC6LbWYNNGepQAAAAAcmDmzinH5umq+AgBamYADAFrcMUtKzXGXAAAAAHAwNq6vxayZLgkBQKtztAaAFlYuj4y5BAAAAICDlW2h8mHnmACg5Qk4AKCFXXZxNebOdrgGAAAA4NAce0wpzjzNlFcAaGWuCAFAi8rGWm7aUMtXAAAAAHBobriqFhP6C/kKAGg1Ag4AaFHZWMtsvCUAAAAAjIZJEwtx3RY3DAFAqxJwAEALOvPUSnOsJQAAAACMpnPPrMQxS5x3AoBWJOAAgBbT11uIG652JwQAAAAAY+Om63uibPIrALQcAQcAtJhrrqg1x1kCAAAAwFiYO7sYl11czVcAQKsQcABAC1m8sBQXnlPJVwAAAAAwNjZtqMWsmS4TAUArcWQGgBZRKER8+H215jMAAAAAjKVKOeJD19nGFwBaiYADAFrEBWsrceSiUr4CAAAAgLF13PJynH6KabAA0CoEHADQAiZNLMTWTe54AAAAAGB83XB1LXp7jIQFgFYg4ACAFvC+K2vR1+eLMgAAAADja8qkQlxzRTVfAQApCTgAILFlS0qxdo1RlQAAAACkceE51Vi0wCUjAEjN0RgAEiqVIj50fU++AgAAAIDxVyxGfPh9PVEwIBYAkhJwAEBC6y+oxrzZDscAAAAApHXU4lKcd5YpsQCQkitGAJDItKmF2HKZ/UUBAAAAaA3Xbq7FpInGcABAKgIOAEjkA9f0RK3qCzEAAAAAraG/rxDXbanlKwBgvAk4ACCBE44rx+oTyvkKAAAAAFrD2adXYulRpXwFAIwnAQcAjLNqJeLGa93JAAAAAEBruun6nii5ggQA487hFwDG2eWX1GLmdIdgAAAAAFrTvDnFWH9hNV8BAOPF1SMAGEdZuHH5xb78AgAAANDatlxajWlTC/kKABgPAg4AGEcfuKYWlUq+AAAAAIAWVasV4v1X9+QrAGA8CDgAYJysOq4cJ64s5ysAAAAAaG2nnFiO45Y7nwUA40XAAQDjoDL8PTebvgEAAAAA7eTGrbUoazgAYFwIOABgHFx6UTVmzXTYBQAAAKC9zJlVjA0XVPMVADCWXEkCgDE2fWoxrthg+gYAAAAA7WnTpdWYNrWQrwCAsSLgAIAxdv1VtahW8gUAAAAAtJlatRA3XNWTrwCAsSLgAIAxdNzycpx6kk1CAQAAAGhv2TmuFceU8hUAMBYEHAAwRkrD32dv3GrrFAAAAAA6wwev7Wme8wIAxoaAAwDGyPoLqjFnlkMtAAAAAJ1h7uxi85wXADA2XFUCgDEwdUohNl/qyywAAAAAnSU755Wd+wIARp+AAwDGwPVX9URPzRdZAAAAADpLds4rO/cFAIw+AQcAjLJlR5dizepyvgIAAACAzpKd+8rOgQEAo0vAAQCjqDR8ZP3gte5AAAAAAKCzfei6nua5MABg9Di0AsAoOm9tJebPdXgFAAAAoLPNm1OMi8+r5isAYDS4wgQAo2RCfyGuuaKWrwAAAACgs115eTUmTSzkKwDgUAk4AGCUXL2xFv19vrACAAAA0B16ewqxdZMbmgBgtAg4AGAUZNumnL+2kq8AAAAAoDucc0YlFi8s5SsA4FAIOABgFNy4tSeKjqoAAAAAdJlCIeKD19aazwDAoXGpCQAO0SknlmP5UncZAAAAANCdlhxRijNPNZ0WAA6VgAMADkF1+Hvp9VfZ5xMAAACA7nbdllr09hjDAQCHQsABAIfg0ouqMWOawykAAAAA3W3K5EJcsb6arwCAg+GKEwAcpKmHFWLjetM3AAAAACCz/oJqzJrp0hMAHCxHUQA4SO+7sqe5hQoAAAAAEFEuR9xwtRueAOBgCTgA4CAcs6QUp68e/kYKAAAAAPzYiceXY+UK580A4GAIOADgABUKER+4pidfAQAAAABv9IGtteY0DgDgwAg4AOAAnXdWJRYtcAgFAAAAgLcz+/BirDuvmq8AgP3l6hMAHIC+3kJcvdE+ngAAAADwbjZfWo1JEwv5CgDYHwIOADgAmzb44gkAAAAA76W3x41QAHCgBBwAsJ9mzijGJecb/QgAAAAA+yPbinjBPJeiAGB/OWoCwH66/spalEr5AgAAAAB4V4VCxPuv6clXAMB7EXAAwH5YtqQUq08o5ysAAAAAYH+sWFqKk1c5rwYA+0PAAQDvwZ0CAAAAAHDwrr+qFmUNBwC8JwEHALyHs0+vxKIFDpkAAAAAcDAOn1GMS86v5isA4J24GgUA76KnVohrrqjlKwAAAADgYGzaUI1JEwv5CgB4OwIOAHgXl6+rxpTJvlgCAAAAwKHo7SnE1RvdKAUA70bAAQDvYPrUYlx6kdGOAAAAADAazjurEgvmuTQFAO/EURIA3sG1m6tRqeQLAAAAAOCQFAoR77+mJ18BAD9JwAEAb2PJEaU4/RT1BgAAAACMphVLS3HyqnK+AgDeSMABAD8huxPghqvtxwkAAAAAY+H6q2pR1nAAwFsIOADgJ6xZXWlO4AAAAAAARt/hM4px0TnVfAUA7CPgAIA3qFYirtts+gYAAAAAjKXNl1ZjQn8hXwEAGQEHALzB+gurMW2qL44AAAAAMJb6+wqxeYMpHADwRgIOAMhNmliIy9f50ggAAAAA4+Gic6vN7VQAgBGOigCQ23JpLXp7TN8AAAAAgPFQKkVct8V2xgCwj4ADAIbNPrwYF5xdyVcAAAAAwHg45cRyLD2qlK8AoLsJOABgWFb6Fx0VAQAAAGDc3XBVLQoG4wKAgAMAjllSipNXlfMVAAAAADCejlxcijWrTccFAAEHAF0tK/uvv8o+mwAAAACQ0rWbqlHRcADQ5QQcAHS1NSeX48hF9tgEAAAAgJSmTyvGuvOq+QoAupOAA4CuVS5HbN1s+gYAAAAAtIJNG6oxaWIhXwFA9xFwANC1Lj63GjOmORQCAAAAQCvo7SnElkvdcAVA93LVCoCuNKG/EJs3GMkIAAAAAK3kgrMrMWeWy1cAdCdHQAC60hXrq9HXZxwjAAAAALSSYjFi6yZTOADoTgIOALrOzBnFWHee6RsAAAAA0IpWn1COpUeV8hUAdA8BBwBd59rNtSj5/gcAAAAALeu6LaZwANB9BBwAdJUjF5fitJPK+QoAAAAAaEVHH1mKU050Hg+A7iLgAKCrXLdZuQ8AAAAA7WDrplqUXMkCoIs47AHQNVYdV47lS+2dAgAAAADtYPbhxTj3rEq+AoDOJ+AAoCsUChHXbjJ9AwAAAADayZbLatFTK+QrAOhsAg4AusKZp1ZiwTyHPQAAAABoJ1MmFWLDhaZwANAdXMkCoOOVyxFXb6zmKwAAAACgnVx2cTUmTzKFA4DOJ+AAoONddE41pk9zyAMAAACAdlSrFWLLpbZHBqDzuZoFQEfr6y3Epg2mbwAAAABAOzt/bSVmH+6yFgCdzZEOgI526cXVmNBvvCIAAAAAtLNiMWLrJlM4AOhsAg4AOtaUyYVYf0ElXwEAAAAA7eyUE8ux5IhSvgKAziPgAKBjXXlZLWpV0zcAAAAAoFNcu9kUDgA6l4ADgI6U7Yd57pmmbwAAAABAJ1l2dClWHVvOVwDQWQQcAHSkbD/MbF9MAAAAAKCzZOf+CgbvAtCBXNoCoOMctbjU3A8TAAAAAOg8C+cXY81q03cB6DwCDgA6znVb7IMJAAAAAJ3s6o3VKLnKBUCHcWgDoKMcv6Lc3AcTAAAAAOhch88oxnlnmcIBQGcRcADQMbJ9L7deUc1XAAAAAEAn23xZLWrVQr4CgPYn4ACgY6w+oRyLF5q+AQAAAADdYMqkQqw73xQOADqHgAOAjlAcPqJdvbGWrwAAAACAbnD5umr095nCAUBnEHAA0BHOOq0Sc2c7rAEAAABAN+nrLcTGS2yrDEBncKULgLZXLkdceZkvaQAAAADQjdadV43DppjCAUD7E3AA0PbOP6sa06c5pAEAAABAN6pUshu8bK8MQPtztQuAtlarFeKKDaZvAAAAAEA3O+eMSsya6bIXAO3NkQyAtrbu3EpMmWQ8IgAAAAB0s2Ix4qqNpnAA0N4EHAC0rb6+Qlx+iekbAAAAAEDEmpPLMX+uS18AtC9HMQDa1uUXV6Ov1/QNAAAAACCiUIi42hQOANqYgAOAtpRtm7LuvEq+AgAAAACIOHlVOY5cVMpXANBeBBwAtKWN66tRq5m+AQAAAAC82dUbbbsMQHsScADQdqZPLcaFZ/sSBgAAAAC81fEryrHsaFM4AGg/Ag4A2s7mS6tR8v0LAAAAAHgHV22s5a8AoH0IOABoK7NmFuPs0yv5CgAAAADgrZYtKcXKFeV8BQDtQcABQFvZtKEaRUcvAAAAAOA9XH1FNQqFfAEAbcAlMADaxpxZxTjzVNM3AAAAAID3dsTCUpy00hQOANqHgAOAtnHlZTXTNwAAAACA/XbNFTVTOABoGy6DAdAW5s0uxmknq+UBAAAAgP03b04x1qw21ReA9iDgAKAtXLVRKQ8AAAAAHLirN1aj5IoYAG3A4QqAlrdoQTFOOdH0DQAAAADgwB0+oxhnnmYKBwCtT8ABQMvbcmktfwUAAAAAcOA2bTCFA4DW51AFQEs7anEpTl5l+gYAAAAAcPBM4QCgHQg4AGhpV11ezV8BAAAAABy8LZdVo+xeMQBamIADgJa15IhSHL/CNyoAAAAA4NDNmFaMc84whQOA1iXgAKBlbd1Uy18BAAAAABy6Ky6pmcIBQMsScADQkpYvLTUfAAAAAACjZdrUgikcALQsAQcALenKy0zfAAAAAABGnykcALQqAQcALSebvLHsaNM3AAAAAIDRZwoHAK1KwAFAyzF9AwAAAAAYS1suq0VVwwFAixFwANBSTN8AAAAAAMbalEmFOP/sar4CgNYg4ACgpZi+AQAAAACMh8vXVU3hAKClCDgAaBmmbwAAAAAA48UUDgBajYADgJZxxSW+LAEAAAAA48cUDgBaiYADgJaw5IhSHLe8nK8AAAAAAMaeKRwAtBIBBwAt4crLfEkCAAAAAMbfhguqUXZvGQAtQMABQHLZ9I3jV/iGBAAAAACMv2lTC3HOGfZRASA9AQcAyZm+AQAAAACkdMUlNVM4AEhOwAFAUqZvAAAAAACpmcIBQCsQcACQlOkbAAAAAEAruOziapRcOQMgIYchAJIxfQMAAAAAaBUzpxfjzNNM4QAgHQEHAMls3mD6BgAAAADQOjZtMIUDgHQcggBIYtGCYqw6zvQNAAAAAKB1HD7DFA4A0hFwAJDEpvW1/BUAAAAAQOvYeEk1CoV8AQDjSMABwLibN7sYq08wfQMAAAAAaD2zDy/GmpOdvwRg/Ak4ABh3CnYAAAAAoJVtvrTmHCYA407AAcC4mjWzGKefYg9JAAAAAKB1zTVFGIAEBBwAjKtLL6pG0dEHAAAAAGhxm9bX8lcAMD5cQvv/2fvveMvK8m78v3Y7dXrvjRlmGBgGmAEGht5BsaCJmqbxicYUTYzJY/SXGB+TbzTFRFNM9DGmGFOM0diCUSzYFVEBaYIgiHQGpMzp5/zO2rN4pM0wc+bstfda6/1+vc5r1n3gz3Puc+11f+7rAiAzC+ZV47Sdum8AAAAAAJ1vzapqbD1cFw4AsiPAAUBmLji7EbVaugAAAAAA6HDPfUZX+gQArSfAAUAmZs+qxFmn+LADAAAAAOTHxvW1OOxQt9IAyIYABwCZuOCsrmiYngIAAAAA5MxzzncxDYBsCHAA0HIz+itx7unSGwAAAABA/hx5eD3WrdaFA4DWE+AAoOXOO6Mrursr6QoAAAAAIF+e+wxdOABoPQEOAFqqp7sS55+l+wYAAAAAkF/bttZjxVLHagC0lr80ALRUMjqlr1f3DQAAAAAgvyqViGdfoAsHAK0lwAFAy3Q1Is47y4caAAAAACD/Tjy2EUsWOVoDoHX8lQGgZU45sRFzZum+AQAAAADkX7Ua8cxzXFgDoHUEOABoidrkX5gLfZgBAAAAAArktJ2NmDfHpTUAWkOAA4CWOH5bPRYt9GcGAAAAACiOWi3igrNdXAOgNZysATDtKpWIZ53fna4AAAAAAIrjrFMa0denCwcA00+AA4Bpt/Xweqxe4U8MAAAAAFA83d2VOPe0RroCgOnjdA2Aafes87UQBAAAAACK67wzu6JLhgOAaSbAAcC02rCuFodtqKUrAAAAAIDimTWzEqfulOAAYHoJcAAwrZ6t+wYAAAAAUALPPKcrak7aAJhG/qwAMG1WLK3Gtq31dAUAAAAAUFyLFlTj+O26cAAwfQQ4AJg2z9J9AwAAAAAokWed1xWVSroAgIMkwAHAtFgwrxonHidtDgAAAACUx+oV1Thys67EAEwPAQ4ApsUzz2mY9wgAAAAAlE7ShQMApoOjNgAO2swZlTj9ZB9SAAAAAIDy2byxFuvX1tIVAEydAAcAB+2c0xvRZXoKAAAAAFBSunAAMB0EOAA4KElw47wzfDgBAAAAAMpr+1H1WLbEsRsAB8dfEgAOyqk7GzGjv5KuAAAAAADKp1KJeOY5LroBcHAEOACYsuRDyQVn+VACAAAAAHDSjkbMnuWyGwBTJ8ABwJQde3Q9lizypwQAAAAAoFGPONe4aQAOglM3AKZMS0AAAAAAgB87+9RGdHfrwgHA1AhwADAlG9fXYsO6WroCAAAAAGBGfyVOO7GRrgDgwAhwADAlF56r+wYAAAAAwBNdcHYjqk7gAJgCfz4AOGDLllTjmCPr6QoAAAAAgEctWlCN4472/hSAAyfAAcABe8bZXVExxhEAAAAA4Ck9UwdjAKZAgAOAAzJrZiVO3mGGIwAAAADA3hyyphYb19fSFQDsHwEOAA7IeWd0RUN+AwAAAABgny7UhQOAAyTAAcB+6+6uxNmnSW8AAAAAADydY46sx7IljuIA2H/+agCw3047sREz+ivpCgAAAACAvalUIp5xti4cAOw/AQ4A9kvyYeOCs3XfAAAAAADYXyfvaMSsmS7FAbB/BDgA2C/bttZj0QJ/NgAAAAAA9lejEXHO6bpwALB/nMQBsF+0+gMAAAAAOHBnn9poBjkA4OkIcADwtNatrsWmDbV0BQAAAADA/kpGqJx0vAQHAE9PgAOAp3X+WT5cAAAAAABM1flndkWlki4AYC8EOADYp3lzKnHCdgEOAAAAAICpWrm8Gkds0uUYgH0T4ABgn845oytqPlcAAAAAAByUC87qSp8A4KkJcACwV91dlTjzZN03AAAAAAAO1lFb6rFsiaM5APbOXwkA9uqUE+oxo99gRgAAAACA6XD+mbpwALB3AhwAPKVKZfLDhJZ+AAAAAADT5pQTGy7NAbBXAhwAPKWjjqjH0sX+TAAAAAAATJeuRsSZpxhbDcBTczIHwFO64GzdNwAAAAAAptu5p3dFrZYuAOAxBDgAeJJVK6pxxCafIAAAAAAAptvcOZU4YbsuHAA8mQAHAE9y/pm6bwAAAAAAtMoFZwlwAPBkAhwAPM6smZU46XgfHgAAAAAAWmXt6lpsXK8LMgCPJ8ABwOOcdUoj6vV0AQAAAABAS5ynEzIATyDAAcD/U6tFnHWqDw0AAAAAAK123NH1mDe3kq4AQIADgMc4/ph6zJ3jAwMAAAAAQKtVqxHnnOZCHQA/JsABwP+jZR8AAAAAQHbOOLkRjUa6AKD0BDgAaFq7uhYb1tXSFQAAAAAArTZzRiV2HifBAcAeAhwANJ13hg8JAAAAAABZO+8MnZEB2EOAA4CYNbMSJx4rwAEAAAAAkLXVK6uxaYPuyAAIcAAw6axTGlGvpwsAAAAAADJ1ri4cAEwS4AAouVot4qxTfTgAAAAAAGiX446ux7y5lXQFQFkJcACU3PHH1GPuHB8MAAAAAADapVqNOOc0F+0Ayk6AA6DkzjvThwIAAAAAgHY74+RGNBrpAoBSEuAAKLG1q2uxYV0tXQEAAAAA0C4zZ1TihO0SHABlJsABUGLnneHDAAAAAABApzjvTO9sAcpMgAOgpGbNrMSJx/owAAAAAADQKdau0jUZoMwEOABK6syTG1GvpwsAAAAAADrCOae5eAdQVgIcACVUndz9zzjFhwAAAAAAgE6zY3uj2UEZgPIR4AAooWOOrMeCef4EAAAAAAB0mqRz8uk7XcADKCOndwAldLYWfAAAAAAAHeusUxtR0YQDoHQEOABKZsmiahy5uZ6uAAAAAADoNAvmV5udlAEoFwEOgJLRfQMAAAAAoPN5lwtQPgIcACXS3VWJU09U9AMAAAAAdLqkk/LihY7yAMrErg9QIiccW4/+PoMTAQAAAAA6XaWiCwdA2QhwAJTIOacr9gEAAAAA8uK0nY3o8loXoDQEOABKYv3aWqxdVUtXAAAAAAB0uqSj8gnHSnAAlIUAB0BJaLUHAAAAAJA/OisDlIcAB0AJzJwhpQ0AAAAAkEfrVtfikDW6KwOUgQAHQAkkcxIb9XQBAAAAAECu6MIBUA4CHAAFV6lEnHWq4h4AAAAAIK92bG9EX18lXQFQVAIcAAW39fB6LFpguwcAAAAAyKuuRsTJO1zUAyg6J3oABXfmKYp6AAAAAIC8O/Nk73oBik6AA6DA5s6pxDFH1tMVAAAAAAB5tXJ5NTZtqKUrAIpIgAOgwE7f2YiqnR4AAAAAoBB04QAoNsd6AAVVqUScrpgHAAAAACiM47c3YkZ/JV0BUDQCHAAFtfWIeiyYZ5sHAAAAACiKRj3i5BNc3AMoKid7AAWllR4AAAAAQPGcdUqj2YEZgOIR4AAooPnzKrFtaz1dAQAAAABQFMuWVOOwQ2vpCoAiEeAAKKDTd3ZJYAMAAAAAFJQOzADFJMABUDDVyZ399JMU7wAAAAAARXXcMY2YOcMtPoCiEeAAKJijttRj3lyFOwAAAABAUdXrEaec4CIfQNEIcAAUjNZ5AAAAAADFd/ZpDaO0AQpGgAOgQObPq8TRW+rpCgAAAACAolq8sBqHHVpLVwAUgQAHQIGccXKXxDUAAAAAQEmcvlNHZoAiEeAAKIjq5I5+mmIdAAAAAKA0jt/eiL4+t/oAikKAA6Agth5ej3lzFOoAAAAAAGXRqEecfLyLfQBFIcABUBCnn6RIBwAAAAAom9NP9m4YoCgEOAAKYPasShyztZ6uAAAAAAAoi9UrqrF2dS1dAZBnAhwABXDKCY2o2dEBAAAAAErpDB2aAQrBcR9AARifAgAAAABQXjuPr0d3VyVdAZBXAhwAObdpQy2WLradAwAAAACUVW9PJY7fZsw2QN458QPIOd03AAAAAAA442TvigHyToADIMekqgEAAAAASGxcX4tlSxz9AeSZXRwgx048zlxDAAAAAAD20LEZIN8EOAByTEs8AAAAAAAedcoJjajV0gUAuSPAAZBTK5dXY91qlTgAAAAAAHvMmlmJbVuN3QbIKwEOgJzSfQMAAAAAgCc69QTvjgHySoADIIca9YiTjleEAwAAAADweFu31GPOrEq6AiBPBDgAcujYo+sxo18BDgAAAADA49WqESftcAEQII8EOABy6NQTFd8AAAAAADw175AB8kmAAyBn5s2pxJbN9XQFAAAAAACPt2JZNdatrqUrAPJCgAMgZ07e0YiK6SkAAAAAAOzDaSfpwgGQNwIcADlzitZ3AAAAAAA8jZ3H1qOhmTNArghwAOTIhnW1WLbE1g0AAAAAwL719VVi+9ESHAB54hQQIEdO1X0DAAAAAID9dJp3ygC5IsABkBONyTr7hGOlpQEAAAAA2D9bNtdj3pxKugKg0wlwAOTEsUfVo69XoQ0AAAAAwP6pVCJO3qELB0BeCHAA5ITxKQAAAAAAHKjTTvJuGSAvBDgAcmDe3Eqz1R0AAAAAAByIJYuqceghtXQFQCcT4ADIgVNOaDRb3QEAAAAAwIFK3jED0PkEOABywPgUAAAAAACm6oTt9Who8gzQ8QQ4ADpc0touaXEHAAAAAABT0ddXiaOPlOAA6HROBAE6nO4bAAAAAAAcLGNUADqfAAdAB0ta2u3YJhUNAAAAAMDBOWpLPWbOqKQrADqRAAdAB0ta2iWt7QAAAAAA4GDUqhEnHOvCIEAnE+AA6GAn79DSDgAAAACA6XGKd84AHU2AA6BDzeivxNFbpKEBAAAAAJgeh6ytxdLFjgcBOpUdGqBDJa3sarV0AQAAAAAA0+CUE3ThAOhUAhwAHcr4FAAAAAAApttJx9ejUkkXAHQUAQ6ADrRkUTU2rNN+AwAAAACA6bVgfjU2bfD+GaATCXAAdKCTjtd9AwAAAACA1tABGqAzCXAAdJikdd1JO+rpCgAAAAAApteO7fXokuEA6DgCHAAdJhmdsnih7RkAAAAAgNbo7anEtqNcJAToNE4IATqM1nUAAAAAALTazuO8iwboNAIcAB2kXt/Tug4AAAAAAFpp6+H1mNFfSVcAdAIBDoAOctQRCmYAAAAAAFovuVB4/DYXCgE6iQAHQAcxPgUAAAAAgKwYowLQWQQ4ADpEX28ljjlS2hkAAAAAgGxs2lCLeXN1hQboFAIcAB3iuGPqzZZ1AAAAAACQhUpFFw6ATiLAAdAhTjhWegMAAAAAgGydeKwAB0CnEOAA6ACzZlZiy2ECHAAAAAAAZGvNqmosW+LIEKAT2I0BOsAJxzaareoAAAAAACBrJx2vCwdAJxDgAOgAO4/TfQMAAAAAgPbwjhqgMwhwALTZogXV2LCulq4AAAAAACBbixZ6Tw3QCQQ4ANrshGMlmwEAAAAAaC9dOADaT4ADoM12Hme2IAAAAAAA7XXCsY2oOjkEaCvbMEAbrVxebX4BAAAAAEA7zZpZicM36cIB0E5ODQHaaOfxum8AAAAAANAZTjTyG6CtBDgA2qRSiThhu2IYAAAAAIDOcOzR9ajV0gUAmRPgAGiT9WtrsWiBbRgAAAAAgM7Q31eJLYe5eAjQLk4OAdpk5/GKYAAAAAAAOsvO47y7BmgXAQ6ANkjGpxx/TCNdAQAAAABAZ9h2VD0aMhwAbSHAAdAGmw+txZzZlXQFAAAAAACdobenElsOl+AAaAcBDoA2OOFY3TcAAAAAAOhMJx3nHTZAOwhwAGSsOrnzHnu09DIAAAAAAJ3pmCNr0SXDAZA5AQ6AjCXjU2bNND4FAAAAAIDO1N1diaO2uIgIkDUBDoCM7dgutgwAAAAAQGfbaYwKQOYEOAAyZHwKAAAAAAB5cPSWevR06yYNkCUBDoAMHbGpbnwKAAAAAAAdr9GIOObIWroCIAsCHAAZOuFY3TcAAAAAAMiHE41RAciUAAdARmo141MAAAAAAMiPrYfXo7dHV2mArAhwAGQkGZ/S36fQBQAAAAAgH+r1iKO3GKMCkBUBDoCM7Niu+wYAAAAAAPly/DZjVACyIsABkAHjUwAAAAAAyKOjt9Sjp1t3aYAsCHAAZGDLZuNTAAAAAADIn0YjYusRxqgAZEGAAyADxx+j+wYAAAAAAPl0/DHGqABkQYADoMWMTwEAAAAAIM+OObIWXTIcAC0nwAHQYps3Gp8CAAAAAEB+dXdXYusRLioCtJoAB0CLGZ8CAAAAAEDeHafTNEDLCXAAtFClYnwKAAAAAAD5t+2oejS87gZoKQEOgBbauL4Ws2YanwIAAAAAQL719lRiy+ESHACtJMAB0EI7tilmAQAAAAAoBmNUAFpLgAOgRZLxKduPaqQrAAAAAADIt+1H1aNWSxcATDsBDoAWWb+2FvPnGZ8CAAAAAEAx9PdV4ohNunAAtIoAB0CLHKuVHAAAAAAABePdN0DrCHAAtMjxxyhiAQAAAAAolm1H1ZsjxAGYfgIcAC2wekU1Fi20xQIAAAAAUCxzZlViw7paugJgOjldBGiB47c10icAAAAAACgWY1QAWkOAA6AFjjM+BQAAAACAghLgAGgNAQ6AabZsSTWWL7W9AgAAAABQTIsXVmPlcu/BAaabnRVgmm0/SvIYAAAAAIBiO9a7cIBpJ8ABMM0EOAAAAAAAKLrtxqgATDsBDoBpNGd2JdavraUrAAAAAAAoprWrarFgnqNGgOlkVwWYRtu21qNSSRcAAAAAAFBgx+rCATCtBDgAppHxKQAAAAAAlIV34gDTS4ADYJr09lTiiE2KVQAAAAAAyuGwQ2sxo19baoDpIsABME22Hl6LuvwGAAAAAAAlkYwU14UDYPoIcABMk+1m/QEAAAAAUDICHADTR4ADYBrUahFHb1GkAgAAAABQLkdurkdXI10AcFAEOACmweaN9ejrNecPAAAAAIByaTQijtjsgiPAdBDgAJgG27cqTgEAAAAAKKdtR3pHDjAdBDgADlKlYsYfAAAAAADldczWevNdOQAHR4AD4CCtXVWLeXNVpgAAAAAAlNOcWZVYt7qWrgCYKgEOgIO0TfcNAAAAAABKbptR4wAHTYAD4CApSgEAAAAAKLtkjAoAB0eAA+AgJKNTVq+wlQIAAAAAUG7Ju/IF87wvBzgYdlGAg3DMkRLFAAAAAACQOGZrLX0CYCoEOAAOwjYBDgAAAAAAaDJyHODgCHAATFF3VyUO36QYBQAAAACAxOZD69HbU0lXABwoAQ6AKTrisFo0GukCAAAAAABKrl6P2LLZGBWAqRLgAJiiY4xPAQAAAACAxzFGBWDqBDgApqBSiTh6iyIUAAAAAAAeK7n8WHUCCTAltk+AKVizqhZz55jjBwAAAAAAjzWjvxKHrDFGBWAqBDgApmCb8SkAAAAAAPCUdLAGmBoBDoApOGar9DAAAAAAADwVAQ6AqRHgADhAc2ZXYu0qAQ4AAAAAAHgqa1ZVm+/SATgwAhwAB+gY41MAAAAAAGCfjjrCu3SAAyXAAXCABDgAAAAAAGDfjFEBOHACHAAHoDFZbx5xmPEpAAAAAACwL1s216LmdTrAARHgADgAmzbUorvL3D4AAAAAANiX3p5KbFovwQFwICovfNmDE+kzAE/jZ3+yOy44qytdAQDTbXw8YnBoYvJr8nlsorkemHx+rL7eyQ8yk//W65XomvyznLwQqshXAkDpjY1FDA1PxMBAxMTERIw21+l/nJSUC0kdkWg0KpNfyVoRAQCt9PFPDcc//8cTPtgDsFcCHAAH4K1v6o9lSzQvAoADMTIacc+943H35Nd9uybigR9Nfj04Hvc/MBEPPTwRj+yeiIcf2fOVHLxMRXIA099XiRn9e75mzazE7FmVmDunGnMm/10wrxILF1Rj4fyq9q0AkCMDgxNx730TzVpi12TtsOuB8XjwoYm47/7JGmKydnhsHZEEP6eia7KOSOqH/qSOmKwnZs+e/JpZjblzJ2uJyef585IaYs+/Na8EAOCA/PCO8fjN33skXQHwdAQ4APZTcuDzF2/uT1cAwBM9MPnR4pYfjDVfztx+556vO+4abwY2OkXSqWPe3EosWVSNFUtrsXRxJZYvq8WaldXmwQ0A0B733jcet9y2p354tJa48+7xZtizU1SrSR1RjWWLq7F8aTWWLknqiWqsnqwjdPIAgL171eseiXsm/9YD8PQEOAD209mnNuKlP92TrgCg3JLuGd/7/ljceNNY3HTreDO4kdyGzbO5cyqxekUt1q2uxvp1tThkTa3ZyQMAmF533TM+WUeMx403j8XNt4zFrbeNx+6BfNcRC+ZXY9WKyRpisn44ZE01Dllba3YHAwAi/v5fB+OTnx1JVwDsiwAHwH76rV/pjWO21tMVAJRLchP2uhvG4trvjsV1N442R6GUwaIF1di0odb82ri+ZpQaABygicmS4fu3TtYPk3XENZN1xHe/l//Q5/5K6oakfkjqiM2H1pohDwAoo29dNRp//JcD6QqAfRHgANgPjXrE/33bjOjucnsGgHL40eTHhKuuGY2rrh2LKyf/7aQxKO2UjF85cnM9jjisFlsOq+vQAQBP4e57xyfriD01xNXXjcUju9URiUULq5P1Q21PLbGpFn06dABQEiMjEb/w6w/FsCYcAE9LgANgPyQvWF7/6r50BQDFlMyd/+YVo3H5laNx0/fHmjdm2btKJWL92locc2S9+ZW0TQeAMkpqhqSzxuWTdcS3JuuI2+4w4/7p1CbLho0bflxHLF2sjgCg2N789oG48urRdAXA3ghwAOyHn/3J7rjgrK50BQDFcfOtY/G1b4zGVy8fbc6jZ+oWL6zGjm31OH7ya+3qWvpdACimJLRxzfVjkzXESHz9m6OlGYvSKiuXV+PYo+qxY3uj+QwARfPflwzHe98/lK4A2BsBDoD98NY39Zt5D0Bh3Hn3eHzxayPxxa8KbbRK0iL9pOPqcdKOhhu1ABTKTbeMNWuIL319RGijRVYsnawjTmjEzslaYsE8dQQAxZB06Pqt33skXQGwNwIcAE9j4fxq/MWb+9MVAOTT4NBEfOWy0fjsF0fihpvG0u+ShUPW1OK0nY3YeXw9envMugcgf3704ER8/isj8bkvjcTtdwp/ZiUZ17ZpQy1OP6kRx29rRFcj/Q8AkFO/+tsPx327HEsC7IsAB8DTOPvURrz0p3vSFQDkSzIi5VOfG4mvfmM0BgaV/u3U3VVpjlc5a7K22LDOiBUAOt+V14zGpz8/EpdfMRpj8p9t1ddbaYZBzzqlK1at0JUDgHx61z8NNi+WALB3AhwAT+O3fqU3jtlaT1cA0PmSA5avXT4Sn/iMbhudas2qapx7elfsPK4RDbdpAeggSeDz0i+PNAOgum10psM21OKcyTri2GPqUZPlACBHvnb5aLztnQPpCoCnIsABsA/1esS7/3xGdHdrdw5A59s9MBGXXJoEN4bj/geU+Xkwc0al2e3r3DO6YtZM9QYA7bPr/om4+NPDzY4bunblw7y5lTj/zK4485SGMW0A5MLu3RPxst94OMZlRAH2SoADYB82b6zF776mL10BQGd6YLKk/9j/7DlwGRxS3udR0oXj5B2NeNZ5XbF4oau0AGTnh3eMx39dPBxfuWzEmJScSsIbZ5zciGee2xVzZglyANDZ3vCW3bqFAuyDAAfAPrzwud3x7PO70hUAdJb7dk3ER/5nKD73xZEYNkK2EJI26Ccc14jnTNYfy5cKcgDQOrf8YDz+67+H4mvfHI0JbwcLoasRcerORjz7vO6YP0+QA4DO9J8fHY4PfHQoXQHwRAIcAPvwh7/TF2tX1dIVAHSGpOPGf/130nFjOEZH029SKJVKxAnb6/ETz+6OJYsEOQCYPknHjfd/eCgu+5bgRlEl42BP39mIiy7s1pEDgI5z481j8btv3p2uAHgiAQ6AvUhm0r/zrTOaBygA0Al2D0zERy4ebs6n13GjHJKOHCftaMRPPMtNWgAOzj33jccHPjIcX/jqiOBGSSQdOc46tSue+4yumNGvjgCgMyR1yMt/4+F4+BEFCcBTqR2x7XVvTJ8BeIztW+tx/LZGugKA9knm0f/PZ4fjz/9mMK66dizGxtP/QOElL7aSFveXXDocg0MRh6ypRaPhAAaA/ZcEQN//4eF4x3sG4+ZbFRFlktSMN9w0Fp/+wkhUJ8uHdatrUdNkFIA2Sy5M3nzrWNx2u7oE4KnowAGwF7/44p44bacABwDtdfkVo/He9w/FXfd4sUE0b88m3TjOOrURVZNVANiH8cnS4ZJLR+I/PjLkhitNC+ZX46cu6o4Tjq2n3wGA9vjcl0binf84mK4AeCwBDoC9eMcfz4i5c9xwBaA9br9zPP7p34fiiqtH0+/Aj61cXo2XvLAnNm90jRaAJ7v2hrH4h38djFtvEwDlyQ7bUIuXvKgnVq2QBgWgPXbdPxG/8tqH0xUAjyXAAfAUViyrxp+8sT9dAUB2RkYiPvjxofjYJ4djVHaDp7Fjez1e/IKemDNb6BSAiAcfmmgGQL/09cmCAvYh6eR19mld8YLndEVvjzoCgOz95u89Ej+8Q9gU4IlqR2x73RvTZwBSJx3fiK2HaykKQLauumY0/ugvB5pjU5K25/B0kpnBn/nCSPT0RByyptacJQxAOSV/D/70rwfie98fS78DezcxEfG9m8fi818Zifnzqs2LLACQpdvvmmj+LQLg8QQ4AJ7CRc/siiWLvLwAIBvJXPq/e99Q/PMHhuKR3RrkcWCSTi3f/s5YfPvqsTj0kFrMminFAVAmd949Hm99x0B88rMjzU5ecCAGByO+dvlo3HzLeGw+tK4bBwCZGRuL+PJlWo8CPJERKgBP0KhHvPvtM6OrkX4DAFroG98ejb/758F4QFnONEjqmGdf0B3PuaArarKoAIWWdFD4xKeH49//aziGhtURHLy+vkr8zPO74/STvBABoPUGBifiZb/+cIzpQArwODpwADzB5kNrXlYA0HLJi4p3v3co/u1DQzE4lH4TDlIyeuea68fim1eOxqYNdd04AArqnvvG40/+aqA5NiW5vQrTIengkozy+97N43HEpnr06MYBQAs16pVmN8ld9wuiAjyWAAfAE5x1aldsXF9LVwAw/a69YSz+8G0Dce13nbjQGg/8aCI+96WR6OqqxIZ1tag4fwEojGR/f+tfDzZHp0ArJD9bl355JBYtrMaKZVp6AdA699433nxHAsCPCXAAPMGLntcdc2d7QQHA9Eu6I/zHR4biXf84GLt3u2FCayU/b1deMxbX3zgWR252ixYg75LuXe/4u8H48MXDMWpcPC02PBLxtctH475dE7HlsFrU6+oIAKZftVZphgYB+DEnlACPMaO/EmtW6r4BwPRLWoK+6U93x4c+PtycWQ9Z+c51Y/HaNz0S377KaR9AXt1481j89pt2x1cvt5eTraTjy+v/v91xy206vgAw/Q5dV4vubiFBgMfSgQPgMY7aUo8Tjm2kKwCYHt/+zmhzZModd3nxTXsMDUd8+bLRGByK5kx7I1UA8uPiS4bjL989GA8/IgFKezz08ERc+qWRmDmjGuvWuPQCwPSpViOu/96Y0XAAj6EDB8BjJAcaADBdkk4bH/joUPzxXw44dKHtkp/Hj31yOH7/rbvjgR/5eQTodINDE/H2dw3EP71/KMaMhqfNRkYj/u59g/GO9wzG0LA6AoDpc8Qm4UCAxxLgAHiMIw5TLAIwPXbvnmgGN/7zo0am0Fmuu2EsXvf7j8S1k/8C0JmSrl2/84e746vfMDKFzvKFr47E7755d9x1j5vSAEyPLYe5VAnwWAIcAKl5cyuxdLFtEYCDd/ud4/E7b97dHJ0CneiBByfiD/98d3zq0pH0OwB0iiuuHm3WET+8wwE5nekHP9wTMLrqWmFQAA7eqhXVmDXTnE+ARzmpBEgZnwLAdEhCG8mtxOTmLHSy0dGI97xvMP7vewe15gfoEMmoq6SDV9LJCzpZMh7wLW/fHf99yXD6HQCYOl04AH5MgAMgdbhZewAcpE99biT+5K8GYveAQxfy4zNfGIk3v213POKwEKBtxsejGah73weGms+QB8nP6nvfPxTv/udBP7cAHBSjzQF+TIADIHWElC8AUzQxEfFP7x+K9/yLl9fk09XXj8Ub3rI77rzbDzBA1gYGJ+KP/nKgGaiDPPr050fiLX8x0PxZBoCpOMLlSoD/R4ADYNKyJdWYN8ecPQAO3MhoxNveORAXax9Nzt1+53j83h/tjhtvNk8FICv3PzARb/zj3XHl1ZMFBeTYVdeMNuuIXZM/0wBwoBbMr8bCyS8ABDgAmrRoA2AqkluGyeiJr3/ToQvF8OBDE/EHbx2Ib13lZxqg1e64a09w7tbbdD+iGH7ww/F4w1seiR/e4WcagAO3eaN39AAJAQ6ASYdvND4FgAOTHHQnN2av/a5uBRTL0PBE/OlfD8TnvqSVP0CrfO/msWYdcc99Droplvt27amRk59xADgQhxujAtAkwAGUXqWiOATgwCStod2YpcjGJ3+03/VPg0YDAbTAtTeMxR++baAZBoUieviRifj9tw7E1dcLcQCw/w7f5JIlQEKAAyi9tatq0d9XSVcAsG933bOnNfSddwtvUGwTExH/9P6h+MBHh9LvAHCwrrx6NP7o7QOxe0B4g2JLOnq95e2745tXGMsGwP6ZN6cSSxY5tgSwEwKlZ7YeAPsrCW+86U93N1tDQ1n850eH498+KMQBcLCSg+w/+euB5sE2lMHoaMSfv3Mgvv5NIQ4A9s9hh3pXDyDAAZSeAAcA++PR8Mau+x26UD4f/oQQB8DBSMIbyUF2cqANZZL8zL/9XQPxpa+PpN8BgL3zrh5AgAMouerkLrhpg6IQgH0T3oA9IY73fUCIA+BACW9QduPjEe94z2B8WYgDgKex5bB6+gRQXgIcQKmtWVmL3p5KugKAJ7t3l/AGPOpjn9SJA+BAXH39WPzF/x0U3qD0khDH3/zDYDPQBAB7M3tWJZYtcXQJlJtdECg1LdkA2JddD0zE//dnA8Ib8BhJJ44Pfnw4XQGwNzfcNBZ/8pcDMTSsjoBEEmRKutFcebUQBwB75509UHYCHECpKQYB2JtHdk/Em9+2O+68ezz9DvCo//jwUFx8iRAHwN7cett4vOXtwhvwREmI48/+ZjCuv3Es/Q4APN7mQ41RAcpNgAMorerkDrhpgwAHAE82PBLxx385ELfdLrwBe/Pe/xiKz3/FLHuAJ7r73vF489t3x+4B4Q14KkmwKam1f/BDtTYAT3bEYbWomHoOlJgAB1Baa1bWordHJQjA4yXzud/2twPx3e+5FQj7MjER8a5/HIxvXaUNOsCjHnwo6eA1EA/8SHgD9iUJOCVBp3vuE+IA4PFmzqjEimWOL4HysgMCpWV8CgBP5T3/4kAa9tfYeMTb3zkY3/u+wBNAs4PXXw0Yvwb76f4HJpqjhpLRhQDwWDpnA2UmwAGUlgAHAE/04U8Mx6c/byQEHIhH26AnIwMAyirpSvRX7x6I790s0AYH4vY7x+NP/3ogRuWnAXiMwzbU0yeA8hHgAEqpOrn7SfEC8FhfuWw0/v1DQ+kKOBDJyAA3aIEy++f/GIrLvuUEGqbiuhvG4m/+fiBdAUDEYYd6dw+UlwAHUEprVtait6eSrgAou5tvGYt3/uNg8/YsMDV33DUef/63A82xKgBl8tkvjsR/XzKcroCp+PJlo/Ghj/s9AmCPObMrsWSRI0ygnOx+QCkZnwLAox54cCL+5K8HmmMggINz9XVj8Q//OpiuAIov6Rzwnn+x78F0+I+PDMXXv6mTDQB76KANlJUAB1BKAhwAJJJZ22/964G4/wHhDZgul1w6Ev/zWTdogeK7d9eezkNJPQEcvKQb3jveMxi33KadFwDGqADlJcABlE6lEnHoIYo/ACL+/l8H48abx9IVMF3e+/6huPYGv1tAcY2MRvz53wzGgw8JgcJ0Srri/dk7BuKR3X63AMpu43rv8IFyEuAASmfFsmr091XSFQBllcyr/8wXRtIVMJ3GxiLe/k7dbYDies/7BuOmWwTVoBXuvnc8/uJdg82OHACU1+KF1Zg313t8oHwEOIDS2SS5C1B6N986Fn9vXj201I8enGiOFkjCHABFkoRAP/clIVBopSuvGY3/+MhQugKgrLzLB8pIgAMonU2H1tMnAMpoYHAi3v7OwWbrc6C1brhpLN73nw5fgOL4wQ/H4x/+VQgUsvBf/z0cV12jaAcos80bvcsHykeAAyidTRukdgHK7J3/OBh33TOeroBW+8Snh+Oybzl8AfJvcGgi3vbOgRjWfAMykYxQ+au/G4xdRrIBlNZGHTiAEhLgAEpl4fxqzJtjbh5AWX368yPxtcsdJEOWksOXv/3Hwbj3PsEpIN/+7n1Dcfud9jLI0oMPTcRfvXugWU8AUD4rllVj5gzv84FyEeAASmWj7hsApZUcuLz3/UY5QDvs3j3RvEE77twTyKkvf30kvvhVrTegHa797lh8+OLhdAVA2ejCAZSNAAdQKpsUewClNDoa8ZfvHoihYVf3oF2uv3EsPvhxISogf5IOQkn3DaB9PvCRobjx5rF0BUCZHHaod/pAuQhwAKWySQcOgFJ6/4eH4vu3uvoP7fahjw/HDTc5fAHyIxnb8NfvGYzdA0Kg0E5jk6X8X//dYAwN+V0EKBsdOICyEeAASiOZlbd8qW0PoGy++72x+PintFyGTpCMUHnHewZ1wwFy478vGY7rbhA8g05w593j8b7/1A0HoGzWrqpFd1clXQEUn5NMoDQkdQHKZ3gk4m/+frB5aAx0hubhywccvgCd7/Y7x+Pf/8t+BZ3kkktH4qprRtMVAGVQrUYcstZxJlAedjygNIxPASiff/vgUPOwGOgsyeHL1de70Q50rmR0ShICHRlJvwF0hOR3813/NBQDg7p5AZTJoYd4tw+UhwAHUBo6cACUyw03jcUnPmN0CnSi5uHLPxqlAnSuT3x6OG68WdAMOtG9u8bjX41SASgV7/aBMhHgAEohmZG3brUiD6AsRkf3HA4nh8RAZ7r73mQ0gZAV0HnsT9D5Lvn8SFx3g5AVQFkcuq4WlUq6ACg4AQ6gFNavqzZn5QFQDh++eDhuu8PoFOh0yQ3377nhDnSYd//zkA5B0OH2jFIZbAa3ASi+vr5KLF/iBT9QDnY7oBQ2rNN9A6As7rx7PD78CS2VIQ+Sw5f/+8+DMS5vBXSIL182Gldd40QY8uCOu5K6X7ccgLLYuME7fqAcBDiAUth4iOIOoCze8y9DMTKSLoCOd8sPxuMTn3H4ArTfwOBEvPf9g+kKyIMPXzwUd90jCQpQBod6xw+UhAAHUHjJbLz1OnAAlMJX3JqFXPrAR4bj/geMKwDa6/3/NRwP/MheBHmSBLf//l903wMoAwEOoCwEOIDCW7q4GjP6K+kKgKIaHol433+6NQt5lNx6f98HHL4A7XPb7ePxqc/pBgR5dMXVo3H5FULcAEW3ZFE1Zs30nh8oPgEOoPAkcwHK4cP/PRT37XJrFvLqy5eNxPU3jqUrgGz9478NxpgpDJBb733/UIzKcAAU3sb13vUDxSfAARTeBuNTAArv3vvG42OfdGsW8mxiIuLv/3Ww+S9Ali771mh85zoBMsizu+4Zj49/yucBgKJzWRMoAwEOoPAOlcoFKLx/+9Bwc4QKkG+3/GA8Lv2yX2YgO2NjEf/yn0Y4QRF8+OLhePAhSVCAItOBAygDAQ6g0Pr6KrF8ia0OoMhuumWsOXoBKIb3f3gohoYdvgDZ+NSlw3Hn3WanQBEMDE7EBz4qkAVQZGtX1aJRTxcABeVUEyi0DWtrUamkCwAK6Z//Y8jIBSiQ+x+YiI99UigLaL3dAxPxnx81cgGK5DOfH4nb7xTKAiiqej1izSpdOIBiE+AACs34FIBi+/Z3RuPa75pZD0Xzsf8ZjocfkcwCWuuj9hoonLHxiH//L104AIps/Trv/IFiE+AACm3DWtscQJF5OQvFNDg0ER/8uFvxQOv86MGJ+MSndfuBIrrsW6Nx861C3gBFtX6tAAdQbE42gcKqTu5wGw5RzAEU1Ve/MRrfv1V7ZCiqSy4djvt2uRkPtMaHLx5uhsWA4knGK/77hwRBAYpqwzpHm0Cx2eWAwlqxrBo93ZV0BUCRJC9l//Ojum9AkY2MRPzXxX7PgemXhMM+danDXSiyK64ejetv1IUDoIgWzq/G7Fne+wPFJcABFNYGs/AACivpvnHbHbpvQNF97ksjunAA0y4Jh42OpgugsD5kHBtAYRmjAhSZAAdQWIo4gGJKum988GNu5UMZJAesunAA0+mBByfi0i+NpCugyJIuHDferAsHQBG5vAkUmQAHUFjrFXEAhfS1y3XfgDLRhQOYTh/5xHCM6L4BpfGBj+jCAVBELm8CRSbAARRSb08lli+xxQEUUXLwApRH0oXj45/yew8cvIcfmYjPfF73DSiTK68ZjVtuE/4GKJpD1laj6vU/UFC2N6CQ1q2uRqWSLgAojKuuGY2bb9UGGcrms18caR68AhyMT3x6OIaG7SVQJsn4xY8KgAMUTk93JZYvdcQJFJPdDSgkLdQAikn3DSinwaGJ+J/PuDUPTN1Qso981j4CZfTVb4zEPffpwgFQNBuMUAcKSoADKKT1ijeAwvn+rePxnet034Cy+uTnhmPE2SswRZ/7kk4+UFZj4xEXX6KIACgalziBohLgAArpkDWKN4CiufjTum9AmT340ER88WsOX4ADl4xQ+IQuPlBqSYhrYFCIC6BIdOAAikqAAyiceXMqMXfyC4DieODBifjyZQ5eoOwEuYCp+OaVo3Hn3cYnQJkl4Y3PfdHnCYAiWb60Gr09zgGA4hHgAArH+BSA4rnkc8MxOpougNL6wQ/H46prjVICDszFlwh/ARGf+OxIsyMPAMVQqUSsW+OYEygeOxtQOGbfARTL+HjEZ9yWA1Kf/KyDWGD/3XHXeFzzXcEvIOLue8bjiqulwgGKZN1qZwFA8QhwAIUjwAFQLEnb8/sfcFUO2ONbk3vCrvvtCcD++fTn3bgHfuySSwXDAYpk3RpnAUDxCHAAhVKd3NXWrra1ARTJp7/gJSvwY2NJV54v6MIBPL1k/Nrnv6KOAH7sW1eNxr27JosJAAphnbMAoIDsbEChLF9ajZ7uSroCIO+Sl6tXfEebY+DxPvtFN+qBp/f1b47EQw/bLIAfS8Yzfu5Lgl0ARbFoQTVm9DsPAIpFgAMolEO0TAMolM9+wSEt8GS7HpiIbwt3AU9DFy/gqVz65VGfMQAKxJkAUDQCHEChrFutWAMoiuR23GfdjgP2wu1ZYF/uuGs8rv3uWLoC+LF77xuP71xnfwAoCmNUgKKxqwGFolgDKI5vXzUa9z/gahzw1C6/YtRoBGCvjFoC9uVSQVCAwjhkrUudQLE46QQKozZZp61eqVgDKIovfd1LVWDvxsYivnKZMSrAkyXBjS9fpo4A9u4b3x6NoSEpL4Ai0JUbKBoBDqAwVi2vRb2eLgDIteRl6uVXaGsM7NsXvuqAFniy628ci/t2OZgF9m5oeCK+/i1BUIAimDun0vwCKAoBDqAw1hqfAlAY37hitPlSFWBfbrx5LO68ezxdAeyhixewP774NQEOgKLQhQMoEqedQGEo0gCK48tf9zIV2D/GqACPNTYe8bXL7QvA0/vOtaPx4ENC4wBFcMgaZwNAcQhwAIWhAwdAMTyyeyKuuNrBC7B/vvINN+2BH7vqmtF46GEHssDTGx+PuMwYFYBCOGSNswGgOOxoQCHUahGrlkvZAhTBV78xGmNj6QLgafzgh+Nx+53GqAB76OIFHIivCoICFMJa3bmBAhHgAAohCW/U6+kCgFz7ymVeogIHxrgEIDEyWUK4TQ8ciGu+OxYPP6JrD0DezZxRiQXzHHkCxWA3AwrB+BSAYkhenl57g/YbwIH5xrcd2AIRV107GoNDDmKB/ZeMUfnWVeoIgCJYZ4wKUBB2M6AQDlmjRRpAEXz7qtHmS1SAA3HzrWPxowcd2kLZffNKh7DAgRPgACiG1SudEQDFIMABFMI6M+4ACsHLU2AqJibsH4B9AJiaK64eEyIHKIB1qxx5AsVgNwNyr1GPWLnCdgaQd2PjEd++2vgUYGrcvIdyu+UH47Hrfp14gAO3e/dEXP89n0MA8k4HDqAonHgCubdyeS1qdjOA3Lv+hrHmy1OAqfjOtWMxKsMBpfWNK2wAwNR9SxAUIPfmzqnE7FmVdAWQX448gdxbvdJWBlAElzt4AQ7CwOBEXPtd+wiUlcNX4GAYwQRQDGt04QAKwKknkHtrVynKAIrA+APgYH3rKu3PoYweeHAibrrF7z8wdbfdPh733jeergDIq7WrHXsC+WcnA3JPBw6A/LvrnvG4824vTIGDc8XVgmBQRldO/u5PmMIGHKQrrxEEA8g7HTiAInDqCeRapRKxeoWtDCDvrrney1Lg4N1+53j86EGnuFA26ghgOlx7g70EIO/WrnJWAOSfnQzItSWLqtHdXUlXAOTVNd/1shSYHtc5fIHSEeAApsM11+vkBZB3ixZWo6/XeQGQbwIcQK6tkagFKAQvS4Hpcq1AGJTKvfeNxz2TXwAHa9f9E/YTgAJwZgDknV0MyDUz7QDy7657xpsvSwGmwzXfFQiDMtHFC5hOgqAA+bd2lTMDIN8EOIBcW7PSNgaQd9qeA9PpttvH4+FHhMKgLNQRwHQS4ADIP2cGQN7ZxYBcWyNNC5B7bs4C02liIuK6G+wrUBYCHMB0UkMA5J8zAyDvBDiA3JozuxKzZlbSFQB5dc31xh0A08vtWSiHe+8bj3smvwCmy513j8f9D+jkBZBny5ZUo1FPFwA5JMAB5JYkLUD+JS9Hd93vBSkwvb73fQEOKIMbbhLeAKbfzbeoIwDyrFqNWL7M8SeQX3YwILfWmmUHkHtejgKt8P0fjDdHqQDFdvOt6ghg+t3kMwpA7q1e4fInkF9OP4HcWr1SEQaQdze6JQ+0wNDQRNxxl5v5UHS67QCtcPMP1BAAebd6heNPIL/sYEBurdaBAyD3bvq+l6NAa7iZD8WWdNm5+RZ1BDD9vq8DB0DurdKBA8gxp59ALnV3V2LxQlsYQN45YAVaxcEuFFvSZWdg0KwkYPrtemAifvSg/QUgz1z+BPLMDgbk0opl1ahU0gUAuXTvrvF48CEvRoHWEBCDYrvJDXmghW75gT0GIM9m9Fdi7hwHCEA+CXAAubRque0LIO++d7Pb8UDrfP9WewwUmToCaKWbdPICyL3VxqgAOeUEFMilVStsXwB593232oAW2j0wEXff6/AFisrteKCV7DEA+ecMAcgruxeQS6uWS88C5N0P73CwCrTW7XfaZ6CofnC732+gde64yx4DkHerBTiAnLJ7AbkkPQuQfw5WgVa78277DBTRw49MNL8AWuXOu+0xAHm30iVQIKecgAK5M3dOJWb0V9IVAHk0Nu5gFWg9t2ehmG7TfQNosaHhidh1vxAHQJ4tW1qNej1dAOSIAAeQO5KzAPl3193jMWasNNBid+j0A4UknAVk4Q6Bc4Bcq1Ujli91DArkj50LyB2z6wDyz/gUIAt3aH8OhfTDO9QRQOvdKSwGkHurV7gMCuSPU1Agd1Ytt3UB5N0PBTiADNy3azxGRtIFUBiCoEAW7DUA+bfKZVAgh+xcQO6slJoFyL3b3ZwFMjAxEXGn9udQOIKgQBbuvMdeA5B3K5c5BgXyx84F5Eoyt26FuXUAuedAFcjKXQ5foFDGJn+l77nX7zXQenf7zAKQe8uXugwK5I9TUCBXli2tRk3NBZB7993vZSiQDfsNFMv9k7/TSXcdgFbb9SObDUDezZ9Xid6eSroCyAcBDiBXtDwDyL/k0OWBB7wMBbJx3y77DRTJfff7nQaysXv3RIyMpAsAcmvVCmcKQL7YtYBcWb5M+w2AvLv/RxPN9ucAWbhvlw0HikSAA8jSrgfUEQB5t9xIdiBn7FpArujAAZB/DlOBLO3S8QcKRR0BZOkBY1QAcm+FMwUgZ+xaQK5IywLkn3EGQJYefMieA0WiAweQpfsFQQFyb+VyXb2BfHESCuRGvR6xZJFtCyDv7rvfzVkgO27OQrHsUkcAGbr/R/YcgLzT1RvIG7sWkBvLllSjatcCyL1dbs4CGdo9MBEjo+kCyD11BJAlQVCA/Js9qxIz+ivpCqDzOQoFcmOF8SkAhfCAW2xAxh562OELFMX9D6gjgOz86EE1BEAR6MIB5IkdC8iN5cvMqgMogod3pw8AGXnkEYcvUBSPqCOADD2shgAohBXLHYcC+WHHAnJDShagGB7Z7SUokC37DhTD6GjE0LDfZyA7agiAYljpciiQI05DgdxYboQKQCG4CQ9kzeELFMPDfpeBjKkhAIphhcuhQI7YsYBcqNcjliyyZQEUgTbEQNYcvkAxCIECWRscTB8AyDUBDiBP7FhALixbUo2qHQugEBykAlkbGk4fgFxTQwBZ2z1g3wEogpkzKs0vgDxwHArkwgrjUwAKYWBwIia8AwUyNjxs44EiEOAAsjY8Yt8BKApnDEBe2K2AXFi+rJY+AZBnxqcA7aD9ORSDESpA1kZG0gcAcm/pEkeiQD7YrYBcWGlGHUAh7B5IHwAyNKQDBxSCDhxAOxijAlAMy3XgAHLCbgXkwtLFtisAAKZmdCx9AHJt3BkqAABTtEwHDiAn7FZAx6tO7lQCHADFMOD2GgAwRWPCWAAATJEOHEBe2K2AjrdwfjVqtXQBQK5NyG8AbTA6avOBIhgaSh8AMrTb+CaAQlgwrxpdjXQB0MEEOICOt3yZrQqgKAQ4gHYYHk4fAAAAKKVKJWKpMSpADtipgI63dJGtCqAodhuhAgBM0ciIOgIAgKlbLsAB5ICdCuh4ZtMBAAAwPJo+AADAFCxbYlY70PmcigIdb+liWxVAUYyPpw8AGarX0wcAAABKy2VRIA/sVEDHU1QBFMfgkNbnQPa6uirpE5BnY2PqCCB79YY6AqAolhmhAuSAnQroaDP6KzFzhg/KAEVR16kSaAPVJBRDrea3GcheVyN9ACD3li6pRkVJCXQ4AQ6go0nEAhSLW/BAO/T12nsAgKnp6VZHABRFox6xcL4zB6Cz2aWAjibAAQDAwarX0wcAgAOQ3NKuejUFUCjLjGwHOpxdCuhoAhwAABysrq70AQDgAPTq4gVQOEsXOXMAOptdCuhoAhwAxdKt/TDQBlqfQzH0O0gFMpa02gegWBYvUlMCnc3JKNDRli62TQEUSb2WPgBkqGbvgUIwxgDIWlfDIR9A0Sxb4gMi0Nl89AU6VvJybvFC2xRAkfT2eAEKZK/PrX0ohJ6e9AEgI/YdgOJZogMH0OGcjAIda8G8qtuSAAVT14IYaINGI30Acq1R97IdyJYOHADFk5w7eD8FdDIBDqBjLTE+BaBw3IIH2mFGv70HisDvMpA1+w5A8VQmt/Yli5w9AJ3LDgV0rKUCHACF09ubPgBkaPZMhy9QBP196QNARmaqIQAKSYAD6GR2KKBjmUUHUDy9PfZ2IHsOX6AY3IQHsiYEClBMixc6HgU6lx0K6FhLFFEAhdTf5yUokJ2uRkR3l30HikANAWRNCBSgmJYvdfYAdC47FNCxlhihAlBIM2d4CQpkx8ELFIcOHEDWZtp3AApJBw6gk9mhgI5Um9ydFi6wRQEUkQAHkKXZM9WUUBR9fZWoKCOADM0SBAUopCWLfE4EOpcdCuhIC+ZXmyEOAIpHgAPIkj0HisUYFSBLAhwAxTRvbiW6u+3xQGdyPAp0JAlYgOKaPcsHZCA7Dl6gWISygCzZcwCKa8lCezzQmZyQAh1pyWLbE0BRJbccALKyYL49B4pk3hy/00B2kg6xABSTMwigU9mdgI60ZJGXcgBFNX+uEhTIzkIHL1Ao8+f5nQayMWdWJRr1dAFA4egCDnQquxPQkZYstD0BFNWCeUJ6QHYWLlBXQpHMV0cAGVFDABTbYmcQQIeyOwEdSfsygOJycxbIktAYFItOXkBWFhrDBlBoiwT1gA5ldwI6TnVyZ9LqGqC4zJEGslKpJAEOew4UiQNVICveTQEU2+KF6kqgM6lCgY4zb241arV0AUDhdDUiZvT7kAy03pzZlaibXQ+FMk8oC8iIESoAxZZ0iHUOAXQiVSjQcRYvcKgHUHQL3J4FMuDmLBSPsUhAVnT8ASi2pGOjz4xAJ7IzAR1n0UJbE0DRGWkAZEFdCcXT012J/j6HqkDrqSMAim+RbktAB7IzAR1Hi0qA4lu+xF4PtJ69Bopp+VK/20BrJSPYHOoBFN/ihYLBQOdRhQIdxwgVgOJbvkwZCrTeCnsNFNIy4SygxZJ9pmqrASi8xYts9kDnsTMBHWexFpUAhefmLJCFVSvsNVBEK5f73QZaa4XPKwCloNsS0InsTEDHMWMUoPiSsQYVDZeAFuruqsTC+epKKKJli/1uA621fFktfQKgyJxFAJ3IzgR0lJ7uSsyc4UQPoOi6J/f7+fOUokDrJK3PBcWgmIxHAlptlU4/AKWwyDh3oAOpRIGOsmihggmgLJIuHACtYsQCFNeC+dVmlx2AVhEUAyiH3h4XSoHOoxIFOoqZcwDl4aUo0Er2GCi2pMsOQCs0GhGLtdQHKA17PtBp7EpAR1EsAZSH2/FAK61eYY+BIlNHAK2yYlnNGDaAEnEmAXQauxLQUXTgACiPQ9bU0ieA6bfOHgOFpo4AWmX9Gu+mAMpk4QKpPaCzqEaBjrJIsQRQGsuXVqOn274PTL8li6oxo9/+AkV2iANWoEXWrxMQAyiTBfPUlUBnsSsBHWWBDhwApZG0JV672r4PTL/1ax28QNGtXlmLej1dAEwjdQRAuSycL/wPdBZvzIGOsnCeYgmgTLwcBVph/TofdaHokvDG6hXqCGB69fVWYulidQRAmSyYb98HOotdCegYSZvrbq30AUrF/HqgFdbbW6AU1hmjAkyzQ9bWmp0CASiPhbqCAx3GrgR0jIWSrgClc8haez8wvRrJrfyVAhxQBjp5AdNtvWAYQOkknyFnzZTeAzqHihToGAvMmgMonQXzqjF7lv0fmD5JeCMZrQAUn05ewHRLOnAAUD66cACdxI4EdAyz5gDKaeN6L0mB6WNPgfJYtqTaHMUJMB2S0SnqCIByWuhyKdBBnJYCHWPhPEUSQBkdvtFVeWD6HLHJwQuURXLYerjfeWCarFohFAZQVkmHWIBOYUcCOoYOHADldMRhDl6A6VGbLCcPO9SeAmWy+VBBUGB6HLHJfgJQVgudTQAdxI4EdIwF2pQBlFLS/nzOLH8DgIO3fl0turvtJ1AmgqDAdNHFC6C8Fi7wORLoHAIcQMeQcgUoryM2u+0GHLzDNzp4gbIRBAWmgy5eAOVmhArQSexIQEdIbkqaMwpQXg5dgelwxGHCYFBGgqDAwdLFC6DcdAcHOokAB9ARFs5TIAGUmXbFwMHq7qrEhnX2EiijzW7NAwdJoByg3Hp7XDAFOocAB9ARFhifAlBqyd+BRQv8LQCmbuP6WtRdwodS2rLZwStwcHTyAWC+S6ZAh/CWHOgIWpQBsO0oL02Bqdu21R4CZZXMLF+53CsuYGqSG9cbDxEEAyi7+ZM1JUAnsBsBHWH+XNsRQNltd/gKHAQBDig3dQQwVUdtqUfVaymA0ps/xyVToDMoTYGOMG+u4gig7DZtqJk3CkzJmlVV7W6h5HTyAqZKCBSAxHxj3oEOYTcCOoIOHAAkt96S228AB2r71kb6BJTVIWtqMdetSeAANSY/fmw93PgUAHTgADqHE1OgI+jAAUBC+3NgKra7eQ9MOuZIewFwYA7bWI/eHu+kAEjOKByZAp3BbgR0BAEOABJbj6g1b8EB7K9kdMrqlT7aAsJcwIGzbwDwKGcUQKfwlgtou/6+SnR3KY4AiOjprsThm7xEBfafufXAo46YrCGSWgJgf1Qmtwt1BACPmj/PkSnQGexGQNtJtgLwWDu2e4kK7L8d2xvpE1B29ckSwmEssL82rKvFvDneSQGwR9IRdtZMfxeA9hPgANpuvtlyADzGccfUo8t5LLAfFsyrxqb1tXQFEHHSDgEOYP+ctMOHDgAez2VToBM4NQXaLplbDgCP6u2pxDFuzwL7Yedx9Wb7c4BHbdlcd3MSeFq1WsSObT5zAPB481w2BTqAnQhoOx04AHiik493Gw54ejvtFcAT1CY/Xp5gtBLwNI7cXI+ZM4S9AHi8+UZrAR3AqSnQdnMVRQA8wdYt9ZjR7+8DsHerVlRj5XIfaYEnM0YFeDrGpwDwVObP9xkTaD87EdB25soB8ETN27PHOnwB9u4k3TeAvVi/thZLFnnlBTy1nu5KbD/KZw0AnkwHDqAT+DQLtN2CebYiAJ7sZLfigL2oVCJ2HmePAPZOyAvYm+1H16PLFgHAU5hr3DvQAexEQNvpwAHAU9mwzu1Z4KkdvrGmhgT2KRmjkoS9AJ7otBOlNwB4avN04AA6gDfiQFslbSuTLwB4Kmec7OUq8GRnn9aVPgE8tcULq82wF8BjJQHxwzfZGwB4avN1Cwc6gJ0IaCs3JwHYl1NPbETdeGrgMebMqsQ2c+uB/XDmqcJewOOddaqAOAB7l4zYcuEUaDcBDqCtZs9UDAGwd7Mm/05sd1ALPEbSmafmkyywH46drCGSWgIg0Zj8WJEExAFgX1w6BdrNay+greaaKQfA0zjndLdngT2qk59gTzdaCdhPtZpxbMCP7djeiBn93kMBsG9zZvtbAbSXAAfQVnPn2IYA2LfDNtRi9Qp/L4CIo7bUY4GZxMABOOuULl17gKYzTxHoAuDpzZmteATayy4EtNXsWdKsADw9XTiAxNkOXoADNH9eJbYZxwalt3J5NTaur6UrANi7ebqGA20mwAG01Xzz5ADYDyftaMTMGf5mQJktXliNrUc4hAUO3HlnCoJC2Z0rEA7AfjJCBWg3AQ6grWZrRwbAfuhqRJx9qpv3UGbPOKcrKt6jAVOQjGNbt9rNeyirWTMrccoJPksAsH+MfQfazS4EtNVcaVYA9tO5Z3RFw3tXKKXk4OW0E20AwNQ98xy376GszvM5AoADMMfYd6DNBDiAttKODID9lRzgnrzDm1coIwEu4GAdv60eC+Z7DQZl091dibNPU0QAsP+cWQDt5pMr0DZJO/y+XsUQAPvvWed1RVUFC6WSHLyc4+AFOEhJ/XChLhxQOqftbMSMfu+eANh/c+f4uwG0l9ffQNvMm2sLAuDALF5YjR3b6ukKKAMHL8B0Of2khpbYUCK1asQzzhYCBeDA9PZUortLzQi0j9NToG1me3EGwBQ854LuqPgTAqXg4AWYTskopvPP0oUDyuL47Y1YaHQSAFMwb64XT0D7qGCBtlEEATAVK5dXY9tWXTigDE7a4eAFmF7nnt6ImTN8FoWiSwLfzzpXYAuAqdG1DWgnb8KAtvHSDICpev6zdOGAoku6bzz3GQ5egOnV3V2JZ55jb4GiSwLfq1d69Q3A1Myd46UT0D6qWKBt5s62BQEwNatXVOOE7bpwQJEl3TcWL1QvAtNPFw4otiTo/fwLu9MVABy4mTN9FgXaxw4EtI0XZgAcjIue2R1V1SwUku4bQCslXTiefb49Borq2KN13wDg4BihArSTShZomzmzFUEATN3ypdU45YRGugKK5NSdum8ArXXOaV2xYJ59BoomCYH+5LN13wDg4Mya6ewCaB+fVIG2UQQBcLCS1shdMhxQKMnv9PO0PQdarNHca3ThgKI5+YRGM+gNAAdDBw6gnVSzQNvMFuAA4CDNn1eJc053+AJFkvxOz5ujTgRa79QTG7FimVdjUBSN+p6ANwAcrFkCHEAb+ZQKtM1sI1QAmAbPfUZXzJzhbwoUwYz+Sjz3AqEsIBuVyfLhZ37CYS8UxXlndjUD3gBwsGZ5zwS0kQAH0BbdXZXmFwAcrL7eSvzEsxy+QBFc9Myu6OtTIwLZ2Xp4PY6c/ALyLQl0P0cIFIBpMmeO41OgfexAQFvovgHAdDrzFC3QIe+WLKrGOac5eAGy97M/0R01ZQTk2vMu7GoGuwFgOnQ19lxCBWgHH0+Btpg9U/EDwPSpTla1P/eCnnQF5FHzALWWLgAylIRAzxIgg9xasbQaZ5/qdxiA6eUSKtAuAhxAW8wS4ABgmm05rBY7tmmBDnmUjDA4ZqvfX6B9fvJZXT6nQk69+EU9zUA3AEwnl1CBdlHaAm0xR3oVgBb42Z/sie5uf2MgT+r1iBe/sDtdAbRHX18lXnSRvQjy5rhj6nHEJi28AJh+wr1AuwhwAG0xa4biB4DpN29uJZ73TO2TIU+ecXZXLF3soynQfqftbMTG9Q6CIS+6uyrxsz8peAVAa7iECrSLt2RAW5gfB0CrJIfBq1YocyEPFs6vxkXPdPACdI5f+NmeqMlwQC4878KuWDBP3Q9Aa8x0CRVoExUu0BYzZ9h+AGiNZP71y3+2Jyo+Z0PHe+lPdUdXI10AdIAVS6tx4bm6eUGnW7m8Ghec7XcVgNbRgQNoFyeoQFvM7E8fAKAFDllbi3NP90IXOtmO7fU4aks9XQF0jqQz0JJFXplBp0qC2r/wMz1R82sKQAvNcgkVaBO7D9AWM7QfA6DFXvjcrli0QLkLnWhGfyVe8sKedAXQWRr1iFe8RDcv6FRJUPvQQ8w6AqC1nGEA7eKNNtAWs2fafgBore7uSvziix2+QCf6uRd0x+xZfjmBzrVxfS3OO1M3L+g0C+dXm0FtAGi1WQIcQJs4QQXaQnoVgCxs3liLs09rpCugExy9pR4n7/B7CXS+Fz7XKBXoJEkw+2U/290MagNAq82c6e8N0B4+hQKZ62rs+QKALPz083ti2RJlL3SCZHTKy3/O6BQgH5LPrb/80p6oKiOgIyTB7C2b6+kKAFor+fwK0A4+ggKZ030DgCw9evhSU/lC2730p3pizmy1IJAfG9bV4tnnG9cA7ZZ0w/mpi7rTFQC0nouoQLt4jQ1kbpbWYwBk7JA1tXjehV74QjudeGw9Tpj8AsibpIZYu7qWroCsJV1wfunne4xOASBzLqMC7SDAAWRu5gxbDwDZe84FXXHYBocv0A4L5lfjf/2M0SlAPiVdvH7t5T3R2+MFPrTDRc/ojkMPUccDkD2XUYF2cIoKZG6m1CoAbVCZ/PPzqy/rNcMUMpbcmn3lL/REX6/fPSC/Fi+sxkt/SjcvyNrG9bW46JnGGAHQHi6jAu1g5wEyN9PBGQBtMm9Opdl+OQlzANm46JluzQLFcNKORpx6okHokJX+vkr86v9SuwPQPjP70weADAlwAJmbqe0YAG10zJH1uPBct/ggC0dsqsVFz/D7BhTHz/9Ud6xc7nUatFoS2njFS3qaY9gAoF36XUYF2kAFDGRulhEqALTZC57THYcdqiMAtNLcOZV45ct63ZoFCqW7qxKvfkVv9PbY3KCVzj+zK7YfVU9XANAeuokD7SDAAWRuhqIHgDarTlbBv/by3pgz298kaIXa5O9YEt6YpfMaUEBLF1fjF19srAO0SjJ67aee352uAKB9Zs1S8AHZE+AAMtdvbhwAHWD25Ifw1/xybzRc7INp99M/0R2HbdDlBiiu47fV49nnGxEF023OZI3+6l/qbYZBAaDddOAA2kEpDGSuv0/RA0BnWL+2Fi/96Z50BUyHncc1mm3PAYruJ5/dHUcdIQkK06VWi/j1V/Q2QxwA0AlmGAcPtIEAB5A5AQ4AOslpOxtx7hkOm2E6rF1Vi5e/WCgKKIdkhMorf6Enli3xeg2mw4tf2BMb1+vgBUDn0IEDaAefMIHMzVD0ANBhXvwCN2jhYM2ZXYnf/NXe6Gqk3wAogb6+SvzW5N7ncy4cnLNPa8TZpyoiAOgsLqMC7SDAAWRO0QNAp0lu0L7q5T2xYpnyGKai0Yh4zS/3xrw56jygfJYsqsZv/FJv1GVBYUqO2FSLl7xQBy8AOk+/kC7QBt5QA5nq7ak0D8kAoNMkf6Ne+6remOsAGg5IUtv98s/3xvq1Wp4D5XXYobV42c/2+LwLB2j50mq8+hW9UfWWGoAO1NeruAOypzQGMiWxCkAnWzCvGq99ZV8zzAHsnxdd1B07trt2DnDKCY34iWd3pyvg6cyeVYnfflVvcxQRAHSiJJwrxAFkTYADyNSM/vQBADrU6pXJLcAebdBhP5x1aiMuPLcrXQHw3Au64sxTGukK2Jvurkq89pW9sWC+19MAdDZBQyBrKmQgU/2KHQByYMvmenMkhFbOsHfHHVOPl/6UefUAT/S/fronjt8mCQp7kwSlf+OXemLtauPXAOh8/X3pA0BGvJIGMiXAAUBenHCsw2nYm8M31uJVL+tttpMF4PGSvfGVv9AbWw5zOA1PlPx+vOIlPXHk4UJOAOTDDGcaQMYEOIBMCXAAkCdJC/QXXWSWPTzW+rW1eM2v9EbNuSTAXiV7ZLJXJnsm8GMvfkF37DzOmCEA8sMIFSBrAhxApmb0K3YAyJdnndcVz3tmV7qCclu5vBr/+5W90dujpgN4Ot1dlXj9q4U44FFJMPrcM9TVAOSLS6lA1gQ4gEwpdgDIo+c/qzuefZ6XzZTbkkXV+N3X9MXMGeo5gP2VBN5e+6reZgAOyuzZ53c1g9EAkDfONICs+fQIZEqxA0BevfAiIQ7Kqxne+E3hDYCpSDpRJgE4IQ7KKqmhX/hcYwkByCdnGkDWfHIEMtXbmz4AQA4JcVBGj4Y35s3x0gpgqpIAXBLiME6FsmmGNyZraADIq76+9AEgIwIcQKbMSwcg75IX0C94jpfQlMOKpcIbANMlCXG8/tW9QhyUhvAGAEWgAweQNQEOIFN9vYodAPLvORd0xUte2B0Vf9YosDWrqvGG3xLeAJhOyaWG3/mN3jh8kxAHxfaii7qFNwAoBAEOIGsCHECmegU4ACiIc8/oile8pCeqKmoKaMO6WrzhN/uat8UBmF7d3ZX47Vf1xbat9fQ7UBxJwPnnX9QTzzJ2EICCEOAAsuZ1M5Cp/t70AQAK4JQTGvGbv9Ib3V0+zFMcR22px++8ps/oO4AWqtcjXvPLvXH6SY30O5B/yc/1L/98T5xzup9rAIrDZ2MgawIcQKZ04ACgaI7eUo/ffU1vzJrpbxz5d+qJe0JJXc5dAFou6VTw8p/riedfaMwE+dfTXYnf+tXeOGmHIgKAYuntSR8AMiLAAWRKWhWAIjpkbS3+z2v7Yski5TX59ZwL9owFqvkxBsjU8y7sagY5arX0G5Azc2ZV4g2/2RtHbjYWCIDi6XMpFciYV3NAZpL28lW7DgAFlYQ3fv91fXHYoU5fyJek3fkvvrgnXvAcN8AB2iUZpfK6X+uLPjPWyZkVSydr4Nf3xdrVamAAiklXcSBrjlKBzPT2pg8AUFAz+ivx/3t1X3MMBeRBf18lfvtVfXHaTj+zAO12+KZa/P5v6+hFfmzZXI83va4vFszzMwtAcSVj75LLqQBZUV0DmdFqDIAySNqfJ2Mofu4F3UZR0NGWL63GH7y+r3lgCEBnWLZkz95sFAWd7vwzu+J1v9ZrVC4ApdDTkz4AZMArZSAzPtQDUCbNl9q/3tfsygGd5pgj682RP255A3SeZnekX+uNZ57TlX4HOsejo9eSsHJyIxkAysDZBpAlb+uAzPRKqQJQMklngzf/bl8cslaHAzpDctDyvAu74jd/xY1ZgE6W7Nc//fzu+LVftF/TOZJRKW/830avAVA+OnAAWRLgADLTa4QKACWUvOj+P/+7L8453Ytu2ivpBvPaV/XG8y90YxYgL3ZsqzdHqqxY5hUe7bVlc31PMHmNYDIA5WM8PJAln/6AzChyACirWi3i51/UE7/28l5/D2mLDev2dIPZeng9/Q4AebFsSbUZ4jj9JGFQsletRjz/Wd3xul/rNRoQgNLyLgfIkgAHkJkebV8BKLkd2+vxljf0NQ/TIQtJp41nn9fVbHeedIMBIJ+6uyrx8p/riVe+TBiU7MybW4nfeU1fPO+ZXbp3AVBqzjaALHmDB2Smpyt9AIASWzh/z+zwi57RFTXVOC00b04lXv/qvnjhRd3N27MA5N+Jx+4ZY7FxvTAorXXs0fX4ozf0x2Eb/KwBQG93+gCQAa/xgMx0dUupAkAiOUz/iWd3xxtf2xdLFinJmX4nHFuPP35jfxyxyaELQNEsWlCN3/utvnjRRd3RMBmLadbbU4lffHFP/MYvGZkCAI/SgQPIkrfFQGZ6e9IHAKBp/dpac6TK+WdqS830SA5afvUXeuJVL+uN/j4/VABFldQNzzqvK37/9f2xdpWwHtPj8I21+KPf64vTdjbS7wAAiV4j7IAMCXAAmenRgQMAniSZaf9zL+hu3qRdtkR5ztQdd0w9/vT/9MfO4xy6AJTF6hXV+IPX98ULnqMbB1OXvK956U/1xO+8pq857g8AeDyXU4EsqciBzHR3pQ8AwJMks+zf8ob+eO4FXVF3AMMBmDunEq9+RW/za/YsgVmAsklGsz1nsn5I6ojDNujGwYE5aks9/uSNfXH2aQKgALA3fTpwABkS4AAy09WlyAGAfUluzv7kc7rjLb/rAIanl7TPP/f0rnjrm/qb3TcAKLekk9cbfqsvfvHFPTFzhs/f7Nuc2ZX4tV/sjde+sjcW6LoBAPvU1VBbAdmpHbHtdW9MnwFa6uxTu7TiBID9MGtmJU7d2YglC6tx481jMTiY/gdIbVhXi9f8cm+cflIjGnUvkgD4sTWras2/DwODE/H9H4zHxET6H2BSrRpx/pld8epf6o21kz8rAMDTu+ue8fjyZaPpCqC1BDiAzCTtOOfNEeAAgP21akUtzjyl0Tx4+d73x2J8PP0PlFYyIuXnX9TT/JqrrgJgL5IOmMccWY/tRzXittvH495dUhxEbDmsFr/5q31x0g4BUAA4ED96cCIu/fJIugJorcoLXza56wBk4E/e2B8rljloAICpuPve8fi3Dw3FV78x6iZtCXU1Ip5xTlc867yu6Ol24ALAgfn6N0fjXz84FHfeLQ1aRsl4nZ9+fncz1AMAHLjv3TwWv/Pm3ekKoLUEOIDM/OWb+81VBYCDlLw0+JcPDsU114+l36HIkjbnJ5/QiJ94dnfMmyO4AcDUjY1HXHLpcHzwY8Px4ENeB5bBnNmVuOiZ3XHmyY2oeh0DAFN2623j8do3PZKuAFpLgAPIzLvfNiP6+xw8AMB0uPKa0fjAR4bjhpsEOYqoMlkyHb+tHs+/sDuWL3XiAsD0GRqaiE98diQ+8onh2L3ba8EimtFfiQvP7YrzzuxqdvECAA7OvfeNxytfJ8ABZEOAA8jMP71jZjR06wSAafWNb4/Ghy8ejhtvFuQogiS4sW3rnuDG6pWCGwC0zu6Bibj4kpG4+NPD8YggRyEkwY3zzuiK889qRF+vCzQAMF2S7mW/+JqH0xVAawlwAJn513fNTJ8AgOl25dWj8aH/Ho7rbhDkyKOkrfmObfVmm3MdNwDIUtKR438+OxIf/5TRKnk1a2YlnnF2V5x7eiO6uwU3AGC6DQxOxEtfJcABZEOAA8hEX18l/u5tM9IVANAqSSeOj31yOL7+zdGYUOl3vOSQ5bQTG3HB2Y1YtEBwA4D2GRmJ+MJX9wQ5br9zPP0unWzZkmozuHHyjkY0jEoBgJZ60csfSp8AWkuAA8jEzBmVeNefCXAAQFbuvme8eZv2c18aabZIp7MsmFeNs09rxBknN5rtzgGgUyQB0G9dOdqsI666ViC00yTj1o7YVGuOSjn6yHpzDQC03ot/5aEYHkkXAC0kwAFkYuH8avzFm/vTFQCQlaHhifjiV0fjU58bjltuc5u2nZIDlsM31uLcM7pi21YHLgB0vqQTx6c+NxKf/+pI7N7tFWI7JZ1NTz6+Eeec3mh23gAAsvULv/5wPKIeAjIgwAFkInm58NY3CXAAQDvddMtYfOYLI/Hlr48257eSjblzKnHazkbzy5gUAPIoGa/ytctHmnXEdTeO6cqRkSTsuXF9rdmx6/htjegyJgUA2uZVr3sk7rnPxRig9QQ4gEysXlmNt/yuAAcAdIKk5ec3vj3anHN/1dWjMeb9w7Tr6a7EccfU46Tj63HEYbptAFAcd987PllDjMaXvjYSd9yliGiFJYuqkzVEI07aUY/FC4U/AaAT/NbvPRK33aH2AVpPgAPIRHJj5I3/uy9dAQCd4sGHJuKyb43GV78xEtd8dyzGvYuYsuRW7FFb6rFjWyOO2VqL7i6pDQCK7Xs3j8VXvjHaDIbedY8i4mAsmFeN47dN1hHb67F+bS39LgDQKV7/B7vj5lvH0hVA6whwAJnYvLEWv/saAQ4A6GRJmOPyK0bjm1eOxlXXjMXQsI8KT2fWzEocvaUe27bW46gj6tHQ2hyAkkoONL7xrdG4fLKOuOUHwhz7I+lWuu3Iemw/uh5rVwltAEAn+/237o5rrhfgAFpPgAPIxPaj6vGaX+5NVwBAp0tm3V993WhccfVYXHnNaNx+p4OYRLUazVuxWzbXYuvhe27IGo8CAI+36/6J+NZVo80a4jvXjcXu3V4/Jvr7KnH4plocubneDIDOm6uIAIC8+IM/2x1XT9Y1AK0mwAFkIpkB/+pXCHAAQF4lBzHfuW40rrthLK797ljceXc5Ah21asSaVbU47NBacyRccujS2+OwBQD218RExE3fH4urrx9r1hHX3zgWuwfK8ToyCWwk9cOmDbXYPFlLrFsj+AkAefXWdww0x8YBtJoAB5CJU09sxCte0pOuAIC8+9Hkx4gbbhqL731/8uvmya9bxgtxu3bB/Gocsib5qjW7a6xbXY3ubictADBdkkDHbbePx42T9cOjXz+8YzzGcn6htV6PWLksCWlUmzVE8rV8aVVgAwAK4s//diC+/k0BDqD1BDiATJx5SiN+4WcEOACgyO7dNR63/mA8brltvDlyJTmMueOu8Rgc6ryPHHNmV2LZkmosT76WVmPVylqsXlGNvl6nLACQtdHRaNYNt9w2FrdO1hFJ/XDb5Pre+8ZjvMOaftVqEYsXVpt1xNLFkzXE8mqsnqwjlk3WE0nnLgCgmP72Hwbj0i+PpCuA1hHgADJx/lld8XM/2Z2uAIAyeeBHE3HPfeNx1z3JQcxE7Lp/PO6f/F7y/QcmP4488shEDAxOz8eS5OCkv78SM2dUmiGNObOqzfny8ye/Fs6vxsIF1Vgwv2IMCgDkQBLsSAKid987Hvfcu6eeSOqHpI64/4HxeOihiXh490Tz/5sO3V2VyToiYvbMasyerCOS+mH2zMkaYrJ+aH5N1hDz5wlqAEAZvfMfB+NzXxLgAFpPgAPIxLPP74oXPleAAwB4amPj0QxyDA5OxMBQNP9NbtwODEz++xSfWHp6Ks3Dk56eiEajEj2TZcaM/uRfwQwAKJuh4SQQOlk/DE3E8PBk/fBoHfEUAdHqZKnQ21uJarOOqER3155/+/sq0ain/xMAwBP80/uH4uJLJgsNgBYT4AAy8fwLu+N5F3alKwAAAAAAgHwQ4ACyouEfkIlGI30AAAAAAADIkf5eHT+BbAhwAJkQ4AAAAAAAAADYOwEOAAAAAAAAgL3o600fAFpMgAPIRH+f9mIAAAAAAEAOOeIAMiLAAQAAAAAAALAXfb0SHEA2BDiATDTqihsAAAAAACB/Ko44gIwIcACZaDTSBwAAAAAAgBzp7ZHgALIhwAEAAAAAAACwFzpwAFkR4AAy0d+nugEAAAAAAPKnXk8fAFpMgAMAAAAAAABgL7q7XFIFsiHAAWRCOhUAAAAAAABg7wQ4gEx0SacCAAAAAAA5VHHEAWREgAMAAAAAAABgL3p7JTiAbAhwAJno600fAAAAAAAAAHgSAQ4gE7KpAAAAAAAAAHsnwAEAAAAAAACwF7096QNAiwlwAAAAAAAAAOxFVZtxICMCHEAm+npVNwAAAAAAAAB7I8ABZEN+AwAAAAAAyKGuLoccQDYEOAAAAAAAAAD2ol5PHwBaTIADAAAAAAAAAKDNBDiATHR3ay8GAAAAAADkT73ujAPIhgAHkIma3QYAAAAAAMihrkb6ANBijlQBAAAAAAAAANpMgAMAAAAAAAAAoM0EOICWa9TTBwAAAAAAAACekgAH0HKNrkr6BAAAAAAAAMBTEeAAAAAAAAAA2Ie6buNABgQ4AAAAAAAAAPahS7dxIAMCHAAAAAAAAAAAbSbAAQAAAAAAAADQZgIcAAAAAAAAAABtJsABAAAAAAAAANBmAhwAAAAAAAAAAG0mwAEAAAAAAAAA0GYCHEDL9XSlDwAAAAAAADnU1UgfAFpIgANouVqtkj4BAAAAAADkT6PurANoPQEOAAAAAAAAAIA2E+AAAAAAAAAAAGgzAQ4AAAAAAAAAgDYT4AAAAAAAAAAAaDMBDgAAAAAAAACANhPgAAAAAAAAAABoMwEOAAAAAAAAAIA2E+AAAAAAAAAAAGgzAQ4AAAAAAACAfRgZnUifAFpHgANouaFhRQ0AAAAAAJBfwyPpA0ALCXAALTc6lj4AAAAAAAAA8JQEOAAAAAAAAAAA2kyAAwAAAAAAAACgzQQ4AAAAAAAAAADaTIADAAAAAAAAAKDNBDgAAAAAAAAAANpMgAMAAAAAAAAAoM0EOAAAAAAAAAAA2kyAAwAAAAAAAACgzQQ4gJYbHJxInwAAAAAAAPJnZNhZB9B6AhxAy42Ppw8AAAAAAAA5NDKaPgC0kAAHAAAAAAAAAECbCXAAAAAAAAAAALSZAAeQiaEhs+EAAAAAAID8MSoeyIoAB5CJMcUNAAAAAACQQ4MuqQIZEeAAAAAAAAAAAGgzAQ4AAAAAAAAAgDYT4AAyMTycPgAAAAAAAADwJAIcQCZGR82HAwAAAAAA8mdgIH0AaDEBDgAAAAAAAIC9mJhwSRXIhgAHAAAAAAAAAECbCXAAmRgeSR8AAAAAAAAAeBIBDiATI6PpAwAAAAAAQI64pApkRYADAAAAAAAAYC9cUgWyIsABZGJwcCJ9AgAAAAAAyBFHHEBGBDiATIyPpw8AAAAAAAA5sntAggPIhgAHkInRsfQBAAAAAAAAgCcR4AAyMTQknQoAAAAAAOTP0LAzDiAbAhwAAAAAAAAAezE6mj4AtJgAB5CJwUHpVAAAAAAAIH8mHHEAGRHgADIxrrgBAAAAAAByaMAlVSAjAhxAJsbG0gcAAAAAAAAAnkSAA8jE4JB0KgAAAAAAkD9DQ+kDQIsJcAAAAAAAAADsxeiYS6pANgQ4gEwMDqYPAAAAAAAAOTI+nj4AtJgAB5AJxQ0AAAAAAJBHLqkCWRHgADIxMqK9GAAAAAAAAMDeCHAAmRgeTR8AAAAAAAByZGDQJVUgGwIcQCaGhhQ3AAAAAABA/ow74gAyIsABZGJsLH0AAAAAAADIkUEdOICMCHAAmdg9oLgBAAAAAADyxyVVICsCHEAmxsfTBwAAAAAAgBxxSRXIigAHkIkB7cUAAAAAAIAcGtWBA8iIAAeQCe3FAAAAAACAPBoedkkVyIYAB5CJwSHFDQAAAAAAkD9DQ+kDQIsJcACZGBlJHwAAAAAAAHJkdMwlVSAbAhxAJgQ4AAAAAACAPBoYSB8AWkyAA8iEESoAAAAAAEAe6cABZEWAA8jE2Hj6AAAAAAAAkCODQ+kDQIsJcACZGBiQTgUAAAAAAPJnZMQZB5ANAQ4gExOTtY0uHAAA/P/Zu+8wuQrz0MPftN3ViiKE6L33KnpvNhgbG/cSOzduKbZT7MROiBsYxyUucUncK8YVDMZ0UyUkJJAA0XsRCBASEgK0ZfrdMzvEJRgQaOdMed/7zLNzzpLH9y/tmTO/830AAADQacrl5huACSbgAFqmWFSoAgAAAAAAnWPUdxtACwk4gJYZtkYFAAAAAADoINVq8w1ACwg4gJYplZpvAAAAAAAAOsCIh1OBFhJwAC0j4AAAAAAAADpJqdx8A9ACAg6gZUZGVaoAAAAAAEDnKBZ9twG0joADaBkXOQAAAAAAQCcZLTbfALSAgANomaIVKgAAAAAAQAcZHvFwKtA6Ag6gZYolFzkAAAAAAEDnMF0caCUBB9AyIypVAAAAAACgg5guDrSSgANoGRc5AAAAAABAJxk1gQNoIQEH0DKlsoscAAAAAACgcwwPN98AtICAA2iZ4ZHmGwAAAAAAgA5QLHk4FWgdAQfQMkVjxgAAAAAAgA5ihQrQSgIOoGVGi803AAAAAAAAHaDouw2ghQQcQMuMjqpUAQAAAACAzjE84rsNoHUEHEDLjAg4AAAAAACADmI9PNBKAg6gZVSqAAAAAABAJ7EeHmglAQfQMiMjzTcAAAAAAAAdoFjycCrQOgIOoGWsUAEAAAAAADqJh1OBVhJwAC0j4AAAAAAAADqJ7zaAVhJwAC1TqYy/AAAAAAAAOsHwiIADaB0BB9BSSlUAAAAAAKATFIv1qNWaBwAtIOAAWkrAAQAAAAAAdILhkeYbgBYRcAAtNTLafAMAAAAAANDGrE8BWk3AAbTU8LCLHQAAAAAAoP0JOIBWE3AALWWFCgAAAAAA0AlGBBxAiwk4gJYaFXAAAAAAAAAdYHik+QagRQQcQEsNudgBAAAAAAA6gBUqQKsJOICWGh52sQMAAAAAALQ/a+GBVhNwAC01JOAAAAAAAAA6gIdSgVYTcAAtZdwYAAAAAADQCYathQdaTMABtJQJHAAAAAAAQCfwUCrQagIOoKWGhptvAAAAAAAA2piAA2g1AQfQUvbFAQAAAAAAnUDAAbSagANoKStUAAAAAACATiDgAFpNwAG0lIsdAAAAAACgE6wcar4BaBEBB9BSJnAAAAAAAACdYGjIdxpAawk4gJaqViOKRRc8AAAAAABA+6rVIkZGfZ8BtJaAA2i5oZHmGwAAAAAAgDa00vQNIAUCDqDlhq1RAQAAAAAA2piAA0iDgANouSEBBwAAAAAA0MZ8lwGkQcABtNyQahUAAAAAAGhjvssA0iDgAFruqZUuegAAAAAAgPa10gQOIAUCDqDljB0DAAAAAADamQkcQBoEHEDLPW0CBwAAAAAA0MZWDjXfALSQgANouZWqVQAAAAAAoI097bsMIAUCDqDljB0DAAAAAADamXXwQBoEHEDLmcABAAAAAAC0M99lAGkQcAAt9/RKFz0AAAAAAED7Mk0cSIOAA2g5e+MAAAAAAIB2ZoUKkAYBB9ByQ0PNNwAAAAAAAG3IChUgDQIOoOWKpXqUK80DAAAAAACANlKvWwcPpEPAAaRipQsfAAAAAACgDSXTN5KIA6DVBBxAKoweAwAAAAAA2pHpG0BaBBxAKlz8AAAAAAAA7ch3GEBaBBxAKp5y8QNA0023VWLRo7XmEQAAQOsln0luvaPaPAKg1z35lO8wgHTkdp1+0snN9wAts+uO+dh6y1zzCIBeVKtF/OzXxfjhz4pxyZXluG9hLaZNzTZeAAAArXDH3dX4wdhnkp/8qhhXzS1HNpuJnbZ3zwqg1yV/H66/qdI8AmgdAQeQim23zvkwDNDDnlhRj//8+kjMmff7D8KPPlaLK2eX46Zbq7HG5ExsvGE2MpnmLwEAAFaTej1i3g2V+NaPRuPs80uxeMnvJwLeemc1HlxUi712z0c+7wMJQK+6+bZq3GIyE5ACAQeQik03zsZeu+WbRwD0kptvr8ZnvjIcjyx+9rUpy5+ox5z5lcarr5CJzTbORdZQDgAA4CUqVyJmzC7Hf39vNC6ZUY7lK559PH7yWeW6BZXYfZd8Iy4HoPckod/d9wk4gNYTcACpWH+9bOw/vdA8AqAXJE+5nXVeKb77k9EYLTZPPoenV9bjuhsrccWsclRrEZtvko1Cwc1TAABg1QyP1OOCS8vx9e+OxNXzKrFy6NnDjT/01NjnkavmVhqfQzbaQFEO0Gtmjf0NePDhZ3/4CGAiCTiAVKyzdiYOPVDAAdArkhjjy98cjStmlxshx6pIYo9bbq/GJVeWGzdaN904F5MGhBwAAMBzS6b7/fq8UmPixoJbKi8oJP9D5XI0go9sNmMVMECPueyqcjy2VMABtF7mLe99ahVvoQO8dJttko3//OTk5hEA3eyue6vx1e+MNG6erg75fMQB+xTilcf0xZabexIOAAD4Yw88WIvzLy3FnHnlqK6m6ff77pWP971rIAb6xeQAveCj/zEc9y20QgVoPQEHkIopa2Xim19co3kEQLc6/5JS/Pys4mq7afqndt4h1wg59to9Hxn3UQEAoGclk/5uuKnSCDduu3NiPoBsulE2Pvh3k2LjDYXkAN3uA/+2MpYt9xUq0HoCDiAVuVzE6d9cs3kEQLdJdkx/60ejMe+GSvPMxEp2Ur/i6L447KB89PcpOQAAoFcUS/WYeXUlLrysFI8+NvGj7pMJHH/z/wbigH3yzTMAdKP/9/6no1RuHgC0kIADSM33vrJGTB70JRtAt0nGFX/l2yOp7AldY3Imjj6sEMce2RfrTPE3BgAAutUTK+px8RWluGxmOVYOtf4W93FH9cXb39jfeEgJgO6ShBtJwAGQBgEHkJovnzq58cQ0AN0juXn641+ORjnlJxTy+YgD9ik01qtsubm/NQAA0C2SYDxZkzJ3fjkqrRn492dtt3Uu/ulvJ8VU8ThAV3l8eS3+/t+GmkcArSXgAFJzyr8OxvbbeEwBoBskY4u/d3oxZs1tv9mSO++Qa6xXmb5HPjLuqwIAQMep1yOuu3F8Tcptd1abZ9vDWmtm4gPvmRS77eQeF0C3uPeBanzsM8PNI4DWyu06/aSTm+8BWir5Im3jDT0VDdDpHn60Fp/5ykjccnt73Uh9xtJl9ZgzrxIz51SiMvb/xU03zkZfQckBAADtbmi4HhdfXo7/+f5oXDqz3Li2bzfFUsTsa8uRzWRip+1FHADd4MGHamP/tqc85gnoWSZwAKl57zsG4qhDC80jADrRrGvK8f3TizFa7JxLyv6+TBxyQD6OPbIvNttESAgAAO3moYdrcfEVpZg1t9KY9tcp9tw1H+9/90CsMVkwDtDJrphVju+cNto8AmgtAQeQmjef2B8nHt/XPAKgkyQ3UX/4s2LMuLr9Vqasil12yMVx1qsAAEDqarWI+QsqjXCj3dakrIqp64yvVNlpO9M4ADrVOReW4hdnF5tHAK1lhQqQmk02ysZeu+WbRwB0ikWP1uKzXxmJm2/r3Juqz7BeBQAA0rVyqB4XNdekXH5Ve65JWRUjoxFXzS1H1MdXqgjFATrP3Osqce/9nX/fC+hMJnAAqTlgn3z8419Pah4B0AlmzinHD35WjGIHrUxZFcl6lYP2y8exR/XFFptarwIAABNl4UPja1JmX1OOUmcP9vuzkoDj798zKdaZouIA6CRf++5I44EfgDQIOIDU7LhdLj754cHmEQDtrFtWpqyK7bbOxcuOKMQB+xSiYGAUAAC8ZOVKxJx55bh0Rjnuvq83nmxec41MvO+dA7GnKbQAHeNTXxyO2+8ygQNIh4ADSM3GG2bjS5+a3DwCoF0lK1O++u2RWPRIrXmmtyQ3XI84uBDHHFaI9dczlQMAAFbVY0trjWjjytnlxsqUXpOsUTn+mL546+v6I5drngSgbf3zJ4bikcW9eR8MSJ+AA0jN4KRMfP+razSPAGhHyQ3WH/2ie1emrIrkpuvuO+cbUzn23j1vlzUAADyH+thHiOturMQlM8px822VxnGv23qLXPzDXw/EBsJwgLb2nn9aGUPD/nAB6RBwAKk67RtrGksP0IZGRuvxvdOLcfW1vbMyZVVMm5qNow4rxFGHFGLttZQcAADwjCefqsflV5XjsqtKsWy5W89/aqA/E29/Y38cPfZ5AoD2U6lEvON9TzePAFpPwAGk6uufm9z4EgyA9nHfwmp87TujjTHHPLd8PmLfvfJxzGF9sfMOZiEDANC7br2zGpfOKMW8GypRrTZP8mftvUc+/uYvB2KtNQXhAO1k+RP1eP+/rmweAbSegANI1adPGoxttvKFF0C7OP+SUvzi7GLjaQNWzYbrZ+OoQwtx+EEFN2EBAOgJybSNmXPKjYkbi5cIwFdV8rkhiTiSmAOA9nDvA9X42GeGm0cArSfgAFL14Q9Mir139yEVIG1PPV2Pb/5wNBbcotx4qXK5iOl7JFM5CrHrTvnIaDkAAOgi9XrELbdX4tKZ5bjuRtM2VockBP/LN/VHf78PDwBpW3BzJT7/9ZHmEUDrCTiAVL33HQOND6kApOfWO6rxPz8YiSdWuCxc3dZbNxtHHlJovKas7WYsAACda8WT9bhiVjkuH3s9vsy0jdUtmej3vncNxHZbm1QLkKbkb913ThttHgG0noADSNWbT+yPE4/vax4B0GoPPVyLj39uOIpFl4QTKZeN2HO3fCNa3Gvsp6kcAAB0gmTaxg03V+Kyq8qNJ5Jruo0JNdCfiVP/fTA23WjsAwQAqTjnwvH1wgBpEXAAqXr5kYV451sHmkcApGHpslqcfkYxrr3e+pRWWHdqJg4/sBCHH1SI9ddzYxYAgPazZGktrry6HDPGXsufcPu4Ffafno+3v6E/pq3rMwJAmn70i2JcfHmpeQTQegIOIFUbb5iND39gUmNMJADpSlap/PiXo42pHEy8ZArHTtvnGiFHcrO2v89YDgAA0lMs1eOa6ypx5exy3HF3tTF9g4m32SbZ+Ku3DMTOO1idApC2lUP1+MxXRuL+hdXmGYDWE3AAqZs0kIl3va0/Djmg0DwDQFqSkciXzijHGb8tNj600hrJ38ID9sk3Yo4dtnXjFgCA1rnznmoj2kjijZFRnwFaZY3JmXjTa/rj6MMKkfVcE0Dqbr+rGv/9vZFYvsLfQiBdAg6gbRx2YKERcvT3ewIZIG1JvPGr3xQbu67tuW6tjTbIxuEHF+KwAwqxzhR/EwEAWP2eWFGPmXPGV6Q8+pgL/lbKZSOOOqwQbz6xPyYPut4HSFsycerM3xbjNxeW3AMD2oKAA2grySqVf/jrgdhqc08fA7SDZJ1KslYlWa9CayVP4e2+cz6OOLgQ0/fIRz7f/AUAALwIlUrE/BsrceWsctx8e8WXVCnYbadcvONNA421KQCkb9nyenz9eyONaVQA7ULAAbSdQj7iLa/rj+OP6WueASBt191YiZ+eWfR0XkqS8coH7pOPQw8sxHZbixwBAHjh7r6vGlfNKcec+RVrElOSTNl7+xv6Y+89VNkA7WLeDZX49o9HY2jY30agvQg4gLa15275eN87B2LNNYyTBGgH1WrExVeU4qzzSj7cpiiZVnXI/oU45IB8bLCeJ/cAAPi/Hltai1lzKzHrmnIsXiLCTkuyIuX1J/TFy4/sa6xOASB95UrET345GpfMKDfPALQXAQfQ1pLd/+9716TYdUdPGwO0i+SpvTN+W4zLxj7oVt0LTk0mE41pHIcdWGhM5xi0PxsAoKclkfWceZW4am65MXUj2elPOpJY45gj+uINJ/Q1pukB0B4WPVqLr31npLEyGKBdCTiAtpd8QfWaV/TFG1/dH1lPKwC0jYfHPvSefkYxFtxSaZ4hLcn6sb12z8ehBxRir93ykdM9AgD0hMrYpXhyPT5zTjkW3FxpPFVMupKJsu94Y39svKGbWADt5PKrynHaL4tRLPlaFGhvAg6gYyRPGf/Dewdi2ro+AAO0k5tvq8TpZxbjwUWeXmgHyRN+B+6bb6xZ2X4bJQcAQDe6855qzL6mHHPmVxoT8kjfFptm4+1vGjBFFqDNDI/U47unjcbc61SOQGcQcAAdZXBSJt79F/1x0H6F5hkA2kEynjl56u9XvynG8hUuL9vFtKnZOHi/fBw49nczuaEMAEDnWvhQLa6eV46rr63E48vF0+1i6jqZePOJ/Y1peMkUWQDaRxI8/vf3R+PxZf5uAp1DwAF0pEPGPhS/6239MWnAJ2OAdlIqR5z/u1L89qJSjBZdZraTZIRzMpXjoP3yscF6Yg4AgE6weEkt5syrxKxryvHIYl8+tZPkntQJx/XFq17WFwXPGQG0ldrYn8wzzy3GOReWGu8BOomAA+hY662bjQ+8Z8B4eIA29NTT9Tjjt8W44qpyVH1QbjvbbJlrrFk5eL9CTFlbDAkA0E5WPFmP2deOT9q4b2G1eZZ2kctGHHVYId5wQn+staZraYB2s2RprTF14+77/A0FOpOAA+ho2bEPza99ZV+87pX9jfcAtJeHH63Fz88qxnU32jPajpIRzztvn8QchThgn3xMHnQDGgAgDUPD9Zg7v9JYkXL7XdXGikLazz575uOtr+tvTLcDoP0k631/9PNijIz6Qwp0LgEH0BWSKRzvf/dArD/NB2iAdpTsHE1CjuQn7SmXi9h1x3wj5Nh3LzEHAMBES6KNeTdUGuHGLXdUoupSuW3tsG0u3vb6flNgAdrU8Eg9vn/6aFw9zwNEQOcTcABdI9k9+q6/6G/s9wegPc1fUIlfnF1sTOagfYk5AAAmhmijs2y6cTbe+tr+2HuPfPMMAO0meVgoWZny+DL3moDuIOAAuk6yz//db+9vBB0AtJ/a2OfpGVeX48zfFmP5Cpei7U7MAQDw0og2Os/UdTLxxlf3x+EHFRprBwFoP8n9pTPPLcY5F5Ya7wG6hYAD6ErrrZuND7xnwGhLgDZWLkdceFkpzrmoFMPDLkk7gZgDAOCFEW10psGx69sTX9EXxx3VFwUDXgHa1pKltcbUjbvv8wcW6D4CDqBrZbMRrzmuL17/6v7Ijb0HoD0l8cZvLyrFRZeXo1hyadopkr+zO2+fi332SmKOQkydIuYAAHrb8ifqMW9BOebfUInb7qp6GriD9Pdn4rijCvHq4/picJLrWoB2duXscvz4F8UYLbqHBHQnAQfQ9bbaIhcfePdAbLyhigOgna0Yuyw9+/xiXH5VOSqV5kk6QjJWepstc42pHMlrow38zQUAesMji2sxf0Elrr2hEvc9UI26O60dJZ+POPqwvjjx+L6YspZwA6CdPb2yHt85bbTxdxegmwk4gJ7QV4h42xv649gj+5pnAGhXS5fV4szfluKquWU3wDvUphtlY9+9x2OOrTa3zgwA6C73P1iNeddXGitSFj1qzEYnSqbJHXpAId5wQl9MW1d8DNDubri5Et/+8Wg86StNoAcIOICesvvO+fjbvxqIdYx5B2h7Dz9ai1/+pth4skLI0bmmTf19zLHjtrnGtA4AgE6SXIvecc/vo43Hl4s2OlVyLZpcl77pNf2xyUbCDYB2VyzW4/Qzi3HZTA/5AL1DwAH0nDUmZ+Ldbx+IA6bnm2cAaGf3PlCNM84pxY23GpHZ6dZcIxN77ZaPvXfPxx675mKgX80BALSnkdF63HRrNa6/qdJ4rRxyC7XT7bFLPt58Yl9j1S4A7e/e+6vx398fjcVLhJNAbxFwAD0rGZX5zrf1x6QBXx4BdIK776vGL84uxm13Vptn6GSFfMRO2+djnz3zsdfuucakDgCANCWTNa67sRLX31iN2++qRFk/3BV22SEXb3ldf2y7lXADoBPUahFnn18aexWjqt0AepCAA+hpyZ7T971zIHba3od4gE5x+13VxmqVO+8RcnSTLTbNxvQ98rH32GvrLaxaAQAmXjKK/b6F1Wa0UYmFi3xL1E123iEXbzih3z0fgA6STNtIpm4k0zcAepWAA+h5yRdEr3p5X2P/ad5WFYCOcdOtlTjz3FJjMgfdZcramcaaleS160656O9TcwAAq0exVI9bbm+uRrmxEivcGu06222dhBt9sfsubvIAdJLLZpbjJ2cUo1j0txnobQIOgKbNNsnG+989qfEEMACdI7nxfsa5xXjgQU9MdqPGqpUd8rHnrrmxVz422sDfaQBg1Tz6WC0W3FKJG26uxh1Wo3StLTfPxptf0x977ibcAOgkT6yox3d+MhoLbvYHGiAh4AD4A7lcxOtP6I/XHNcXWd8PAXSU+Qsq8evzhBzdbv31srHXrvnYa/dc7Lx9PgqF5i8AAJrK5Yhb76jEgluqccMtlViy1PVhN9tmq1yc+Iq+2GdP4QZAp7n62nL88OfFWDnkq0qAZwg4AJ5F8uH/fe8ciI03VHEAdJrk6cqzzrNapRf0FZLd5uPTOfbaLd+IOwCA3vTY0lrjyd0k2rjtzkqUys1f0LWsSgHoXEmw8f3TR2PudaZuAPwpAQfAn5E80fvW1/XHcUf1RcbqfYCOc9OtlTjzXCFHL0nCy913zsduO+dilx1y0d/vDzgAdKtkP/6td1bj5tuqcePYdV+yJoXeINwA6GzX31SJ7542Git8PQnwrAQcAM9j5x1y8bd/NRDrreupXoBOJOToTfn8+M39JOjYfZdcbLV5TpAJAB2sXo+4/8Hq2LXd2Ou2SuParuKh3Z4i3ADobCOj9Tjtl8W4crYxWQDPRcAB8AJMGsjEO97UH0ceYtE+QKe6+fZq/OaCYtx2p5CjF60xORO775yL3ZKgY+w1dR01BwC0u2XL62PXcJXGhI1bxq7l7MfvTcmDNSce3x+77ZRrngGg0yRTs771w9F4fLmJWQDPR8ABsAqS/frvfcdArDPFlz4AnerOe6px9vmlxhcB9K5NN8o2Yo5k3crO21u3AgDtYLRYb8S2yVqUZMrGI4t9ydPL9tglH697VV9sv41wA6BTlcoRP/t1MX53RakxTQuA5yfgAFhFyRO873xrfxy0n2kcAJ3s/oXVOOv8Ulx3Y8VNhB6Xy0ZsvWUudt0pF7vskI/tt81FwWRuAJhw5cp4XHvbneMTNu57oBpVzUZPS1beTd9jPNxIVuAB0Lnuub8a//P90Vi8xB93gFUh4AB4kQ6Yno93/cVArLmGJ3YBOtmiR2px9vnFmDNfyMG4QiFi+61zsctO+dhlh1xsu1UustnmLwGAF61Wi7j7vmrcdlc1brm90nhftgafMUm4ceA++Xjtq/obk9IA6FxJoHnGOcU4/5JS428/AKtGwAHwEqy1Zibe9baB2H+6x3QBOt1jS2tx7sWlmHF1OSq2q/AHBvozseP2udh1x/EJHVtslm18yQAAPLckjn3goWTCRhJsVOOOu6uNNSnwjHw+4vCDCnHCsX2xwXrCDYBOl0zd+OYPR61BA3gJBBwAq4FpHADdY8XY5fEFl5Ti0hnlGBl1qcz/laxTS9as7Lx9LnbcLtcY721CBwCMT9hI1tTd0ViLUo277q3GyiHXU/xfSSD7siMKcfzL+mLKWu6lAHQ6UzcAVh8BB8BqYhoHQHcZHqnH764ox4WXleKpp10y8+clX0DssO14zLHT9uMrV3JWtgPQA5KpZfc+ML4S5c67x173mLDBc0vunRx3dF8ce2QhBicJNwC6gakbAKuXgANgNTONA6C7JHvZr5hVjnN/V4rHl7kZwfMrFCK223o85thxu3xsv00u+sbOAUCnK41dFyVTNe64qxK3312Nu++rNq6V4PlMWzcbJ7y8L448pNC4VgKg85m6ATAxBBwAEyCJN/7fW/rj4P3clQDoFsnNiLnzx0OOBx50Z4IXLtntvuVmucaUjiTmSNavGBUOQCdIVsvddc/4KpRkusb9D1ajWm3+El6ALTfPxqte3hcH7lOwcg6gi5i6ATBxBBwAE2ifPfPxnrcPxNq+pAHoKrfcUY1zLy7FzbdVou5qmhdh/fWysUMSc4y9krBj042zkXG5AECKkmuaRY/UGqHGnfeORxtLlvpShlWXXNPstlM+XnVs39hPe+UAuompGwATT8ABMMHWmJyJv3qraRwA3eihh2uNkOPqeWVPo/KSTBrIxHbNmCOJOrbbKhv9/YoOACZOsViPu+6rNdagJNHG3fdWY2TUbUJevFwu4sB9C41VKZtvatwGQLcxdQOgNQQcAC2STON4918MxJS1fRkD0G2WP1GPCy8rxWUzy774YLVIRoxvslG2EXNss2Uutts61zg2pQOAF+OZ6RrJFy/JK4k2Hn605slZVoskRD3q0EK84ui+WHeqixWAblMqj0/duOBSUzcAWkHAAdBCg4OZeMcb++OIg03jAOhGSbxxxaxyXHRZOZYuc1eD1Sv5cmTrLbKx7Va52HbrsdfYT2EoAM9mxZP18VjjvmrcPfbzvgdqMVp0C5DVa9q62TjuqEIj3kiuUwDoPrfdWY3v/mQ0Fi9xjwOgVQQcAClIdsC+9y8HYr11jRQF6EbJEynzbqg0dsImT7jCRJm6TqYxnSOZ0pFEHVttno0Bq1cAekoSZtz/YK0Ra9z7wPh0jWQ6GEyUJCJ95cv6Yr+9842pYQB0n+QBlZ/9utiYNJpM8gKgdQQcAClJvlx504l9cdxRfcahA3Sx5EuUCy4pNYKOqgdWmGDJNcVGG2Rj6y1ysdUW4z+3FHUAdI0k1njgwVrct7Aa9y8c//noYzVfrDDhctmIfffKxyuO6WuseAOgey24uRLf++loLFvuAgMgDQIOgJQlT83+7V8NxMYbemwFoJs9vrwWF19ejsuvKsfwiEtwWkfUAdCZxBq0g2Q1SrIiJVmVkqxMAaB7rRyqx49/UYxZ15SbZwBIg4ADoA0U8hGve1V/nHBcX+OpFgC6V7FYj5lzK3Hx5aV4+FEjOUjHM1HHVpvnYovNso3XlpvlYq01RR0AaXjyqXosXFSNhQ/V4oHk9aBYg3QlD5m8/MhCHH5QQfQJ0APmzq/ED38+Gk897eIDIG0CDoA2knx58jf/b6DxZQoA3e+m2ypx4WXluPGWii9oaAtT1sqMXY88E3XkYsuxn0noYd0bwOqR/L1/ZHEtFi4aez1UbcQaD479XOH2HG0g+Xu/+875OO7oQuy5a755FoButuLJenz/p6Mxf0GleQaAtAk4ANpMMoHjVcf2xetP6G9M5gCg+y1eUovfXVGOK2eXY2TU5Tntpa8Qsdmm4zHHFmM/N9sk23hNHlR1ADyXoeF6PPRwLR5cNPZ6eDzWeGhRNUqmktNmkgkbhx9ciGOPLDTCTQB6Q3IP4idnFGN47JoFgPYh4ABoUxuun433vGMgdtnBNA6AXpHsup8xuxyXzChbr0LbmzolE5tu/PugI3ltslE2+vuEHUBvSdajPbx4PNRY9EitEW0seqQay1e45UZ7S+47vPyIQhxxSCEmDfj7DdArkodIvnf6aNx6R7V5BoB2IuAAaGPJ+NJk3+zb39jvKVeAHnPLHdX43RWluP7GSlS1HHSI5NplvWnZ2DwJOjbOxqab5Bo/k6d58yaLAR2uUol49LEk0KiOhxpjrwcfrsXSx2tWodExkr/V0/fIx8uOKDTWpQDQO5J7C+f9rhS/PrcYZRPBANqWgAOgA6y9Vib+8s0DcdC+bq4A9JrlT9Tj0pmluPyqcjzp0p0Olc1GrLduNjbZOBsbbzA+qWPjDcd/ilSBdpOsPkkmYT2yuDb+87Gxn4/UYumyWtRElXSotdbMxJEHF+KYwwsxbexvMgC95d4HqvGd00YbE8MAaG8CDoAOsueu+Xj32/tj2lQ3WwB6TbUaMfe6clxyZTnuvMeYU7pH8oXSHwYdm4z9TN6vO3a9kzwlDDARkokZjy+vxaNJpPFMqNH8+dTTbpXRPbbbOteYtnHgPgXTsAB6ULKq9Zdnl+J3V5aEqAAdQsAB0GEG+jPxptf0xXFH9/lSA6BHLVxUi8tmlmLW3EqMjLqcpzsV8hEbrJ9t7OffYL3xNSyN9+tnxKzAC5JEGsueqMVjS+qNXe/J+pPHltYa7x8be5Urzf8Qukx/fyYO2T8fRx9WiK02zzXPAtBrrr+pEj/8WbERrQLQOQQcAB1qmy1z8dd/ORCbb+oLDIBeVSzWY/a1lbh0ZjnuX2gqB72jr/D7uCN5JXHH+utlY4NpmZi6TraxsgXoDcmTpEmkseTxeixZOh5pJIHGMy/73eklyf2BYw7va8QbkwY88QHQq5L1qz/+5WjMmadWBehEAg6ADpbLRrzq5X3x+hP6o1BongSgJ923sBqXzijH1fMqjbADelVyfbTuutlYf91MrDdtfHpH4+e08eNkZQvQWZKVJkseH480lo79TKZoJD+XLKvHsmW1qHqolB6W3As4aN9CY9pGsi4FgN525exynH5GMYaG3RcA6FQCDoAukHwx8e6/6I/ddrbQFqDXJStVZs4pxxVXlRurVoA/lqyjW29aJtaflo1p6469pmZi3XWS9+OrWaasnbGmDlooWXPyxJP1WLa8Fo8vqzdGfC97YuznsiTYGI82hInwf226UTaOOqwQhx1YiMmD/nAB9LpHFtfi+z8djdvuNJ0ToNMJOAC6yMH7FeIdb+qPtddy8waAiHsfqMYVs8px9bWVRtgBPL9cLmLqlGysO3U86HjmZyP0GPs5dZ2ML8pgFawcqscTK5qBxvJmoPEHP5evqEXV9wzwgvT3Z+KA6fk48pBC7LCtaRsARJQrEedcUIzfXlRqvAeg8wk4ALrM4GAm3vra/sb4VE+PApAoluqN3beXX1WOu+/zLRm8VMm4+nWmZGOdtTONoGOdtccnd6ybvB87n7xPzvf3uRijeyV/W5Y/UY8VTyaBxvjUjMb7J2uN88lUjeR8udz8PwBetK22yMVRhxTi4P3zMWnA3xYAxt1yRzW+f/poLF5i+iZANxFwAHSpZPfte94+EJtvmm2eAYCIRY/U4vJZ5bhqTrnxVDQwcZIv2daZkmkEHcmEtLXWGI871lpz7FxyPPZKzq+9Vjb6Cs3/I0hRqRyx4slaPPV0PZ56qh4rxl7J+yTMeGplrfHzybFzyUQNk51gYiUPZxy8Xz6OPrQvttjM53oAfi+5Pjvtl8WYfa1SFqAbCTgAulguG/GKY/riDa/u8wQoAH+kUomYf2MlZswux023VaLmgR1IVTIWP5noseYa41FH8jN5rTF5/JVEH394nLw3bY3nkvy7noR6yevpleM/k5v9f3gueSVBRvIzmZhRLLpFBGlK/l3feYdcHHFwIfbbuyDuA+CP1Mcu1ZLJmj8/qxhDw67bALqVgAOgByR729/51v7Ye4988wwA/F7yJPXMueVGzPHoY0oO6BSTB/8g6hj7OXlSJgYnjT+1nfxusHGcvB8/1zhOfjf2M1kDQ/tL1o8MjdRjeLjeuEk/MvZ+aDhiODnXeD/+u+GR8f9uZTPUSIIMN/Whc6y3bjYOP6gQhx2Ub7wHgD/10MO1+N7po3HXvdaiAnQ7AQdAD9lnz3y8860DjZ3sAPBs7rynGjOuLsfc+RXj8aGL5fPRCDqSKW2DgxED/ePv+/vHzzeOx94nk0EmDYyvg0l+n4Qfye+z2bFzYz+TiW8DY/9dvpBpPCme/De5XPN/pEdUqxHFUr2xfqRSrsdocexcLRqxRTIFIwktkhAj+W+Sf1dHRsfeF5NpFzH2346HGMn75PeN4+Hx98n5ZFoS0J2Sfy/33TvfmLax8/Y5U5UAeFbJdeGvzy3FBZeUGteYAHQ/AQdAj0luvr/x1X1x7FF9jRvvAPBskptEX/qfkbj5dk/3AKsuCUCyufHYI/lOsq9vPBpJ9BV+PwEknx8PP8bfj3+h+Yzky8wkEnk+ydSR8f+ViPrY/0umUTyfJK5IRlA/I/k375lYohFiVMZ/mYQXpfL4++T3pVLyvzEeZdTG/nlMgguAVXXskX3x5tf2NT6fA8Cfc8PNlfjBz4rx+DLlBkAvEXAA9KgtNs3GO982EDts22OPSALwgixbXo8PfXxl44tMAABWn522z8Un/mWweQQAf+zx5bX48S+KMX+BcWwAvciz1wA9auGiWpzyheH49o9H46mntXwA/LHfXFgUbwAATIDb76rGTbf6Ug6AP5as5vvNBaX4l08MizcAepiAA6CHJWOjr5xdjg99fCgum1n+ozHSAPSux5bWGn8fAACYGGeeW2q+A4BorC/9yClD8cvfFBvr/QDoXQIOAGJouB7fO300PvaZ4bh/YbV5FoBedfb5pah42AcAYMLcfV/V09UAxBMr6vG1747EZ/5rOB5ZXGueBaCXCTgA+F/3LazGRz8zHD/46WgMDyu9AXrRw4/WYtZc0zcAACbar88rmoQJ0KNqtYjzLynFP39iKObME/QB8HsCDgD+SHLz6JIZ5fjgx4dixtW+wAPoNWedV4yqh34AACbcAw/WYu58X9oB9Jo776nGv506FKefUYyRUSUfAH9MwAHAs3rq6Xp860ejcfJ/DseDi3yTB9ALFj5Uizm+RAAAaJkknk2ewgag+yX3W7/5w9E45QvD8dDD/vEH4NkJOAB4TkkR/u+fHoof/6IYwyOKcIBudua5xngDALTSomR93TWmXwJ0syTUu/iKUnzo40Mxc07Z524AnpOAA4DnlYzSv+jyUnzwY0Nx5WwfMgC60T33V+O6G03fAABotbPPL0W12jwAoKvcfnc1Tvr0UPzo58UYGnZTFYDnl9t1+kknN98DwHMqlqLx5d6Nt1Zji82yMXWKDhCgW3zjh6Ox5HE3kwAAWm3lUD2mjH2+3mbLXPMMAJ3uiRX1+N5PRuOnZxbjyad81gbghfPNGwCrLHlK++OfHY7vnDba2N0IQGe7+fZq3HqHxz4BANJy1nnFKNmkAtDxkolKv71ofF3K1fMqJhkDsMoEHAC8KMmHjytmlRsfRpIdjskuRwA60y/OKjbfAQCQhhVP1uPCy0rNIwA60Y23VuJfPjkUPx/7jD1aVG4A8OIIOAB4SZLdjckOx2SXY7LTEYDOcu31lbhvoX+/AQDSljyxPTziCz+ATrNkaS2++D8j8bmvjsTiJZ5yA+Clye06/aSTm+8B4EVLdjnOnFOORxbXYvtt8jFpINP8DQDtKpme9F/fGomnV/qiAAAgbeVyRPJJeted8uMnAGhryeqrZAXWf39/NBY9ItwAYPUwgQOA1SZZq5LsdkzWqpxzUSnKleYvAGhLz4R3AAC0h2SNyoqnxLUA7W7u/Er88yeG4qzzS40ADwBWFxM4AFjtKtWIW26vxuxrKjFtajY22UgvCNBukhtMX/nWqDHdAABtpFqLKBXrsdfupnAAtKOFi2rxtW+PxHmXWHsFwMTwjRoAE2bJ47X48jdH4tNfHo6HHvaEN0A7uWRGKR5f7t9mAIB2c/mscjy21HUaQDt56ul6fO/00Tjp1KG4/e5q8ywArH4CDgAm3K13VBsfbn7w09FYOaRMB0jbyGg9fnNBqXkEAEA7qVYjzjjHtRpAO0j+TT7/klJ88GNDcdnMcmOFNABMJAEHAC2RjIG9ZEY5/umjQ42dvjUPEwGk5tyLS/H0SnedAADa1dXzyvHAgz44A6Rpwc2V+PDJQ3H6GUXrUgBomcxb3vuUvzoAtNwmG2XjL9/cH7vvbK8vQCuteLLeiOmKJR8DAADa2W475eLfPzjYPAKgVR5ZXIvTflmMG2+tNM8AQOuYwAFAKh5+tBaf/cpIfOG/R2LxEk8VAbTKGb8tijcAADrAzbdXGy8AWmN4uB6n/aoYHzl5SLwBQGoEHACk6vqbjCIEaJXkKaIZs8vNIwAA2t1PzxyNuo/KABMqWfXcWP38saG48NJSYxU0AKRFwAFA6iqViPMvKcU//vtQXHxFqfGhCYDV72e/LroRBQDQQRY+VIvZ1whwASbKglsq8a+nDMUPfjoaT69UzAGQvsxb3vuUv0gAtJWNN8zG29/YH3vtlm+eAeCluvOeapz8n8PNIwAAOsV662bjy6dOjryPyACrzUMP1+L0M4txk1UpALSZ3K7TTzq5+R4A2kJSu8++thJ33VONLTfPxdprZZq/AeDF+vp3R2PZE9ptAIBOk6wbnTyYie23yTXPAPBiPfV0PX5yRjG+f/poLF5iRCUA7ccKFQDa1s23V+NfPzUU3zltNJ40MArgRZt3QyXuurfaPAIAoNP85oJSI+QA4MUplyPOuagU//TRobhsZtl6UQDalgkcALS9Bx6sNT5Y1esR22yZi5yHjgBesFot4r++NWKXLwBAByuVx3/utpM9KgCr6up5lfjyN0bi2usrUbExBYA2l3nLez3SDEDnmDY1G295XV8cvF+heQaA5/K7K8rxw5+PNo8AAOhUfWMfg7906uTG52IAnt/d91XjJ78qNn4CQKcQcADQkZJJHO94U3/ssK1xHAB/zshovTEeNtnxCwBA5zvkgEK8/10DzSMAns2Sx2vxi7OLMXd+pTHRFwA6iYADgI42fY98vO31/bHxhp5AAvhTvzir2NjxCwBAd8hkIv7j3wdjqy08zADwp1YO1ePs80vxuytLVqUA0LEEHAB0vFw24shDC/GGE/pj7bUyzbMAve3xZbX4508M/e++dAAAusOO2+Xikx8ebB4BUB773HvxFaU4+4JSDA/7yguAzpbbdfpJJzffA0BHSkYh3rewFpfOKEdt7P3WW2QjnxdyAL3tBz8rxgMP1ZpHAAB0i8eX12PLzXImUQI9L7knOPuacnz5W6NxzXWVRsgBAJ3OBA4Aus6UtTPxptf0x+EHFSLrfhbQg+5bWI2PfWbYrl8AgC610QbZ+MIpkxsTKQF60S13VONnZxbj/gerzTMA0B1M4ACg64wWI667sRLXXl+J9dbNNm5sAfSSr313NB5fpt4AAOhWK4fqsdaamdh2q1zzDEBveOjhWnzrR6NxxjnFWPGkz70AdB8TOADoejvvkIu3v6E/ttrCjS2g+81fUIkvfWOkeQQAQLdac41MfOU/JsfgJCtEge73xIp6/OqcYsy4umzaJABdzQQOALre0mX1uHxWOR5eXIstN8/FGpPd3AK6U7Ua8eVvjjSeyAQAoLuVShG1WsTuO+ebZwC6z/BIPc46vxRf/+5I3PvA2D96ANDlTOAAoKfkchFHHVqI172qP6asJeQAussFl5biJ78qNo8AAOh2hXzEFz81OdafZnUo0F3K5YiLryjFOReWPKQAQE8RcADQkwb6M/GKYwpxwrF9MWlAyAF0vqdX1uOfPjYUw8Mu7wEAesl+e+fjg387qXkE0NmSyUIz55TjzHOLsWy5z7cA9B4BBwA9LdkZfOLxffHyI/oib+os0MF+8NPRuGRGuXkEAEAv+cS/DMZO2+eaRwCdaf6CSvzi7GI8/KhVKQD0LgEHAIyZNjUbb3xNXxx6QCEyBnIAHeahh2tx0qlDUXWPCwCgJ22xWTY++7HJPs8CHen2u6vx818X4+77qs0zANC7crtOP+nk5nsA6FnDI/VG5X/tDZVYd51sbLSh/cFA5/ifH4zG4iXqDQCAXvXkU/VYd2o2ttrcFA6gcyxcVItv/3g0fnl2MZY/4VljAEiYwAEAz2KHbXPx1tf1N34CtLMFN1fi818faR4BANCr1l4rE//16ckxacAYDqC9LXm8Fmf8thSzrylH3TdUAPBHTOAAgGexbHk9rpxdjnvvr8VmG+diytpugAHtJ1mZ8qVvjMTTK93xAgDodcViNL4I3W2nfPMMQHtZ8VQ9fnZmMb592mg88KApkgDwbEzgAIDnkewQ3n96Pt746v7Y2GoVoI1ceFkpTvtlsXkEAECvK+QjvvipybH+NJ9dgfaxcqgev72oFBdfXopSuXkSAHhWAg4AeIFy2YhDDijEG17dF9OmuhkGpCu5AfZPHx2KoWGX8wAA/N5+e+fjg387qXkEkJ6R0XpccEk5zr+k1HgPADw/AQcArKJ8PuLoQ/vixFf2xZS1rFYB0vH9n47GpTM8ugQAwP/1sQ8Nxi475ppHAK1VHvuoetHlpTj34pKVnwCwigQcAPAi9RUiXnF0X7zq2L5YY7KQA2idhQ/V4qRPDzV2nAMAwJ/adONsfP4TkyNreCTQQtVqxOWzynHWecVY8aQPrADwYuR2nX7Syc33AMAqqNYi7rynGpddVY5KJWKbLbKRzws5gIn31e+MxOPL3AwDAODZPfV0PdZcIxPbbmUKBzDxkocLrppbjq98azRmXVOO0WLzFwDAKjOBAwBWk+Tm2AnH9sVxR/VFodA8CbCaXT2vEl//7kjzCAAAnt3kwUx8+dTJsdaaHjQAJkYSbsydX2lM3Fj0aK15FgB4KQQcALCaTVk7E68+ri+OOUzIAaxexVI9PvSxoVi+wiU8AADP7+jDCvGetw80jwBWn/kLKnHGb4vx4CLhBgCsTgIOAJggSchx4vHjIUfO1FpgNfjlb4rxmwtKzSMAAHhumUzEZz46ObbcPNs8A/DSJOHGr88rxgMPCjcAYCIIOABggk2bmm2EHEccXBByAC/aksdr8S+fHIpyuXkCAABegB22zcXJHxlsHgG8ODfdWolf/qYU9y2sNs8AABNBwAEALZKEHK8/oS8OO7AQWQ8/AavoS98YaTzpBAAAq+r97x6IQ/a34xNYdUm4cea5pbj7PuEGALSCgAMAWmzD9bPx2lf2NW6eCTmAFyK5YfbZr440jwAAYNVMnZKJL506OQb6M80zAM/t9ruqjTWed94j3ACAVhJwAEBKkpDjja/pjwP3yTf2EgM8m0ol4sMnD8XiJfYLAwDw4p1wbF+87fX9zSOAZ5eEG2eeW4zb7hRuAEAaBBwAkLKNNsjGicebyAE8u99cUGo89QQAAC9FLhfx+U9Mjk028sET+L+EGwDQHgQcANAmrFYB/tTyJ+rxoY8PRbHkkh0AgJdulx1z8bEPDTaPAKIRbPz6POEGALQLAQcAtBkhB/CMr357JOZeV2keAQDAS/cP750UB+6bbx4BveqmWytx5rmluPs+4QYAtBMBBwC0qfWnZePVx/XFEQcXGqNugd5y8+3V+Mx/DTePAABg9Zg6JRNfOnVyDPRnmmeAXiLcAID2JuAAgDY3bWo2TjxeyAG9pFqN+MgpQ/HI4lrzDAAArD4nHNsXb3t9f/MI6AXX31SJ31wg3ACAdifgAIAOIeSA3vHbi0rx87OKzSMAAFi9ks+Un//E5NhkI3s7odvNX1CJX59XjAce9IAAAHQCAQcAdJh1pmQaT0sddWgh+vuMvIVus/yJenzoE0NRLLpMBwBg4uyyYy4+9qHB5hHQTepjHyevua4S51wk3ACATiPgAIAOteYamXjly/viZYcXYnCSkAO6xVe+PdK40QYAABPtH947KQ7cN988AjpdrRYx65pyY6rjw48KNwCgEwk4AKDDDQ5m4tgjC3H8MX2xxmQhB3SyBbdU4vNfG2keAQDAxJqydia+fOrkmDTgsyR0snIlYubV5fjNhaV4fJlwAwA6mYADALrEQH8mjj6sEK86ti+mrOXmG3SacjniX04eiiVL3WwDAKB1jj2qL/7qLf3NI6CTJKs3L51ZjvN+V4oVT/qqBwC6gYADALpMXyHisIMKceIr+mPdqUIO6BS/OqcYZ59fah4BAEBrZLMRn/73wdhq81zzDNDuhkfqcfHl5bjwslI8vdJXPADQTQQcANClctmIQw4oxGte0RcbbTB2ALStRxbX4t8+NdQYewsAAK22zVa5OPXfBiPjGQBoayuH6nHexaW4ZGY5hod9tQMA3UjAAQBdLrkBt//0fLz6uD5PVEGb+o8vD8ctd1SbRwAA0Hrv+ouBeNnhheYR0E6WLa/H+ZeU4rKZpSiVmycBgK4k4ACAHrL7zuMhxy47CjmgXcy+thz//b3R5hEAAKRjcDAT/3Xq5FhrTWM4oF0serQW515UanxurGr+AaAnCDgAoAcl43FffWxf7LtX3ohcSNHIaD0++LGheNIlOQAAbeCQ/Qvx/ncPNI+AtNx9XzXOubAU199UibqPiwDQUwQcANDDNt4wGycc2xeHHlCInKEc0HI//Plo/O4K828BAGgPSeD/0Q8Nxi47+IAIaVhwcyXOuagUd9xt3AYA9CoBBwAQU6dk4viX9cUxhxWiv99IDmiFex+oxsc/O+xpKgAA2koS+n/uE5OjkG+eACZUrRYxZ345fntRKR5cNHYAAPQ0AQcA8L8mD2bi2CML8Ypj+mKNyUIOmCjJDbqTPj3k5hwAAG3p9a/qize8ur95BEyEcjniilnlOO93pVi6zGdDAGCcgAMA+D/6ChFHHFKIVx7TF+uvl22eBVaXcy8uxc9+XWweAQBAe0mmbyRTOJJpHMDqtXKoHpdcWY6LLi/FU0/7egYA+GMCDgDgz0r2H++3dz5OOLYvttnSDmRYHZInqz78yeEollyGAwDQvnbcLhef/PBg8wh4qZYsrcX5l5ZixuyKz4MAwJ8l4AAAXpDk5l0Scuy1W74RdgAvzue+OhI33lppHgEAQPv6678ciCMPKTSPgBfjnvurjTUp115fibpvYwCA5yHgAABWSTJC91Uv74tDDyhEPt88Cbwgc+ZV4mvfHWkeAQBAe5s8mIkvnzo51lpTxQ+rIgk1rr+p0lifeec91eZZAIDnJ+AAAF6UKWtl4tij+uJlRxQaN/WA5zY8XI8PfWIonnT5DQBABzl4v0J84D0DzSPguZQrEVfNKcf5l5TikcW15lkAgBdOwAEAvCQD/Zk4/OBCvPJlhVhv3WzzLPCnvnf6aFw2s9w8AgCAznHSP06K3XcxghH+nJVD9bhkRjkuvrwk2gcAXhIBBwCwWuSyEfvulY/jX9YX222da54FEsnI3FO+MGzfMQAAHWn99bLxhZMnR1+heQJoePSxWlx4WSlmzqlEsegDHwDw0gk4AIDVbtutcvHKl/XFfnvnI2soBz2uUon4108NGZ8LAEBHSz7jvf2N/c0j6G233lmNCy4pxQ03V4T6AMBqJeAAACbMtHWzcdxRhTjq0EJMGsg0z0JvOeOcYpx1fql5BAAAnSmJ8z990mBstYWJi/SmajVi9rXlOP+SUjy4SKAPAEwMAQcAMOEG+jNxxMGFeMUxhVh/mpEc9I6HHq7FSZ8eatzoAwCATrfFptn4j49NbqzQhF7x9Mp6XDKjHL+7ohRP+joFAJhgAg4AoGUymYh998rH8cf0xQ7bemqL7paM0f3454bj3vvVGwAAdI83ndgfrz2+r3kE3WvRI7W44NJSzL6mHKVy8yQAwAQTcAAAqdh6i1wc/7JCHDC9EDktB13owktLcdqvis0jAADoDoVCxOc+Pjk23tAYDrrTjbdW4oJLy3HzbZVGmA8A0EoCDgAgVVPWzsTLj+iLow8rxFprZppnobMtXVaLD588HMWiS20AALrPjtvl4pMfHmweQedLPrvNnFOJiy4vxSOLa82zAACtJ+AAANpCIR9x4L6FOO7oQmy1uZEcdLbPfmUkbrqt0jwCAIDu8+6/GIhjDi80j6AzLVlai4uvKMeVs8sxPOKrEgAgfQIOAKDtbL9NLo47qi/2n56PrKm8dJiZc8rxzR+ONo8AAKA7TRrIxBc/NTmmTjFJkc6TrEe56Ipy3HCTNSkAQHsRcAAAbWvqOuPrVY46tBBrruGmIO3vybFL63/55FCsHHKJDQBA99trt3x85O8nNY+gvTXWpMytxMWXl+LhR61JAQDak4ADAGh7hULEwfsVGlM5ttjMSA7a15e/ORLzbrA6BQCA3vH+dw/EIftbpUL7siYFAOgkAg4AoKPsuF0ujj2yL/bdOx85LQdt5JrrKvGVb480jwAAoDesMTkTXzxlcqy9lqmJtJebbqs0wg1rUgCATiLgAAA60pS1M3H0YYU4+tC+WMfOZVL29Mrx1SlPPe3SGgCA3rPvXvn40N9ZpUL6hofrMePqcvzuynIsXmJNCgDQeQQcAEBHy+Ui9t0zHy8/si922n7sAFLwP98fjVnXlJtHAADQe/7pbybF/tPzzSNorYUPJWtSSnH1tZUolnzlAQB0LgEHANA1Nt04Gy8/oi8OPTAfA/2mctAa8xdU4kvfsDoFAIDettaa46tU1lzDZzFao1KJmHtdOX53RTnuvq/aPAsA0NkEHABA15k0kGlEHEnMsclG2eZZWP2GR+rxz58YihVPuqQGAICD9ivE379noHkEE+Px5bW4dEY5rphVtsYSAOg6Ag4AoGtlMhE7b59rrFeZvmc+cloOVrNv/Wi0sV8ZAAAY98/vmxT7jH3+gtWpXo+4+fZKXHJlOa6/qRK1WvMXAABdRsABAPSEKWtn4qhDCnHkoYWYNlXJwUu34OZKfP7rVqcAAMAfmrJWJr5wyuRYY7JVKrx0yYSNJJq/bGY5Hluq2gAAup+AAwDoKclUjr12z8fRhxZir93yjWNYVcnqlA9/ciiWr3ApDQAAf+qQ/Qvx/ndbpcKLd/td1bh0RimuvaESlUrzJABADxBwAAA9K5nEcdShhTjykEJjQge8UFanAADAc7NKhVU1NPz7aRuPLDZtAwDoTQIOAKDn5bIR0/fMxzGHFWLXnUzl4LlZnQIAAM9v7WSVysmTY801fMDiud15T7URbcy9rhxlnTwA0OMEHAAAf2CD9bJx9GGFOPygQqy1phuN/LGVQ+OrU1a4hAYAgOd1wPR8/OPfTGoewe8laymvmjs+beOhh03bAAB4hoADAOBZ5PPRGPd79GF9scsOOVM5aPif74/GrGs8EgYAAC/UP/3NpNh/ulUqjLvr3mpcMascc+ZVoljy1QQAwJ8ScAAAPI/118vGEQcX4six15S1lRy9av6CSnzpG1anAADAqlhjcia+eMrkxkoVelMyyXDG1eW4clY5Fj1q2gYAwHMRcAAAvEC5bMQeu+Xj6EMLseeu+ciOHdMbnl5Zj3/55FA89bRLZwAAWFXJdMN/fp9VKr2kPvbR6ZbbK3H5rHIjhq9Umr8AAOA5CTgAAF6EdaZk4oiDCnHEIYVYf5qSo9t99dsjMfc6dxwBAODF+sB7BuLg/QrNI7rV8hX1mDG73FiTsnSZaRsAAKtKwAEA8BJkMhG77JCLow/razxVlrfauesku5m/9l2rUwAA4KUYHMzEF0+e3Ijh6S7VWsQNN1Ua0caCWypR020AALxoAg4AgNVkzTUycegBhTji4EJstompHN3giRX1+MgpQ42dzQAAwEuz+y75OOkfrVLpFo8srsXMq8sxY+y1wtcMAACrhYADAGACbLVFrrFi5ZD9840nzehMn//aSOMJMgAAYPV419sG4mVHWKXSqUZG6zF3fiWunF2Ou+6tNs8CALC6CDgAACZQIR+x7175OPygQuy2c76xcoXOcNnMcnzv9NHmEQAAsDr092Xic58YjA3XN7WwU9TrEbfdVY0Zs8tx7fWVKJZ8pQAAMFEEHAAALTJ1nUwj5EheG6znZmU7e2xpLf7tU8MxWnSpDAAAq9t2W+fi5I8MRtbHorb2+LJazLi6EjPnlGPJ47XmWQAAJpKAAwCgxZIpHDtum4sjDinE/nvno7/fWI52kjxddvJ/DhsHDAAAE+hNr+mP176yr3lEuyiVI669vtxYkXLbndXG5yMAAFpHwAEAkKJJA5nYf3o+DjuwEDttn2ueJU3nXFSKX5xVbB4BAAATITf28efTJ02OLTc3hqMd3HlPtTFpY868SoyM+soAACAtAg4AgDax3rrZOPSAfBx6YME+6JQsXFSLj39mKMqV5gkAAGDCbLpRNj7z8clRyDdP0FLJ6shZcysxc245loy9BwAgfQIOAIA2tP02uTj0gEIctG8+BgetWGmFSiXio58ZigcXuXEJAACt8sqX9cXb39jfPGKiDY/UY+78SmPaRrI20ooUAID2IuAAAGhjyZNoe++Rj8MOKMQeu+UjZzDHhDn9jGKcf0mpeQQAALRCJhPx0Q8Oxi47Wik5Uaq1iBtvqcRVc8tx3YKKiYMAAG1MwAEA0CHWWjMTB+9XiEMPzMdWm7u5uTrdekc1/uO/hj19BgAAKZg6JRP/efLkmGz64Gp1/4PVuGpOJWZfW46nnvZhBwCgEwg4AAA60KYbZ+OQAwpx8H75mDbVWI6XYmi4Hh85ZSiWP+GyGAAA0nLA9Hz8499Mah7xYj2+vBazr63ErLnlWPSI9ZAAAJ1GwAEA0MGSccM7bpuLg/cvxAH75D2x9iJ87bsjMWeeGcIAAJC2v3vnQBx2YKF5xAu1cqge11w3viLlrnurJgsCAHQwAQcAQJfI5yP23DXfiDmm756Pgvuezyu5wfmNH4w2jwAAgDRNGsjE5z4xGOtPM2Xw+ZTLEfMXVGLWteW48ZZKVKvNXwAA0NEEHAAAXWhwUib23Ws85th1x1xjUgd/7PFltfjIKcMxMupyGAAA2sX22+Ti5I8M+gzzLJLJGjffVmmsSLn2+kqMFn2WAQDoNgIOAIAut86UTBy0byEO3j8fW22ea57tbcmNz1O+MBx33uMxNQAAaDdvek1/vPaVfc0j7r2/GrOuqcSc+eV40u18AICuJuAAAOghG2+YjQP3ycdB+xUa73vVOReW4hdnF5tHAABAO8mNfVQ55d8GY5stezdAf+jhWsyZV46r51XisaW15lkAALqdgAMAoEdtvmk2Dt6vEAfsk++pHdP3PlCNT35+2I5oAABoYxuun43PfnwwBvp7Z5fKo4/VYu78Slx9bTkWPSraAADoRQIOAIAel+yW3narXGMyx4H7FmLK2t17gzTZEX3SqcOxeImboQAA0O4OO7AQf/fOgeZRd1q2vB6zry3H3Osqcf9ClTkAQK8TcAAA8L+SmGPH7XKNyRz77Z2PNdforpjjmz8cjZlzys0jAACg3f39ewYaKyC7yYon63HNdeWYfW0l7rm/GnV36AEAaBJwAADwrHK5iF13zDdWrOy7Vz4mD3Z2zJGMIf7690abRwAAQCcYnJRprFLp9LWPTz1dj3k3VGLOvHLcdpdoAwCAZyfgAADgeXV6zLF0WS3+7VPDMTzi0hcAADrNdlvn4uSPDEa2wxqOZ6KNufPHo42aTY4AADwPAQcAAKuk02KO5CbpKV8YjrvutU8aAAA61Wtf2Rdvek1/86h9NdajXF+OeddX4va7RRsAAKwaAQcAAC9aJ8QcZ5xTjLPOLzWPAACATpRM3/jYPw/GTtuNfQhpM89EG3PnV+LOe6xHAQDgxRNwAACwWrRjzJHcPP3UF4c99QYAAF1g6jqZ+M9PTm6LzxqiDQAAJoKAAwCA1S6JOXbePhf77V2IffbMx5S1W3+DdWi4Hv/6qaFYttzlLgAAdIv99s7HB/92UvOotZYsrcW1N1Ti2usrcc/9og0AAFY/AQcAABMqk4nYfptcYypH8lp/Wrb5m4n15W+OxLwbKs0jAACgW7zzrQPx8iMLzaOJ9dDDtUawce0N5XhwkdF+AABMLAEHAAAtteXm2dhvr0Ij5th044mJOX53RTl++PPR5hEAANBNCoWIU0+aHFtsuvo/TyRTNZLpGkkMnoQbjy0VbQAA0DoCDgAAUrPxhtnYd8987Dc9H1tvkWuefWkWLqrFxz8zFGXDNwAAoGslnyU+89HB6O9/6esaq7WI2++qxrXXlWP+jZV4YoVb5gAApEPAAQBAW5g2NRv77JmPffbKx47b5SL3Ih6mKxbrcdKnh+PRxzwlBwAA3e6wAwvxd+8caB6tmuSzw023VWP+gkpcf1MlVg65TQ4AQPoEHAAAtJ3Jg5nYa7d8I+jYY9dcDLzAp+q++cPRmDmn3DwCAAC6XRJwJCHHC7HiqXpcf2OlEW3cckclyj46AADQZgQcAAC0tUI+Ypcd8zF9j/HXOlOePea4am45vvGD0eYRAADQC5LY+z8+OthYqfJsFj1ai+sWjEcb9z5Qjbq74QAAtDEBBwAAHSOTidh6y1zss8f4dI5NNx6/SZusTPn3Tw/HaNGlLQAA9JotNsvGqSdNbsTfSaBxx93jq1Guu7ESjy21XhEAgM4h4AAAoGOtv162EXPcekclFi5yYxYAAHrV/tPz0d+XietvqsTKIbe8AQDoTAIOAAAAAAAAAICUPftiQAAAAAAAAAAAWkbAAQAAAAAAAACQMgEHAAAAAAAAAEDKBBwAAAAAAAAAACkTcAAAAAAAAAAApEzAAQAAAAAAAACQMgEHAAAAAAAAAEDKBBwAAAAAAAAAACkTcAAAAAAAAAAApEzAAQAAAAAAAACQMgEHAAAAAAAAAEDKBBwAAAAAAAAAACkTcAAAAAAAAAAApEzAAQAAAAAAAACQMgEHAAAAAAAAAEDKBBwAAAAAAAAAACkTcAAAAAAAAAAApEzAAQAAAAAAAACQMgEHAAAAAAAAAEDKBBwAAAAAAAAAACkTcAAAAAAAAAAApEzAAQAAAAAAAACQMgEHAAAAAAAAAEDKBBwAAAAAAAAAACkTcAAAAAAAAAAApEzAAQAAAAAAAACQMgEHAAAAAAAAAEDKBBwAAAAAAAAAACkTcAAAAAAAAAAApEzAAQAAAAAAAACQMgEHAAAAAAAAAEDKBBwAAAAAAAAAACkTcAAAAAAAAAAApEzAAQAAAAAAAACQMgEHAAAAAAAAAEDKBBwAAAAAAAAAACkTcAAAAAAAAAAApEzAAQAAAAAAAACQMgEHAAAAAAAAAEDKBBwAAAAAAAAAACkTcAAAAAAAAAAApEzAAQAAAAAAAACQMgEHAAAAAAAAAEDKBBwAAAAAAAAAACkTcAAAAAAAAAAApEzAAQAAAAAAAACQMgEHAAAAAAAAAEDKBBwAAAAAAAAAACkTcAAAAAAAAAAApEzAAQAAAAAAAACQMgEHAAAAAAAAAEDKBBwAAAAAAAAAACkTcAAAAAAAAAAApEzAAQAAAAAAAACQMgEHAAAAAAAAAEDKBBwAAAAAAAAAACkTcAAAAAAAAAAApEzAAQAAAAAAAACQMgEHAAAAAAAAAEDKBBwAAAAAAAAAACkTcAAAAAAAAAAApEzAAQAAAAAAAACQMgEHAAAAAAAAAEDKBBwAAAAAAAAAACkTcAAAAAAAAAAApEzAAQAAAAAAAACQMgEHAAAAAAAAAEDKBBwAAAAAAAAAACkTcAAAAAAAAAAApEzAAQAAAAAAAACQMgEHAAAAAAAAAEDKBBwAAAAAAAAAACkTcAAAAAAAAAAApEzAAQAAAAAAAACQMgEHAAAAAAAAAEDKBBwAAAAAAAAAACkTcAAAAAAAAAAApEzAAQAAAAAAAACQMgEHAAAAAAAAAEDKBBwAAAAAAAAAACkTcAAAAAAAAAAApEzAAQAAAAAAAACQMgEHAAAAAAAAAEDKBBwAAAAAAAAAACkTcAAAAAAAAAAApEzAAQAAAAAAAACQMgEHAAAAAAAAAEDKBBwAAAAAAAAAACkTcAAAAAAAAAAApEzAAQAAAAAAAACQMgEHAAAAAAAAAEDKBBwAAAAAAAAAACkTcAAAAAAAAAAApEzAAQAAAAAAAACQMgEHAB2KdpYAABCASURBVAAAAAAAAEDKBBwAAAAAAAAAACkTcAAAAAAAAAAApEzAAQAAAAAAAACQMgEHAAAAAAAAAEDKBBwAAAAAAAAAACkTcAAAAAAAAAAApEzAAQAAAAAAAACQMgEHAAAAAAAAAEDKBBwAAAAAAAAAACkTcAAAAAAAAAAApEzAAQAAAAAAAACQMgEHAAAAAAAAAEDKBBwAAAAAAAAAACkTcAAAAAAAAAAApEzAAQAAAAAAAACQMgEHAAAAAAAAAEDKBBwAAAAAAAAAACkTcAAAAAAAAAAApEzAAQAAAAAAAACQMgEHAAAAAAAAAEDKBBwAAAAAAAAAACkTcAAAAAAAAAAApEzAAQAAAAAAAACQMgEHAAAAAAAAAEDKBBwAAAAAAAAAACkTcAAAAAAAAAAApEzAAQAAAAAAAACQMgEHAAAAAAAAAEDKBBwAAAAAAAAAACkTcAAAAAAAAAAApEzAAQAAAAAAAACQMgEHAAAAAAAAAEDKBBwAAAAAAAAAACkTcAAAAAAAAAAApEzAAQAAAAAAAACQMgEHAAAAAAAAAEDKBBwAAAAAAAAAACkTcAAAAAAAAAAApEzAAQAAAAAAAACQMgEHAAAAAAAAAEDKBBwAAAAAAAAAACkTcAAAAAAAAAAApEzAAQAAAAAAAACQMgEHAAAAAAAAAEDKBBwAAAAAAAAAACkTcAAAAAAAAAAApEzAAQAAAAAAAACQMgEHAAAAAAAAAEDKBBwAAAAAAAAAACkTcAAAAAAAAAAApEzAAQAAAAAAAACQMgEHAAAAAAAAAEDKBBwAAAAAAAAAACkTcAAAAAAAAAAApEzAAQAAAAAAAACQMgEHAAAAAAAAAEDKBBwAAAAAAAAAACkTcAAAAAAAAAAApEzAAQAAAAAAAACQMgEHAAAAAAAAAEDKBBwAAAAAAAAAACkTcAAAAAAAAAAApEzAAQAAAAAAAACQMgEHAAAAAAAAAEDKBBwAAAAAAAAAACkTcAAAAAAAAAAApEzAAQAAAAAAAACQMgEHAAAAAAAAAEDKBBwAAAAAAAAAACkTcAAAAAAAAAAApEzAAQAAAAAAAACQMgEHAAAAAAAAAEDKBBwAAAAAAAAAACkTcAAAAAAAAAAApEzAAQAAAAAAAACQMgEHAAAAAAAAAEDKBBwAAAAAAAAAACkTcAAAAAAAAAAApEzAAQAAAAAAAACQMgEHAAAAAAAAAEDKBBwAAAAAAAAAACkTcAAAAAAAAAAApEzAAQAAAAAAAACQMgEHAAAAAAAAAEDKBBwAAAAAAAAAACkTcAAAAAAAAAAApEzAAQAAAAAAAACQMgEHAAAAAAAAAEDKBBwAAAAAAAAAACkTcAAAAAAAAAAApEzAAQAAAAAAAACQMgEHAAAAAAAAAEDKBBwAAAAAAAAAACkTcAAAAAAAAAAApEzAAQAAAAAAAACQMgEHAAAAAAAAAEDKBBwAAAAAAAAAACkTcAAAAAAAAAAApEzAAQAAAAAAAACQMgEHAAAAAAAAAEDKBBwAAAAAAAAAACkTcAAAAAAAAAAApEzAAQAAAAAAAACQMgEHAAAAAAAAAEDKBBwAAAAAAAAAACkTcAAAAAAAAAAApEzAAQAAAAAAAACQMgEHAAAAAAAAAEDKBBwAAAAAAAAAACkTcAAAAAAAAAAApEzAAQAAAAAAAACQMgEHAAAAAAAAAEDKBBwAAAAAAAAAACkTcAAAAAAAAAAApEzAAQAAAAAAAACQMgEHAAAAAAAAAEDKBBwAAAAAAAAAACkTcAAAAAAAAAAApEzAAQAAAAAAAACQMgEHAAAAAAAAAEDKBBwAAAAAAAAAACkTcAAAAAAAAAAApEzAAQAAAAAAAACQMgEHAAAAAAAAAEDKBBwAAAAAAAAAACkTcAAAAAAAAAAApEzAAQAAAAAAAACQMgEHAAAAAAAAAEDKBBwAAAAAAAAAACkTcAAAAAAAAAAApEzAAQAAAAAAAACQMgEHAAAAAAAAAEDKBBwAAAAAAAAAACkTcAAAAAAAAAAApEzAAQAAAAAAAACQMgEHAAAAAAAAAEDKBBwAAAAAAAAAACkTcAAAAAAAAAAApEzAAQAAAAAAAACQMgEHAAAAAAAAAEDKBBwAAAAAAAAAACkTcAAAAAAAAAAApEzAAQAAAAAAAACQMgEHAAAAAAAAAEDKBBwAAAAAAAAAACkTcAAAAAAAAAAApEzAAQAAAAAAAACQMgEHAAAAAAAAAEDKBBwAAAAAAAAAACkTcAAAAAAAAAAApEzAAQAAAAAAAACQMgEHAAAAAAAAAEDKBBwAAAAAAAAAACkTcAAAAAAAAAAApEzAAQAAAAAAAACQMgEHAAAAAAAAAEDKBBwAAAAAAAAAACkTcAAAAAAAAAAApEzAAQAAAAAAAACQMgEHAAAAAAAAAEDKBBwAAAAAAAAAACkTcAAAAAAAAAAApEzAAQAAAAAAAACQMgEHAAAAAAAAAEDKBBwAAAAAAAAAACkTcAAAAAAAAAAApEzAAQAAAAAAAACQMgEHAAAAAAAAAEDKBBwAAAAAAAAAACkTcAAAAAAAAAAApEzAAQAAAAAAAACQMgEHAAAAAAAAAEDKBBwAAAAAAAAAACkTcAAAAAAAAAAApEzAAQAAAAAAAACQMgEHAAAAAAAAAEDKBBwAAAAAAAAAACkTcAAAAAAAAAAApEzAAQAAAAAAAACQMgEHAAAAAAAAAEDKBBwAAAAAAAAAACkTcAAAAAAAAAAApEzAAQAAAAAAAACQMgEHAAAAAAAAAEDKBBwAAAAAAAAAACkTcAAAAAAAAAAApEzAAQAAAAAAAACQMgEHAAAAAAAAAEDKBBwAAAAAAAAAACkTcAAAAAAAAAAApEzAAQAAAAAAAACQMgEHAAAAAAAAAEDKBBwAAAAAAAAAACkTcAAAAAAAAAAApEzAAQAAAAAAAACQMgEHAAAAAAAAAEDKBBwAAAAAAAAAACkTcAAAAAAAAAAApEzAAQAAAAAAAACQMgEHAAAAAAAAAEDKBBwAAAAAAAAAACkTcAAAAAAAAAAApEzAAQAAAAAAAACQMgEHAAAAAAAAAEDKBBwAAAAAAAAAACkTcAAAAAAAAAAApEzAAQAAAAAAAACQMgEHAAAAAAAAAEDKBBwAAAAAAAAAACkTcAAAAAAAAAAApEzAAQAAAAAAAACQMgEHAAAAAAAAAEDKBBwAAAAAAAAAACkTcAAAAAAAAAAApEzAAQAAAAAAAACQMgEHAAAAAAAAAEDKBBwAAAAAAAAAACkTcAAAAAAAAAAApEzAAQAAAAAAAACQMgEHAAAAAAAAAEDKBBwAAAAAAAAAACkTcAAAAAAAAAAApEzAAQAAAAAAAACQMgEHAAAAAAAAAEDKBBwAAAAAAAAAACkTcAAAAAAAAAAApEzAAQAAAAAAAACQMgEHAAAAAAAAAEDKBBwAAAAAAAAAACkTcAAAAAAAAAAApEzAAQAAAAAAAACQMgEHAAAAAAAAAEDKBBwAAAAAAAAAACkTcAAAAAAAAAAApEzAAQAAAAAAAACQMgEHAAAAAAAAAEDKBBwAAAAAAAAAACkTcAAAAAAAAAAApEzAAQAAAAAAAACQMgEHAAAAAAAAAEDKBBwAAAAAAAAAACkTcAAAAAAAAAAApEzAAQAAAAAAAACQMgEHAAAAAAAAAEDKBBwAAAAAAAAAACkTcAAAAAAAAAAApEzAAQAAAAAAAACQMgEHAAAAAAAAAEDKBBwA8P/btWMCAAAAhEH2T22MPZADAAAAAAAAiAkcAAAAAAAAAAAxgQMAAAAAAAAAICZwAAAAAAAAAADEBA4AAAAAAAAAgJjAAQAAAAAAAAAQEzgAAAAAAAAAAGICBwAAAAAAAABATOAAAAAAAAAAAIgJHAAAAAAAAAAAMYEDAAAAAAAAACAmcAAAAAAAAAAAxAQOAAAAAAAAAICYwAEAAAAAAAAAEBM4AAAAAAAAAABiAgcAAAAAAAAAQEzgAAAAAAAAAACICRwAAAAAAAAAADGBAwAAAAAAAAAgJnAAAAAAAAAAAMQEDgAAAAAAAACAmMABAAAAAAAAABATOAAAAAAAAAAAYgIHAAAAAAAAAEBM4AAAAAAAAAAAiAkcAAAAAAAAAAAxgQMAAAAAAAAAICZwAAAAAAAAAADEBA4AAAAAAAAAgJjAAQAAAAAAAAAQEzgAAAAAAAAAAGICBwAAAAAAAABATOAAAAAAAAAAAIgJHAAAAAAAAAAAMYEDAAAAAAAAACAmcAAAAAAAAAAAxAQOAAAAAAAAAICYwAEAAAAAAAAAEBM4AAAAAAAAAABiAgcAAAAAAAAAQEzgAAAAAAAAAACICRwAAAAAAAAAADGBAwAAAAAAAAAgJnAAAAAAAAAAAMQEDgAAAAAAAACAmMABAAAAAAAAABATOAAAAAAAAAAAYgIHAAAAAAAAAEBM4AAAAAAAAAAAiAkcAAAAAAAAAAAxgQMAAAAAAAAAICZwAAAAAAAAAADEBA4AAAAAAAAAgJjAAQAAAAAAAAAQEzgAAAAAAAAAAGICBwAAAAAAAABATOAAAAAAAAAAAIgJHAAAAAAAAAAAMYEDAAAAAAAAACAmcAAAAAAAAAAAxAQOAAAAAAAAAICYwAEAAAAAAAAAEBM4AAAAAAAAAABiAgcAAAAAAAAAQEzgAAAAAAAAAACICRwAAAAAAAAAADGBAwAAAAAAAAAgJnAAAAAAAAAAAMQEDgAAAAAAAACAmMABAAAAAAAAABATOAAAAAAAAAAAYgIHAAAAAAAAAEBM4AAAAAAAAAAAiAkcAAAAAAAAAAAxgQMAAAAAAAAAICZwAAAAAAAAAADEBA4AAAAAAAAAgJjAAQAAAAAAAAAQEzgAAAAAAAAAAGICBwAAAAAAAABATOAAAAAAAAAAAIgJHAAAAAAAAAAAMYEDAAAAAAAAACAmcAAAAAAAAAAAxAQOAAAAAAAAAICYwAEAAAAAAAAAEBM4AAAAAAAAAABiAgcAAAAAAAAAQEzgAAAAAAAAAACICRwAAAAAAAAAADGBAwAAAAAAAAAgJnAAAAAAAAAAAMQEDgAAAAAAAACAmMABAAAAAAAAABATOAAAAAAAAAAAYgIHAAAAAAAAAEBM4AAAAAAAAAAAiAkcAAAAAAAAAAAxgQMAAAAAAAAAICZwAAAAAAAAAADEBA4AAAAAAAAAgJjAAQAAAAAAAAAQEzgAAAAAAAAAAGICBwAAAAAAAABATOAAAAAAAAAAAIgJHAAAAAAAAAAAMYEDAAAAAAAAACAmcAAAAAAAAAAAxAQOAAAAAAAAAICYwAEAAAAAAAAAEBM4AAAAAAAAAABiAgcAAAAAAAAAQEzgAAAAAAAAAACICRwAAAAAAAAAADGBAwAAAAAAAAAgJnAAAAAAAAAAAMQEDgAAAAAAAACAmMABAAAAAAAAABATOAAAAAAAAAAAYgIHAAAAAAAAAEBM4AAAAAAAAAAAiAkcAAAAAAAAAAAxgQMAAAAAAAAAICZwAAAAAAAAAADEBA4AAAAAAAAAgJjAAQAAAAAAAAAQEzgAAAAAAAAAAGICBwAAAAAAAABATOAAAAAAAAAAAIgJHAAAAAAAAAAAMYEDAAAAAAAAACAmcAAAAAAAAAAApLYDZqhR8rClkREAAAAASUVORK5CYII=;fontStyle=1;fontSize=20;" parent="1" vertex="1">
          <mxGeometry x="330.00137926196163" y="1689.9947763864043" width="149.18296618493056" height="149.18296618493056" as="geometry" />
        </mxCell>
        <mxCell id="beyWk9RbX9cDXpkhxu_A-69" style="edgeStyle=orthogonalEdgeStyle;rounded=0;orthogonalLoop=1;jettySize=auto;html=1;strokeWidth=3;fillColor=#f8cecc;strokeColor=#FF2B5D;" parent="1" source="beyWk9RbX9cDXpkhxu_A-61" target="beyWk9RbX9cDXpkhxu_A-67" edge="1">
          <mxGeometry relative="1" as="geometry" />
        </mxCell>
        <mxCell id="beyWk9RbX9cDXpkhxu_A-61" value="&lt;b&gt;&lt;font style=&quot;font-size: 20px;&quot;&gt;hosts File&lt;/font&gt;&lt;/b&gt;" style="image;aspect=fixed;html=1;points=[];align=center;fontSize=12;image=img/lib/azure2/general/File.svg;" parent="1" vertex="1">
          <mxGeometry x="342.79" y="1967.6999999999998" width="123.61" height="152.3" as="geometry" />
        </mxCell>
        <mxCell id="beyWk9RbX9cDXpkhxu_A-67" value="Windows Directory " style="shape=image;verticalLabelPosition=bottom;labelBackgroundColor=default;verticalAlign=top;aspect=fixed;imageAspect=0;image=https://winaero.com/blog/wp-content/uploads/2018/11/folder-icon-big-256.png;fontStyle=1;fontSize=20;" parent="1" vertex="1">
          <mxGeometry x="635.6" y="1811" width="210" height="210" as="geometry" />
        </mxCell>
        <mxCell id="beyWk9RbX9cDXpkhxu_A-75" value="" style="endArrow=classic;html=1;rounded=0;strokeWidth=3;strokeColor=#FF2B5D;" parent="1" edge="1">
          <mxGeometry width="50" height="50" relative="1" as="geometry">
            <mxPoint x="736" y="2059" as="sourcePoint" />
            <mxPoint x="296" y="2229" as="targetPoint" />
            <Array as="points">
              <mxPoint x="736" y="2229" />
              <mxPoint x="516" y="2229" />
            </Array>
          </mxGeometry>
        </mxCell>
        <mxCell id="Rs6iVt6dE6o_c42k3rnb-1" value="&lt;font color=&quot;#ff2b5d&quot;&gt;&lt;span style=&quot;font-size: 19px;&quot;&gt;&lt;b&gt;Replace The Hosts File&lt;/b&gt;&lt;/span&gt;&lt;/font&gt;" style="text;html=1;align=center;verticalAlign=middle;resizable=0;points=[];autosize=1;strokeColor=none;fillColor=none;" vertex="1" parent="1">
          <mxGeometry x="631.0041770731024" y="1771" width="230" height="40" as="geometry" />
        </mxCell>
        <mxCell id="Rs6iVt6dE6o_c42k3rnb-2" value="&lt;font color=&quot;#ff2b5d&quot;&gt;&lt;span style=&quot;font-size: 19px;&quot;&gt;&lt;b&gt;Request P18.bat Run As&amp;nbsp;&lt;/b&gt;&lt;/span&gt;&lt;/font&gt;&lt;div&gt;&lt;font color=&quot;#ff2b5d&quot;&gt;&lt;span style=&quot;font-size: 19px;&quot;&gt;&lt;b&gt;Administrator&lt;/b&gt;&lt;/span&gt;&lt;/font&gt;&lt;/div&gt;" style="text;html=1;align=center;verticalAlign=middle;resizable=0;points=[];autosize=1;strokeColor=none;fillColor=none;" vertex="1" parent="1">
          <mxGeometry x="-180.85582292689764" y="2200" width="250" height="60" as="geometry" />
        </mxCell>
        <mxCell id="Rs6iVt6dE6o_c42k3rnb-4" value="" style="shape=image;html=1;verticalAlign=top;verticalLabelPosition=bottom;labelBackgroundColor=#ffffff;imageAspect=0;aspect=fixed;image=https://cdn4.iconfinder.com/data/icons/essential-app-2/16/record-round-circle-dot-128.png" vertex="1" parent="1">
          <mxGeometry x="-124.67538094569935" y="1811.3833452593917" width="29.541181422758527" height="29.541181422758527" as="geometry" />
        </mxCell>
        <mxCell id="Rs6iVt6dE6o_c42k3rnb-5" value="&lt;font color=&quot;#ffffff&quot;&gt;&lt;span style=&quot;font-size: 13px;&quot;&gt;&lt;b&gt;1&lt;/b&gt;&lt;/span&gt;&lt;/font&gt;" style="text;html=1;align=center;verticalAlign=middle;resizable=0;points=[];autosize=1;strokeColor=none;fillColor=none;" vertex="1" parent="1">
          <mxGeometry x="-126.5377353725269" y="1810.9980143112698" width="30" height="30" as="geometry" />
        </mxCell>
        <mxCell id="Rs6iVt6dE6o_c42k3rnb-6" value="" style="shape=image;html=1;verticalAlign=top;verticalLabelPosition=bottom;labelBackgroundColor=#ffffff;imageAspect=0;aspect=fixed;image=https://cdn4.iconfinder.com/data/icons/essential-app-2/16/record-round-circle-dot-128.png" vertex="1" parent="1">
          <mxGeometry x="141.95461905430065" y="2049.3833452593917" width="29.541181422758527" height="29.541181422758527" as="geometry" />
        </mxCell>
        <mxCell id="Rs6iVt6dE6o_c42k3rnb-7" value="&lt;font color=&quot;#ffffff&quot;&gt;&lt;span style=&quot;font-size: 13px;&quot;&gt;&lt;b&gt;2&lt;/b&gt;&lt;/span&gt;&lt;/font&gt;" style="text;html=1;align=center;verticalAlign=middle;resizable=0;points=[];autosize=1;strokeColor=none;fillColor=none;" vertex="1" parent="1">
          <mxGeometry x="140.0922646274731" y="2048.99801431127" width="30" height="30" as="geometry" />
        </mxCell>
        <mxCell id="Rs6iVt6dE6o_c42k3rnb-8" value="" style="shape=image;html=1;verticalAlign=top;verticalLabelPosition=bottom;labelBackgroundColor=#ffffff;imageAspect=0;aspect=fixed;image=https://cdn4.iconfinder.com/data/icons/essential-app-2/16/record-round-circle-dot-128.png" vertex="1" parent="1">
          <mxGeometry x="-98.13538094569935" y="2110.3833452593917" width="29.541181422758527" height="29.541181422758527" as="geometry" />
        </mxCell>
        <mxCell id="Rs6iVt6dE6o_c42k3rnb-9" value="&lt;font color=&quot;#ffffff&quot;&gt;&lt;span style=&quot;font-size: 13px;&quot;&gt;&lt;b&gt;3&lt;/b&gt;&lt;/span&gt;&lt;/font&gt;" style="text;html=1;align=center;verticalAlign=middle;resizable=0;points=[];autosize=1;strokeColor=none;fillColor=none;" vertex="1" parent="1">
          <mxGeometry x="-99.9977353725269" y="2109.99801431127" width="30" height="30" as="geometry" />
        </mxCell>
        <mxCell id="Rs6iVt6dE6o_c42k3rnb-12" value="" style="shape=image;html=1;verticalAlign=top;verticalLabelPosition=bottom;labelBackgroundColor=#ffffff;imageAspect=0;aspect=fixed;image=https://cdn4.iconfinder.com/data/icons/essential-app-2/16/record-round-circle-dot-128.png" vertex="1" parent="1">
          <mxGeometry x="386.8646190543006" y="1641.3833452593917" width="29.541181422758527" height="29.541181422758527" as="geometry" />
        </mxCell>
        <mxCell id="Rs6iVt6dE6o_c42k3rnb-13" value="&lt;font color=&quot;#ffffff&quot;&gt;&lt;span style=&quot;font-size: 13px;&quot;&gt;&lt;b&gt;5&lt;/b&gt;&lt;/span&gt;&lt;/font&gt;" style="text;html=1;align=center;verticalAlign=middle;resizable=0;points=[];autosize=1;strokeColor=none;fillColor=none;" vertex="1" parent="1">
          <mxGeometry x="385.00226462747304" y="1640.9980143112698" width="30" height="30" as="geometry" />
        </mxCell>
        <mxCell id="Rs6iVt6dE6o_c42k3rnb-14" value="" style="shape=image;html=1;verticalAlign=top;verticalLabelPosition=bottom;labelBackgroundColor=#ffffff;imageAspect=0;aspect=fixed;image=https://cdn4.iconfinder.com/data/icons/essential-app-2/16/record-round-circle-dot-128.png" vertex="1" parent="1">
          <mxGeometry x="483.18461905430064" y="2080.3833452593917" width="29.541181422758527" height="29.541181422758527" as="geometry" />
        </mxCell>
        <mxCell id="Rs6iVt6dE6o_c42k3rnb-15" value="&lt;font color=&quot;#ffffff&quot;&gt;&lt;span style=&quot;font-size: 13px;&quot;&gt;&lt;b&gt;6&lt;/b&gt;&lt;/span&gt;&lt;/font&gt;" style="text;html=1;align=center;verticalAlign=middle;resizable=0;points=[];autosize=1;strokeColor=none;fillColor=none;" vertex="1" parent="1">
          <mxGeometry x="481.3222646274731" y="2079.99801431127" width="30" height="30" as="geometry" />
        </mxCell>
        <mxCell id="Rs6iVt6dE6o_c42k3rnb-16" value="" style="shape=image;html=1;verticalAlign=top;verticalLabelPosition=bottom;labelBackgroundColor=#ffffff;imageAspect=0;aspect=fixed;image=https://cdn4.iconfinder.com/data/icons/essential-app-2/16/record-round-circle-dot-128.png" vertex="1" parent="1">
          <mxGeometry x="803.4646190543007" y="1859.5733452593918" width="29.541181422758527" height="29.541181422758527" as="geometry" />
        </mxCell>
        <mxCell id="Rs6iVt6dE6o_c42k3rnb-17" value="&lt;font color=&quot;#ffffff&quot;&gt;&lt;span style=&quot;font-size: 13px;&quot;&gt;&lt;b&gt;7&lt;/b&gt;&lt;/span&gt;&lt;/font&gt;" style="text;html=1;align=center;verticalAlign=middle;resizable=0;points=[];autosize=1;strokeColor=none;fillColor=none;" vertex="1" parent="1">
          <mxGeometry x="801.6022646274731" y="1859.1880143112699" width="30" height="30" as="geometry" />
        </mxCell>
        <mxCell id="Rs6iVt6dE6o_c42k3rnb-18" value="" style="shape=image;html=1;verticalAlign=top;verticalLabelPosition=bottom;labelBackgroundColor=#ffffff;imageAspect=0;aspect=fixed;image=https://cdn4.iconfinder.com/data/icons/essential-app-2/16/record-round-circle-dot-128.png" vertex="1" parent="1">
          <mxGeometry x="512.7246190543005" y="2240.3833452593917" width="29.541181422758527" height="29.541181422758527" as="geometry" />
        </mxCell>
        <mxCell id="Rs6iVt6dE6o_c42k3rnb-19" value="&lt;font color=&quot;#ffffff&quot;&gt;&lt;span style=&quot;font-size: 13px;&quot;&gt;&lt;b&gt;8&lt;/b&gt;&lt;/span&gt;&lt;/font&gt;" style="text;html=1;align=center;verticalAlign=middle;resizable=0;points=[];autosize=1;strokeColor=none;fillColor=none;" vertex="1" parent="1">
          <mxGeometry x="510.86226462747305" y="2239.99801431127" width="30" height="30" as="geometry" />
        </mxCell>
        <mxCell id="Rs6iVt6dE6o_c42k3rnb-20" value="" style="shape=image;html=1;verticalAlign=top;verticalLabelPosition=bottom;labelBackgroundColor=#ffffff;imageAspect=0;aspect=fixed;image=https://cdn4.iconfinder.com/data/icons/essential-app-2/16/record-round-circle-dot-128.png" vertex="1" parent="1">
          <mxGeometry x="15.654619054300557" y="1580.3933452593917" width="29.541181422758527" height="29.541181422758527" as="geometry" />
        </mxCell>
        <mxCell id="Rs6iVt6dE6o_c42k3rnb-21" value="&lt;font color=&quot;#ffffff&quot;&gt;&lt;span style=&quot;font-size: 13px;&quot;&gt;&lt;b&gt;4&lt;/b&gt;&lt;/span&gt;&lt;/font&gt;" style="text;html=1;align=center;verticalAlign=middle;resizable=0;points=[];autosize=1;strokeColor=none;fillColor=none;" vertex="1" parent="1">
          <mxGeometry x="13.792264627473006" y="1580.0080143112698" width="30" height="30" as="geometry" />
        </mxCell>
      </root>
    </mxGraphModel>
  </diagram>
  <diagram id="V-KYpZ-fuQ6jpwsirHBr" name="Page-2">
    <mxGraphModel dx="1260" dy="608" grid="1" gridSize="10" guides="1" tooltips="1" connect="1" arrows="1" fold="1" page="1" pageScale="1" pageWidth="850" pageHeight="1100" math="0" shadow="0">
      <root>
        <mxCell id="0" />
        <mxCell id="1" parent="0" />
      </root>
    </mxGraphModel>
  </diagram>
</mxfile>
